<svg version="1.1" viewBox="0 0 32 32" xmlns="http://www.w3.org/2000/svg">
 <rect x="1" y="1" width="30" height="30" rx="8" ry="8" fill="#2db0ff"/>
 <g fill="#ffffff" stroke-width="1.0001">
  <rect x="5" y="5" width="10" height="10" rx="4" ry="4"/>
  <path d="m9 17c-2.216 0-4 1.784-4 4v2c0 2.216 1.784 4 4 4h2c2.216 0 4-1.784 4-4v-2c0-2.216-1.784-4-4-4h-2zm0 1h2c1.662 0 3 1.338 3 3v2c0 1.662-1.338 3-3 3h-2c-1.662 0-3-1.338-3-3v-2c0-1.662 1.338-3 3-3z" opacity=".45"/>
  <path d="m21 17c-2.216 0-4 1.784-4 4v2c0 2.216 1.784 4 4 4h2c2.216 0 4-1.784 4-4v-2c0-2.216-1.784-4-4-4zm0 1h2c1.662 0 3 1.338 3 3v2c0 1.662-1.338 3-3 3h-2c-1.662 0-3-1.338-3-3v-2c0-1.662 1.338-3 3-3z" opacity=".45"/>
  <path d="m21 5c-2.216 0-4 1.784-4 4v2c0 2.216 1.784 4 4 4h2c2.216 0 4-1.784 4-4v-2c0-2.216-1.784-4-4-4zm0 1h2c1.662 0 3 1.338 3 3v2c0 1.662-1.338 3-3 3h-2c-1.662 0-3-1.338-3-3v-2c0-1.662 1.338-3 3-3z" opacity=".45"/>
 </g>
</svg>
