<svg width="32" height="32" version="1.1" xmlns="http://www.w3.org/2000/svg">
 <rect x="1" y="1" width="30" height="30" rx="8" ry="8" fill="#4d4d4d"/>
 <g stroke-width=".39286">
  <path d="m6 6.1429v17.286c0 1.5714 1.5714 1.5714 1.5714 1.5714h20.429zm3.9286 8.5416 7.4505 6.387h-7.4505z" fill="#ffffff" opacity=".35"/>
  <path d="m15.472 13.607c0.41247 0.01493 0.78704 0.24462 0.98752 0.60539l5.8929 10.607 0.14732 2.9303-2.2098-1.784-4.8616-8.7518v-3.6025c0.01493 0 0.02876-0.0047 0.04376-0.0047z" fill="#e6e6e6" fill-rule="evenodd"/>
  <path d="m15.385 13.607c-0.41247 0.01493-0.78704 0.24462-0.98752 0.6054l-5.8929 10.607-0.14732 2.9303 2.2098-1.784 0.82868-1.4893a9.4286 9.4286 0 0 0 4.0329 0.91615 9.4286 9.4286 0 0 0 9.4286-9.4286h-2.3571a7.0714 7.0714 0 0 1-7.0714 7.0714 7.0714 7.0714 0 0 1-2.8843-0.62841l2.8843-5.1931v-3.6025c-0.01493 0-0.02876-0.0047-0.04376-0.0047z" fill="#ffffff"/>
  <path d="m13.857 8.8928v2.3571h-0.78572c-1.5714 0-1.5714 1.5714-1.5714 1.5714v3.9286s1.9643 1.9643 2.75 2.75c0.70651 0.54994 1.8796 0.59407 2.4868-0.1296l2.6204-2.6204v-3.9286s0-1.5714-1.5714-1.5714h-0.78571v-2.3571z" fill="#cccccc"/>
  <circle cx="15.429" cy="14.393" r="1.5714" fill="#ffffff"/>
 </g>
</svg>
