<svg width="32" height="32" version="1.1" xmlns="http://www.w3.org/2000/svg" xmlns:xlink="http://www.w3.org/1999/xlink">
 <rect x="1" y="1" width="30" height="30" rx="8" ry="8" fill="#158eff"/>
 <circle cx="16.075" cy="16.058" r="15.646" fill="none"/>
 <g opacity=".9">
  <g transform="matrix(.04926 0 0 .04926 -13.438 -2.945)">
   <path id="b" d="M663.85 587.03c-2.694 3.078-6.18 5.955-9.466 8.608-21.232-21.943-46.16-46.262-69.853-46.262-14.69 0-25.27 11.182-37.613 19.072-17.13 10.949-40.626 17.115-60.762 9.079-10.83-4.112-21.323-10.17-29.165-20.01 15.848 10.93 39.58 12.4 57.472 4.977 19.776-8.204 39.904-19.098 62.44-19.098 33.223 0 64.797 22.472 86.947 43.634zm-245.54-69.014c21.996 25.038 57.871 16.983 87.233 23.236 4.087.87 7.927 2.228 12.314 1.554-3.491-2.213-8.118-2.463-12.151-3.982-22.783-8.583-26.335-32.966-38.803-49.748 15.925 10.587 29.119 25.082 44.011 38.704 10.365 9.48 23.278 13.536 36.67 16.261-3.218 1.176-7.428.899-10.894 1.758-24.056 5.968-50.727 15.388-76.324 6.941-16.519-5.451-33.709-18.36-42.057-34.725zm-35.258-57.95c13.72 31.063 48.191 33.496 71.111 52.552 4.358 3.624 8.678 6.958 13.466 9.191l.247-.25c-5.289-4.786-11.013-10.49-15.109-16.441-13.1-19.034-8.74-45.051-18.84-65.231 9.176 10.988 17.783 22.303 23.067 34.883 8.503 20.245 11.392 43.342 30.463 58.726-20.64-6.81-44.452-5.454-63.039-17.63-19.538-12.796-37.645-32.994-41.366-55.801zm-14.697-62.846c1.984 27.368 31.121 41.987 45.014 64.484 2.967 4.805 6.02 9.765 10.33 13.645-.672-2.914-3.07-5.496-4.389-8.354-4.456-9.653-6.473-20.824-5.36-32.31 1.353-13.975 7.179-26.953 4.943-41.655 11.975 25.848 8.112 58.162 15.033 86.11 1.53 6.182 5.296 11.593 7.616 17.449-11.766-8.951-27.185-16.896-40.1-27.076-12.49-9.845-23.331-21.384-28.967-36.398-4.06-10.82-5.117-23.724-4.12-35.896zm.814-50.425c1.405-6.108 2.48-12.43 5.138-18.033-5.031 25.817 12.144 44.466 18.007 66.802 2.21 8.417 2.966 17.361 6.37 25.215.318.17.593-.16.789-.414-8.474-23.771 3.948-45.74 16.049-64.477 3.18-4.925 4.712-10.66 6.197-16.458 1.308 10.76-.982 23.217-2.973 34.322-2.563 14.296-7.449 27.695-11.333 41.488-2.557 8.617-1.883 18.342-.57 27.37l-1.234-.984c-9.01-16.632-26.784-29.625-32.152-47.777-4.29-14.508-7.258-31.27-4.288-47.053zm9.502-27.772c0-19.537 7.607-35.474 19.018-50.024.332-.165.567-.497.995-.42-12.562 19.109-1.128 43.229-2.743 64.902l-1.657 22.244c.246.162.246.829.83.574.742-2.48.967-5.118 1.4-7.679 3.023-17.933 18.77-30.414 32.124-43.075a28.529 28.529 0 0 0 6.961-10.34c-1.11 8.932-3.602 18.09-7.612 26.206-10.279 20.81-30.132 37.608-33.703 61.258-1.731-22.665-15.613-39.514-15.613-63.646zm33.111-65.903c6.317-7.003 13.396-12.459 21.824-14.617-16.366 11.254-15.478 31.366-20.488 48.183-1.832 6.149-4.525 11.91-5.956 18.265l.414.331c2.723-7.184 7.395-14.09 13.481-19.833 11.511-10.86 28.818-17.434 34.514-33.32-.26 22.076-19.079 38.857-36.266 51.84-7.709 5.823-14.26 13.641-18.258 21.837.668-6.1.971-11.174.427-17.128-1.765-19.285-2.909-40.905 10.308-55.558zm66.428-37.116c-12.146 10.658-20.25 24.376-29.582 36.708-7.76 10.257-18.409 16.612-27.567 25.219 4.944-10.256 5.856-22.008 12.134-31.93 10.735-16.966 28.477-23.552 45.015-29.997z" fill="#fff"/>
   <use transform="matrix(-1 0 0 1 1202.2 0)" width="100%" height="100%" xlink:href="#b"/>
  </g>
  <g transform="matrix(.04926 0 0 .04926 -13.384 -2.945)" fill="#fff">
   <path d="m748.35 436.68-3.588-1.958a161.5 161.5 0 0 1-29.726 42.309l-20.959-20.96c10.268-10.58 18.547-22.59 24.646-35.57l-3.57-1.953a127.56 127.56 0 0 1-23.925 34.672l-18.986-18.986a100.06 100.06 0 0 0 19.286-28.589l-3.543-1.933a96.54 96.54 0 0 1-18.584 27.687l-20.982-20.982a66.27 66.27 0 0 0 13.406-20.997l-3.544-1.933a62.703 62.703 0 0 1-12.685 20.104l-19.044-19.041a35.338 35.338 0 0 0 9.017-21.765h26.956a62.14 62.14 0 0 1-4.244 20.703l3.544 1.933a66.37 66.37 0 0 0 4.669-22.637h29.715a95.622 95.622 0 0 1-8.225 36.929l3.543 1.933c5.403-12.1 8.39-25.25 8.654-38.864h26.905a126.28 126.28 0 0 1-11.935 51.766l3.57 1.953c7.813-16.624 12.059-34.845 12.339-53.718h29.713c-0.297 24.318-6.026 47.344-16.012 67.94l3.589 1.956c10.743-22.127 16.446-46.562 16.446-71.883 0-21.533-4.126-42.423-11.964-61.803l-3.682 1.583c7.383 18.288 11.384 37.955 11.63 58.234h-29.717c-0.24-16.178-3.42-31.866-9.236-46.49l-3.654 1.566c5.61 14.138 8.68 29.294 8.917 44.924h-26.908a100.02 100.02 0 0 0-6.746-34.29l-3.655 1.57a96.082 96.082 0 0 1 6.433 32.72h-29.718a66.45 66.45 0 0 0-4.027-20.982l-3.654 1.568a62.433 62.433 0 0 1 3.712 19.414h-26.957a35.334 35.334 0 0 0-9.017-21.765l19.063-19.06c5.887 6.26 10.34 13.53 13.2 21.412l3.653-1.568c-3.06-8.336-7.797-16.027-14.048-22.652l21.013-21.011c8.967 9.333 15.811 20.169 20.347 31.924l3.655-1.57c-4.736-12.21-11.865-23.468-21.193-33.162l19.026-19.03c11.783 12.153 20.836 26.254 26.903 41.559l3.654-1.566c-6.268-15.762-15.605-30.285-27.749-42.796l21.01-21.014c14.86 15.222 26.321 32.885 34.061 52.066l3.682-1.583c-8.178-20.239-20.405-38.828-36.306-54.728-15.959-15.96-34.63-28.215-54.957-36.395l-1.464 3.727c19.223 7.743 36.925 19.218 52.175 34.105l-21.01 21.013c-12.3-11.92-26.55-21.16-42.02-27.42l-1.45 3.696c14.96 6.069 28.748 15.006 40.663 26.564l-19.025 19.026c-9.249-8.898-19.914-15.807-31.475-20.537l-1.452 3.695c11.062 4.533 21.264 11.145 30.12 19.65l-21.01 21.01c-5.91-5.57-12.668-9.942-19.97-12.991l-1.453 3.698a62.362 62.362 0 0 1 18.615 12.103l-19.06 19.06c-6.058-5.426-13.651-8.571-21.77-9.014v-26.956a62.274 62.274 0 0 1 22.215 4.807l1.453-3.699c-7.424-3.101-15.418-4.838-23.667-5.08v-29.717c12.032 0.242 23.69 2.687 34.528 7.129l1.452-3.696c-11.294-4.62-23.446-7.16-35.98-7.402v-26.92c15.955 0.244 31.426 3.426 45.815 9.26l1.45-3.696c-14.847-6.014-30.803-9.29-47.267-9.534v-29.72c20.24 0.246 39.871 4.235 58.125 11.585l1.464-3.727c-19.314-7.777-40.126-11.874-61.572-11.874-26.495 0-51.529 6.321-73.729 17.477l1.811 3.466c21.482-10.764 45.25-16.628 69.933-16.926v29.72a130.2 130.2 0 0 0-56.117 13.608l1.805 3.456c16.713-8.273 35.162-12.806 54.312-13.098v26.91a99.56 99.56 0 0 0-41.81 10.081l1.816 3.472c12.34-5.99 25.91-9.3 39.995-9.584v29.719a66.129 66.129 0 0 0-26.195 6.24l1.825 3.486c7.565-3.516 15.82-5.493 24.37-5.758v26.96a35.496 35.496 0 0 0-11.846 2.737l1.822 3.483a31.63 31.63 0 0 1 12.009-2.35c8.467 0 16.426 3.297 22.414 9.283 5.987 5.987 9.284 13.95 9.284 22.417 0 17.478-14.217 31.702-31.698 31.702-8.47 0-16.43-3.298-22.417-9.285-5.988-5.99-9.285-13.95-9.285-22.417 0-8.468 3.297-16.43 9.285-22.417a31.674 31.674 0 0 1 10.407-6.933l-1.822-3.484a35.632 35.632 0 0 0-9.91 6.285l-19.071-19.071a62.443 62.443 0 0 1 16.456-11.153l-1.825-3.486a66.742 66.742 0 0 0-17.42 11.852l-21.032-21.033a96.267 96.267 0 0 1 24.653-17.194l-1.816-3.472a100.64 100.64 0 0 0-25.611 17.89l-19.06-19.058a127.08 127.08 0 0 1 32.168-22.725l-1.805-3.456a131.7 131.7 0 0 0-33.13 23.417l-21.054-21.055a160.95 160.95 0 0 1 40.368-28.763l-1.81-3.466c-32.088 16.125-58.21 42.403-74.118 74.617l3.453 1.863a160.96 160.96 0 0 1 29.3-41.445l21.056 21.056a131.53 131.53 0 0 0-24.141 34.556l3.44 1.857c5.87-12.263 13.74-23.621 23.464-33.648l19.06 19.059a100.56 100.56 0 0 0-18.75 27.436l3.447 1.86a96.044 96.044 0 0 1 18.079-26.521l21.032 21.033a66.726 66.726 0 0 0-12.863 19.673l3.475 1.88a62.34 62.34 0 0 1 12.173-18.768l19.071 19.07c-5.235 5.852-8.56 13.417-9.021 21.755h-26.962a62.413 62.413 0 0 1 4.739-22.059l-3.475-1.88a66.147 66.147 0 0 0-5.234 23.939h-29.715c0.268-13.373 3.267-26.286 8.7-38.124l-3.448-1.86a99.536 99.536 0 0 0-9.217 39.985h-26.912c0.282-18.584 4.545-36.512 12.358-52.832l-3.44-1.857c-7.994 16.6-12.59 35.129-12.883 54.689h-29.72c0.291-24.271 5.963-47.658 16.386-68.855l-3.453-1.863c-10.835 21.946-16.952 46.619-16.952 72.704 0 15.956 2.28 31.55 6.632 46.448l3.893-0.98a161.3 161.3 0 0 1-6.507-43.482h29.716a131.37 131.37 0 0 0 5.622 36.223l3.853-0.97c-3.446-11.298-5.32-23.137-5.506-35.253h26.908a100.49 100.49 0 0 0 4.752 28.662l3.86-0.974a96.35 96.35 0 0 1-4.64-27.688h29.715a66.558 66.558 0 0 0 3.824 20.412l3.862-0.975a62.595 62.595 0 0 1-3.717-19.436h26.959a35.334 35.334 0 0 0 9.014 21.765l-19.06 19.062c-5.881-6.258-10.333-13.519-13.197-21.39l-3.862 0.974c3.05 8.554 7.858 16.447 14.25 23.222l-21.01 21.012c-10.22-10.64-17.7-23.25-22.13-36.95l-3.86 0.974c4.6 14.386 12.444 27.62 23.191 38.79l-19.029 19.03c-14.23-14.674-24.508-32.179-30.315-51.232l-3.853 0.971c5.984 19.737 16.617 37.877 31.36 53.067l-21.011 21.012c-18.596-19.054-31.878-41.923-39.18-66.819l-3.892 0.98c7.659 26.21 21.79 50.237 41.638 70.08 13.44 13.445 28.804 24.266 45.459 32.24l1.972-3.498c-15.763-7.512-30.344-17.635-43.19-30.177l21.01-21.01a131.1 131.1 0 0 0 36.837 25.209l1.96-3.478c-13.156-5.97-25.324-14.202-35.985-24.537l19.027-19.028c8.917 8.58 19.157 15.305 30.245 20.016l1.959-3.472c-10.77-4.52-20.73-11.02-29.39-19.34l21.013-21.012c6.752 6.37 14.612 11.167 23.133 14.22l1.985-3.517a62.285 62.285 0 0 1-22.31-13.51l19.061-19.062c6.054 5.43 13.646 8.573 21.765 9.018v26.959a62.55 62.55 0 0 1-18.516-3.404l-1.985 3.517a66.404 66.404 0 0 0 20.502 3.856v29.713c-12.296-0.246-24.21-2.792-35.25-7.423l-1.958 3.472c11.64 4.948 24.215 7.672 37.208 7.923v26.909c-17.706-0.273-34.806-4.165-50.494-11.283l-1.961 3.477c16.285 7.442 34.056 11.501 52.455 11.776v29.712c-23.602-0.283-46.38-5.634-67.111-15.51l-1.972 3.498c21.909 10.487 46.06 16.031 71.069 16.031 26.234 0 51.51-6.13 74.259-17.64l-1.88-3.643c-21.214 10.744-45.097 16.954-70.396 17.265v-29.713c20.059-0.297 39.368-5.105 56.814-13.88l-1.855-3.596a126.23 126.23 0 0 1-54.959 13.503v-26.909c15.05-0.29 29.535-3.9 42.657-10.446l-1.843-3.578a95.58 95.58 0 0 1-40.813 10.053v-29.713c9.584-0.28 18.812-2.587 27.21-6.698l-1.832-3.557a62.204 62.204 0 0 1-25.38 6.284v-26.955a35.326 35.326 0 0 0 21.77-9.018l19.04 19.043a62.85 62.85 0 0 1-15.43 10.647l1.832 3.557a66.595 66.595 0 0 0 16.426-11.377l20.978 20.979a96.468 96.468 0 0 1-23.802 16.756l1.843 3.578a100.27 100.27 0 0 0 24.8-17.492l18.985 18.984a127.52 127.52 0 0 1-31.482 22.361l1.855 3.596a131.09 131.09 0 0 0 32.476-23.106l20.959 20.959c-11.693 11.413-25.137 21.024-39.851 28.473l1.879 3.643a165.13 165.13 0 0 0 42.27-30.63c13.222-13.219 23.89-28.305 31.825-44.645z"/>
   <path d="m629.81 211.09c-7.0282 1.1536 0.54909 4.0284 0 0zm7.6127 4.0839c-6.5588 0.93229 0.97396 4.2993 0 0zm-11.974 2.8944c-5.074 1.5361-16.16 5.5937-4.6399 4.6906 3.7899-0.0557 13.711 0.20256 11.618-4.1355-2.3603 0.2743-5.0206 0.45254-6.9783-0.55509zm-14.313 3.4098c-2.9447 1.6108-12.656 4.4565-4.2336 4.5999 2.5983 0.55917 10.369 6.5724 9.9035 3.1714-3.5683-1.6773-1.3042-7.4202-5.6698-7.7713zm66.135 20.38c-9.7128 0.74602 11.435 12.729 2.963 1.9711l-1.9321-1.6143zm-77.237 0.95158c-5.6922 10.092 12 5.6838 0.96938 0.71364zm25.098 1.0705c-2.5437 3.977 3.1372 0.66716 0 0zm43.852 1.5463c-3.9697 2.0854-19.86 4.1523-11.459 8.6039 4.519 5.2439 6.4002 11.715 7.4323 17.83-1.8554 12.154 15.632-1.0224 13.066 11.652-3.0922 5.2364 5.557 13.442 9.5555 10.168 0.6371 7.6117 8.598 7.2463 13.589 10.631 4.4006 4.0756 6.4603 10.995 11.673 11.521 7.9611-3.6545 11.6-10.406 4.356-16.759-2.7886-5.796-6.6585-8.3809-10.603-12.468-1.6168-4.3199-3.7811-5.2006-7.5669-8.3425-5.7946-2.4544-0.44366-10.67-5.259-10.602-0.84436-3.4588-5.2111-6.2415-6.6648-11.408-3.3341-0.40039-3.3879-5.8973-8.1196-5.5933-1.7316-4.5022-6.5805-2.7201-10-5.231zm-40.799 0.11895c-3.493 5.1865 9.8545 4.5369 0.99124 0.60607l-0.91194-0.52677zm-1.6653 1.5463c-1.5142-1.3803-0.59299 0.51945 0 0zm-5.5112-0.47579c1.4696 5.1927 5.9548 0.67995 0 0zm-38.46 4.2425c-4.9154 2.6156 9.9175 4.7572 2.1807 0.31719zm42.227 1.6653c-0.76138 3.6934 4.5811 0.77429 0 0zm8.1281 7.8902c0.19426 6.0502 8.0696 6.5547 11.657 10.983-2.0151-5.314-8.5804-7.6532-9.9916-10.785zm-91.392 1.2291c-2.5191 1.8137 3.1103 2.1624 0 0zm107.69 11.141c-7.136-0.70812-2.5854 14.516 0.65423 2.7386 5.5492 3.0333 3.447-3.6761-0.65423-2.7386zm-77.475 20.34c-2.2867 2.101 3.0586 1.7438 0 0zm-3.7667 0.99124c0.27407 3.633 5.5097 0.46295 0 0zm26.05 28.944c-0.49336 3.0171 3.6112-0.64913 0 0zm8.5642 0.1586c-0.78173 2.9721 3.1966-0.14966 0 0zm2.1411 0.51544c-0.78658 3.0046 3.2448-0.22225 0 0zm-13.441 0.31719c-0.86993 3.0496 3.1905-0.16478 0 0zm15.701 1.0309c-0.49336 3.0171 3.6112-0.64913 0 0zm-16.811 0.19824c-1.189 2.8329 3.6568 0.24037 0 0zm25.098 0.3172c-5.0681 2.3996-6.2674 9.6717-13.13 4.0576-2.6767-1.7652-11.337 3.1458-3.7039 3.2141 5.44 5.3273-2.9173 2.198-2.9115 4.1268 0.72209 3.8451 4.0755 6.2942 7.9695 6.1265 2.4187 0.94742 9.7057 4.5997 6.6611 7.9299-5.7878 5.6179 5.2695-4.212 4.2845 1.8069 0.7137 3.3082 0.76159 9.3614-5.2043 10.217 3.5261-0.0998 7.6247 0.0636 7.7395 5.481 0.21309 5.8161 4.03 5.8804 0.99123 12.193-1.9212 5.0504-11.957-0.78488-12.237 7.2739-0.71689 2.4317-6.1022 11.09 0.42114 10.449 7.8325 4.427 0.84918-5.091 4.4265-8.3237 2.4738-1.4254 2.8939 7.2166 3.6654 7.0038-1.0354 1.4928-3.0293 7.2874-7.4877 3.6076-4.3482 0.38329-2.3272 10.269-9.4064 7.466-0.22672 2.6172 2.5667 8.7215-5.3557 6.729-1.3217 3.4526-2.1069 8.2658 2.3208 8.1971 5.9151 1.1524 6.9787-8.349 13.185-7.6704 3.6532-1.051 9.1792 6.3162 8.7515 1.0731-9.1293-3.7652 1.4111-5.8509 3.2226 1.623 2.8439 1.9213 10.388 2.8013 4.2042-0.81868-4.5784-3.8245 1.4146-3.3522 0.94337-8.0736-3.398-5.0658 4.2719-1.9093 4.289-6.452 5.875 0.28934 8.8135 5.4677 0.409 5.663-5.6134 0.80303-4.1803 12.672 1.4771 5.5605 8.0484-4.419 4.3668 10.279-2.1623 7.491-6.2618-0.55352-7.2944 8.6386-13.165 4.0839-5.2428 0.22462-5.5012-6.8919-13.481-2.8944-3.5558 2.953-7.3557 3.4617-10.63 3.5626-4.799 2.4383-10.593 5.9202-13.286 10.246 0.68043 4.4969-6.3884 4.8442-2.2709 8.3265 3.4181 3.0625 4.7258 9.0584 9.2561 11.606 7.9953 0.72936 15.027 1.3402 22.6 0.87228 7.2464-1.4514 6.169 8.6783 12.892 8.5023 4.0865 3.4452 2.2518 8.6207 3.3024 13.285 1.2309 4.5184 7.746 4.5105 10.13 9.4142 4.3842 1.1928 6.5134 6.4907 10.221 4.5216 4.7914-0.31667 8.6913-3.3687 12.355-6.6039 4.476-3.8118 8.952-7.6237 13.428-11.435-4.2534-3.7893 2.2743-10.22-1.7887-13.438 2.4693-1.8255 9.4661-7.1037 4.3774-10.389-7.4338-3.7346-10.145-11.335-2.9086-16.514-0.81916-3.9355-0.70578-20.395-6.0012-12.714-2.271 10.344-14.395 6.184-20.776 2.9443-6.9755-0.44282-8.3718-5.3744-3.4508-4.247 5.6641 2.9825 11.341 3.7719 17.402 5.1641 5.5584 1.6198 3.6825-5.8714 5.6515-8.8131 2.454-2.9612 1.9867-7.7451 2.0221-12.331-5.4558-6.209-5.7584 3.9926-10.826 4.5248-7.7326-0.23606 2.2054-2.7172 2.7455-6.3033 5.8648-4.2945 8.1258-11.428 15.087-12.729 2.5409-1.7482 12.101-1.0287 15.911-5.0393-6.9159-4.9732-11.986-12.35-13.914-19.794 4.8779-5.0553 6.4478-7.34 7.9264-11.608 9.2255 5.3697 15.496-17.851 7.1765-7.573-2.1566 9.0691-10.817 2.0288-5.0247-2.716 0.86853-12.226-12.342 2.2533-11.43-2.5177-0.0342-3.0175-5.5842-5.8758-8.4685-9.379-6.5689-3.0061-11.647-1.256-12.686 4.0932-3.4511-3.8056-2.5922 9.142-5.6702-1.7326-0.61961-4.3079 9.3973-6.2772 1.065-6.3689-5.0692 2.6889-6.3148 5.4499-9.4946 0.71323-8.9375 6.0555-7.9685-6.2441-12.31 2.7535 0.95553 3.8838 3.0751 6.8722-5.1298 6.1935-6.1753-4.8525-6.0471-3.7535-2.8548-11.617zm-25.574 1.0705c-3.1941 0.17968 1.0099 2.6393 0 0zm19.745 0c-3.0417-0.31584 0.70254 3.2047 0 0zm-22.243 1.7842c-2.7965 3.5632-3.5845 4.8128-6.6541 8.3266-3.4727 3.3323-10.02 1.2073-13.765 1.2685-6.0304 2.7862-10.291-7.9542-17.084-5.6571-4.2403 5.5498-12.181 1.1282-16.477 6.3154 0.28884-1.113 7.987 1.8894-0.44569 3.4916-5.3947 0.85798-9.6671 3.4241-11.234 9.6876-1.5301 3.7856-1.643 7.7554-4.448 11.159-2.7647 3.056-2.4069 8.4033-5.1868 10.609-1.8973 4.2978 3.5289 8.8362-2.9337 9.2071-6.0088-7.6547-14.074-2.504-17.923 4.8745-0.64559 3.317-2.5515 8.3092-0.59389 12.087-1.8853 4.4738-7.3671 3.5942-10.943 5.5509-3.0402-2.9072-8.46 0.2863-11.498-2.379-1.9757-6.7052-8.3638 7.1478-10.305 0.69015 8.9179-3.058-5.3504-3.4141-6.1495-0.5418-1.9223 4.2179-0.88603 10.304 0.15859 14.046 0.25842 2.8718 1.8588 11.427 5.3143 8.2978-2.6705-12.058 5.9385 1.4906 9.124-4.06 6.6926 6.208 10.846 10.22 17.308 16.786 4.6555 0.24452 9.9274 7.3728 16.001 9.7325 6.0903-0.23406 10.886 0.98774 15.962 4.1556 0.46578 5.7281 10.018 4.0955 13.289 1.7708 3.5491-3.4108 16.527 1.771 10.786-7.501 2.5249-7.1236-4.7182-10.365-9.1133-15.034-6.9794-4.0603 0.43973-12.221-6.7178-18.019-1.1059-6.1498 3.4404-11.805-2.6428-14.515 0.74744-5.4388-1.5457-9.8482-5.0172-13.859-1.717-2.9887-4.6132-11.841 1.3667-11.131 3.3331-2.9929 2.4969-7.5901 8.2654-8.0343 0.22818-3.8523-5.233-13.682 5.7175-10.909 4.6613 1.6469 2.4762 14.144 0.17188 18.111-1.6931 4.0523 1.5677 5.1348-1.4548 6.3404 3.8374 2.993 7.8037-9.6551 12.289-0.54549 9.5199 0.10697 10.794 4.8881 15.771 10.065 1.8328-10.009 1.5267 3.8991 4.297 4.7662 2.7163-6.2507 8.3481-11.226 8.6339-18.942 5.4438 2.092-2.4475-8.5413-5.6354-6.7588 0.98346 4.4171-8.9323 4.6726-3.8063 1.3481 0.89453-3.9546 6.8047-6.7233 9.4476-5.3982 0.76053 3.7905-0.74492 7.1385 5.5256 3.47 2.8104-1.5549 4.2855-6.0874 6.7494-10.964 4.8823-4.9385-7.1186 0.29749-0.47062-6.2781 1.6116-2.6314 6.1022-2.9029 9.2534-4.6561 3.9169-2.8795 2.6854-7.0737 0.75737-9.4928 3.6477-6.5699-4.2118-2.5818-5.1735-6.4893 1.7858-0.48139 0.0543-0.69151-0.51544-0.99123zm49.681 65.223c-0.50349 2.0972 13.896 6.3944 4.8372 6.4628-2.532 1.4014-9.9646-2.6559-4.8372-6.4628zm100.07 2.0221c-7.4708 2.9186 5.0388 0.86356 0 0zm11.102 14.829c-2.7044 1.431 1.6542 4.0583 0 0zm-0.95159 1.9032c-3.6784 0.55084 2.7456 4.5407 0 0zm-5.5906 4.1235c0.18766 5.1847 2.5424-0.66243 0 0zm-0.55509 1.8635c-5.214 3.2073 2.1655 4.6586 0 0zm-283.93 11.26c0.60825 5.3641 4.5297 2.5662 0.0103 0zm242.85 0.83263c-1.0685 4.1634 4.4786-0.28221 0 0zm-1.3481 3.5684c-1.3364 3.2224 3.6324 4.0955 0 0zm-233.18 3.3305c-0.17577 3.484 7.619 12.06 4.4804 4.4011-2.1924-1.2944-1.2108-4.0734-4.4804-4.4011zm110.23 29.142c-3.8309 2.7139 2.8784 2.9236 0 0zm11.855 12.093c-1.5693 3.2304 5.4355 2.068 0 0zm-84.175 8.5642c1.1648 5.8827 8.1616 5.1586 1.9825 0.3172-0.66082-0.10573-1.3216-0.21147-1.9825-0.3172z"/>
   <path d="m527.86 370.95-2.993-.337.168 1.18h.83c1.328 2.363.166 8.098.166 8.098s-1.993.167-2.327-.843c-.33-1.012-1.164 2.194-.5 2.7.665.504 2.994 0 3.16 1.857.164 1.854 1.496-1.182 1.496-1.182V370.95z"/>
   <path d="m528.52 389.844.337-1.519-1.167-.5.164-2.53 1.003-.174.165-1.185-2.5 1.694-1.66-1.01v4.047l2.663 3.538zM529.186 394.233l-1.16.167-.172 1.352 1.332.167zM527.69 402.836l-1.41.167v1.185l1.41-.167zM529.65 398.83c.39 0 .703-.319.703-.713 0-.398-.314-.717-.703-.717s-.705.318-.705.717c0 .394.316.713.705.713z"/>
   <circle transform="matrix(.78344 0 0 .79511 198.88 154.38)" cx="423.68" cy="311" r=".9"/>
   <circle transform="matrix(.78344 0 0 .79511 198.88 154.38)" cx="423.73" cy="286.76" r=".9"/>
   <path d="m577.728 375.508.995-.509.172-1.685.658-1.185 1.003-1.177.33-1.352 1.66-1.01 1.998-.341.83-1.01.337-2.02.118-1.518.713-1.018 1.99-.843v-3.204h-.995l-.165-1.185-1.833-.167-.33.843h-.83l-.172 1.352h1.003l.164 1.01-.665.675-.33.843-1.331.342-2.993 2.87-.165 1.344-.83 1.185-.995 2.528-3.494.167-.666 3.038.493 2.528 2.993 1.185zM592.02 368.93v-2.362l-.335-2.194-2.49-1.18-1.828 1.687-.334 2.363v1.517l-1.662.338-.335 4.555-1.328.507.167 1.687-1.828.506-1.828.506-.333 2.193-1.328.843-.669 2.025-.83 4.893s1.498 2.868 2.328 1.518c.832-1.349 2.16-1.518 2.16-1.518l.5-1.182 4.488.169c.333-1.858 2.494-1.18 2.494-.337s1.663.167 1.663.167l1.162-1.855h1.827l.167-2.023.832-.507v-3.038c2.661-.843 2.326-3.373 2.326-3.373l.669-.843-.334-1.18c-1.332-.507-.668-1.69.164-1.352.834.337-1.163-1.519-1.163-1.519-.997.846-1.826-1.011-1.826-1.011h-2.496zM594.68 389.34c-.165 2.024-2.66 2.7-2.66 2.7l-1.828-.506-.997-.844-.167-2.363 1.495-.167.333 1.013 3.824.167zM603.66 378.55c.36 1.471.33-2.365.995-2.194.664.168.168-2.36.168-2.36l-2.993 2.19c1.496.17 1.66 1.69 1.83 2.364zM612.47 369.77c.664 1.52.5 3.713 2.99 5.4.842.569-.499 1.688-1.332 1.18-.83-.505-3.154-4.219-3.154-4.219v-2.192c.498-1.349 1.208-.823 1.496-.169zM614.628 420.551l-.995-.342-1.16.85.494.502.494.843zM608.31 418.36v2.03M633.681 415.073l-.532-.851-1.324.835.525.859zM680.46 451.09l1.498.673.164 2.868c1.997 2.024 8.48.338 8.48-.169s-.335-6.241-.335-6.241l-.833-.845-.164-4.22c.664-2.193-3.16-5.4-3.491-4.72-.333.672-2.494.164-2.494.841 0 .673-1.328 4.048-.664 5.23.664 1.182-.5 1.182-.665 2.362-.165 1.18-1.829 3.208-1.496 4.221zM676.8 444.34c-.315 1.278-1.493 2.024-2.158 1.517-.669-.507.827.842 1.162 1.52.332.673 1.328.673 1.663 0 .33-.679.165-2.193.5-2.868.33-.676-1-.844-1.167-.17zM669.07 413.39h1.162v3.207h-1.162zM686.28 380.91c-.725-.983 3.324-2.7 3.989-.674.664 2.022 0 1.687-.665 1.518-.667-.17-2.326.505-3.324-.844zM689.682 359.304l1.825.334.18-.994-1.833-.334zM685.2 360.051l-1.237.7-1.082-.684-.525.85 1.332.844.251.159.25-.144 1.004-.564.125.31.924-.374-.337-.842-.211-.533zM691.43 320.17h-2.495s.832.337-1.493-1.857c-2.331-2.192-3.824.507-3.824.507l-2.66.337v2.7l-1.332.505.168 1.688 1.828-.168s0 2.024.5 1.181c.5-.844 4.655.167 4.321 2.193-.135.832 4.158 3.035 3.66 5.734 2.16.339 1.661 2.533 1.661 2.533l2.825.337.833-1.687.83.169v-1.013l-1.832-.506-.33-5.4-1.163-.843.331-1.35-1.328-.507.665-2.192-1.165-2.361zM698.74 337.38l-1.329-.167-2.996.506-1.659 3.205s.83.506 1.493 1.687c.665 1.182.999 8.097-.996 9.28-1.993 1.181.168.504.168.504l-.335 3.712c.5 1.688 1.329.846 1.828 0 .503-.84 1.002-1.01 1.666-1.854.665-.845 1.661-2.362 1.828-3.544.165-1.18.997-3.035.497-3.542-.497-.506.5-2.867.5-2.867s.665-1.352 0-2.7c-.664-1.351.166-2.87.665-3.545l-1.33-.675zM700.75 344.263l.17-1.35.992.128-.17 1.35zM700.69 348.925l-.89-.453.499-1.011.89.452zM699.24 335.53l-.667-1.52s0-1.347.332-2.025c.335-.674-.664-1.347-1.161-1.517-.5-.17-.332-1.518-.5-2.194-.165-.674-1.327-1.18-1.327-1.18s-.336-2.53-.336-3.036c0-.506-1.495-1.18-.996-1.688.5-.506.833-1.18 1.332-1.519.499-.337-.5-2.7.33-2.193.832.507.832 1.35 1.165 2.025.332.674-.167 3.037.665 3.544.83.504-.168 2.19 1.163 2.19 1.329 0 .5 3.208.5 3.208s-.335 2.36.495 2.53c.833.169.335 4.218.335 4.218l-1.33-.843zM688.44 308.19c.497.674 1.495 1.18 1.495 1.857 0 .675-.332 1.18.667 1.349.995.168 1.662-.17 1.993.674.333.843.333 2.193.168 2.868-.168.676.165 1.687.995 1.687.833 0 .998.17.998.676 0 .505.998-1.857.998-1.857-.833-.674-1.498-2.194-1.498-2.194s-.83-2.361-.83-2.698c0-.338-1.162-.676-1.66-.844-.5-.17-1.333-1.687-1.333-1.687l-1.993.17zM690.1 306.68c-.5-.677-.999-1.182-1.663-1.518-.663-.339-1.162-.676-1.83-.676-.664 0-1.327-.676-.998-1.518.335-.844-.5-1.181-.5-1.857 0-.674.5-.674 1.332-.168.833.507.665.674 1.333 1.52.663.842.994 1.686 1.658 1.517.668-.17 1.166 1.518 1.83 1.012.665-.506.5 1.18.5 1.18l-1.662.508zM670.65 325.74c.917.932-4.986.673-4.986 0 0-.674.5-3.035 1.993-2.532 1.497.508 1.661-3.035 1.661-3.035s-1.328.167-.164-.507c1.163-.674 0-1.687-.5-2.193-.498-.507-.997-1.35-.997-1.35h2.33c.998-.676 1.327-3.88 1.327-3.88 1.994.674 2.992-.676 2.992-.676s.337 1.012 1 1.858c.665.842-1.665 1.18-.833 1.687.834.506 1.164 2.023.834 2.528-.335.507-2.166.17-2.166-.505s-.664.844 0 1.688c.665.843-.83 2.023-1.163 2.023-.333 0-2.49.339-.664 1.35 1.827 1.012 3.826.508 3.826.508s1.495-.17 1.993.675c.5.843-.165 1.012-.996 1.012-.83 0-4.822-.339-4.822-.339s-1.163 1.182-.665 1.688zM660.01 327.26c.834-.169 2.824-.339 3.159.168.334.505-1.164 1.18-1.164 1.18l-1.995.338c-.664-.844-.83-1.517 0-1.686zM681.46 313.09c1.329-.674 4.154-.674 3.989-1.687-.165-1.012 1.661-1.35 1.661-1.35l.5 2.024 1.496 1.012.167 1.856s.497-.337-1.33.17c-1.83.506-.664 1.348-.664 1.348l-3.991.169-.5-1.688-1.328-1.854zM674.97 303.98c1.01 0-.33 3.88 2.326 3.543 2.66-.339.17 1.18 2.162 1.349 1.996.17 1.497-1.518 2.161-2.698.667-1.181.335-1.857-.83-2.194-1.166-.337-1.166-.337-1.496-1.689-.331-1.348-1.662-1.687-1.662-1.687l-.5-2.023-2.161 1.349-2.16 2.868c0 2.195 1.162 1.182 2.16 1.182zM679.37 318.236l.5-1.012.894.454-.5 1.012zM677.63 316.63h.998v1.181h-.998zM678.469 294.15l.167 1.518-.991.112-.168-1.516zM675.64 309.88h.998v.845h-.998zM673.022 309.863l-.098-1.009 1.663-.166.098 1.008zM659.308 326.088l-.914-.399.5-1.18.913.398zM654.09 323.017l-.097-1.005 1.665-.167.097 1.005zM621.593 322.872l.047 1.01 3.65-.167-.046-1.01zM619.145 324.17l-.331-1.517.975-.219.331 1.516zM618.446 325.215l-.315-.96.498-.169.315.961zM626.76 322.37l-.165 1.18 1.826.17s.83.676.83 1.18c0 .507 1.166 1.012 1.83 1.012.665 0 2.493-1.35 2.493-1.35s.832-2.362.168-2.194c-.667.168-1.996 1.181-2.16.168-.17-1.012-2.161-.506-2.161-.506l-2.661.34zM635.07 320.51c0 .505-.33 1.18.664 1.35 1.002.167 2.83-.674 2.995.337.168 1.012.168 1.689 1.496 2.196 1.328.504 2.162.674 3.159.674.995 0 3.16-.34 3.16-.34s2.351.368 2.824.845c1.828 1.855 2.99 2.361 3.49 1.518.498-.844-.166-2.698-.331-3.373-.168-.677-2.496-3.882-3.327-3.207-.83.676-.996 0-2.493.505-1.496.506-4.655.17-4.82-.505-.165-.676-2.492-1.01-2.492-1.687 0-.676-1.661-1.518-1.497-.507.165 1.012-1.162 1.518-1.5 1.183-.33-.338-1.328 1.011-1.328 1.011zM673.31 298.91l1.166-3.71c-1.661-.338-1.331-2.192-1.331-2.192-.166-1.52-2.492-3.206-3.324-2.7-.83.505-.5-3.544-.5-3.544s1.498-1.01 2.162-.505c.665.505-5.65-8.435-6.982-7.592-1.329.844-4.319-.843-4.154-2.363.166-1.517-5.984-6.58-5.984-6.58s-1.996-1.347-2.327-.335c-.333 1.011-.997 1.687 0 2.191.996.508.83-.842 1.992.337 1.164 1.181 3.327 2.7 2.495 3.713-.832 1.014-1.83 1.35-1.83 1.35l1.166 1.35h1.828l.333 2.867s1.993 1.013 2.493 2.194c.499 1.18.499 1.856 0 2.532-.5.674-1.493 1.855-1.329 3.034.165 1.181 1.496 1.688 1.496 1.688l1.328.17 1 .506v2.195c1.327-.339 3.488 1.515 3.323 2.698-.165 1.18.33.505 1.993 1.687 1.664 1.18 1.166 1.35 2.329 2.194 1.164.84 2.162.335 2.657-1.185z"/>
   <path d="M600 403.43c.25-.25.5.76.998.634.495-.127.747.886.25.886-.5 0-.5.634-.5.887s0 .884-.375 1.264c-.374.38-.75.126-1.249-.126-.497-.253-.744-.253-1.37-.253-.622 0-.126 1.013-.126 1.013s-2.618-.127-2.119-.508c.5-.376.998-.506.626-.76-.376-.253 0-.504 0-1.01 0-.508 1.247-.253.87-.634-.371-.38.008-1.848.623-1.013l.376-.887c-.376-.379-.124-.507-.872-.756-.748-.253-.127-1.773-.127-1.773l.127-1.012c.249-1.263 2.741-1.391 2.867-.254.123 1.14 0 1.9 0 1.9l.75.251s-.127.763-.75.763c-.626 0 0 .375-.375.757l.376.63zM591.77 404.7c.375-.76 1.246-4.05 2.245-3.037.994 1.013 1.62 0 1.62 0s.499.508.249 1.52c-.25 1.01-.5 2.024-1.125 2.15-.621.127-1.121.507-1.866.634-.747.127-1.123-1.267-1.123-1.267z"/>
  </g>
 </g>
</svg>
