<svg width="32" height="32" version="1.1" viewBox="0 0 32 32" xmlns="http://www.w3.org/2000/svg">
 <filter id="e" x="0" y="0" width="1" height="1">
  <feColorMatrix in="SourceGraphic" values="0 0 0 0 1 0 0 0 0 1 0 0 0 0 1 0 0 0 1 0"/>
 </filter>
 <mask id="f">
  <g filter="url(#e)">
   <rect width="128" height="128" fill-opacity=".3"/>
  </g>
 </mask>
 <clipPath id="g">
  <rect width="192" height="152"/>
 </clipPath>
 <mask id="j">
  <g filter="url(#e)">
   <rect width="128" height="128" fill-opacity=".2"/>
  </g>
 </mask>
 <clipPath id="k">
  <rect width="192" height="152"/>
 </clipPath>
 <rect x="1" y="1" width="30" height="30" rx="8" ry="8" fill="#999999"/>
 <g transform="matrix(.2 0 0 .2 3.2 3.2)">
  <path d="m24 123v1h16v-1zm64 0v1h16v-1z" fill="#9a9996"/>
  <path d="m64 4c-2.9062 0.00391-5.418 2.0273-6.0391 4.8672l-0.003907-0.003907-33.957 114.14h16l24-101 24 101h16l-33.992-114.29-0.007812 0.011718c-0.67188-2.7734-3.1484-4.7227-6-4.7266zm0 5c1.6562 0 3 1.3438 3 3s-1.3438 3-3 3-3-1.3438-3-3 1.3438-3 3-3z" fill="#c0bfbc"/>
  <path d="m20 20h88c4.418 0 8 3.582 8 8v72c0 4.418-3.582 8-8 8h-88c-4.418 0-8-3.582-8-8v-72c0-4.418 3.582-8 8-8z" fill="#f6f5f4"/>
  <path d="m128 36-48.906 48.91c-2.1992 2.2852-5.8438 2.3242-8.0859 0.082032-2.2422-2.2422-2.2031-5.8867 0.082032-8.0859l41.133-41.133c4.8984-4.2031 11.777-3.7734 15.777 0.22656z" fill="#e4aa50"/>
  <path d="m90.684 59.586c5.1484 0.0039 7.6875 6.2578 3.9961 9.8477l-19.066 21.059c-2.7852 2.8281-7.3398 2.8477-10.145 0.03906-2.8047-2.8047-2.7852-7.3594 0.04297-10.141l21.059-19.066c1.0781-1.1133 2.5625-1.7383 4.1133-1.7383z" fill="#cfcecb"/>
  <path d="m72 68c8.8359 0 16 7.1641 16 16s-7.1641 16-16 16h-16v-16c0-8.8359 7.1641-16 16-16z" fill="#2d343e"/>
  <g transform="translate(-8,-16)" clip-path="url(#g)" mask="url(#f)">
   <path d="m72.004 95c0-1.6562 1.3398-2.9961 2.9961-2.9961s2.9961 1.3398 2.9961 2.9961-1.3398 2.9961-2.9961 2.9961-2.9961-1.3398-2.9961-2.9961z" fill="#ffffff"/>
  </g>
  <path d="m12 39.867v24c2.0039-1.125 4.4258-1.4883 6.6719-1.0039s4.3047 1.8125 5.668 3.6641c1.7617 2.3906 2.3125 5.4609 2.457 8.4297 0.14453 2.9648-0.06641 5.957 0.39453 8.8945 0.62891 3.9961 2.5391 7.793 5.4102 10.648 2.8672 2.8555 6.6875 4.7539 10.703 5.2695 2.6094 0.33594 5.2539 0.20312 7.8867 0.21094l4.8086 0.019531v-1.3281-0.67188c-2.0352-0.47656-4.0859-0.86328-6.1562-1.1602-1.3398-0.19141-2.6953-0.34375-3.9961-0.73438-1.3008-0.38672-2.5625-1.0234-3.4609-2.0391-0.75781-0.85547-1.2266-1.9414-1.4297-3.0664-0.20703-1.1211-0.15234-2.2812 0.046875-3.4023 0.40625-2.2461 1.3906-4.3398 2.1328-6.5 2.3984-6.9883 2.168-14.797-0.375-21.73-2.8047-7.6445-8.5469-14.312-16.012-17.562-4.6055-2.0078-9.7812-2.6875-14.75-1.9375z" fill="#a475c0"/>
  <path d="m46.906 96.375 4.2852 3.6055 18.809 0.019531-2-3c-3.1445-4.7148-9.1328-9-12-9 0 6-5.5625 9.0977-9.0938 8.375z" fill="#a475c0"/>
 </g>
</svg>
