<svg width="16" height="16" version="1.1" xmlns="http://www.w3.org/2000/svg">
 <defs>
  <style id="current-color-scheme" type="text/css">.ColorScheme-Text { color:#363636; }</style>
 </defs>
 <path d="m1 10v1h1v-1h-1zm13 0v1h1v-1h-1zm-13 2v1c0 0.23644 0.028841 0.46514 0.080078 0.68555l0.92773-0.53516c-0.0036841-0.049821-0.0078125-0.099597-0.0078125-0.15039v-1h-1zm13 0v0.80469l0.99805 0.26758c5.7e-4 -0.024184 0.001953-0.04794 0.001953-0.072266v-1h-1zm-0.16406 1.7949c-0.10064 0.23298-0.24528 0.4423-0.42188 0.61914l0.70703 0.70703c0.29827-0.29911 0.53423-0.66062 0.68555-1.0645l-0.9707-0.26172zm-11.498 0.32031-0.86523 0.5c0.23427 0.36686 0.5459 0.67745 0.91211 0.91211l0.50195-0.86719c-0.21643-0.14502-0.40371-0.32875-0.54883-0.54492zm10.18 0.81641c-0.16512 0.043953-0.33824 0.068359-0.51758 0.068359v1c0.46433 0 0.90181-0.10599 1.293-0.29297l-0.77539-0.77539zm-8.668 0.0625-0.53516 0.92578c0.22005 0.051295 0.44927 0.080078 0.68555 0.080078h1v-1h-1c-0.050719 0-0.10064-0.002177-0.15039-0.005859zm2.1504 0.005859v1h1v-1h-1zm2 0v1h1v-1h-1zm2 0v1h1v-1h-1z" fill="#363636"/>
 <path class="ColorScheme-Text" d="m4 0c-1.662 0-3 1.338-3 3v6h1v-6c0-1.108 0.892-2 2-2h6v2c0 1.108 0.892 2 2 2h2v4h1v-5l-4-4h-7z" color="#363636" fill="#363636"/>
</svg>
