<svg width="24" height="24" version="1.1" xmlns="http://www.w3.org/2000/svg">
 <defs>
  <style id="current-color-scheme" type="text/css">.ColorScheme-Text {
        color:#363636;
      }</style>
 </defs>
 <path class="ColorScheme-Text" d="m6 4c-1.662 0-3 1.338-3 3v8c0 1.662 1.338 3 3 3 0 1.108 0.892 2 2 2h8c1.108 0 2-0.892 2-2 1.662 0 3-1.338 3-3v-8c0-1.662-1.338-3-3-3zm0 1h12c1.108 0 2 0.892 2 2v8c0 1.108-0.892 2-2 2h-1v1c0 0.554-0.446 1-1 1h-8c-0.554 0-1-0.446-1-1v-1h-1c-1.108 0-2-0.892-2-2v-8c0-1.108 0.892-2 2-2zm3.5 3c-0.277 0-0.5 0.223-0.5 0.5v5c0 0.277 0.223 0.5 0.5 0.5s0.5-0.223 0.5-0.5v-5c0-0.277-0.223-0.5-0.5-0.5zm5 0c-0.277 0-0.5 0.223-0.5 0.5v5c0 0.277 0.223 0.5 0.5 0.5s0.5-0.223 0.5-0.5v-5c0-0.277-0.223-0.5-0.5-0.5z" fill="currentColor"/>
</svg>
