<svg width="16" height="16.02" version="1.1" xmlns="http://www.w3.org/2000/svg">
 <path d="m13 9.0195c-1.108 0-2 0.91125-2 2.0312v0.96875h-1v4h6v-4h-1v-0.96875c0-1.12-0.892-2.0312-2-2.0312zm0 1c0.554 0 1 0.443 1 1v1h-2v-1c0-0.557 0.446-1 1-1zm-2 2.9805h4v2h-4v-2z"/>
 <path d="m7.4805 1.002a0.50005 0.50005 0 0 0-0.18555 0.042969 0.50005 0.50005 0 0 0-0.29492 0.45508v5.2852l-2.7344-1.709a0.5 0.5 0 0 0-0.68945 0.1582 0.5 0.5 0 0 0 0.1582 0.68945l3.2656 2.041v0.070312l-3.2656 2.041a0.5 0.5 0 0 0-0.1582 0.68945 0.5 0.5 0 0 0 0.68945 0.1582l2.7344-1.709v5.2852a0.50005 0.50005 0 0 0 0.83203 0.37305l1.168-1.0391v-1.3359l-1 0.88867v-4.7969l2.2129 1.3828c0.12028-0.3161 0.29192-0.60869 0.50391-0.86523l-1.7734-1.1074 3.3223-2.0762a0.50005 0.50005 0 0 0 0.066406-0.79688l-4.5-4a0.50005 0.50005 0 0 0-0.35156-0.125zm0.51953 1.6113 3.1699 2.8164-3.1699 1.9805v-4.7969z" fill="#363636"/>
 <path d="m13 9.0195c-1.108 0-2 0.91125-2 2.0312v0.96875h-1v4h6v-4h-1v-0.96875c0-1.12-0.892-2.0312-2-2.0312zm0 1c0.554 0 1 0.443 1 1v1h-2v-1c0-0.557 0.446-1 1-1zm-2 2.9805h4v2h-4z" fill="#363636" stop-color="#000000"/>
</svg>
