<?xml version="1.0" encoding="UTF-8"?>
<svg width="16" height="16" version="1.1" xmlns="http://www.w3.org/2000/svg">
 <path d="m2.4861 1.0001c-1.3384 0-1.3384 2.0081 0 2.0081h0.28644c0.12775 0 0.22157 0.11378 0.029942 0.22656-0.63177 0.53695-0.35231 1.7835 0.68167 1.7695h2.2586c0.2066 0.00898 0.14971 0.1517 0.083836 0.20759-0.51899 0.41918-0.48206 1.3015 0.11977 1.6498 0.089825 0.046909 0.053895 0.12276-0.039922 0.12276h-0.42118c-1.3953-0.051899-1.3953 2.068 0 2.0161h1.2965c0.10779 0 0.17965 0.12476 0.03593 0.20759-0.51899 0.43116-0.46609 1.3124 0.13773 1.6598 0.17666 0.1018 0.066869 0.18364-0.013973 0.24752-0.59683 0.35231-0.64774 1.2376-0.10979 1.6608 0.12476 0.09781 0.049903 0.18564-0.04591 0.18564h-0.29243c-1.3593 0-1.3593 2.038 0 2.038h1.018c1.014 0.01896 1.3444-1.2007 0.72259-1.7666-0.12875-0.15669-0.03094-0.23454 0.038924-0.23454h1.2396c1.3514 0 1.3514-2.028 0-2.028h-0.28944c-0.14172 0-0.1527-0.1048-0.075852-0.17266 0.50202-0.37926 0.52198-1.1567 0.063875-1.5679-0.14971-0.14971-0.074854-0.22955 0.039922-0.22955h0.26748c1.005 0.00399 1.3045-1.1927 0.70662-1.7486-0.11378-0.11278-0.08783-0.24752 0.03593-0.24752h1.2536c1.039 0.014971 1.3244-1.2476 0.67468-1.7835-0.08184-0.08184-0.08084-0.21658 0.07186-0.21658h1.2536c1.3374 0 1.3374-2.0081 0-2.0081h-0.32237c-0.11877 0-0.1537-0.099805-0.06787-0.16967 0.72359-0.50102 0.4631-1.8404-0.60881-1.8264z" fill="#99c1f1" stroke-width=".99805"/>
</svg>
