<svg width="16" height="16" version="1.1" xmlns="http://www.w3.org/2000/svg">
 <defs>
  <style id="current-color-scheme" type="text/css">.ColorScheme-Text { color:#363636; } .ColorScheme-Highlight { color:#5294e2; }</style>
 </defs>
 <g class="ColorScheme-Text" transform="translate(-465 331)" fill="currentColor">
  <path d="m473-330c-1.8363 0-3.3668 1.2019-3.9375 2.8437-1.7232 0.21835-3.0625 1.6743-3.0625 3.4567 0 1.6336 1.123 2.9955 2.6364 3.3815a4.375 4.375 0 0 1 4.081-4.0947 4.375 4.375 0 0 1 4.6484 4.0833 4.375 4.375 0 0 1 2e-3 0.11394c1.4665-0.0887 2.6319-1.2957 2.6319-2.7845 0-1.5464-1.254-2.7981-2.8005-2.7981 0-2.3196-1.88-4.2018-4.1995-4.2018z" fill="#363636"/>
  <path d="m472.77-323.43a3.5 3.5 0 0 0-3.2676 3.7187 3.5 3.5 0 0 0 3.7188 3.2676 3.5 3.5 0 0 0 3.2676-3.7187 3.5 3.5 0 0 0-3.7188-3.2676zm0.22461 1.4277 2e-3 1e-5c0.17571 1e-5 0.3164 0.14071 0.31641 0.31641l-1e-5 2.2305c0 0.17576-0.14069 0.3164-0.3164 0.31641l-2e-3 -2e-5c-0.17572-1e-5 -0.3164-0.14065-0.31641-0.31641l1e-5 -2.2305c1e-5 -0.1757 0.14068-0.31641 0.3164-0.31641zm2e-3 3.5c0.17626-3e-5 0.3164 0.14208 0.3164 0.31836 3e-5 0.17622-0.14013 0.31836-0.3164 0.31836-0.17629-3e-5 -0.31836-0.14213-0.31836-0.31836 2e-5 -0.17628 0.14208-0.31836 0.31836-0.31836z" stroke-width=".58333"/>
 </g>
</svg>
