<svg width="32" height="32" version="1.0" xmlns="http://www.w3.org/2000/svg">
 <rect x="2" y="4" width="28" height="24" rx="3" ry="3" fill="#cccccc" stroke-linecap="round" stroke-linejoin="round" stroke-width="2.0367"/>
 <rect x="2" y="4" width="28" height="23" rx="3" ry="3" fill="#ececec" stroke-linecap="round" stroke-linejoin="round" stroke-width="2.0367"/>
 <path d="m5 4c-1.662 0-3 1.338-3 3v1c0-1.662 1.338-3 3-3h22c1.662 0 3 1.338 3 3v-1c0-1.662-1.338-3-3-3z" fill="#ffffff" opacity=".15" stroke-linecap="round" stroke-linejoin="round" stroke-width="2.0367"/>
 <g fill="#e0574c">
  <path d="M16 10.011c3.305 0 6 2.71 6 6.003 0 3.291-2.695 5.975-6 5.975s-6-2.684-6-5.975c0-3.292 2.695-6.003 6-6.003zm0 1.73a4.27 4.27 0 0 0-4.29 4.273c0 2.368 1.912 4.245 4.29 4.245s4.29-1.877 4.29-4.245A4.27 4.27 0 0 0 16 11.74z" overflow="visible" style="text-indent:0;text-transform:none"/>
  <path d="m13.177 11.973 6.85 6.85-1.204 1.204-6.85-6.85z" overflow="visible" style="text-indent:0;text-transform:none"/>
 </g>
</svg>
