<svg width="128" height="128" enable-background="new" version="1.0" xmlns="http://www.w3.org/2000/svg">
 <g>
  <text transform="translate(0 -172)" x="63.912" y="297.749" enable-background="new" font-family="'Droid Sans'" font-size="11.085px" font-weight="700" style="line-height:0%" xml:space="preserve"><tspan x="63.912" y="297.749" font-size="9.2378px" style="line-height:1.25"> </tspan></text>
  <g transform="matrix(.70805 0 0 .70805 351.87 -202.98)" enable-background="new" stroke-width="1.0825">
   <g stroke-width="1.0825">
    <path transform="matrix(6.697 0 0 6.697 -1566.6 -6110.8)" d="m165 961.36h16v16h-16z" fill="none"/>
    <path transform="matrix(6.697 0 0 6.697 -1566.6 -6110.8)" d="M173 966.362a3 3 0 1 0 0 6 3 3 0 0 0 0-6zm-.493.826c.374 0 .683.31.683.698 0 .387-.309.713-.683.713-.374 0-.683-.326-.683-.713 0-.387.309-.698.683-.698z" fill="#babdb6"/>
    <path transform="matrix(6.697 0 0 6.697 -1566.6 -6110.8)" d="m173 963.36c-4.418 0-8 6-8 6s3.582 6 8 6 8-6 8-6-3.582-6-8-6zm0 2c3.866 0 6 4 6 4s-2.134 4-6 4-6-4-6-4 2.134-4 6-4z" fill="#babdb6"/>
    <path transform="matrix(6.697 0 0 6.697 -1566.6 -6110.8)" d="m167 967.3-1-1m13 1 1-1" enable-background="accumulate" fill="none" stroke="#babdb6" stroke-linecap="round" stroke-width="1.0825"/>
    <path transform="matrix(6.697 0 0 6.697 -1566.6 -6110.8)" d="m169 966.3-2-2m3.375 0.562-1.375-2.375m3.438 1.875-0.688-3m5.688 4.938 1.562-2m-2.937 0.562 1.33-2.154m-3.393 1.654 0.864-3" enable-background="accumulate" fill="none" stroke="#babdb6" stroke-linecap="round" stroke-width="1.0825"/>
   </g>
  </g>
 </g>
 <path d="m64 4a60 60 0 0 0-60 60 60 60 0 0 0 60 60 60 60 0 0 0 60-60 60 60 0 0 0-60-60zm0 8a52 52 0 0 1 52 52 52 52 0 0 1-52 52 52 52 0 0 1-52-52 52 52 0 0 1 52-52z" fill="#babdb6" fill-rule="evenodd"/>
 <rect transform="rotate(-45)" x="-60" y="86.51" width="120" height="8" fill="#babdb6" fill-rule="evenodd"/>
</svg>
