<svg width="32" height="32" version="1.1" xmlns="http://www.w3.org/2000/svg">
 <style id="current-color-scheme" type="text/css">.ColorScheme-Text {
            color:#363636;
        }
        .ColorScheme-ButtonFocus {
            color:#3daee9;
        }
        .ColorScheme-NegativeText {
            color:#da4453;
        }</style>
 <g id="start-here-kde" class="ColorScheme-Text" transform="matrix(1.4545 0 0 1.4545 -65.455 50.909)" fill="currentColor">
  <path transform="matrix(.6875 0 0 .6875 7.875 -64.562)" d="m70 43c-8.8366 0-16 7.1634-16 16s7.1634 16 16 16 16-7.1634 16-16-7.1634-16-16-16zm0 3a13 13 0 0 1 13 13 13 13 0 0 1-13 13 13 13 0 0 1-13-13 13 13 0 0 1 13-13z" opacity=".5"/>
  <circle cx="56" cy="-24" r="2.0625" opacity=".5"/>
  <path transform="matrix(.6875 0 0 .6875 7.875 -64.562)" d="m70 49a10 10 0 0 0-10 10 10 10 0 0 0 10 10 10 10 0 0 0 9.7734-8h-4.1211a6 6 0 0 1-5.6523 4 6 6 0 0 1-6-6 6 6 0 0 1 6-6 6 6 0 0 1 5.6523 4h4.1445a10 10 0 0 0-9.7969-8z"/>
 </g>
</svg>
