<svg width="32" height="32" data-name="Camada 1" version="1.1" xmlns="http://www.w3.org/2000/svg">
 <defs>
  <style>.cls-2,.cls-6,.cls-7{isolation:isolate}.cls-3{clip-path:url(#clip-path)}.cls-4{fill:#1955aa}.cls-7{fill:#fff}.cls-6,.cls-7{opacity:.15}</style>
 </defs>
 <path d="m8.5016 2.0003c-3.6012 0-6.5014 2.8993-6.5014 6.5008v6.4284l7.7036 3.5683a3.9998 3.9999 0 0 1 1.951-0.707l3.363-4.6951a5.4996 5.4998 0 0 1 5.482-5.33v-9.999e-4a5.4996 5.4998 0 0 1 5.4996 5.4998 5.4996 5.4998 0 0 1-4.7624 5.4402l-5.2428 3.1385a3.9998 3.9999 0 0 1-7.9672 0.29491l-6.027-2.7743v4.1355c0 3.6013 2.9002 6.5008 6.5014 6.5008h14.997c3.6012 0 6.5016-2.8993 6.5016-6.5008v-14.998c0-3.6013-2.9002-6.5008-6.5016-6.5008zm11.998 7.7652a3.4998 3.4999 0 0 0 0 6.9998 3.4998 3.4999 0 0 0 0-6.9998zm0 0.99997a2.4998 2.4999 0 0 1 2.4998 2.4999 2.4998 2.4999 0 0 1-2.4998 2.4999 2.4998 2.4999 0 0 1-2.4998-2.4999 2.4998 2.4999 0 0 1 2.4998-2.4999zm-8.4994 7.9996a2.9998 2.9999 0 0 0-1.1777 0.25097l2.0136 0.93259a1.9469 1.9469 0 0 1 0.09374 0.04394 1.9999 1.9999 0 0 1-1.7655 3.5887l-2.0282-0.93355a2.9998 2.9999 0 0 0 2.864 2.1171 2.9998 2.9999 0 0 0 2.9998-2.9999 2.9998 2.9999 0 0 0-0.03516-0.45701l-0.1084-0.45701a2.9998 2.9999 0 0 0-2.8562-2.0859z" fill="#363636" stroke-width="2"/>
</svg>
