<svg width="32" height="32" version="1.1" viewBox="0 0 32 32" xmlns="http://www.w3.org/2000/svg">
 <path d="m16 2c-0.554 0-1 0.446-1 1v1c0 0.554 0.446 1 1 1s1-0.446 1-1v-1c0-0.554-0.446-1-1-1zm-9.1914 3.8066c-0.25562 0-0.51312 0.097099-0.70898 0.29297-0.39174 0.39174-0.39174 1.0243 0 1.416l0.70898 0.70703c0.39174 0.39174 1.0223 0.39174 1.4141 0 0.39174-0.39174 0.39174-1.0243 0-1.416l-0.70703-0.70703c-0.19587-0.19587-0.45141-0.29297-0.70703-0.29297zm18.385 0c-0.25562 0-0.51312 0.097099-0.70898 0.29297l-0.70703 0.70703c-0.39174 0.39174-0.39174 1.0243 0 1.416 0.39174 0.39174 1.0243 0.39174 1.416 0l0.70703-0.70703c0.39174-0.39174 0.39174-1.0243 0-1.416-0.19587-0.19587-0.45141-0.29297-0.70703-0.29297zm-9.1934 0.19336a10 10 0 0 0-10 10 10 10 0 0 0 10 10 10 10 0 0 0 10-10 10 10 0 0 0-10-10zm-13 9c-0.554 0-1 0.446-1 1s0.446 1 1 1h1c0.554 0 1-0.446 1-1s-0.446-1-1-1h-1zm25 0c-0.554 0-1 0.446-1 1s0.446 1 1 1h1c0.554 0 1-0.446 1-1s-0.446-1-1-1h-1zm-20.484 8.4844c-0.25562 0-0.51116 0.097099-0.70703 0.29297l-0.70703 0.70703c-0.39174 0.39174-0.39174 1.0243 0 1.416 0.39174 0.39174 1.0224 0.39174 1.4141 0l0.70703-0.70898c0.39174-0.39174 0.39174-1.0223 0-1.4141-0.19587-0.19587-0.45141-0.29297-0.70703-0.29297zm16.971 0c-0.25562 0-0.51116 0.097099-0.70703 0.29297-0.39174 0.39174-0.39174 1.0223 0 1.4141l0.70703 0.70898c0.39174 0.39174 1.0243 0.39174 1.416 0 0.39174-0.39174 0.39174-1.0243 0-1.416l-0.70703-0.70703c-0.19587-0.19587-0.45336-0.29297-0.70898-0.29297zm-8.4844 3.5156c-0.554 0-1 0.446-1 1v1c0 0.554 0.446 1 1 1s1-0.446 1-1v-1c0-0.554-0.446-1-1-1z" fill="#fc3"/>
 <path d="m15 3.6133v0.38672c0 0.554 0.446 1 1 1s1-0.446 1-1v-0.38672c0 0.554-0.446 1-1 1s-1-0.446-1-1zm-9.1758 3c-0.062637 0.31643 0.029605 0.65658 0.27539 0.90234l0.70898 0.70703c0.39174 0.39174 1.0223 0.39174 1.4141 0 0.24579-0.24579 0.33803-0.58592 0.27539-0.90234-0.036962 0.18857-0.12896 0.3692-0.27539 0.51562-0.3918 0.39174-1.0223 0.39174-1.4141 0l-0.70898-0.70703c-0.14643-0.14641-0.23843-0.32706-0.27539-0.51562zm20.352 0c-0.036961 0.18857-0.12896 0.3692-0.27539 0.51562l-0.70703 0.70703c-0.3917 0.39174-1.0243 0.39174-1.416 0-0.14643-0.14641-0.23843-0.32706-0.27539-0.51562-0.062637 0.31643 0.029605 0.65658 0.27539 0.90234 0.39174 0.39174 1.0243 0.39174 1.416 0l0.70703-0.70703c0.24578-0.24579 0.33803-0.58592 0.27539-0.90234zm-0.18359 9.0996a10 10 0 0 1-9.9922 9.9004 10 10 0 0 1-9.9824-9.8066 10 10 0 0 0-0.017578 0.19336 10 10 0 0 0 10 10 10 10 0 0 0 10-10 10 10 0 0 0-0.007812-0.28711zm-23.973 0.09375c-0.012299 0.062878-0.019531 0.12677-0.019531 0.19336 0 0.554 0.446 1 1 1h1c0.554 0 1-0.446 1-1 0-0.066586-0.0072324-0.13048-0.019531-0.19336-0.090029 0.46028-0.49306 0.80664-0.98047 0.80664h-1c-0.48741 0-0.89044-0.34636-0.98047-0.80664zm25 0c-0.012299 0.062878-0.019531 0.12677-0.019531 0.19336 0 0.554 0.446 1 1 1h1c0.554 0 1-0.446 1-1 0-0.066586-0.007232-0.13048-0.019531-0.19336-0.090029 0.46028-0.49306 0.80664-0.98047 0.80664h-1c-0.48741 0-0.89044-0.34636-0.98047-0.80664zm-18.521 8.4863c-0.037199 0.18754-0.12945 0.36577-0.27539 0.51172l-0.70703 0.70898c-0.3917 0.39174-1.0223 0.39174-1.4141 0-0.14595-0.14594-0.2382-0.32577-0.27539-0.51367-0.061922 0.31591 0.030079 0.6551 0.27539 0.90039 0.39174 0.39174 1.0224 0.39174 1.4141 0l0.70703-0.70898c0.24484-0.24484 0.3366-0.58363 0.27539-0.89844zm15.006 0c-0.061209 0.3148 0.030554 0.65356 0.27539 0.89844l0.70703 0.70898c0.39174 0.39174 1.0243 0.39174 1.416 0 0.24531-0.24531 0.33731-0.58449 0.27539-0.90039-0.037195 0.1879-0.12944 0.36772-0.27539 0.51367-0.3917 0.39174-1.0243 0.39174-1.416 0l-0.70703-0.70898c-0.14595-0.14597-0.23819-0.32418-0.27539-0.51172zm-8.502 4.3203v0.38672c0 0.554 0.446 1 1 1s1-0.446 1-1v-0.38672c0 0.554-0.446 1-1 1s-1-0.446-1-1z" opacity=".1"/>
 <path d="m16 2c-0.554 0-1 0.446-1 1v0.45508c0-0.554 0.446-1 1-1s1 0.446 1 1v-0.45508c0-0.554-0.446-1-1-1zm-9.1914 3.8066c-0.25562 0-0.51312 0.097099-0.70898 0.29297-0.25455 0.25455-0.34188 0.60979-0.26562 0.93555 0.040908-0.17625 0.12796-0.3428 0.26562-0.48047 0.19586-0.19587 0.45336-0.29297 0.70898-0.29297 0.25562-1e-7 0.51116 0.097099 0.70703 0.29297l0.70703 0.70703c0.13767 0.13765 0.22472 0.30423 0.26562 0.48047 0.076255-0.32577-0.011078-0.68103-0.26562-0.93555l-0.70703-0.70703c-0.19587-0.19587-0.45141-0.29297-0.70703-0.29297zm18.385 0c-0.25562 0-0.51312 0.097099-0.70898 0.29297l-0.70703 0.70703c-0.25455 0.25455-0.34188 0.60979-0.26562 0.93555 0.040908-0.17625 0.12796-0.3428 0.26562-0.48047l0.70703-0.70703c0.19586-0.19587 0.45337-0.29297 0.70898-0.29297 0.25562 0 0.51116 0.097099 0.70703 0.29297 0.13767 0.13765 0.22472 0.30423 0.26562 0.48047 0.076255-0.32577-0.011079-0.68103-0.26562-0.93555-0.19587-0.19587-0.45141-0.29297-0.70703-0.29297zm-9.1934 0.19336a10 10 0 0 0-10 10 10 10 0 0 0 0.019531 0.22656 10 10 0 0 1 9.9805-9.7715 10 10 0 0 1 9.9902 9.6621 10 10 0 0 0 0.009766-0.11719 10 10 0 0 0-10-10zm-13 9c-0.554 0-1 0.446-1 1 0 0.078527 0.010385 0.15334 0.027344 0.22656 0.10278-0.44324 0.49727-0.77148 0.97266-0.77148h1c0.47538 0 0.86988 0.32824 0.97266 0.77148 0.016959-0.073224 0.027344-0.14804 0.027344-0.22656 0-0.554-0.446-1-1-1h-1zm25 0c-0.554 0-1 0.446-1 1 0 0.078527 0.010385 0.15334 0.027344 0.22656 0.10278-0.44324 0.49727-0.77148 0.97266-0.77148h1c0.47538 0 0.86988 0.32824 0.97266 0.77148 0.016959-0.073224 0.027344-0.14804 0.027344-0.22656 0-0.554-0.446-1-1-1h-1zm-20.484 8.4844c-0.25562 0-0.51116 0.097099-0.70703 0.29297l-0.70703 0.70703c-0.25407 0.25407-0.34112 0.60833-0.26562 0.93359 0.041099-0.17558 0.12843-0.34132 0.26562-0.47852l0.70703-0.70703c0.19587-0.19587 0.45141-0.29297 0.70703-0.29297s0.51116 0.097099 0.70703 0.29297c0.13719 0.13721 0.22453 0.30325 0.26562 0.47852 0.075641-0.32477-0.011463-0.67939-0.26562-0.93359-0.19587-0.19587-0.45141-0.29297-0.70703-0.29297zm16.971 0c-0.25562 0-0.51116 0.097099-0.70703 0.29297-0.25416 0.25416-0.34127 0.60881-0.26562 0.93359 0.041099-0.17526 0.12843-0.34132 0.26562-0.47852 0.19587-0.19587 0.45141-0.29297 0.70703-0.29297s0.51312 0.097099 0.70898 0.29297l0.70703 0.70703c0.13719 0.13718 0.22453 0.30294 0.26562 0.47852 0.075497-0.32527-0.011553-0.67955-0.26562-0.93359l-0.70703-0.70703c-0.19587-0.19587-0.45336-0.29297-0.70898-0.29297zm-8.4844 3.5156c-0.554 0-1 0.446-1 1v0.45508c0-0.554 0.446-1 1-1s1 0.446 1 1v-0.45508c0-0.554-0.446-1-1-1z" fill="#fff" opacity=".35"/>
</svg>
