<svg width="32" height="32" version="1.1" xmlns="http://www.w3.org/2000/svg">
 <path d="m16 6c-3.6728 0-6.7334 2.4527-7.875 5.8035-3.4462 0.44563-6.125 3.4159-6.125 7.0537 0 3.9449 3.134 7.1429 7 7.1429h15.4c3.0928 0 5.6-2.5584 5.6-5.7143s-2.5072-5.7143-5.6-5.7143c0-4.7337-3.761-8.5714-8.4-8.5714z" fill="#d1d9dd" stroke-width="2.0203"/>
 <path d="m29.031 1.2354a0.5 0.5 0 0 0-0.5 0.5 0.5 0.5 0 0 0 0.5 0.5 0.5 0.5 0 0 0 0.5-0.5 0.5 0.5 0 0 0-0.5-0.5zm-25.5 1a1 1 0 0 0-1 1 1 1 0 0 0 1 1 1 1 0 0 0 1-1 1 1 0 0 0-1-1zm19 0a3 3 0 0 1-3 3 3 3 0 0 1 3 3 3 3 0 0 1 3-3 3 3 0 0 1-3-3zm4 5a2 2 0 0 1-2 2 2 2 0 0 1 2 2 2 2 0 0 1 2-2 2 2 0 0 1-2-2zm3.5 17a1.5 1.5 0 0 0-1.5 1.5 1.5 1.5 0 0 0 1.5 1.5 1.5 1.5 0 0 0 1.5-1.5 1.5 1.5 0 0 0-1.5-1.5zm-5 4a0.5 0.5 0 0 0-0.5 0.5 0.5 0.5 0 0 0 0.5 0.5 0.5 0.5 0 0 0 0.5-0.5 0.5 0.5 0 0 0-0.5-0.5z" fill="#d1d9dd"/>
</svg>
