<?xml version="1.0" encoding="UTF-8"?>
<svg width="32" height="32" version="1.1" xmlns="http://www.w3.org/2000/svg">
 <path d="m16 5c-3.6727 0-6.7334 2.4035-7.875 5.6875-3.4461 0.43672-6.125 3.3491-6.125 6.9141 0 1.2409 0.35166 2.3878 0.91797 3.3984h26.695c0.23923-0.62302 0.38672-1.2928 0.38672-2 0-3.0928-2.5089-5.6016-5.6016-5.6016 0-4.639-3.7595-8.3984-8.3984-8.3984zm-12.834 18a1.1666 1 0 0 0-1.166 1 1.1666 1 0 0 0 1.166 1h11.666a1.1666 1 0 0 0 1.168-1 1.1666 1 0 0 0-1.168-1zm17.977 0a1.1428 1 0 0 0-1.1426 1 1.1428 1 0 0 0 1.1426 1h5.7129a1.1428 1 0 0 0 1.1426-1 1.1428 1 0 0 0-1.1426-1zm-16.162 4a1.0066 1 0 0 0-1.0078 1 1.0066 1 0 0 0 1.0078 1h2.0137a1.0066 1 0 0 0 1.0059-1 1.0066 1 0 0 0-1.0059-1zm6.2188 0a1.2 1 0 0 0-1.1992 1 1.2 1 0 0 0 1.1992 1h15.602a1.2 1 0 0 0 1.1992-1 1.2 1 0 0 0-1.1992-1z" opacity=".15"/>
 <path d="m16 4c-3.6727 0-6.7334 2.4035-7.875 5.6875-3.4461 0.43672-6.125 3.3491-6.125 6.9141 0 1.2409 0.35166 2.3878 0.91797 3.3984h26.695c0.23923-0.62302 0.38672-1.2928 0.38672-2 0-3.0928-2.5089-5.6016-5.6016-5.6016 0-4.639-3.7595-8.3984-8.3984-8.3984zm-12.834 18a1.1666 1 0 0 0-1.166 1 1.1666 1 0 0 0 1.166 1h11.666a1.1666 1 0 0 0 1.168-1 1.1666 1 0 0 0-1.168-1h-11.666zm17.977 0a1.1428 1 0 0 0-1.1426 1 1.1428 1 0 0 0 1.1426 1h5.7129a1.1428 1 0 0 0 1.1426-1 1.1428 1 0 0 0-1.1426-1h-5.7129zm-16.162 4a1.0066 1 0 0 0-1.0078 1 1.0066 1 0 0 0 1.0078 1h2.0137a1.0066 1 0 0 0 1.0059-1 1.0066 1 0 0 0-1.0059-1h-2.0137zm6.2188 0a1.2 1 0 0 0-1.1992 1 1.2 1 0 0 0 1.1992 1h15.602a1.2 1 0 0 0 1.1992-1 1.2 1 0 0 0-1.1992-1h-15.602z" fill="#e6e6e6"/>
 <path d="m16 4c-3.6727 0-6.7334 2.4035-7.875 5.6875-3.4461 0.43672-6.125 3.3491-6.125 6.9141 0 0.1773 0.0094787 0.35205 0.023438 0.52539 0.22626-3.3453 2.8103-6.0224 6.1016-6.4395 1.1416-3.284 4.2023-5.6875 7.875-5.6875 4.6389 0 8.3984 3.7594 8.3984 8.3984 2.9218-1e-6 5.3198 2.2403 5.5762 5.0957 0.015696-0.16261 0.025391-0.32724 0.025391-0.49414 0-3.0928-2.5089-5.6016-5.6016-5.6016 0-4.639-3.7595-8.3984-8.3984-8.3984zm-12.834 18a1.1666 1 0 0 0-1.166 1 1.1666 1 0 0 0 0.17969 0.5 1.1666 1 0 0 1 0.98633-0.5h11.666a1.1666 1 0 0 1 1.0078 0.5 1.1666 1 0 0 0 0.16016-0.5 1.1666 1 0 0 0-1.168-1h-11.666zm17.977 0a1.1428 1 0 0 0-1.1426 1 1.1428 1 0 0 0 0.17773 0.5 1.1428 1 0 0 1 0.96484-0.5h5.7129a1.1428 1 0 0 1 0.98438 0.5 1.1428 1 0 0 0 0.1582-0.5 1.1428 1 0 0 0-1.1426-1h-5.7129zm-16.162 4a1.0066 1 0 0 0-1.0078 1 1.0066 1 0 0 0 0.13477 0.5 1.0066 1 0 0 1 0.87305-0.5h2.0137a1.0066 1 0 0 1 0.87109 0.5 1.0066 1 0 0 0 0.13477-0.5 1.0066 1 0 0 0-1.0059-1h-2.0137zm6.2188 0a1.2 1 0 0 0-1.1992 1 1.2 1 0 0 0 0.18555 0.5 1.2 1 0 0 1 1.0137-0.5h15.602a1.2 1 0 0 1 1.0352 0.5 1.2 1 0 0 0 0.16406-0.5 1.2 1 0 0 0-1.1992-1h-15.602z" fill="#fff" opacity=".5"/>
</svg>
