<?xml version="1.0" encoding="UTF-8"?>
<svg width="32" height="32" version="1.1" xmlns="http://www.w3.org/2000/svg">
 <defs>
  <style id="current-color-scheme" type="text/css">.ColorScheme-Text{color:#4d4d4d}.ColorScheme-Background{color:#eff0f1}.ColorScheme-Highlight{color:#3daee9}.ColorScheme-ViewText{color:#31363b}.ColorScheme-ViewBackground{color:#fcfcfc}.ColorScheme-ViewHover{color:#93cee9}.ColorScheme-ViewFocus{color:#3daee9}.ColorScheme-ButtonText{color:#31363b}.ColorScheme-ButtonBackground{color:#eff0f1}.ColorScheme-ButtonHover{color:#93cee9}.ColorScheme-ButtonFocus{color:#3daee9}</style>
 </defs>
 <path d="M13 4A10 10 0 0 0 3 14a10 10 0 0 0 10 10h9a7 7 0 0 0 7-7 7 7 0 0 0-6.836-6.996A10 10 0 0 0 13 4z" fill="#e6e6e6"/>
 <path d="M11.5 24c-.831 0-1.5.669-1.5 1.5s.669 1.5 1.5 1.5 1.5-.669 1.5-1.5-.669-1.5-1.5-1.5zm10 0c-.831 0-1.5.669-1.5 1.5s.669 1.5 1.5 1.5 1.5-.669 1.5-1.5-.669-1.5-1.5-1.5zm-14 3c-.831 0-1.5.669-1.5 1.5S6.669 30 7.5 30 9 29.331 9 28.5 8.331 27 7.5 27zm9 0c-.831 0-1.5.669-1.5 1.5s.669 1.5 1.5 1.5 1.5-.669 1.5-1.5-.669-1.5-1.5-1.5zm9 0c-.831 0-1.5.669-1.5 1.5s.669 1.5 1.5 1.5 1.5-.669 1.5-1.5-.669-1.5-1.5-1.5z" fill="#c0ced2"/>
 <path d="m29.333 1.3336c-0.27614 0-0.5 0.22386-0.5 0.5s0.22386 0.5 0.5 0.5 0.5-0.22386 0.5-0.5-0.22386-0.5-0.5-0.5zm-25.5 1c-0.55228 0-1 0.44772-1 1s0.44772 1 1 1 1-0.44772 1-1-0.44772-1-1-1zm19 0c0 1.6569-1.3431 3-3 3 1.6569 0 3 1.3431 3 3 0-1.6569 1.3431-3 3-3-1.6569 0-3-1.3431-3-3zm4 5c0 1.1046-0.89543 2-2 2 1.1046 0 2 0.89543 2 2 0-1.1046 0.89543-2 2-2-1.1046 0-2-0.89543-2-2z" fill="#d1d9dd"/>
 <g fill="#c0ced2" stroke-linecap="round" stroke-linejoin="round" stroke-width="2">
  <circle cx="11.277" cy="18.207" r="1.1129"/>
  <circle cx="17.205" cy="21.016" r="1.0815"/>
  <circle cx="22.404" cy="16.235" r="1.1726"/>
 </g>
</svg>
