<?xml version="1.0" encoding="UTF-8"?>
<svg width="32" height="32" version="1.1" xmlns="http://www.w3.org/2000/svg">
 <defs>
  <style id="current-color-scheme" type="text/css">.ColorScheme-Text{color:#4d4d4d}.ColorScheme-Background{color:#eff0f1}.ColorScheme-Highlight{color:#3daee9}.ColorScheme-ViewText{color:#31363b}.ColorScheme-ViewBackground{color:#fcfcfc}.ColorScheme-ViewHover{color:#93cee9}.ColorScheme-ViewFocus{color:#3daee9}.ColorScheme-ButtonText{color:#31363b}.ColorScheme-ButtonBackground{color:#eff0f1}.ColorScheme-ButtonHover{color:#93cee9}.ColorScheme-ButtonFocus{color:#3daee9}</style>
 </defs>
 <path d="m29.333 1.3336c-0.27614 0-0.5 0.22386-0.5 0.5s0.22386 0.5 0.5 0.5 0.5-0.22386 0.5-0.5-0.22386-0.5-0.5-0.5zm-25.5 1c-0.55228 0-1 0.44772-1 1s0.44772 1 1 1 1-0.44772 1-1-0.44772-1-1-1zm19 0c0 1.6569-1.3431 3-3 3 1.6569 0 3 1.3431 3 3 0-1.6569 1.3431-3 3-3-1.6569 0-3-1.3431-3-3zm4 5c0 1.1046-0.89543 2-2 2 1.1046 0 2 0.89543 2 2 0-1.1046 0.89543-2 2-2-1.1046 0-2-0.89543-2-2z" fill="#d1d9dd"/>
 <path d="m13 4a10 10 0 0 0-10 10 10 10 0 0 0 10 10h9a7 7 0 0 0 7-7 7 7 0 0 0-6.8359-6.9961 10 10 0 0 0-9.1641-6.0039z" fill="#d1d9dd"/>
 <g transform="translate(0,-1020.4)" fill="#2196f3">
  <rect x="12" y="1046.4" width="2" height="3" ry="1"/>
  <rect x="16" y="1046.4" width="2" height="4" ry="1"/>
  <rect x="20" y="1046.4" width="2" height="3" ry="1"/>
 </g>
 <path d="m7.9698 13c-0.33386 0.01-0.64081 0.1856-0.81814 0.4687l-4.9986 7.9996c-0.41507 0.6658 0.063 1.5285 0.84742 1.5293h1.9995v4.9997c-4.08e-4 1.0045 1.3141 1.3826 1.8472 0.5313l4.9986-7.9996c0.4175-0.6662-0.06138-1.5314-0.84742-1.5312h-1.9995v-4.9998c-9.42e-4 -0.5631-0.46629-1.0144-1.029-0.998z" fill="#ffca28"/>
</svg>
