<svg width="32" height="32" version="1.1" xmlns="http://www.w3.org/2000/svg">
 <path d="m3.166 22c-0.64406 2.84e-4 -1.166 0.44792-1.166 1-1e-7 0.55208 0.52194 0.99972 1.166 1h11.666c0.64484 6.63e-4 1.168-0.44725 1.168-1s-0.52316-1.0007-1.168-1zm17.977 0c-0.63107 9.7e-5 -1.1426 0.44778-1.1426 1s0.51153 0.9999 1.1426 1h5.7129c0.63107-9.7e-5 1.1426-0.44778 1.1426-1s-0.51153-0.9999-1.1426-1zm-16.162 4c-0.5564-6.59e-4 -1.0078 0.44725-1.0078 1-4e-7 0.55275 0.4514 1.0007 1.0078 1h2.0137c0.55566-3.84e-4 1.0059-0.44799 1.0059-1 1e-7 -0.55201-0.45024-0.99962-1.0059-1zm6.2188 0c-0.66243 3.68e-4 -1.1992 0.44798-1.1992 1s0.53677 0.99963 1.1992 1h15.602c0.66243-3.68e-4 1.1992-0.44798 1.1992-1s-0.53677-0.99963-1.1992-1z" fill="#99bfef" opacity=".5"/>
 <path d="m16 4c-3.6727 0-6.7334 2.4035-7.875 5.6875-3.4461 0.43672-6.125 3.3491-6.125 6.9141 0 1.2409 0.35166 2.3878 0.91797 3.3984h26.695c0.23923-0.62302 0.38672-1.2928 0.38672-2 0-3.0928-2.5089-5.6016-5.6016-5.6016 0-4.639-3.7595-8.3984-8.3984-8.3984z" fill="#e6e6e6"/>
</svg>
