<svg width="16" height="16" version="1.1" xmlns="http://www.w3.org/2000/svg">
 <style id="current-color-scheme" type="text/css">.ColorScheme-PositiveText {
            color:#27ae60;
        }
        .ColorScheme-Text {
            color:#232629;
        }</style>
 <g transform="translate(-3 -2.9969)">
  <g transform="matrix(3.7794,0,0,3.7794,1.3524e-8,-1100.5)">
   <rect transform="matrix(0,-1,-1,0,0,0)" x="-296.21" y="-5.027" width="4.233" height="4.233" rx="2.117" ry="2.117" fill="#27ae60"/>
   <path d="m1.919 294.28 0.595 0.595 1.389-1.587" fill="none" stroke="#ffffff" stroke-linecap="square" stroke-width=".529"/>
  </g>
  <path d="m11 3c-4.432 0-8 3.568-8 8 0 0.16818 0.0055 0.33446 0.015625 0.5 0.25676-4.197 3.7206-7.5 7.9844-7.5s7.7276 3.303 7.9844 7.5c0.01013-0.16554 0.01563-0.33182 0.01563-0.5 0-4.432-3.568-8-8-8z" fill="#ffffff" opacity=".1" stroke-width="3.7798"/>
 </g>
</svg>
