<svg width="16" height="16" version="1.1" viewBox="0 0 4.2335 4.2335" xmlns="http://www.w3.org/2000/svg">
 <g transform="translate(-.79417 -.78678)">
  <g transform="translate(.53 -290.92)">
   <rect transform="matrix(0,-1,-1,0,0,0)" x="-295.94" y="-4.498" width="4.233" height="4.233" rx="2.117" ry="2.117" fill="#673ab7"/>
   <path d="m2.778 292.77a0.397 0.397 0 0 0-0.397 0.397c0 0.03 6e-3 0.058 0.013 0.086l-0.426 0.265a0.397 0.397 0 1 0 0 0.62l0.426 0.265a0.38 0.38 0 0 0-0.013 0.086 0.397 0.397 0 1 0 0.15-0.31l-0.427-0.264a0.38 0.38 0 0 0 0.013-0.087 0.38 0.38 0 0 0-0.013-0.087l0.426-0.264a0.397 0.397 0 1 0 0.248-0.707z" fill="#ffffff"/>
  </g>
  <path d="m2.9105 0.79377c-1.1727 0-2.1167 0.94406-2.1167 2.1167 0 0.044499 0.001455 0.088495 0.004134 0.1323 0.067936-1.1105 0.98444-1.9844 2.1126-1.9844s2.0447 0.87394 2.1126 1.9844c0.00268-0.0438 0.00414-0.087797 0.00414-0.1323 0-1.1727-0.94406-2.1167-2.1167-2.1167z" fill="#ffffff" opacity=".1" stroke-width="1.0001"/>
 </g>
</svg>
