<svg width="16" height="16" version="1" xmlns="http://www.w3.org/2000/svg">
 <g transform="translate(-3 -3)">
  <g transform="matrix(.4 0 0 .4 1.4 1.4)">
   <circle cx="24" cy="24" r="20" fill="#ff7800"/>
   <path d="m26 38h-4v-4h4zm4.14-15.5-1.8 1.84c-1.44 1.46-2.34 2.66-2.34 5.66h-4v-1c0-2.2 0.9-4.2 2.34-5.66l2.48-2.52a3.91 3.91 0 0 0 1.18-2.82c0-2.2-1.8-4-4-4s-4 1.8-4 4h-4c0-4.42 3.58-8 8-8s8 3.58 8 8c0 1.76-0.72 3.36-1.86 4.5z" fill="#ffffff"/>
  </g>
  <path d="m11 3c-4.432 0-8 3.568-8 8 0 0.16818 0.0055 0.33446 0.015625 0.5 0.25676-4.197 3.7206-7.5 7.9844-7.5s7.7276 3.303 7.9844 7.5c0.01013-0.16554 0.01563-0.33182 0.01563-0.5 0-4.432-3.568-8-8-8z" fill="#ffffff" opacity=".1" stroke-width="3.7798"/>
 </g>
</svg>
