<svg width="16" height="16" version="1.1" xmlns="http://www.w3.org/2000/svg">
 <style id="current-color-scheme" type="text/css">.ColorScheme-PositiveText {
            color:#27ae60;
        }
        .ColorScheme-Text {
            color:#232629;
        }</style>
 <g transform="translate(-3 -2.9995)">
  <rect transform="matrix(0,-1,-1,0,0,0)" x="-18.999" y="-18.999" width="15.998" height="15.998" rx="8.001" ry="8.001" fill="#27ae60" stroke-width="3.7794"/>
  <path d="m13 6.333c-1.6938 0.0016324-3.4355 1.07-4 2.667h-2v4h2.001c0.56435 1.5967 2.3055 2.6649 3.999 2.667v-1.667h3v-1h-3v-4h3v-1h-3z" fill="#ffffff"/>
  <path d="m11 3c-4.432 0-8 3.568-8 8 0 0.16818 0.0055 0.33446 0.015625 0.5 0.25676-4.197 3.7206-7.5 7.9844-7.5s7.7276 3.303 7.9844 7.5c0.01013-0.16554 0.01563-0.33182 0.01563-0.5 0-4.432-3.568-8-8-8z" fill="#ffffff" opacity=".1" stroke-width="3.7798"/>
 </g>
</svg>
