<svg width="16" height="16" version="1.1" viewBox="0 0 4.2335 4.2335" xmlns="http://www.w3.org/2000/svg">
 <g transform="translate(-.79374 -.79372)">
  <rect transform="matrix(0,-1,-1,0,0,0)" x="-5.0272" y="-5.0272" width="4.2335" height="4.2335" rx="2.1172" ry="2.1172" fill="#4d4d4d" stroke-width="1.0001"/>
  <path class="ColorScheme-Text" d="m3.2847 2.5363c-0.032063-0.032063-0.066555-0.05997-0.10305-0.084042l-0.1944 0.1944c0.039514 0.019162 0.077181 0.043557 0.11036 0.076734 0.15709 0.15709 0.15709 0.40419 0 0.56128l-0.56128 0.56128c-0.15709 0.15709-0.40419 0.15709-0.56128 0s-0.15709-0.40419 0-0.56128l0.16005-0.16005c-0.036114-0.10343-0.055842-0.21119-0.054448-0.31973l-0.29269 0.29269c-0.25751 0.25751-0.25751 0.67796 0 0.93546 0.25751 0.25751 0.67796 0.25751 0.93546 0l0.56128-0.56128c0.25751-0.25751 0.25751-0.67796 0-0.93546z" color="#5d656b" fill="#ffffff" stroke-width=".26459"/>
  <path class="ColorScheme-Text" d="m2.5363 3.2847c0.032063 0.032063 0.066555 0.05997 0.10305 0.084042l0.1944-0.1944c-0.039514-0.019159-0.07717-0.043568-0.11035-0.076747-0.15709-0.15709-0.15709-0.40419 0-0.56128l0.56128-0.56128c0.15709-0.15709 0.40419-0.15709 0.56128 0s0.15709 0.40419 0 0.56128l-0.16005 0.16005c0.036114 0.10343 0.055842 0.21119 0.054447 0.31973l0.29269-0.29269c0.25751-0.25751 0.25751-0.67796 0-0.93546-0.25751-0.25751-0.67796-0.25751-0.93546 0l-0.56128 0.56128c-0.25751 0.25751-0.25751 0.67796 0 0.93546z" color="#5d656b" fill="#ffffff" stroke-width=".26459"/>
  <path transform="scale(.26459)" d="m11 3c-4.432 0-8 3.568-8 8 0 0.16818 0.0055 0.33446 0.015625 0.5 0.25676-4.197 3.7206-7.5 7.9844-7.5s7.7276 3.303 7.9844 7.5c0.01013-0.16554 0.01563-0.33182 0.01563-0.5 0-4.432-3.568-8-8-8z" fill="#ffffff" opacity=".1" stroke-width="3.7798"/>
 </g>
</svg>
