<svg width="16" height="16" version="1.1" xmlns="http://www.w3.org/2000/svg">
 <style id="current-color-scheme" type="text/css">.ColorScheme-NeutralText {
            color:#f67400;
        }
        .ColorScheme-Text {
            color:#232629;
        }</style>
 <g transform="translate(-3 -2.9894)">
  <g transform="matrix(3.7794,0,0,3.7794,4.5041e-8,-1100.5)">
   <g transform="translate(3.969,1.588)">
    <rect transform="matrix(0,-1,-1,0,0,0)" x="-294.62" y="-1.058" width="4.233" height="4.233" rx="2.117" ry="2.117" fill="#ff8135"/>
    <path d="m-2.117 292.24h2.117v1.323h-2.117z" fill="#ffffff"/>
    <rect x="-1.72" y="291.31" width="1.323" height="1.852" ry=".661" fill="none" stroke="#ffffff" stroke-linejoin="round" stroke-width=".265"/>
   </g>
  </g>
  <path d="m11 3c-4.432 0-8 3.568-8 8 0 0.16818 0.0055 0.33446 0.015625 0.5 0.25676-4.197 3.7206-7.5 7.9844-7.5s7.7276 3.303 7.9844 7.5c0.01013-0.16554 0.01563-0.33182 0.01563-0.5 0-4.432-3.568-8-8-8z" fill="#ffffff" opacity=".1" stroke-width="3.7798"/>
 </g>
</svg>
