<svg width="16" height="16" version="1.1" xmlns="http://www.w3.org/2000/svg">
 <style id="current-color-scheme" type="text/css">.ColorScheme-NeutralText {
            color:#f67400;
        }
        .ColorScheme-Text {
            color:#232629;
        }</style>
 <g transform="translate(-3 -2.9995)">
  <rect transform="matrix(0,-1,-1,0,0,0)" x="-18.999" y="-18.999" width="15.998" height="15.998" rx="8.001" ry="8.001" fill="#f67400" stroke-width="3.7794"/>
  <path d="m11 3c-4.432 0-8 3.568-8 8 0 0.16818 0.0055 0.33446 0.015625 0.5 0.25676-4.197 3.7206-7.5 7.9844-7.5s7.7276 3.303 7.9844 7.5c0.01013-0.16554 0.01563-0.33182 0.01563-0.5 0-4.432-3.568-8-8-8z" fill="#ffffff" opacity=".1" stroke-width="3.7798"/>
  <path d="m15 6-2 2-1-1-1.75 1.75 3 3 1.75-1.75-1-1 2-2v-0.5c0-0.277-0.223-0.5-0.5-0.5zm-6.25 4.25-1.75 1.75 1 1-2 2v0.5c0 0.277 0.223 0.5 0.5 0.5h0.5l2-2 1 1 1.75-1.75z" fill="#ffffff"/>
 </g>
</svg>
