<svg width="16" height="16" version="1.1" viewBox="0 0 16 16" xmlns="http://www.w3.org/2000/svg">
 <style id="current-color-scheme" type="text/css">.ColorScheme-Highlight {
            color:#3daee9;
        }
        .ColorScheme-Text {
            color:#232629;
        }</style>
 <g transform="translate(-3 -3)">
  <rect transform="matrix(0,-1,-1,0,0,0)" x="-19" y="-19" width="16" height="16" rx="8.0019" ry="8.0019" fill="#3daee9" stroke-width="3.7798"/>
  <path d="m11 3c-4.432 0-8 3.568-8 8 0 0.16818 0.0055 0.33446 0.015625 0.5 0.25676-4.197 3.7206-7.5 7.9844-7.5s7.7276 3.303 7.9844 7.5c0.01013-0.16554 0.01563-0.33182 0.01563-0.5 0-4.432-3.568-8-8-8z" fill="#ffffff" opacity=".1" stroke-width="3.7798"/>
  <path d="m13 8v2h-3c-1.662 0-3 1.338-3 3v4.9336c0.61892 0.35663 1.2897 0.63486 2 0.81641v-5.75c0-0.554 0.446-1 1-1h3v2l4-3-4-3z" fill="#ffffff"/>
 </g>
</svg>
