<svg version="1.1" viewBox="0 0 64 64" xmlns="http://www.w3.org/2000/svg">
 <defs>
  <filter id="a" x="-.038932" y="-.033367" width="1.0779" height="1.0667" color-interpolation-filters="sRGB">
   <feGaussianBlur stdDeviation=".206"/>
  </filter>
 </defs>
 <path transform="scale(3.7796)" d="m3.44 1.354a1.32 1.32 0 0 0-1.323 1.323v12.171c0 0.733 0.59 1.323 1.323 1.323h10.053a1.32 1.32 0 0 0 1.323-1.323v-10.318l-3.175-3.175z" filter="url(#a)" opacity=".15" style="paint-order:stroke fill markers"/>
 <g transform="scale(3.7796)" fill-rule="evenodd">
  <path transform="scale(.26458)" d="m13 4c-2.77 0-5 2.23-5 5v46c0 2.77 2.23 5 5 5h38c2.77 0 5-2.23 5-5v-39l-12-12z" fill="#f4f4f4" style="paint-order:stroke fill markers"/>
  <path d="m14.816 4.233-3.175-3.175v1.852c0 0.733 0.59 1.323 1.323 1.323z" fill="#bbbbbb" style="paint-order:stroke fill markers"/>
 </g>
 <path d="m43.998 10.999v0.58584c0 3.001 2.23 5.4162 5.0004 5.4162h6.9998v-1.0016h-6.9998a4.9891 4.9891 0 0 1-5.0042-5.0004z" opacity=".1" stroke-width="3.7796" style="paint-order:stroke fill markers"/>
 <g transform="matrix(1.2308 0 0 1.2307 2.4615 6.4697)">
  <path d="m24.844 10.996c-2.43 7.797-3.57 5.668-8.77 1.945 3.09 7.727 2.609 6.449-3.5 5.996 5.285 3.996 4.344 5.355-1.574 8.324 6.094 0.043 8.219-0.418 5.508 5.305 5.551-2.824 4.898-2.852 6.566 4.43 2.699-7.316 2.602-6.566 8.262-3.055-2.156-5.926-2.262-6.086 4.875-4.582-6.05-5.105-4.762-5.469 0.789-9.01-7.855 0.285-6.914-0.273-4.684-6.605-6.426 4.941-5.93 3.363-7.473-2.75" fill="#ec4c45"/>
  <path d="m17.445 17.996c2.727 5.324 0.902 6.469-3.449 9.34 6.285-0.059 7.109 0.363 7.887 6.66 2.664-5.305 3.465-6.68 9.113-5.168-3.582-3.816-4.379-5.379-2.613-10.371-4.438 2.875-6.438 2.102-10.938-0.461" fill="#ff6f7f"/>
  <path d="m23.605 19.996c1.594 2.543 1.672 2.574 4.398 3.586-2.727 1.18-2.289 1.16-2.098 4.219-2.215-1.844-2.922-1.563-5.344 0.195 1.168-3.137 0.969-3.297-1.559-5.242 3.03-0.098 3.445-0.055 4.602-2.758" fill="#ffb2cd"/>
 </g>
</svg>
