<svg version="1.1" viewBox="0 0 64 64" xmlns="http://www.w3.org/2000/svg" xmlns:xlink="http://www.w3.org/1999/xlink">
 <defs>
  <filter id="a-5" x="-.038932" y="-.033367" width="1.0779" height="1.0667" color-interpolation-filters="sRGB">
   <feGaussianBlur stdDeviation=".206"/>
  </filter>
 </defs>
 <path transform="scale(3.7796)" d="m3.44 1.354a1.32 1.32 0 0 0-1.323 1.323v12.171c0 0.733 0.59 1.323 1.323 1.323h10.053a1.32 1.32 0 0 0 1.323-1.323v-10.318l-3.175-3.175z" filter="url(#a-5)" opacity=".15" style="paint-order:stroke fill markers"/>
 <g transform="scale(3.7796)" fill-rule="evenodd">
  <path transform="scale(.26458)" d="m13 4c-2.77 0-5 2.23-5 5v46c0 2.77 2.23 5 5 5h38c2.77 0 5-2.23 5-5v-39l-12-12z" fill="#33a0ff" style="paint-order:stroke fill markers"/>
  <path d="m14.816 4.233-3.175-3.175v1.852c0 0.733 0.59 1.323 1.323 1.323z" fill="#ffffff" opacity=".35" style="paint-order:stroke fill markers"/>
 </g>
 <path d="m43.998 10.999v0.58584c0 3.001 2.23 5.4162 5.0004 5.4162h6.9998v-1.0016h-6.9998a4.9891 4.9891 0 0 1-5.0042-5.0004z" opacity=".1" stroke-width="3.7796" style="paint-order:stroke fill markers"/>
 <path d="m47.399 49.377c0-3.492-5.9248-5.2732-8.2886-5.906 0 0 0.09758-1.9584 0.32653-2.676 0.2282-0.71761 0.26047-1.5336 0.35881-1.7625 0.09758-0.2282 1.2513-1.2723 1.3166-2.2512-0.01501-0.584-0.13061-0.72287-0.41961-0.72287v-3.0341c0-1.6379-2.3878-3.0686-3.9559-3.0686s-3.9559 1.4307-3.9559 3.0686v3.0341c-0.28825 0-0.40309 0.13887-0.41886 0.72287 0.06531 0.97884 1.219 2.023 1.3166 2.2519 0.09758 0.2282 0.13061 1.0434 0.35881 1.7618 0.22894 0.71761 0.32653 2.676 0.32653 2.676-2.363 0.63279-8.2886 2.4141-8.2886 5.906z" fill="#ffffff" fill-rule="evenodd" opacity=".5" stroke-width=".75064"/>
 <path d="m42.971 49.377c0-4.3184-7.3277-6.5216-10.251-7.3052 0 0 0.12085-2.4208 0.40384-3.3088 0.28224-0.88801 0.32278-1.8969 0.44363-2.1799 0.12085-0.28224 1.5478-1.5733 1.6289-2.7849-0.01952-0.72212-0.16214-0.89326-0.51869-0.89326v-3.7524c0-2.0267-2.9538-3.7952-4.8927-3.7952s-4.8927 1.7693-4.8927 3.7952v3.7532c-0.35655 0-0.49918 0.1704-0.51869 0.89326 0.08032 1.2108 1.5073 2.5019 1.6289 2.7849 0.1201 0.28224 0.16139 1.2911 0.44363 2.1791 0.28224 0.88801 0.40384 3.3088 0.40384 3.3088-2.923 0.78367-10.251 2.9875-10.251 7.3052z" fill="#ffffff" fill-rule="evenodd" stroke-width=".75064"/>
</svg>
