<svg xmlns="http://www.w3.org/2000/svg" viewBox="0 0 64 64"><defs><filter id="a" width="1.104" height="1.089" x="-.052" y="-.045" color-interpolation-filters="sRGB"><feGaussianBlur stdDeviation="1.04"/></filter></defs><rect width="48" height="56" x="8" y="5" filter="url(#a)" opacity=".15" rx="5" ry="5"/><rect width="48" height="56" x="8" y="4" fill="#0cb25d" rx="5" ry="5"/><path fill="#fff" stroke-width=".088" d="M33.132 18c-4.876.87-9.755 2.022-14.63 2.873v22.262c4.848.85 9.701 1.98 14.543 2.865H34.5V18zm-3.254 8.731c-.85 1.739-1.701 3.477-2.57 5.212.876 1.78 1.772 3.55 2.645 5.33a185 185 0 0 1-2.294-.148c-.54-1.323-1.198-2.608-1.587-3.995-.431 1.293-1.047 2.51-1.546 3.78a78 78 0 0 1-2.09-.068c.82-1.603 1.606-3.213 2.449-4.804-.714-1.64-1.5-3.243-2.238-4.876l2.098-.117c.476 1.243.994 2.472 1.383 3.746.424-1.354 1.047-2.624 1.588-3.931q1.075-.078 2.162-.133zm5.62-4.728v2h3.001v1.999h-3.001V27h3.001v2.003h-3.001V30h3.001v2.003h-3.001v.998h3.001V35h-3.001v1.002h3.001v1.999h-3.001V39h3.001v2.003h-3.001v2h10v-21zm3.999 2h4.002v1.999h-4.002zm0 2.997h4.002v2.003h-4.002zm0 3h4.002v2.004h-4.002zm0 3.002h4.002V35h-4.002zm0 3h4.002v2h-4.002zm0 2.998h4.002v2.003h-4.002z"/></svg>