<svg xmlns="http://www.w3.org/2000/svg" viewBox="0 0 64 64"><defs><filter id="a" width="1.078" height="1.067" x="-.039" y="-.033" color-interpolation-filters="sRGB"><feGaussianBlur stdDeviation=".206"/></filter></defs><path fill-rule="evenodd" d="M3.44 1.354a1.32 1.32 0 0 0-1.323 1.323v12.171c0 .733.59 1.323 1.323 1.323h10.053a1.32 1.32 0 0 0 1.323-1.323V4.53l-3.175-3.175z" filter="url(#a)" opacity=".15" style="paint-order:stroke fill markers" transform="scale(3.7796)"/><g fill-rule="evenodd"><path fill="#f1bd60" d="M13 4c-2.77 0-5 2.23-5 5v46c0 2.77 2.23 5 5 5h38c2.77 0 5-2.23 5-5V16L44 4z" style="paint-order:stroke fill markers"/><path fill="#fff" d="m14.816 4.233-3.175-3.175V2.91c0 .733.59 1.323 1.323 1.323z" opacity=".35" style="paint-order:stroke fill markers" transform="scale(3.7796)"/></g><path fill="#fff" d="M29.999 31v6.501c0 .276.223.5.499.5h3a.5.5 0 0 0 .5-.5v-6.5zM31 35h2v2.002h-2.007zm.998-31.001v2.003h2.003V3.999zm0 2.003h-2.003v2h2.003zm0 2V10h2.003V7.998zm0 1.999h-2.003v2h2.003zm0 2v2.002h2.003V12zm0 2.002h-2.003V16h2.003zm0 1.996v2.003h2.003V16zm0 2.003h-2.003v2h2.003zm0 2v2h2.003v-2.004zm0 2h-2.003V24h2.003zm0 1.998v2.004h2.003V24zm0 2.004h-2.003v1.995h2.003zm0 1.995v2.003h2.003V28z" color="#000" opacity=".9"/><path fill-rule="evenodd" d="M43.998 10.999v.586c0 3 2.23 5.416 5 5.416h7v-1.002h-7a4.99 4.99 0 0 1-5.004-5z" opacity=".1" style="paint-order:stroke fill markers"/><path fill-rule="evenodd" d="M8 48v7c0 2.77 2.23 5 5 5h38c2.77 0 5-2.23 5-5v-7z" opacity=".15" style="paint-order:stroke fill markers"/><g fill="#fff" stroke-width=".206" aria-label="THA"><path d="M26.008 57h.765v-5.391h1.828v-.642h-4.42v.642h1.827zM29.687 57h.757v-2.848h2.815V57h.765v-6.033h-.765v2.527h-2.815v-2.527h-.757zM34.881 57h.765l.585-1.844h2.206L39.013 57h.806l-2.05-6.033h-.847zm1.54-2.444.295-.93c.214-.684.412-1.334.601-2.042h.033c.198.7.387 1.358.61 2.042l.287.93z"/></g></svg>