<svg xmlns="http://www.w3.org/2000/svg" width="64" height="64" viewBox="0 0 16.933 16.933"><defs><filter id="a" width="1.078" height="1.067" x="-.039" y="-.033" color-interpolation-filters="sRGB"><feGaussianBlur stdDeviation=".206"/></filter></defs><g fill-rule="evenodd"><path d="M3.44 1.354a1.32 1.32 0 0 0-1.323 1.323v12.171c0 .733.59 1.323 1.323 1.323h10.053a1.32 1.32 0 0 0 1.323-1.323V4.53l-3.175-3.175z" filter="url(#a)" opacity=".15" style="paint-order:stroke fill markers"/><path fill="#eb253e" d="M3.44 1.059a1.32 1.32 0 0 0-1.323 1.323v12.17c0 .733.59 1.323 1.323 1.323h10.053a1.32 1.32 0 0 0 1.323-1.322V4.233L11.642 1.06z" style="paint-order:stroke fill markers"/><path fill="#fff" d="m14.816 4.233-3.175-3.175V2.91c0 .733.59 1.323 1.323 1.323z" opacity=".35" style="paint-order:stroke fill markers"/><path fill="#fff" d="M9.079 4.806 6.057 8.385c.787.126 2.116 1.121 1.916 2.443.408-.98-.342-2.176-1.062-2.658l2.636-3.15a1.24 1.24 0 0 0-.468-.215zm-1.017.25c-.117 0-.205.017-.2.017L6.895 6.18c-.542.03-1.07.066-1.581.118a.81.81 0 0 0-.706.713 20 20 0 0 0-.111 2.124c0 .735.037 1.448.111 2.13.052.432.342.647.706.714 1.01.163 2.472.007 2.472-1.381 0-1.3-2.13-1.857-2.859-1.5L8.292 5.08a1 1 0 0 0-.23-.025zm2.22 1.138s-1.893 4.203-2.08 4.634c-.281.638-.667 1.106-1.224 1.27.49.022.98.03 1.485.03 1.106 0 2.16-.053 3.148-.15a.805.805 0 0 0 .705-.712 18 18 0 0 0 .12-2.131c0-.735-.038-1.448-.12-2.124a.8.8 0 0 0-.705-.713q-.647-.068-1.33-.104z" clip-rule="evenodd" enable-background="new"/><path d="M11.641 2.91v.155c0 .794.59 1.433 1.323 1.433h1.852v-.265h-1.852A1.32 1.32 0 0 1 11.64 2.91z" opacity=".1" style="paint-order:stroke fill markers"/></g></svg>