<svg xmlns="http://www.w3.org/2000/svg" viewBox="0 0 64 64"><defs><filter id="a" width="1.078" height="1.067" x="-.039" y="-.033" color-interpolation-filters="sRGB"><feGaussianBlur stdDeviation=".206"/></filter></defs><path d="M3.44 1.354a1.32 1.32 0 0 0-1.323 1.323v12.171c0 .733.59 1.323 1.323 1.323h10.053a1.32 1.32 0 0 0 1.323-1.323V4.53l-3.175-3.175z" filter="url(#a)" opacity=".15" style="paint-order:stroke fill markers" transform="scale(3.7796)"/><g fill-rule="evenodd"><path fill="#f8d267" d="M13 4c-2.77 0-5 2.23-5 5v46c0 2.77 2.23 5 5 5h38c2.77 0 5-2.23 5-5V16L44 4z" style="paint-order:stroke fill markers"/><path fill="#fff" d="m14.816 4.233-3.175-3.175V2.91c0 .733.59 1.323 1.323 1.323z" opacity=".35" style="paint-order:stroke fill markers" transform="scale(3.7796)"/></g><path d="M43.998 10.999v.586c0 3 2.23 5.416 5 5.416h7v-1.002h-7a4.99 4.99 0 0 1-5.004-5z" opacity=".1" style="paint-order:stroke fill markers"/><path fill="#fff" d="M32 21.601 18.637 31.626q-.043.03-.082.063l-.016.011v.002c-.326.256-.539.65-.539 1.098v12.199c0 2 1.577 2 2 2h24s2 0 2-2V32.8c0-.458-.222-.86-.56-1.115l.006-.008zM32 28a5 5 0 0 1 5 5v1.5c0 .831-.669 1.5-1.5 1.5a1.5 1.5 0 0 1-1.37-.89A3 3 0 0 1 32 36a3 3 0 0 1-3-3 3 3 0 0 1 3-3 3 3 0 0 1 3 3v1.5a.5.5 0 1 0 1 0V33a4 4 0 0 0-4-4 4 4 0 0 0-4 4 4 4 0 0 0 4 4h3.5a.5.5 0 1 1 0 1H32a5 5 0 0 1-5-5 5 5 0 0 1 5-5m0 3a2 2 0 0 0-2 2 2 2 0 0 0 2 2 2 2 0 0 0 2-2 2 2 0 0 0-2-2" opacity=".75"/><path fill="#fff" d="M22.5 25c-.831 0-1.5.669-1.5 1.5v15c0 .83.669 1.498 1.5 1.498h19c.831 0 1.5-.668 1.5-1.498v-15c0-.83-.669-1.5-1.5-1.5zm9.5 3a5 5 0 0 1 5 5v1.5c0 .83-.669 1.5-1.5 1.5a1.5 1.5 0 0 1-1.37-.892A3 3 0 0 1 32 36a3 3 0 0 1-3-3 3 3 0 0 1 3-3 3 3 0 0 1 3 3v1.5a.5.5 0 1 0 1 0V33a4 4 0 0 0-4-4 4 4 0 0 0-4 4 4 4 0 0 0 4 4h3.5a.5.5 0 1 1 0 1H32a5 5 0 0 1-5-5 5 5 0 0 1 5-5m0 3a2 2 0 0 0-2 2 2 2 0 0 0 2 2 2 2 0 0 0 2-2 2 2 0 0 0-2-2"/><path fill="#f6ebcf" d="M18 32.8 44.6 51H20c-1 0-2-.5-2-2z"/><path fill="#fffcf0" d="M44 51c2 0 2-2 2-2V32.8L19.4 51z"/></svg>