<svg width="64" height="64" version="1.1" viewBox="0 0 16.933 16.933" xmlns="http://www.w3.org/2000/svg">
 <defs>
  <filter id="a" x="-.038932" y="-.033367" width="1.0779" height="1.0667" color-interpolation-filters="sRGB">
   <feGaussianBlur stdDeviation=".206"/>
  </filter>
 </defs>
 <path d="M3.44 1.354a1.32 1.32 0 0 0-1.323 1.323v12.171c0 .733.59 1.323 1.323 1.323h10.053a1.32 1.32 0 0 0 1.323-1.323V4.53l-3.175-3.175z" fill-rule="evenodd" filter="url(#a)" opacity=".15" style="paint-order:stroke fill markers"/>
 <path d="M3.44 1.058a1.32 1.32 0 0 0-1.323 1.323v12.171c0 .733.59 1.323 1.323 1.323h10.053a1.32 1.32 0 0 0 1.323-1.323V4.233l-3.174-3.175z" fill="#55c1ec" fill-rule="evenodd" style="paint-order:stroke fill markers"/>
 <rect x="19.588" y="-1.148" width="16.933" height="16.933" rx="0" ry="0" fill="none" opacity=".75"/>
 <path d="m14.816 4.233-3.175-3.175V2.91c0 .733.59 1.323 1.323 1.323z" fill="#fff" fill-rule="evenodd" opacity=".35" style="paint-order:stroke fill markers"/>
 <path d="M11.641 2.91v.155c0 .794.59 1.433 1.323 1.433h1.852v-.265h-1.852A1.32 1.32 0 0 1 11.64 2.91z" fill-rule="evenodd" opacity=".1" style="paint-order:stroke fill markers"/>
 <path d="m8.4591 5.6768c-0.17489 0.015081-0.17489 0.16324-0.23918 0.5273a3.2001 3.185 0 0 0-0.35348 0.048947c-0.15531-0.37438-0.21008-0.50614-0.35718-0.45613-0.16907 0.057149-0.12938 0.20187-0.10371 0.58101a3.2001 3.185 0 0 0-0.32781 0.13546c-0.26378-0.31617-0.35348-0.42703-0.47942-0.33496-0.14367 0.10266-0.066674 0.22992 0.066409 0.57413a3.2001 3.185 0 0 0-0.28469 0.21934c-0.33125-0.245-0.44555-0.32914-0.54715-0.21008-0.1143 0.13546-0.00688 0.23812 0.20769 0.54503a3.2001 3.185 0 0 0-0.21457 0.27754c-0.3466-0.12832-0.47492-0.20425-0.57652-0.05953-0.089957 0.12832 0.021166 0.21695 0.34078 0.47359a3.2001 3.185 0 0 0-0.13758 0.32914c-0.36512-0.034924-0.50773-0.072494-0.56831 0.092073-0.052386 0.14472 0.075934 0.20293 0.44343 0.36512a3.2001 3.185 0 0 0-0.045507 0.35004c-0.3593 0.06879-0.50878 0.071436-0.51937 0.245-0.010583 0.15293 0.12858 0.17383 0.51593 0.2241a3.2001 3.185 0 0 0 0.05027 0.37332c-0.33046 0.14366-0.4728 0.18097-0.44581 0.35242 0.025664 0.15293 0.16668 0.14023 0.57149 0.10266a3.2001 3.185 0 0 0 0.14234 0.34316c-0.28098 0.21801-0.4093 0.28918-0.34183 0.44793 0.061911 0.1434 0.19605 0.09578 0.58339-0.04074a3.2001 3.185 0 0 0 0.20902 0.26934c-0.21351 0.31167-0.31988 0.41777-0.2032 0.55085 0.1016 0.11641 0.2159 0.03148 0.53895-0.21352a3.2001 3.185 0 0 0 0.28574 0.22039c-0.12938 0.3593-0.20743 0.48894-0.059266 0.58922 0.12832 0.08863 0.2159-0.02328 0.47359-0.34871l-0.06297-0.03757a3.2001 3.185 0 0 0 0.3757 0.16007c-0.023283 0.36962-0.060853 0.51328 0.10715 0.57043 0.14472 0.04762 0.19843-0.08175 0.34766-0.44211a3.2001 3.185 0 0 0 0.363 0.04895c0.06879 0.40824 0.091015 0.54821 0.24738 0.53312 0.17489-0.01746 0.17145-0.16563 0.2286-0.52968a3.2001 3.185 0 0 0 0.36644-0.04657c0.1516 0.36618 0.20531 0.49582 0.3511 0.44687 0.16801-0.05609 0.13176-0.19949 0.1061-0.56937a3.2001 3.185 0 0 0 0.33257-0.13546c0.2495 0.31485 0.3384 0.42703 0.46672 0.33866 0.1434-0.09816 0.06985-0.22648-0.05503-0.57202a3.2001 3.185 0 0 0 0.29633-0.22489c0.30929 0.23309 0.42253 0.31485 0.52281 0.20161 0.11324-0.1307 0.01402-0.23812-0.18785-0.5318a3.2001 3.185 0 0 0 0.2159-0.27437c0.37782 0.13308 0.5109 0.17965 0.57149 0.03731 0.06879-0.15742-0.05821-0.2286-0.33601-0.44343a3.2001 3.185 0 0 0 0.14472-0.34766c0.39793 0.03625 0.53895 0.04895 0.56355-0.10266 0.02805-0.17039-0.11324-0.21008-0.43655-0.35004a3.2001 3.185 0 0 0 0.04683-0.3757c0.38284-0.050274 0.52042-0.072234 0.51116-0.22278-0.01164-0.17277-0.15875-0.17727-0.50984-0.245a3.2001 3.185 0 0 0-0.04789-0.35586c0.36036-0.15875 0.48762-0.21695 0.43523-0.36062-0.05821-0.16324-0.20082-0.12832-0.56011-0.093132a3.2001 3.185 0 0 0-0.13758-0.33496c0.31247-0.25082 0.42227-0.34078 0.33363-0.46672-0.1016-0.1434-0.2286-0.070113-0.57281 0.058207a3.2001 3.185 0 0 0-0.22172-0.28336c0.23336-0.32808 0.31379-0.44343 0.19367-0.54133-0.13414-0.10848-0.23812-0.00582-0.52492 0.20637a3.2001 3.185 0 0 0-0.29289-0.22383c0.15293-0.37332 0.20637-0.50402 0.06773-0.57175-0.1598-0.079373-0.23468 0.051328-0.48418 0.3384a3.2001 3.185 0 0 0-0.33125-0.13546c0.034924-0.40957 0.047624-0.55059-0.10636-0.57413-0.17383-0.026458-0.20902 0.11694-0.35215 0.45163a3.2001 3.185 0 0 0-0.363-0.044184c-0.061646-0.40136-0.081489-0.54133-0.2368-0.52863m-0.12832 0.97894c0.35453-0.00582 0.77468 0.055826 0.91121 0.11641 0.59504 0.17991 1.1456 0.51355 1.6134 1.2872 0.08758 0.1434 0.1516 0.28336 0.17859 0.41063a0.52916 0.52916 0 0 1-0.06879 0.41539c-0.07461 0.097894-0.16668 0.18891-0.29527 0.20055-0.40136 0.038628-0.94507 0.016404-1.3732 0.011641-0.07223 0-0.13996-0.030162-0.16219-0.052386-0.12594-0.080432-0.21219-0.2532-0.35348-0.30215-0.22621-0.10504-0.31855-0.016404-0.44555-0.17383a22.158 22.16 0 0 1-0.67097-1.1456c-0.1516-0.26273-0.052386-0.52519 0.17515-0.66753 0.089956-0.070113 0.27992-0.096836 0.49106-0.10054m-1.5785 0.80855a0.52916 0.52916 0 0 1 0.056091 0.00238c0.12118 0.017462 0.24712 0.052386 0.32067 0.15875 0.22992 0.32993 0.47836 0.81199 0.68367 1.1877 0.034924 0.06297 0.043126 0.13626 0.033866 0.16563-0.0082 0.15054-0.11668 0.30903-0.089957 0.45613 0.019843 0.2487 0.14023 0.28469 0.066674 0.47254a22.225 22.225 0 0 1-0.67203 1.1456c-0.15531 0.26034-0.43391 0.30347-0.66859 0.17515-0.27781-0.11668-0.65086-0.99058-0.67547-1.2263-0.13414-0.60668-0.11324-1.2485 0.33257-2.0359 0.083871-0.14578 0.17489-0.26828 0.27172-0.35586a0.55561 0.55561 0 0 1 0.34051-0.14472zm1.715 1.651a0.26458 0.26458 0 0 1 0.26352 0.26458 0.26458 0.26458 0 0 1-0.26458 0.26511 0.26458 0.26458 0 0 1-0.26537-0.26458 0.26458 0.26458 0 0 1 0.26484-0.26484zm1.4536 0.55403h0.00132c0.22145 0 0.44317 0.00582 0.6625 0.012964 0.30347 0.0045 0.47942 0.22489 0.4855 0.49211 0.03836 0.29765-0.53445 1.0573-0.72706 1.1959-0.45957 0.41909-1.0266 0.7223-1.933 0.7305a1.4287 1.4287 0 0 1-0.44449-0.05821 0.52916 0.52916 0 0 1-0.32199-0.26855c-0.04683-0.1143-0.079373-0.2413-0.023547-0.35797 0.17171-0.363 0.46672-0.81913 0.68843-1.1843 0.037305-0.06191 0.097894-0.10504 0.12832-0.11218 0.13308-0.06747 0.32675-0.05239 0.44105-0.14922 0.20531-0.14128 0.17489-0.26484 0.3757-0.29527a25.4 25.4 0 0 1 0.66727-0.00582z" fill="#ffffff" stroke-width=".26458"/>
</svg>
