<svg xmlns="http://www.w3.org/2000/svg" viewBox="0 0 64 64"><defs><filter id="a" width="1.078" height="1.067" x="-.039" y="-.033" color-interpolation-filters="sRGB"><feGaussianBlur stdDeviation=".206"/></filter></defs><path d="M3.44 1.354a1.32 1.32 0 0 0-1.323 1.323v12.171c0 .733.59 1.323 1.323 1.323h10.053a1.32 1.32 0 0 0 1.323-1.323V4.53l-3.175-3.175z" filter="url(#a)" opacity=".15" style="paint-order:stroke fill markers" transform="scale(3.7796)"/><g fill-rule="evenodd"><path fill="#33a0ff" d="M13 4c-2.77 0-5 2.23-5 5v46c0 2.77 2.23 5 5 5h38c2.77 0 5-2.23 5-5V16L44 4z" style="paint-order:stroke fill markers"/><path fill="#fff" d="m14.816 4.233-3.175-3.175V2.91c0 .733.59 1.323 1.323 1.323z" opacity=".35" style="paint-order:stroke fill markers" transform="scale(3.7796)"/></g><path d="M43.998 10.999v.586c0 3 2.23 5.416 5 5.416h7v-1.002h-7a4.99 4.99 0 0 1-5.004-5z" opacity=".1" style="paint-order:stroke fill markers"/><path fill="#fff" fill-rule="evenodd" d="M47.399 49.377c0-3.492-5.925-5.273-8.289-5.906 0 0 .098-1.958.327-2.676.228-.718.26-1.534.359-1.762.097-.229 1.251-1.273 1.316-2.252-.015-.584-.13-.723-.42-.723v-3.034c0-1.638-2.387-3.068-3.955-3.068s-3.956 1.43-3.956 3.068v3.034c-.288 0-.403.14-.419.723.065.98 1.22 2.023 1.317 2.252s.13 1.044.358 1.762c.23.718.327 2.676.327 2.676-2.363.633-8.289 2.414-8.289 5.906z" opacity=".5"/><path fill="#fff" fill-rule="evenodd" d="M42.971 49.377c0-4.318-7.328-6.522-10.251-7.305 0 0 .12-2.421.404-3.309.282-.888.323-1.897.443-2.18.121-.282 1.548-1.573 1.63-2.785-.02-.722-.163-.893-.52-.893v-3.752c0-2.027-2.953-3.796-4.892-3.796s-4.893 1.77-4.893 3.796v3.753c-.356 0-.499.17-.518.893.08 1.21 1.507 2.502 1.628 2.785.12.282.162 1.291.444 2.179s.404 3.309.404 3.309c-2.923.783-10.251 2.987-10.251 7.305z"/></svg>