<svg xmlns="http://www.w3.org/2000/svg" viewBox="0 0 64 64"><defs><filter id="a" width="1.078" height="1.067" x="-.039" y="-.033" color-interpolation-filters="sRGB"><feGaussianBlur stdDeviation=".206"/></filter></defs><path d="M3.44 1.354a1.32 1.32 0 0 0-1.323 1.323v12.171c0 .733.59 1.323 1.323 1.323h10.053a1.32 1.32 0 0 0 1.323-1.323V4.53l-3.175-3.175z" filter="url(#a)" opacity=".15" style="paint-order:stroke fill markers" transform="scale(3.7796)"/><g fill-rule="evenodd"><path fill="#0fba5f" d="M13 4c-2.77 0-5 2.23-5 5v46c0 2.77 2.23 5 5 5h38c2.77 0 5-2.23 5-5V16L44 4z" style="paint-order:stroke fill markers"/><path fill="#fff" d="m14.816 4.233-3.175-3.175V2.91c0 .733.59 1.323 1.323 1.323z" opacity=".35" style="paint-order:stroke fill markers" transform="scale(3.7796)"/></g><path d="M43.998 10.999v.586c0 3 2.23 5.416 5 5.416h7v-1.002h-7a4.99 4.99 0 0 1-5.004-5z" opacity=".1" style="paint-order:stroke fill markers"/><path fill="#fff" d="M38.684 48.28h-5.16c-1.566 0-3.109.027-4.602-.547-1.223-.473-2.371-1.191-3.281-2.148-3.02-3.156-3.422-8.168-.684-11.648 1.668-2.121 4.238-3.48 6.961-3.48.738 0 2.297-.117 2.609.758.164.445-.176.957-.641 1.039-.438.07-.938-.148-1.383-.156-1.305-.02-2.48.164-3.676.703-4.43 2-5.531 8.5-1.914 11.789.941.859 1.996 1.504 3.227 1.824 1.086.293 2.207.227 3.32.227h6.707c.285 0 .684.074.949-.016.211-.074.383-.293.527-.449.367-.363.914-.766 1.121-1.246h-8.422c-1.012 0-2.078.098-3.09-.047-1.184-.172-2.242-.73-3.117-1.539-.457-.418-.82-.957-1.094-1.504-1.668-3.344.473-7.336 4.121-7.973.629-.121 1.313-.082 1.93.043.621.121 1.395.348 1.879.766a.79.79 0 0 1 .082 1.141c-.438.5-.883.191-1.367-.02a4.4 4.4 0 0 0-1.176-.336 3.97 3.97 0 0 0-4.129 2.395c-.855 2.043.219 4.496 2.316 5.223 1.012.348 2.168.211 3.227.211h8.77c.344 0 .93.109 1.246-.027.129-.047.191-.227.258-.336l.52-1.023c.617-1.422 1.039-2.871 1.203-4.41.691-6.426-3.227-12.547-9.309-14.719-4.75-1.695-10.273-.527-14 2.844-1.734 1.578-2.98 3.535-3.801 5.723-1.086 2.91-1.086 6.473.016 9.379.246.664.512 1.32.859 1.941.09.164.207.539.398.602.402.156.066-.73.027-.867-.273-1.102-.363-2.195-.363-3.324 0-4.813 3.254-9.234 7.629-11.07 1.313-.547 2.816-.902 4.238-.902.203 0 .43-.027.629.035.449.156.723.676.492 1.121-.301.594-.91.449-1.449.492-1.164.121-2.297.348-3.379.805-3.129 1.313-5.57 4.156-6.273 7.488-1.012 4.73 1.25 9.68 5.605 11.867 1.844.922 3.855 1.211 5.891 1.066a13.8 13.8 0 0 0 4.176-.977c.41-.172 1.082-.363 1.375-.711"/></svg>