<svg xmlns="http://www.w3.org/2000/svg" viewBox="0 0 64 64"><defs><filter id="a" width="1.104" height="1.089" x="-.052" y="-.045" color-interpolation-filters="sRGB"><feGaussianBlur stdDeviation="1.04"/></filter></defs><rect width="48" height="56" x="8" y="5" filter="url(#a)" opacity=".15" rx="5" ry="5"/><rect width="48" height="56" x="8" y="4" fill="#fe742d" rx="5" ry="5"/><path fill="#fff" d="M33.13 17.998c-4.876.87-9.755 2.022-14.631 2.873v22.262c4.85.85 9.702 1.984 14.544 2.868h1.455V17.998zm-7.336 8.818c.96-.02 1.882.117 2.634.794 1.436 1.746 1.059 4.95-1.073 5.998-.756.385-1.625.332-2.446.302-.003 1.308-.007 2.608-.003 3.912l-1.985-.166c-.03-3.56-.037-6.959 0-10.52.945-.113 1.909-.302 2.873-.32zm-.114 1.931c-.264-.007-.529.02-.774.03-.012 1.12-.02 2.234.053 3.353.66-.08 1.523-.015 1.9-.7a2.42 2.42 0 0 0-.041-2.188c-.276-.385-.7-.483-1.134-.491zm9.82-6.746v3.322c.468-.102.979-.291 1.5-.321v4.497h4.468c-.159 1.365-.767 2.767-1.966 3.478-1.183.793-2.683.805-4.002.396V36h7.997v.998H35.5v2.003h7.997V40H35.5V43h10V22.001zm2.498 2.396a4.7 4.7 0 0 1 4.12 4.1h-4.12z"/></svg>