<svg xmlns="http://www.w3.org/2000/svg" width="64" height="64" viewBox="0 0 16.933 16.933"><defs><filter id="a" width="1.078" height="1.067" x="-.039" y="-.033" color-interpolation-filters="sRGB"><feGaussianBlur stdDeviation=".206"/></filter></defs><path fill-rule="evenodd" d="M3.44 1.354a1.32 1.32 0 0 0-1.323 1.323v12.171c0 .733.59 1.323 1.323 1.323h10.053a1.32 1.32 0 0 0 1.323-1.323V4.53l-3.175-3.175z" filter="url(#a)" opacity=".15" style="paint-order:stroke fill markers"/><g fill-rule="evenodd"><path fill="#f4f4f4" d="M13 4c-2.77 0-5 2.23-5 5v46c0 2.77 2.23 5 5 5h38c2.77 0 5-2.23 5-5V16L44 4z" style="paint-order:stroke fill markers" transform="scale(.26458)"/><path fill="#bbb" d="m14.816 4.233-3.175-3.175V2.91c0 .733.59 1.323 1.323 1.323z" style="paint-order:stroke fill markers"/></g><path fill="#a8a8a8" d="m9.79 4.762-.041.488a1.5 1.5 0 0 0-.426.246l-.443-.209-.463.802.402.28a1.5 1.5 0 0 0-.022.245 1.5 1.5 0 0 0 .021.247l-.401.278.463.802.442-.208a1.5 1.5 0 0 0 .427.245l.04.488h.926l.041-.487a1.5 1.5 0 0 0 .426-.246l.443.208.463-.802-.403-.28a1.5 1.5 0 0 0 .023-.245 1.5 1.5 0 0 0-.022-.246l.402-.279-.463-.802-.442.209a1.5 1.5 0 0 0-.427-.245l-.04-.489h-.927zm.462 1.235a.617.617 0 0 1 .618.617.617.617 0 0 1-.618.618.617.617 0 0 1-.617-.618.617.617 0 0 1 .617-.617M6.218 8.202l-.059.697a2.1 2.1 0 0 0-.607.351l-.634-.298-.661 1.146.575.399a2 2 0 0 0-.032.35 2 2 0 0 0 .03.353l-.573.398.661 1.146.632-.298a2.1 2.1 0 0 0 .61.35l.058.698H7.54l.059-.697a2.1 2.1 0 0 0 .607-.352l.634.299.661-1.146-.575-.4a2 2 0 0 0 .032-.35 2 2 0 0 0-.03-.352l.573-.398-.661-1.146-.632.297a2.1 2.1 0 0 0-.61-.349l-.058-.698zm.661 1.764a.88.88 0 0 1 .882.882.88.88 0 0 1-.882.882.88.88 0 0 1-.882-.882.88.88 0 0 1 .882-.882" enable-background="new"/><path fill-rule="evenodd" d="M11.641 2.91v.155c0 .794.59 1.433 1.323 1.433h1.852v-.265h-1.852A1.32 1.32 0 0 1 11.64 2.91z" opacity=".1" style="paint-order:stroke fill markers"/></svg>