<svg xmlns="http://www.w3.org/2000/svg" width="64" height="64" viewBox="0 0 16.933 16.933"><defs><filter id="a" width="1.078" height="1.067" x="-.039" y="-.033" color-interpolation-filters="sRGB"><feGaussianBlur stdDeviation=".206"/></filter></defs><g fill-rule="evenodd"><path d="M3.44 1.354a1.32 1.32 0 0 0-1.323 1.323v12.171c0 .733.59 1.323 1.323 1.323h10.053a1.32 1.32 0 0 0 1.323-1.323V4.53l-3.175-3.175z" filter="url(#a)" opacity=".15" style="paint-order:stroke fill markers"/><path fill="#3374d4" d="M3.44 1.058a1.32 1.32 0 0 0-1.323 1.323v12.171c0 .733.59 1.323 1.323 1.323h10.053a1.32 1.32 0 0 0 1.323-1.323V4.233l-3.175-3.175z" style="paint-order:stroke fill markers"/><path fill="#fff" d="m14.816 4.233-3.175-3.175V2.91c0 .733.59 1.323 1.323 1.323z" opacity=".35" style="paint-order:stroke fill markers"/></g><path fill="#fff" stroke-width=".088" d="M8.766 4.762c-1.29.23-2.581.535-3.871.76v5.89c1.283.225 2.567.525 3.848.759h.385V4.762zm-.499 2.4-.594 2.495-.488-.038c-.112-.558-.243-1.111-.343-1.671-.098.544-.226 1.082-.34 1.623l-.485-.03c-.14-.74-.304-1.476-.435-2.218q.216-.01.433-.018c.087.536.185 1.07.26 1.607q.18-.825.358-1.652l.48-.024q.167.852.348 1.7c.095-.583.2-1.166.302-1.749q.252-.01.504-.025M9.393 5.82h2.646v5.292H9.393v-.529h2.117v-.264H9.393v-.53h2.117v-.264H9.393v-.53h2.117v-.264H9.393v-.53h2.117v-.264H9.393V7.41h2.117v-.265H9.393v-.53h2.117V6.35H9.393z" enable-background="new"/><path fill-rule="evenodd" d="M11.641 2.91v.155c0 .794.59 1.433 1.323 1.433h1.852v-.265h-1.852A1.32 1.32 0 0 1 11.64 2.91z" opacity=".1" style="paint-order:stroke fill markers"/></svg>