<svg version="1.1" viewBox="0 0 64 64" xmlns="http://www.w3.org/2000/svg" xmlns:xlink="http://www.w3.org/1999/xlink">
 <defs>
  <filter id="a-6" x="-.038932" y="-.033367" width="1.0779" height="1.0667" color-interpolation-filters="sRGB">
   <feGaussianBlur stdDeviation=".206"/>
  </filter>
 </defs>
 <path transform="scale(3.7796)" d="m3.44 1.354a1.32 1.32 0 0 0-1.323 1.323v12.171c0 0.733 0.59 1.323 1.323 1.323h10.053a1.32 1.32 0 0 0 1.323-1.323v-10.318l-3.175-3.175z" fill-rule="evenodd" filter="url(#a-6)" opacity=".15" style="paint-order:stroke fill markers"/>
 <g transform="scale(3.7796)" fill-rule="evenodd">
  <path transform="scale(.26458)" d="m13 4c-2.77 0-5 2.23-5 5v46c0 2.77 2.23 5 5 5h38c2.77 0 5-2.23 5-5v-39l-12-12z" fill="#d253c8" style="paint-order:stroke fill markers"/>
  <path d="m14.816 4.233-3.175-3.175v1.852c0 0.733 0.59 1.323 1.323 1.323z" fill="#ffffff" opacity=".35" style="paint-order:stroke fill markers"/>
 </g>
 <path d="m43.998 10.999v0.58584c0 3.001 2.23 5.4162 5.0004 5.4162h6.9998v-1.0016h-6.9998a4.9891 4.9891 0 0 1-5.0042-5.0004z" fill-rule="evenodd" opacity=".1" stroke-width="3.7796" style="paint-order:stroke fill markers"/>
 <path d="m41.001 23.994c-0.355-4e-3 -0.827 0.051-1.456 0.146l-10.455 1.598c-2.524 0.538-2.515 0.705-2.524 2.838v17.303c-0.105-0.074-0.209-0.148-0.318-0.221-0.802-0.537-1.656-0.92-2.804-0.92-1.438 0-2.296 0.551-2.815 1.277-0.52 0.725-0.691 1.639-0.691 2.346 0 0.852 0.29 1.761 0.922 2.454 0.63 0.693 1.601 1.179 2.996 1.179 1.576 0 2.684-0.44 3.31-1.3 0.494-0.676 0.767-1.58 0.864-2.694v-4e-3c0.014-0.135 0.023-0.274 0.032-0.417 0.013-0.22 0.01-0.632 0.01-0.632v-13.25c0-1.892 0-2.005 2.525-2.437l7.435-1.166c2.53-0.33 2.53-0.1 2.53 1.32v12.16c-0.102-0.072-0.204-0.144-0.31-0.215-0.801-0.537-1.656-0.92-2.804-0.92-1.438 0-2.296 0.551-2.815 1.276-0.519 0.726-0.691 1.64-0.691 2.347 0 0.852 0.291 1.761 0.922 2.454 0.632 0.693 1.602 1.179 2.997 1.179 1.576 0 2.684-0.44 3.31-1.3 0.494-0.676 0.766-1.58 0.863-2.694v-4e-3c0.014-0.135 0.024-0.274 0.032-0.417 0.014-0.22 0.011-0.633 0.011-0.633v-18.432c0-1.66-0.01-2.21-1.076-2.221z" fill="#ffffff"/>
</svg>
