<svg xmlns="http://www.w3.org/2000/svg" viewBox="0 0 64 64"><defs><filter id="a" width="1.078" height="1.067" x="-.039" y="-.033" color-interpolation-filters="sRGB"><feGaussianBlur stdDeviation=".206"/></filter></defs><path fill-rule="evenodd" d="M3.44 1.354a1.32 1.32 0 0 0-1.323 1.323v12.171c0 .733.59 1.323 1.323 1.323h10.053a1.32 1.32 0 0 0 1.323-1.323V4.53l-3.175-3.175z" filter="url(#a)" opacity=".15" style="paint-order:stroke fill markers" transform="scale(3.7796)"/><g fill-rule="evenodd"><path fill="#f1bd60" d="M13 4c-2.77 0-5 2.23-5 5v46c0 2.77 2.23 5 5 5h38c2.77 0 5-2.23 5-5V16L44 4z" style="paint-order:stroke fill markers"/><path fill="#fff" d="m14.816 4.233-3.175-3.175V2.91c0 .733.59 1.323 1.323 1.323z" opacity=".35" style="paint-order:stroke fill markers" transform="scale(3.7796)"/></g><path fill="#fff" d="M29.999 31v6.501c0 .276.223.5.499.5h3a.5.5 0 0 0 .5-.5v-6.5zM31 35h2v2.002h-2.007zm.998-31.001v2.003h2.003V3.999zm0 2.003h-2.003v2h2.003zm0 2V10h2.003V7.998zm0 1.999h-2.003v2h2.003zm0 2v2.002h2.003V12zm0 2.002h-2.003V16h2.003zm0 1.996v2.003h2.003V16zm0 2.003h-2.003v2h2.003zm0 2v2h2.003v-2.004zm0 2h-2.003V24h2.003zm0 1.998v2.004h2.003V24zm0 2.004h-2.003v1.995h2.003zm0 1.995v2.003h2.003V28z" color="#000" opacity=".9"/><path fill-rule="evenodd" d="M43.998 10.999v.586c0 3 2.23 5.416 5 5.416h7v-1.002h-7a4.99 4.99 0 0 1-5.004-5z" opacity=".1" style="paint-order:stroke fill markers"/><path fill-rule="evenodd" d="M8 48v7c0 2.77 2.23 5 5 5h38c2.77 0 5-2.23 5-5v-7z" opacity=".15" style="paint-order:stroke fill markers"/><g fill="#fff" stroke-width=".206" aria-label="LZIP"><path d="M24.091 57h3.4v-.65h-2.643v-5.383h-.757zM28.14 57h4.165v-.65h-3.227l3.185-4.93v-.453h-3.835v.642h2.897l-3.185 4.93zM33.523 57h.757v-6.033h-.757zM35.934 57h.757v-2.403h.996c1.325 0 2.222-.585 2.222-1.86 0-1.317-.905-1.77-2.255-1.77h-1.72zm.757-3.02v-2.396h.864c1.062 0 1.597.272 1.597 1.153 0 .864-.502 1.242-1.564 1.242z"/></g></svg>