<svg xmlns="http://www.w3.org/2000/svg" viewBox="0 0 64 64"><defs><filter id="a" width="1.078" height="1.067" x="-.039" y="-.033" color-interpolation-filters="sRGB"><feGaussianBlur stdDeviation=".206"/></filter></defs><path d="M3.44 1.354a1.32 1.32 0 0 0-1.323 1.323v12.171c0 .733.59 1.323 1.323 1.323h10.053a1.32 1.32 0 0 0 1.323-1.323V4.53l-3.175-3.175z" filter="url(#a)" opacity=".15" style="paint-order:stroke fill markers" transform="scale(3.7796)"/><g fill-rule="evenodd"><path fill="#f4f4f4" d="M13 4c-2.77 0-5 2.23-5 5v46c0 2.77 2.23 5 5 5h38c2.77 0 5-2.23 5-5V16L44 4z" style="paint-order:stroke fill markers"/><path fill="#bbb" d="m14.816 4.233-3.175-3.175V2.91c0 .733.59 1.323 1.323 1.323z" style="paint-order:stroke fill markers" transform="scale(3.7796)"/></g><path d="M43.998 10.999v.586c0 3 2.23 5.416 5 5.416h7v-1.002h-7a4.99 4.99 0 0 1-5.004-5z" opacity=".1" style="paint-order:stroke fill markers"/><path fill="#ec4c45" d="M33.04 20.002c-2.991 9.596-4.394 6.976-10.795 2.394 3.804 9.51 3.212 7.937-4.307 7.38 6.504 4.917 5.346 6.59-1.938 10.244 7.5.053 10.116-.515 6.78 6.529 6.832-3.476 6.028-3.51 8.081 5.452 3.322-9.004 3.203-8.081 10.169-3.76-2.654-7.293-2.784-7.49 6-5.64-7.446-6.282-5.861-6.73.971-11.088-9.668.351-8.51-.336-5.765-8.129-7.91 6.081-7.299 4.14-9.198-3.384"/><path fill="#ff6f7f" d="M23.933 28.617c3.356 6.553 1.11 7.962-4.245 11.495 7.735-.072 8.75.447 9.707 8.197 3.279-6.53 4.265-8.221 11.216-6.36-4.408-4.697-5.39-6.62-3.216-12.764-5.462 3.538-7.924 2.587-13.462-.568"/><path fill="#ffb2cd" d="M31.515 31.079c1.961 3.13 2.057 3.168 5.413 4.413-3.357 1.452-2.818 1.428-2.583 5.192-2.726-2.269-3.596-1.923-6.577.24 1.438-3.86 1.193-4.057-1.919-6.451 3.73-.12 4.24-.068 5.664-3.394"/></svg>