<svg version="1.1" viewBox="0 0 64 64" xmlns="http://www.w3.org/2000/svg">
 <defs>
  <filter id="a-7" x="-.038932" y="-.033367" width="1.0779" height="1.0667" color-interpolation-filters="sRGB">
   <feGaussianBlur stdDeviation=".206"/>
  </filter>
 </defs>
 <path transform="scale(3.7796)" d="m3.44 1.354a1.32 1.32 0 0 0-1.323 1.323v12.171c0 0.733 0.59 1.323 1.323 1.323h10.053a1.32 1.32 0 0 0 1.323-1.323v-10.318l-3.175-3.175z" filter="url(#a-7)" opacity=".15" style="paint-order:stroke fill markers"/>
 <path d="m13 4.002c-2.77 0-5 2.23-5 5v46.002c0 2.77 2.23 5 5 5h38c2.77 0 5-2.23 5-5v-39.002l-12-12z" fill="#5a77c9" fill-rule="evenodd" style="paint-order:stroke fill markers"/>
 <path d="m55.999 16-12-12v7c0 2.77 2.23 5 5 5z" fill="#ffffff" fill-rule="evenodd" opacity=".35" style="paint-order:stroke fill markers"/>
 <path d="m43.998 11v0.584c0 3 2.23 5.416 5 5.416h7v-1h-7c-2.77 0-5-2.23-5-5z" opacity=".1" style="paint-order:stroke fill markers"/>
 <path d="m32 24a13 13 0 0 0-13 13 13 13 0 0 0 13 13 13 13 0 0 0 13-13 13 13 0 0 0-13-13zm0 5a1 1 0 0 1 1 1 1 1 0 0 1-1 1 1 1 0 0 1-1-1 1 1 0 0 1 1-1zm0 4c0.554 0 1 0.446 1 1v11c0 0.554-0.446 1-1 1s-1-0.446-1-1v-11c0-0.554 0.446-1 1-1z" fill="#ffffff" fill-rule="evenodd" opacity=".75" stop-color="#000000" stroke-linecap="round" stroke-linejoin="round" stroke-width="2.0027" style="paint-order:stroke fill markers"/>
</svg>
