<svg version="1.1" viewBox="0 0 64 64" xmlns="http://www.w3.org/2000/svg" xmlns:xlink="http://www.w3.org/1999/xlink">
 <defs>
  <filter id="a-3" x="-.038932" y="-.033367" width="1.0779" height="1.0667" color-interpolation-filters="sRGB">
   <feGaussianBlur stdDeviation=".206"/>
  </filter>
 </defs>
 <path transform="scale(3.7796)" d="m3.44 1.354a1.32 1.32 0 0 0-1.323 1.323v12.171c0 0.733 0.59 1.323 1.323 1.323h10.053a1.32 1.32 0 0 0 1.323-1.323v-10.318l-3.175-3.175z" filter="url(#a-3)" opacity=".15" style="paint-order:stroke fill markers"/>
 <g transform="scale(3.7796)" fill-rule="evenodd">
  <path transform="scale(.26458)" d="m13 4c-2.77 0-5 2.23-5 5v46c0 2.77 2.23 5 5 5h38c2.77 0 5-2.23 5-5v-39l-12-12z" fill="#0fba5f" style="paint-order:stroke fill markers"/>
  <path d="m14.816 4.233-3.175-3.175v1.852c0 0.733 0.59 1.323 1.323 1.323z" fill="#ffffff" opacity=".35" style="paint-order:stroke fill markers"/>
 </g>
 <path d="m43.998 10.999v0.58584c0 3.001 2.23 5.4162 5.0004 5.4162h6.9998v-1.0016h-6.9998a4.9891 4.9891 0 0 1-5.0042-5.0004z" opacity=".1" stroke-width="3.7796" style="paint-order:stroke fill markers"/>
 <path d="m38.684 48.28h-5.16c-1.566 0-3.109 0.027-4.602-0.547-1.223-0.473-2.371-1.191-3.281-2.148-3.02-3.156-3.422-8.168-0.684-11.648 1.668-2.121 4.238-3.48 6.961-3.48 0.738 0 2.297-0.117 2.609 0.758 0.164 0.445-0.176 0.957-0.641 1.039-0.438 0.07-0.938-0.148-1.383-0.156-1.305-0.02-2.48 0.164-3.676 0.703-4.43 2-5.531 8.5-1.914 11.789 0.941 0.859 1.996 1.504 3.227 1.824 1.086 0.293 2.207 0.227 3.32 0.227h6.707c0.285 0 0.684 0.074 0.949-0.016 0.211-0.074 0.383-0.293 0.527-0.449 0.367-0.363 0.914-0.766 1.121-1.246h-8.422c-1.012 0-2.078 0.098-3.09-0.047-1.184-0.172-2.242-0.73-3.117-1.539-0.457-0.418-0.82-0.957-1.094-1.504-1.668-3.344 0.473-7.336 4.121-7.973 0.629-0.121 1.313-0.082 1.93 0.043 0.621 0.121 1.395 0.348 1.879 0.766 0.348 0.301 0.383 0.793 0.082 1.141-0.438 0.5-0.883 0.191-1.367-0.02-0.375-0.164-0.766-0.281-1.176-0.336-1.758-0.211-3.453 0.773-4.129 2.395-0.855 2.043 0.219 4.496 2.316 5.223 1.012 0.348 2.168 0.211 3.227 0.211h8.77c0.344 0 0.93 0.109 1.246-0.027 0.129-0.047 0.191-0.227 0.258-0.336l0.52-1.023c0.617-1.422 1.039-2.871 1.203-4.41 0.691-6.426-3.227-12.547-9.309-14.719-4.75-1.695-10.273-0.527-14 2.844-1.734 1.578-2.98 3.535-3.801 5.723-1.086 2.91-1.086 6.473 0.016 9.379 0.246 0.664 0.512 1.32 0.859 1.941 0.09 0.164 0.207 0.539 0.398 0.602 0.402 0.156 0.066-0.73 0.027-0.867-0.273-1.102-0.363-2.195-0.363-3.324 0-4.813 3.254-9.234 7.629-11.07 1.313-0.547 2.816-0.902 4.238-0.902 0.203 0 0.43-0.027 0.629 0.035 0.449 0.156 0.723 0.676 0.492 1.121-0.301 0.594-0.91 0.449-1.449 0.492-1.164 0.121-2.297 0.348-3.379 0.805-3.129 1.313-5.57 4.156-6.273 7.488-1.012 4.73 1.25 9.68 5.605 11.867 1.844 0.922 3.855 1.211 5.891 1.066 1.43-0.102 2.844-0.438 4.176-0.977 0.41-0.172 1.082-0.363 1.375-0.711" fill="#ffffff"/>
</svg>
