<svg xmlns="http://www.w3.org/2000/svg" width="64" height="64" viewBox="0 0 16.933 16.933"><defs><filter id="a" width="1.078" height="1.067" x="-.039" y="-.033" color-interpolation-filters="sRGB"><feGaussianBlur stdDeviation=".206"/></filter></defs><path fill-rule="evenodd" d="M3.44 1.354a1.32 1.32 0 0 0-1.323 1.323v12.171c0 .733.59 1.323 1.323 1.323h10.053a1.32 1.32 0 0 0 1.323-1.323V4.53l-3.175-3.175z" filter="url(#a)" opacity=".15" style="paint-order:stroke fill markers"/><g fill-rule="evenodd"><path fill="#f46062" d="M13 4c-2.77 0-5 2.23-5 5v46c0 2.77 2.23 5 5 5h38c2.77 0 5-2.23 5-5V16L44 4z" style="paint-order:stroke fill markers" transform="scale(.26458)"/><path fill="#fff" d="m14.816 4.233-3.175-3.175V2.91c0 .733.59 1.323 1.323 1.323z" opacity=".35" style="paint-order:stroke fill markers"/></g><path fill="#fff" d="M5.16 10.58q0-.184.049-.309a.54.54 0 0 1 .359-.32.95.95 0 0 1 .516 0 .54.54 0 0 1 .359.32.8.8 0 0 1 .053.309.8.8 0 0 1-.054.301.54.54 0 0 1-.359.325.86.86 0 0 1-.516 0 .54.54 0 0 1-.358-.325.8.8 0 0 1-.05-.301" font-family="Droid Sans" font-size="29.913" font-weight="700" letter-spacing="0" overflow="visible" word-spacing="0"/><path fill="#fff" d="M8.83 8.843q0 .69.195 1.042.194.347.632.347.435 0 .629-.351.195-.352.194-1.038 0-.69-.194-1.03-.195-.342-.637-.343-.435 0-.628.343-.19.34-.19 1.03m2.935 0q0 .578-.15 1.025a2 2 0 0 1-.42.753 1.8 1.8 0 0 1-.67.467 2.4 2.4 0 0 1-.885.157q-.459 0-.844-.157a1.9 1.9 0 0 1-.665-.467 2.2 2.2 0 0 1-.434-.753 3.1 3.1 0 0 1-.157-1.025q0-.575.144-1.021.15-.446.422-.749a1.8 1.8 0 0 1 .67-.463q.393-.156.889-.157.458 0 .843.157.384.158.661.463.282.303.439.749.156.446.157 1.02" font-family="Droid Sans" font-size="32" font-weight="700" letter-spacing="0" word-spacing="0"/><path fill-rule="evenodd" d="M11.641 2.91v.155c0 .794.59 1.433 1.323 1.433h1.852v-.265h-1.852A1.32 1.32 0 0 1 11.64 2.91z" opacity=".1" style="paint-order:stroke fill markers"/></svg>