<svg xmlns="http://www.w3.org/2000/svg" viewBox="0 0 64 64"><defs><filter id="a" width="1.078" height="1.067" x="-.039" y="-.033" color-interpolation-filters="sRGB"><feGaussianBlur stdDeviation=".206"/></filter></defs><path d="M3.44 1.354a1.32 1.32 0 0 0-1.323 1.323v12.171c0 .733.59 1.323 1.323 1.323h10.053a1.32 1.32 0 0 0 1.323-1.323V4.53l-3.175-3.175z" filter="url(#a)" opacity=".15" style="paint-order:stroke fill markers" transform="scale(3.7796)"/><g fill-rule="evenodd"><path fill="#955bca" d="M13 4c-2.77 0-5 2.23-5 5v46c0 2.77 2.23 5 5 5h38c2.77 0 5-2.23 5-5V16L44 4z" style="paint-order:stroke fill markers"/><path fill="#fff" d="m14.816 4.233-3.175-3.175V2.91c0 .733.59 1.323 1.323 1.323z" opacity=".35" style="paint-order:stroke fill markers" transform="scale(3.7796)"/></g><path d="M43.998 10.999v.586c0 3 2.23 5.416 5 5.416h7v-1.002h-7a4.99 4.99 0 0 1-5.004-5z" opacity=".1" style="paint-order:stroke fill markers"/><g fill="#fff" opacity=".75"><path d="M29.168 22.441c-1.272.283-2.53.677-3.71 1.27.028 1.042.095 2.04.232 3.053-.459.294-.94.546-1.368.89-.435.334-.878.654-1.272 1.045a24 24 0 0 0-2.476-1.44c-.924.994-1.789 2.067-2.494 3.269.554.87 1.15 1.746 1.7 2.429v7.373l.04.001 4.521.436a.49.49 0 0 1 .439.451l.14 1.995 3.942.282.272-1.842a.49.49 0 0 1 .481-.416h4.77c.24 0 .445.177.48.416l.272 1.842 3.943-.282.14-1.995a.49.49 0 0 1 .438-.45l4.519-.437.04-.001v-.589h.002v-6.784a27 27 0 0 0 1.7-2.43c-.705-1.2-1.57-2.274-2.494-3.269-.857.432-1.69.92-2.476 1.44-.394-.39-.837-.71-1.272-1.045-.428-.343-.91-.595-1.367-.889.136-1.013.203-2.011.23-3.053-1.18-.593-2.437-.987-3.71-1.27a26 26 0 0 0-1.377 2.683c-.48-.08-.961-.11-1.444-.116h-.019a9.4 9.4 0 0 0-1.445.116 26 26 0 0 0-1.377-2.683m-3.576 10.786a2.723 2.723 0 1 1 .002 5.446 2.723 2.723 0 0 1-.002-5.446m12.815 0a2.723 2.723 0 1 1 0 5.447 2.724 2.724 0 1 1 0-5.447m-6.408 1.594c.484 0 .878.357.878.796v2.508c0 .44-.394.797-.878.797s-.877-.357-.877-.797v-2.508c0-.44.393-.796.877-.796"/><path d="m40.162 41.697-.14 2.006a.49.49 0 0 1-.45.452l-4.816.343-.035.001a.49.49 0 0 1-.48-.415l-.277-1.873h-3.928l-.276 1.873a.486.486 0 0 1-.517.414l-4.814-.343a.49.49 0 0 1-.451-.452l-.14-2.006-4.065-.392c.002.437.008.916.008 1.011 0 4.293 5.445 6.356 12.21 6.38h.017c6.766-.024 12.21-2.088 12.21-6.38 0-.097.005-.574.007-1.01zM27.661 36.111a1.807 1.807 0 1 1-3.615 0 1.807 1.807 0 0 1 3.615 0M36.339 36.111a1.807 1.807 0 1 0 3.614.001 1.807 1.807 0 0 0-3.614 0"/></g></svg>