<svg xmlns="http://www.w3.org/2000/svg" width="64" height="64" viewBox="0 0 16.933 16.933"><defs><filter id="a" width="1.078" height="1.067" x="-.039" y="-.033" color-interpolation-filters="sRGB"><feGaussianBlur stdDeviation=".206"/></filter></defs><g fill-rule="evenodd"><path d="M3.44 1.354a1.32 1.32 0 0 0-1.323 1.323v12.171c0 .733.59 1.323 1.323 1.323h10.053a1.32 1.32 0 0 0 1.323-1.323V4.53l-3.175-3.175z" filter="url(#a)" opacity=".15" style="paint-order:stroke fill markers"/><path fill="#567dd2" d="M3.44 1.059a1.32 1.32 0 0 0-1.323 1.323v12.17c0 .734.59 1.324 1.323 1.324h10.053a1.32 1.32 0 0 0 1.323-1.323V4.233L11.641 1.06z" style="paint-order:stroke fill markers"/><path fill="#fff" d="m14.816 4.233-3.175-3.175V2.91c0 .733.59 1.323 1.323 1.323z" opacity=".35" style="paint-order:stroke fill markers"/></g><path fill="none" stroke="#fff" stroke-linecap="square" stroke-width=".333" d="m6.964 6.97 2.994 2.993-1.497 1.414v-5.82L9.958 6.97 6.964 9.63"/><g fill="#fff" stroke-linecap="round" stroke-linejoin="round" stroke-width=".529"><circle cx="5.292" cy="8.466" r=".265" style="paint-order:stroke fill markers"/><circle cx="6.35" cy="8.466" r=".265" style="paint-order:stroke fill markers"/><circle cx="10.583" cy="8.466" r=".265" style="paint-order:stroke fill markers"/><circle cx="11.641" cy="8.466" r=".265" style="paint-order:stroke fill markers"/></g><path fill-rule="evenodd" d="M11.641 2.91v.155c0 .794.59 1.433 1.323 1.433h1.852v-.265h-1.852A1.32 1.32 0 0 1 11.64 2.91z" opacity=".1" style="paint-order:stroke fill markers"/></svg>