<svg xmlns="http://www.w3.org/2000/svg" width="64" height="64"><defs><clipPath id="b"><path fill="#ddd" d="M302 290a8 8 0 1 1-16 0 8 8 0 1 1 16 0" color="#bebebe" opacity=".5" overflow="visible"/></clipPath><filter id="a" width="1.078" height="1.067" x="-.039" y="-.033" color-interpolation-filters="sRGB"><feGaussianBlur stdDeviation=".206"/></filter></defs><g fill-rule="evenodd"><path d="M3.44 1.354a1.32 1.32 0 0 0-1.323 1.323v12.171c0 .733.59 1.323 1.323 1.323h10.053a1.32 1.32 0 0 0 1.323-1.323V4.53l-3.175-3.175z" filter="url(#a)" opacity=".15" style="paint-order:stroke fill markers" transform="scale(3.7796)"/><path fill="#37a7e5" d="M13 4.002c-2.77 0-5 2.23-5 5v46.002c0 2.77 2.23 5 5 5h38c2.77 0 5-2.23 5-5V16.002l-12-12z" style="paint-order:stroke fill markers"/><path fill="#fff" d="m55.999 16-12-12v7c0 2.77 2.23 5 5 5z" opacity=".35" style="paint-order:stroke fill markers"/></g><path fill="#fff" d="m35.546 22.581-14.517 1.84 1.037 2.287 10.511-1.553 3.801 3.912 6.125-1.073zM32.7 29.494l-9.999 1.698.974 2.555 5.44-1.027 1.394 2.41 5.762-1.241zm-3.273 8.075-4.945 1.083.948 2.767 5.338-1.349z"/><g stroke-width=".839"><path fill="none" stroke="#fff" stroke-linecap="round" stroke-width=".656" d="M293 295.5c0 1.38-1.343 2.5-3 2.5s-3-1.12-3-2.5 1.343-2.5 3-2.5 3 1.12 3 2.5z" color="#bebebe" opacity=".2" overflow="visible" transform="matrix(1.7399 0 0 2.0851 -462.347 -571.141)"/><path fill="none" stroke="#fff" stroke-linecap="round" stroke-width=".656" d="M287 295.51c-.007-1.38 1.33-2.504 2.987-2.51s3.006 1.109 3.013 2.49c.007 1.377-1.324 2.5-2.977 2.51" color="#bebebe" overflow="visible" transform="matrix(1.7399 0 0 2.0851 -462.347 -571.141)"/><path fill="#fff" d="m287 294-3.057-5.029H290z" clip-path="url(#b)" transform="matrix(.74566 0 0 .74467 -177.007 -170.961)"/></g><path fill-rule="evenodd" d="M43.998 11v.584c0 3 2.23 5.416 5 5.416h7v-1h-7c-2.77 0-5-2.23-5-5" opacity=".1" style="paint-order:stroke fill markers"/></svg>