<svg xmlns="http://www.w3.org/2000/svg" viewBox="0 0 64 64"><defs><filter id="a" width="1.104" height="1.089" x="-.052" y="-.045" color-interpolation-filters="sRGB"><feGaussianBlur stdDeviation="1.04"/></filter></defs><rect width="48" height="56" x="8" y="5" filter="url(#a)" opacity=".15" rx="5" ry="5"/><rect width="48" height="56" x="8" y="4" fill="#2b9ef1" rx="5" ry="5"/><path fill-rule="evenodd" d="M8 48v7c0 2.77 2.23 5 5 5h38c2.77 0 5-2.23 5-5v-7z" opacity=".15" style="paint-order:stroke fill markers"/><g fill="#fff" fill-rule="evenodd"><path d="M20 17v10h12V17zm1 1h10v8H21zM34 17h10v1H34zM34 20h10v1H34zM34 23h10v1H34zM20 29h24v1H20zM20 32h24v1H20zM20 35h24v1H20zM20 41h24v1H20zM34 26h10v1H34zM20 38h24v1H20z"/><path d="M22 19h8v6h-8z" style="paint-order:stroke fill markers"/></g><g fill="#fff" stroke-width=".206" aria-label="DOTX"><path d="M26.329 54.004q0 1.49-.815 2.247-.806.749-2.255.749h-1.638v-5.877h1.81q.89 0 1.54.33t1.004.97q.354.634.354 1.581zm-.782.025q0-1.177-.584-1.72-.576-.552-1.638-.552h-.963v4.61h.798q2.387 0 2.387-2.338M32.757 54.053q0 .914-.313 1.597-.304.675-.905 1.053t-1.49.379q-.913 0-1.522-.379-.601-.378-.898-1.062-.296-.683-.296-1.596 0-.906.296-1.58t.898-1.054q.609-.379 1.53-.379.881 0 1.482.379.6.37.905 1.053.313.675.313 1.589m-4.642 0q0 1.111.47 1.753.468.634 1.464.634 1.004 0 1.465-.634.461-.642.461-1.753t-.46-1.737q-.462-.633-1.458-.633t-1.473.633q-.47.626-.47 1.737zM35.671 57h-.74v-5.226h-1.836v-.65h4.403v.65h-1.827zM42.379 57h-.84l-1.555-2.551L38.404 57h-.782l1.95-3.062-1.827-2.815h.823l1.44 2.305 1.449-2.304h.782l-1.819 2.798z"/></g></svg>