<svg xmlns="http://www.w3.org/2000/svg" width="64" height="64" viewBox="0 0 16.933 16.933"><defs><filter id="a" width="1.078" height="1.067" x="-.039" y="-.033" color-interpolation-filters="sRGB"><feGaussianBlur stdDeviation=".206"/></filter></defs><path fill-rule="evenodd" d="M3.44 1.354a1.32 1.32 0 0 0-1.323 1.323v12.171c0 .733.59 1.323 1.323 1.323h10.053a1.32 1.32 0 0 0 1.323-1.323V4.53l-3.175-3.175z" filter="url(#a)" opacity=".15" style="paint-order:stroke fill markers"/><g fill-rule="evenodd"><path fill="#ff7643" d="M13 4c-2.77 0-5 2.23-5 5v46c0 2.77 2.23 5 5 5h38c2.77 0 5-2.23 5-5V16L44 4z" style="paint-order:stroke fill markers" transform="scale(.26458)"/><path fill="#fff" d="m14.816 4.233-3.175-3.175V2.91c0 .733.59 1.323 1.323 1.323z" opacity=".35" style="paint-order:stroke fill markers"/></g><path fill="#fff" d="M5.028 8.202v1.72c0 .073.059.132.132.132h.794a.13.13 0 0 0 .132-.132v-1.72zm.265 1.058h.529v.53h-.53zm.264-8.202v.53h.53v-.53zm0 .53h-.53v.529h.53zm0 .529v.529h.53v-.53zm0 .529h-.53v.529h.53zm0 .529v.53h.53v-.53zm0 .53h-.53v.528h.53zm0 .528v.53h.53v-.53zm0 .53h-.53v.529h.53zm0 .529v.529h.53v-.53zm0 .529h-.53v.529h.53zm0 .529v.53h.53v-.53zm0 .53h-.53v.528h.53zm0 .528v.53h.53v-.53z" color="#000" opacity=".75"/><path fill-rule="evenodd" d="M11.641 2.91v.155c0 .794.59 1.433 1.323 1.433h1.852v-.265h-1.852A1.32 1.32 0 0 1 11.64 2.91z" opacity=".1" style="paint-order:stroke fill markers"/><path fill="#fff" d="M10.416 8.997a5 5 0 0 0-.52.03c-.575.089-1.035.29-1.332.584a1.2 1.2 0 0 0-.322.554c-.035.134-.047.442-.01.56.12.415.406.734.946 1.054.229.135.406.224.915.454.612.275.798.385.885.523.033.056.046.085.041.152-.01.106-.062.159-.187.204a.6.6 0 0 1-.27.039c-.289-.003-.543-.057-.895-.183a3.3 3.3 0 0 1-.697-.341c-.204-.133-.22-.139-.28-.106a8 8 0 0 0-.625.561c-.16.156-.162.188-.052.296s.415.334.583.432c.182.107.304.167.51.242.344.128.633.181 1.175.227.123.01.563.012.717 0 .848-.068 1.54-.344 1.903-.75.131-.144.21-.267.271-.44a1.55 1.55 0 0 0 .03-.697c-.072-.323-.267-.617-.581-.863-.316-.248-.636-.413-1.404-.72-.537-.214-.739-.328-.791-.447-.028-.064-.012-.177.03-.22.085-.086.248-.116.46-.091.392.048.896.228 1.34.477.087.048.17.088.188.091.072.019.115-.01.406-.341.356-.408.352-.392.156-.53-.585-.42-1.262-.662-2.038-.735a5 5 0 0 0-.552-.016" opacity=".75"/></svg>