<svg xmlns="http://www.w3.org/2000/svg" width="64" height="64"><defs><filter id="a" width="1.078" height="1.067" x="-.039" y="-.033" color-interpolation-filters="sRGB"><feGaussianBlur stdDeviation=".206"/></filter></defs><g fill-rule="evenodd"><path d="M3.44 1.354a1.32 1.32 0 0 0-1.323 1.323v12.171c0 .733.59 1.323 1.323 1.323h10.053a1.32 1.32 0 0 0 1.323-1.323V4.53l-3.175-3.175z" filter="url(#a)" opacity=".15" style="paint-order:stroke fill markers" transform="scale(3.7796)"/><path fill="#8e50c7" d="M3.44 1.059a1.32 1.32 0 0 0-1.323 1.323v12.17c0 .734.59 1.324 1.323 1.324h10.053a1.32 1.32 0 0 0 1.323-1.323V4.233L11.641 1.06z" style="paint-order:stroke fill markers" transform="scale(3.7796)"/><path fill="#fff" d="m14.816 4.233-3.175-3.175V2.91c0 .733.59 1.323 1.323 1.323z" opacity=".35" style="paint-order:stroke fill markers" transform="scale(3.7796)"/></g><path fill-rule="evenodd" d="M43.998 11v.584c0 3 2.23 5.416 5 5.416h7v-1h-7c-2.77 0-5-2.23-5-5" opacity=".1" style="paint-order:stroke fill markers"/><path fill="#fff" d="m38 18-4 4.5-1.26 1.5H36v3H24v13h-3.238L22 41.5l4 4.5 4-4.5 1.26-1.5H28v-3h12V24h3.238L42 22.5zM28 31h8v2h-8z" color="#4d4d4d" opacity=".75" style="isolation:auto;mix-blend-mode:normal"/></svg>