<svg version="1.1" viewBox="0 0 64 64" xmlns="http://www.w3.org/2000/svg">
 <defs>
  <filter id="filter6421" x="-.052" y="-.044571" width="1.104" height="1.0891" color-interpolation-filters="sRGB">
   <feGaussianBlur stdDeviation="1.04"/>
  </filter>
 </defs>
 <rect x="8" y="5" width="48" height="56" rx="5" ry="5" fill="#000000" filter="url(#filter6421)" opacity=".15" stroke-width=".98687"/>
 <rect x="8" y="4" width="48" height="56" rx="5" ry="5" fill="#fe742d" stroke-width=".98687"/>
 <path d="m33.13 17.998c-4.8757 0.86931-9.7552 2.0221-14.631 2.8725v22.262c4.8492 0.85041 9.7022 1.9843 14.544 2.8687h1.4551v-28.003zm-7.3362 8.8178c0.96002-0.0189 1.8822 0.11717 2.6344 0.79372 1.4362 1.7462 1.0583 4.9513-1.0734 5.9982-0.75592 0.38552-1.6252 0.3326-2.4454 0.30237-0.0038 1.3077-0.0076 2.6079-0.0038 3.9119l-1.9843-0.1663c-0.03024-3.5604-0.0378-6.9582 0-10.519 0.9449-0.11339 1.9087-0.30237 2.8725-0.32127zm-0.11339 1.9314c-0.26457-0.0076-0.52914 0.0189-0.77482 0.03024-0.01134 1.1188-0.0189 2.2337 0.05291 3.3525 0.66143-0.07937 1.5232-0.01512 1.9011-0.69923a2.4189 2.4189 0 0 0-0.04158-2.1884c-0.27591-0.38552-0.69923-0.48379-1.1339-0.49135zm9.8194-6.7466v3.3223c0.46867-0.10205 0.97892-0.29103 1.5005-0.32127v4.4977h4.4675c-0.15874 1.3644-0.76726 2.7667-1.9654 3.4772-1.183 0.79372-2.6835 0.80506-4.0026 0.39686v2.6268h7.9976v0.99782h-7.9976v2.0032h7.9976v0.99782h-7.9976v3.001h10.001v-20.999zm2.4983 2.3963a4.698 4.698 0 0 1 4.1198 4.1009h-4.1198z" fill="#ffffff" stroke-width="3.7796"/>
</svg>
