<svg version="1.1" viewBox="0 0 64 64" xmlns="http://www.w3.org/2000/svg">
 <defs>
  <filter id="filter1663" x="-.05625" y="-.1125" width="1.1125" height="1.225" color-interpolation-filters="sRGB">
   <feGaussianBlur stdDeviation="0.28134433"/>
  </filter>
  <filter id="a-3" x="-.038932" y="-.033367" width="1.0779" height="1.0667" color-interpolation-filters="sRGB">
   <feGaussianBlur stdDeviation=".206"/>
  </filter>
 </defs>
 <path transform="scale(3.7796)" d="m3.44 1.354a1.32 1.32 0 0 0-1.323 1.323v12.171c0 0.733 0.59 1.323 1.323 1.323h10.053a1.32 1.32 0 0 0 1.323-1.323v-10.318l-3.175-3.175z" filter="url(#a-3)" opacity=".15" style="paint-order:stroke fill markers"/>
 <g transform="scale(3.7796)" fill-rule="evenodd">
  <path transform="scale(.26458)" d="m13 4c-2.77 0-5 2.23-5 5v46c0 2.77 2.23 5 5 5h38c2.77 0 5-2.23 5-5v-39l-12-12z" fill="#f4f4f4" style="paint-order:stroke fill markers"/>
  <path d="m14.816 4.233-3.175-3.175v1.852c0 0.733 0.59 1.323 1.323 1.323z" fill="#bbbbbb" style="paint-order:stroke fill markers"/>
 </g>
 <path d="m43.998 10.999v0.58584c0 3.001 2.23 5.4162 5.0004 5.4162h6.9998v-1.0016h-6.9998a4.9891 4.9891 0 0 1-5.0042-5.0004z" filter="url(#filter1663)" opacity=".1" stroke-width="3.7796" style="paint-order:stroke fill markers"/>
 <g fill="#000000" fill-rule="evenodd">
  <path d="m20 24v10h12v-10zm1 1h10v8h-10z" opacity=".25"/>
  <path d="m34 24h10v1h-10z" opacity=".25"/>
  <path d="m34 27h10v1h-10z" opacity=".25"/>
  <path d="m34 30h10v1h-10z" opacity=".25"/>
  <path d="m20 36h24v1h-24z" opacity=".25"/>
  <path d="m20 39h24v1h-24z" opacity=".25"/>
  <path d="m20 42h24v1h-24z" opacity=".25"/>
  <path d="m20 48h24v1h-24z" opacity=".25"/>
  <path d="m34 33h10v1h-10z" opacity=".25"/>
  <path d="m20 45h24v1h-24z" opacity=".25"/>
  <rect x="22" y="26" width="8" height="6" opacity=".25" stop-color="#000000" stroke-linecap="round" stroke-linejoin="round" stroke-width="2" style="paint-order:stroke fill markers"/>
 </g>
</svg>
