<svg xmlns="http://www.w3.org/2000/svg" viewBox="0 0 64 64"><defs><filter id="b" width="1.113" height="1.225" x="-.056" y="-.113" color-interpolation-filters="sRGB"><feGaussianBlur stdDeviation=".281"/></filter><filter id="a" width="1.078" height="1.067" x="-.039" y="-.033" color-interpolation-filters="sRGB"><feGaussianBlur stdDeviation=".206"/></filter></defs><path d="M3.44 1.354a1.32 1.32 0 0 0-1.323 1.323v12.171c0 .733.59 1.323 1.323 1.323h10.053a1.32 1.32 0 0 0 1.323-1.323V4.53l-3.175-3.175z" filter="url(#a)" opacity=".15" style="paint-order:stroke fill markers" transform="scale(3.7796)"/><g fill-rule="evenodd"><path fill="#f4f4f4" d="M13 4c-2.77 0-5 2.23-5 5v46c0 2.77 2.23 5 5 5h38c2.77 0 5-2.23 5-5V16L44 4z" style="paint-order:stroke fill markers"/><path fill="#bbb" d="m14.816 4.233-3.175-3.175V2.91c0 .733.59 1.323 1.323 1.323z" style="paint-order:stroke fill markers" transform="scale(3.7796)"/></g><path d="M43.998 10.999v.586c0 3 2.23 5.416 5 5.416h7v-1.002h-7a4.99 4.99 0 0 1-5.004-5z" filter="url(#b)" opacity=".1" style="paint-order:stroke fill markers"/><path d="M17.998 20.999v1.002H36v-1.002zm0 3.001v.998h28.003V24zm0 3.001v.998h14.003V27z" opacity=".2"/><path d="M29.384 39.417c-.906 0-1.312.352-2.53 2.304l-1.72 2.785-.812-2.849c-.5-1.792-1.187-2.24-2-2.24-.905 0-2 .8-3.406 2.432-.156.128.126.416.25.256.844-.896 1.563-1.312 2.094-1.312.437 0 1.063.223 1.562 1.92l1.062 3.649-2.187 3.328c-.5.735-.968.96-1.374.96-.625 0-.688-.64-1.407-.64-.5 0-.843.32-.906.768-.124.864.75 1.6 1.563 1.6.938 0 1.343-.385 2.53-2.337l1.938-3.135 1 3.455c.469 1.665 1.062 2.016 1.874 2.016.906 0 2-.831 3.406-2.431.157-.16-.093-.416-.25-.289-.843.897-1.53 1.312-2.062 1.312-.468 0-1.031-.128-1.469-1.632l-1.25-4.32 1.97-2.944c.5-.704.968-.96 1.374-.96.625 0 .687.64 1.406.64.5 0 .844-.32.907-.768.124-.833-.75-1.568-1.563-1.568z" opacity=".65"/><g stroke-width="3.78"><path d="M32 48.001v.998h14.002V48zM27.999 29.999v1.002h16.502v-1.002zm0 3.001v1.002h18.002v-1.006zm0 3.001v.998h14V36zM17.998 29.999v1.002h8.005v-1.002zm0 3.001v1.002h8.005v-1.006zm0 3.001v.998h8.005V36zM31.986 39.002V40h14.015v-.998zm0 2.997v1.002h10.012v-1.002zM31.986 45v1.002h14.015V45zM32 51v.998h14.002V51z" opacity=".2"/></g></svg>