<svg xmlns="http://www.w3.org/2000/svg" width="64" height="64" viewBox="0 0 16.933 16.933"><defs><filter id="a" width="1.078" height="1.067" x="-.039" y="-.033" color-interpolation-filters="sRGB"><feGaussianBlur stdDeviation=".206"/></filter></defs><g fill-rule="evenodd"><path d="M3.44 1.354a1.32 1.32 0 0 0-1.323 1.323v12.171c0 .733.59 1.323 1.323 1.323h10.053a1.32 1.32 0 0 0 1.323-1.323V4.53l-3.175-3.175z" filter="url(#a)" opacity=".15" style="paint-order:stroke fill markers"/><path fill="#3fa7d7" d="M3.44 1.059a1.32 1.32 0 0 0-1.323 1.323v12.17c0 .734.59 1.324 1.323 1.324h10.053a1.32 1.32 0 0 0 1.323-1.323V4.233L11.641 1.06z" style="paint-order:stroke fill markers"/><path fill="#fff" d="m14.816 4.233-3.175-3.175V2.91c0 .733.59 1.323 1.323 1.323z" opacity=".35" style="paint-order:stroke fill markers"/></g><path fill="#ff6e65" d="M8.437 4.498a3.97 3.97 0 0 0-3.94 3.968 3.97 3.97 0 0 0 3.97 3.97 3.97 3.97 0 0 0 3.968-3.97 3.97 3.97 0 0 0-3.969-3.968zm.027 1.587h.002a2.38 2.38 0 0 1 2.382 2.382 2.38 2.38 0 0 1-2.382 2.38 2.38 2.38 0 0 1-2.38-2.38 2.38 2.38 0 0 1 2.378-2.382" style="paint-order:stroke fill markers"/><path fill="#fff" d="M4.862 6.821a3.95 3.95 0 0 0-.364 1.645c0 .587.134 1.144.364 1.646l1.389-.794a2.4 2.4 0 0 1-.166-.852c0-.3.064-.587.166-.851m5.821-.794-1.39.794c.102.264.166.55.166.851s-.064.587-.165.852l1.389.794c.229-.502.363-1.059.363-1.646s-.134-1.144-.363-1.645m-4.457 3.862-.794 1.388c.502.23 1.059.364 1.646.364s1.144-.134 1.645-.364l-.794-1.389c-.264.102-.55.166-.851.166s-.587-.064-.852-.166m.852-6.184c-.587 0-1.144.134-1.646.363l.794 1.39c.265-.102.55-.166.852-.166.3 0 .587.064.851.165l.794-1.389a3.95 3.95 0 0 0-1.645-.363"/><path fill-rule="evenodd" d="M11.641 2.91v.155c0 .794.59 1.433 1.323 1.433h1.852v-.265h-1.852A1.32 1.32 0 0 1 11.64 2.91z" opacity=".1" style="paint-order:stroke fill markers"/></svg>