<svg version="1.1" viewBox="0 0 64 64" xmlns="http://www.w3.org/2000/svg">
 <defs>
  <filter id="filter1663" x="-.05625" y="-.1125" width="1.1125" height="1.225" color-interpolation-filters="sRGB">
   <feGaussianBlur stdDeviation="0.28134433"/>
  </filter>
  <filter id="a-3" x="-.038932" y="-.033367" width="1.0779" height="1.0667" color-interpolation-filters="sRGB">
   <feGaussianBlur stdDeviation=".206"/>
  </filter>
 </defs>
 <path transform="scale(3.7796)" d="m3.44 1.354a1.32 1.32 0 0 0-1.323 1.323v12.171c0 0.733 0.59 1.323 1.323 1.323h10.053a1.32 1.32 0 0 0 1.323-1.323v-10.318l-3.175-3.175z" filter="url(#a-3)" opacity=".15" style="paint-order:stroke fill markers"/>
 <g transform="scale(3.7796)" fill-rule="evenodd">
  <path transform="scale(.26458)" d="m13 4c-2.77 0-5 2.23-5 5v46c0 2.77 2.23 5 5 5h38c2.77 0 5-2.23 5-5v-39l-12-12z" fill="#f4f4f4" style="paint-order:stroke fill markers"/>
  <path d="m14.816 4.233-3.175-3.175v1.852c0 0.733 0.59 1.323 1.323 1.323z" fill="#bbbbbb" style="paint-order:stroke fill markers"/>
 </g>
 <path d="m43.998 10.999v0.58584c0 3.001 2.23 5.4162 5.0004 5.4162h6.9998v-1.0016h-6.9998a4.9891 4.9891 0 0 1-5.0042-5.0004z" filter="url(#filter1663)" opacity=".1" stroke-width="3.7796" style="paint-order:stroke fill markers"/>
 <g transform="matrix(.64067 0 0 .64067 11.459 27.143)" fill="#555555">
  <path d="m18.219 43.988-0.465-2.762h-2.633l-0.441 2.762h-2.039c0.465-2.355 0.934-4.5 1.414-6.43 0.48-1.949 0.941-3.785 1.391-5.527h2.129c0.473 1.75 0.934 3.609 1.391 5.586 0.465 1.961 0.918 4.082 1.348 6.371h-2.094m-1.758-9.641c-0.105 0.449-0.203 0.887-0.301 1.293-0.09 0.398-0.172 0.805-0.262 1.203-0.07 0.383-0.145 0.781-0.219 1.18-0.063 0.398-0.129 0.813-0.188 1.234h1.93c-0.066-0.422-0.133-0.836-0.195-1.234-0.066-0.398-0.141-0.797-0.223-1.18-0.07-0.398-0.16-0.805-0.258-1.203-0.082-0.406-0.18-0.844-0.285-1.293"/>
  <path d="m24.16 42.25c0.324 0 0.602-0.031 0.813-0.113 0.219-0.09 0.398-0.203 0.52-0.348 0.129-0.156 0.219-0.32 0.262-0.496 0.047-0.195 0.078-0.391 0.078-0.586 0-0.246-0.063-0.465-0.176-0.66-0.117-0.188-0.27-0.355-0.449-0.496-0.18-0.152-0.383-0.293-0.602-0.406-0.227-0.129-0.445-0.242-0.676-0.348-0.289-0.133-0.602-0.277-0.918-0.449-0.324-0.16-0.609-0.379-0.875-0.633-0.262-0.262-0.473-0.578-0.645-0.949-0.16-0.383-0.25-0.863-0.25-1.434 0-1.121 0.301-1.992 0.895-2.625 0.602-0.633 1.43-0.949 2.484-0.949 0.602 0 1.133 0.09 1.578 0.25 0.457 0.172 0.836 0.359 1.145 0.563l-0.574 1.836c-0.262-0.18-0.563-0.332-0.895-0.465-0.316-0.129-0.684-0.195-1.113-0.195-1.043 0-1.563 0.465-1.563 1.375 0 0.238 0.059 0.441 0.164 0.617 0.105 0.172 0.234 0.328 0.398 0.465 0.168 0.129 0.355 0.242 0.551 0.348 0.219 0.105 0.422 0.203 0.625 0.293 0.313 0.141 0.629 0.301 0.953 0.48 0.34 0.172 0.648 0.398 0.926 0.699 0.285 0.285 0.52 0.641 0.699 1.082 0.188 0.422 0.277 0.965 0.277 1.625 0 1.121-0.309 1.992-0.91 2.609-0.594 0.602-1.504 0.902-2.723 0.902-0.82 0-1.473-0.098-1.961-0.309-0.488-0.219-0.852-0.414-1.105-0.594l0.578-1.934c0.285 0.203 0.625 0.398 1.016 0.574 0.406 0.18 0.895 0.27 1.473 0.27"/>
  <path d="m33.14 44.24c-1.391 0-2.453-0.535-3.188-1.617-0.73-1.082-1.098-2.625-1.098-4.625 0-0.992 0.117-1.871 0.336-2.641 0.227-0.773 0.535-1.434 0.926-1.961 0.406-0.535 0.879-0.941 1.414-1.211 0.555-0.285 1.156-0.43 1.805-0.43 0.352 0 0.66 0.039 0.934 0.121 0.293 0.066 0.539 0.137 0.758 0.227 0.211 0.09 0.383 0.188 0.52 0.293 0.156 0.105 0.262 0.18 0.332 0.227l-0.504 1.895c-0.242-0.188-0.543-0.348-0.891-0.48-0.344-0.137-0.734-0.211-1.18-0.211-0.309 0-0.609 0.074-0.91 0.211-0.285 0.133-0.547 0.359-0.781 0.676-0.219 0.309-0.406 0.73-0.563 1.262-0.129 0.527-0.203 1.184-0.203 1.965 0 1.367 0.195 2.414 0.578 3.156 0.391 0.723 1.023 1.078 1.91 1.078 0.512 0 0.926-0.07 1.262-0.211 0.332-0.145 0.609-0.285 0.813-0.422l0.488 1.871c-0.277 0.211-0.652 0.398-1.133 0.574-0.461 0.172-1.01 0.254-1.625 0.254"/>
  <path d="m37.25 43.988v-1.965h2.156v-8.02h-2.156v-1.969h6.258v1.969h-2.129v8.02h2.129v1.965h-6.258"/>
  <path d="m45.22 43.988v-1.965h2.156v-8.02h-2.156v-1.969h6.262v1.969h-2.129v8.02h2.129v1.965h-6.262"/>
 </g>
</svg>
