<svg width="64" height="64" version="1.1" viewBox="0 0 16.933 16.933" xmlns="http://www.w3.org/2000/svg">
 <defs>
  <filter id="a" x="-.038932" y="-.033367" width="1.0779" height="1.0667" color-interpolation-filters="sRGB">
   <feGaussianBlur stdDeviation=".206"/>
  </filter>
 </defs>
 <path d="M3.44 1.354a1.32 1.32 0 0 0-1.323 1.323v12.171c0 .733.59 1.323 1.323 1.323h10.053a1.32 1.32 0 0 0 1.323-1.323V4.53l-3.175-3.175z" fill-rule="evenodd" filter="url(#a)" opacity=".15" style="paint-order:stroke fill markers"/>
 <g fill-rule="evenodd">
  <path transform="scale(.26458)" d="M13 4c-2.77 0-5 2.23-5 5v46c0 2.77 2.23 5 5 5h38c2.77 0 5-2.23 5-5V16L44 4z" fill="#f4f4f4" style="paint-order:stroke fill markers"/>
  <path d="m14.816 4.233-3.175-3.175V2.91c0 .733.59 1.323 1.323 1.323z" fill="#bbb" style="paint-order:stroke fill markers"/>
 </g>
 <path d="M11.641 2.91v.155c0 .794.59 1.433 1.323 1.433h1.852v-.265h-1.852A1.32 1.32 0 0 1 11.64 2.91z" fill-rule="evenodd" opacity=".1" style="paint-order:stroke fill markers"/>
 <path d="m7.5034 7.4511c-0.13798 0.011898-0.13798 0.12879-0.18871 0.41602a2.5248 2.5129 0 0 0-0.27888 0.038618c-0.12253-0.29537-0.16575-0.39933-0.2818-0.35987-0.13339 0.045089-0.10208 0.15927-0.081824 0.4584a2.5248 2.5129 0 0 0-0.25863 0.10687c-0.20811-0.24945-0.27888-0.33691-0.37825-0.26427-0.11335 0.080995-0.052604 0.1814 0.052395 0.45297a2.5248 2.5129 0 0 0-0.22461 0.17305c-0.26135-0.1933-0.35152-0.25968-0.43168-0.16575-0.090179 0.10687-0.0054281 0.18787 0.16386 0.43001a2.5248 2.5129 0 0 0-0.16929 0.21897c-0.27346-0.10124-0.3747-0.16115-0.45486-0.046967-0.070973 0.10124 0.016699 0.17117 0.26886 0.37365a2.5248 2.5129 0 0 0-0.10855 0.25968c-0.28807-0.027551-0.40058-0.057195-0.44838 0.07264-0.041331 0.11418 0.05991 0.16011 0.34985 0.28807a2.5248 2.5129 0 0 0-0.035904 0.27617c-0.28348 0.05427-0.40141 0.05636-0.40977 0.1933-0.00835 0.12066 0.10145 0.13715 0.40705 0.17681a2.5248 2.5129 0 0 0 0.039661 0.29454c-0.26072 0.11334-0.37302 0.14278-0.35173 0.27805 0.020248 0.12066 0.1315 0.11064 0.45089 0.08099a2.5248 2.5129 0 0 0 0.1123 0.27074c-0.22168 0.172-0.32292 0.22815-0.26969 0.3534 0.048846 0.11314 0.15468 0.07557 0.46028-0.03214a2.5248 2.5129 0 0 0 0.16491 0.2125c-0.16845 0.2459-0.25237 0.32961-0.16032 0.4346 0.080159 0.09184 0.17034 0.02484 0.42521-0.16846a2.5248 2.5129 0 0 0 0.22544 0.17388c-0.10208 0.28348-0.16366 0.38576-0.046759 0.46488 0.10124 0.06993 0.17034-0.01837 0.37365-0.27512l-0.049681-0.02964a2.5248 2.5129 0 0 0 0.29642 0.12629c-0.01837 0.29162-0.048011 0.40496 0.084538 0.45005 0.11418 0.03757 0.15655-0.0645 0.27429-0.34881a2.5248 2.5129 0 0 0 0.2864 0.03862c0.054273 0.32209 0.071808 0.43252 0.19517 0.42061 0.13798-0.01378 0.13527-0.13068 0.18036-0.4179a2.5248 2.5129 0 0 0 0.28911-0.03674c0.11961 0.2889 0.16198 0.39119 0.27701 0.35257 0.13255-0.04425 0.10395-0.15739 0.083709-0.44922a2.5248 2.5129 0 0 0 0.26239-0.10687c0.19685 0.24841 0.26699 0.33691 0.36823 0.26719 0.11314-0.07744 0.055109-0.17869-0.043417-0.4513a2.5248 2.5129 0 0 0 0.23379-0.17743c0.24402 0.1839 0.33336 0.24841 0.41248 0.15906 0.089343-0.10312 0.011061-0.18787-0.14821-0.41957a2.5248 2.5129 0 0 0 0.17034-0.21647c0.29809 0.105 0.40308 0.14174 0.45089 0.02944 0.05427-0.1242-0.04593-0.18036-0.2651-0.34985a2.5248 2.5129 0 0 0 0.11418-0.27429c0.31395 0.0286 0.42521 0.03862 0.44462-0.08099 0.02213-0.13443-0.08934-0.16575-0.34442-0.27617a2.5248 2.5129 0 0 0 0.03695-0.29642c0.30205-0.03966 0.4106-0.05699 0.40329-0.17577-0.0092-0.13631-0.12525-0.13986-0.40225-0.1933a2.5248 2.5129 0 0 0-0.037787-0.28077c0.28431-0.12525 0.38472-0.17117 0.34338-0.28452-0.045925-0.12879-0.15844-0.10124-0.44191-0.073476a2.5248 2.5129 0 0 0-0.10855-0.26427c0.24653-0.19789 0.33316-0.26886 0.26322-0.36823-0.080159-0.11314-0.18036-0.055317-0.45193 0.045923a2.5248 2.5129 0 0 0-0.17493-0.22356c0.18411-0.25884 0.24757-0.34985 0.1528-0.42709-0.10583-0.085587-0.18787-0.0045917-0.41414 0.16282a2.5248 2.5129 0 0 0-0.23108-0.17659c0.12066-0.29454 0.16282-0.39766 0.053437-0.45109-0.12608-0.062623-0.18515 0.040496-0.382 0.26699a2.5248 2.5129 0 0 0-0.26135-0.10687c0.027554-0.32314 0.037574-0.4344-0.083914-0.45297-0.13715-0.020874-0.16491 0.092262-0.27783 0.35632a2.5248 2.5129 0 0 0-0.2864-0.03486c-0.048637-0.31666-0.064292-0.42709-0.18683-0.41707m-0.10124 0.77235c0.27971-0.00459 0.6112 0.044045 0.71891 0.091844 0.46947 0.14194 0.90384 0.40517 1.2729 1.0156 0.069098 0.11314 0.11961 0.22356 0.1409 0.32397a0.41749 0.41749 0 0 1-0.054273 0.32773c-0.058865 0.077232-0.1315 0.14904-0.23296 0.15823-0.31666 0.03048-0.74563 0.01294-1.0834 0.0092-0.056987 0-0.11042-0.02379-0.12796-0.04133-0.099363-0.063477-0.16741-0.19979-0.27888-0.23841-0.17847-0.082873-0.25133-0.012939-0.35152-0.13715a17.482 17.484 0 0 1-0.52937-0.90384c-0.11961-0.20729-0.041331-0.41436 0.13819-0.52666 0.070972-0.055317 0.22085-0.0764 0.38743-0.079323m-1.2454 0.63792a0.41749 0.41749 0 0 1 0.044254 0.00188c0.095607 0.013777 0.19497 0.041331 0.253 0.12525 0.1814 0.2603 0.37741 0.64063 0.53939 0.93706 0.027554 0.049681 0.034025 0.1075 0.026719 0.13068-0.00647 0.11877-0.092057 0.24381-0.070973 0.35987 0.015655 0.19622 0.11064 0.22461 0.052604 0.37282a17.535 17.535 0 0 1-0.53021 0.90384c-0.12253 0.2054-0.34234 0.23943-0.5275 0.13819-0.21918-0.092057-0.51351-0.78154-0.53292-0.96751-0.10583-0.47865-0.089343-0.98502 0.26239-1.6063 0.066172-0.11502 0.13798-0.21166 0.21438-0.28076a0.43836 0.43836 0 0 1 0.26865-0.11418zm1.3531 1.3026a0.20874 0.20874 0 0 1 0.20791 0.20874 0.20874 0.20874 0 0 1-0.20874 0.20916 0.20874 0.20874 0 0 1-0.20937-0.20874 0.20874 0.20874 0 0 1 0.20895-0.20895zm1.1468 0.43711h0.00104c0.17472 0 0.34965 0.0046 0.52269 0.01023 0.23943 0.0036 0.37825 0.17743 0.38304 0.38826 0.030265 0.23484-0.42166 0.83418-0.57363 0.94353-0.36259 0.33065-0.80995 0.56987-1.5251 0.57634a1.1272 1.1272 0 0 1-0.35069-0.04593 0.41749 0.41749 0 0 1-0.25404-0.21188c-0.036947-0.09018-0.062623-0.19038-0.018578-0.28243 0.13547-0.2864 0.36823-0.64627 0.54315-0.93437 0.029432-0.04885 0.077235-0.08287 0.10124-0.08851 0.105-0.05323 0.2578-0.04133 0.34797-0.11773 0.16198-0.11146 0.13798-0.20895 0.29642-0.23296a20.04 20.04 0 0 1 0.52645-0.0046z" fill="#999999" stroke-width=".20874"/>
 <path d="m10.768 4.6533c-0.08977 0.00774-0.08977 0.083792-0.12277 0.27067a1.6426 1.6349 0 0 0-0.18144 0.025125c-0.07972-0.19217-0.10784-0.2598-0.18334-0.23413-0.08678 0.029335-0.06641 0.10362-0.05324 0.29823a1.6426 1.6349 0 0 0-0.16827 0.069532c-0.13539-0.16229-0.18144-0.2192-0.24608-0.17194-0.07375 0.052696-0.03422 0.11802 0.03409 0.2947a1.6426 1.6349 0 0 0-0.14613 0.11259c-0.17003-0.12576-0.2287-0.16895-0.28086-0.10784-0.05867 0.069532-0.0035 0.12223 0.10661 0.27977a1.6426 1.6349 0 0 0-0.11014 0.14246c-0.17791-0.065867-0.24378-0.10484-0.29593-0.030557-0.04617 0.065867 0.01087 0.11136 0.17492 0.2431a1.6426 1.6349 0 0 0-0.07062 0.16895c-0.18742-0.017924-0.26062-0.037211-0.29172 0.04726-0.02689 0.074285 0.03898 0.10416 0.22761 0.18742a1.6426 1.6349 0 0 0-0.02336 0.17968c-0.18443 0.03531-0.26116 0.036671-0.2666 0.12576-0.0054 0.0785 0.066 0.089228 0.26483 0.11503a1.6426 1.6349 0 0 0 0.0258 0.19163c-0.16963 0.073741-0.24269 0.092893-0.22884 0.1809 0.01317 0.0785 0.08556 0.071981 0.29335 0.052696a1.6426 1.6349 0 0 0 0.07306 0.17615c-0.14423 0.11191-0.2101 0.14844-0.17546 0.22992 0.03178 0.073608 0.10063 0.049164 0.29946-0.020912a1.6426 1.6349 0 0 0 0.10729 0.13825c-0.1096 0.15998-0.1642 0.21444-0.1043 0.28275 0.05215 0.059754 0.11082 0.016159 0.27664-0.1096a1.6426 1.6349 0 0 0 0.14667 0.11313c-0.06641 0.18443-0.10647 0.25097-0.03042 0.30245 0.06587 0.045494 0.11082-0.01195 0.2431-0.17899l-0.03232-0.019285a1.6426 1.6349 0 0 0 0.19285 0.082165c-0.01195 0.18973-0.03123 0.26347 0.055 0.2928 0.07428 0.024444 0.10186-0.041963 0.17846-0.22694a1.6426 1.6349 0 0 0 0.18633 0.025126c0.03531 0.20955 0.04672 0.2814 0.12698 0.27365 0.08977-0.00896 0.08801-0.085019 0.11734-0.27189a1.6426 1.6349 0 0 0 0.1881-0.023905c0.07782 0.18796 0.10539 0.25451 0.18022 0.22938 0.08624-0.028791 0.06763-0.1024 0.05446-0.29226a1.6426 1.6349 0 0 0 0.17071-0.069532c0.12807 0.16161 0.1737 0.2192 0.23957 0.17384 0.07361-0.050386 0.03585-0.11625-0.02825-0.29362a1.6426 1.6349 0 0 0 0.15211-0.11544c0.15876 0.11965 0.21689 0.16161 0.26836 0.10349 0.05813-0.067089 0.0072-0.12223-0.09642-0.27298a1.6426 1.6349 0 0 0 0.11082-0.14084c0.19394 0.06831 0.26225 0.092215 0.29335 0.019151 0.03531-0.080804-0.02988-0.11734-0.17247-0.22761a1.6426 1.6349 0 0 0 0.07428-0.17846c0.20426 0.018607 0.27665 0.025126 0.28927-0.052696 0.0144-0.087462-0.05813-0.10783-0.22408-0.17968a1.6426 1.6349 0 0 0 0.02404-0.19285c0.19651-0.025804 0.26713-0.037076 0.26238-0.11435-6e-3 -0.088684-0.08149-0.090994-0.2617-0.12576a1.6426 1.6349 0 0 0-0.02458-0.18266c0.18497-0.081487 0.2503-0.11136 0.2234-0.18511-0.02988-0.083792-0.10308-0.065867-0.28751-0.047804a1.6426 1.6349 0 0 0-0.07062-0.17194c0.16039-0.12875 0.21675-0.17492 0.17125-0.23957-0.05215-0.073608-0.11734-0.035989-0.29402 0.029878a1.6426 1.6349 0 0 0-0.11381-0.14545c0.11978-0.1684 0.16107-0.22761 0.09941-0.27787-0.06885-0.055683-0.12223-0.00299-0.26944 0.10593a1.6426 1.6349 0 0 0-0.15033-0.11489c0.0785-0.19163 0.10593-0.25872 0.03477-0.29348-0.08203-0.040743-0.12046 0.026347-0.24853 0.1737a1.6426 1.6349 0 0 0-0.17003-0.069532c0.01792-0.21023 0.02444-0.28262-0.05459-0.2947-0.08923-0.013581-0.10729 0.060026-0.18076 0.23182a1.6426 1.6349 0 0 0-0.18633-0.02268c-0.03164-0.20602-0.04183-0.27787-0.12155-0.27135m-0.06587 0.50249c0.18198-0.00299 0.39765 0.028656 0.46773 0.059754 0.30544 0.092348 0.58804 0.26361 0.82816 0.66073 0.04496 0.073608 0.07782 0.14545 0.09167 0.21078a0.27162 0.27162 0 0 1-0.03531 0.21322c-0.0383 0.050247-0.08556 0.096968-0.15156 0.10294-0.20602 0.019829-0.48511 0.00842-0.70487 0.00597-0.03708 0-0.07184-0.015481-0.08325-0.026892-0.06465-0.041281-0.10893-0.12996-0.18145-0.15509-0.11612-0.053917-0.16351-0.00842-0.2287-0.089228a11.374 11.375 0 0 1-0.34441-0.58804c-0.07782-0.13486-0.02689-0.26958 0.08991-0.34265 0.04618-0.035989 0.14368-0.049706 0.25206-0.051608m-0.81025 0.41503a0.27162 0.27162 0 0 1 0.02879 0.00122c0.0622 0.00896 0.12685 0.02689 0.1646 0.081487 0.11802 0.16935 0.24554 0.4168 0.35093 0.60965 0.01792 0.032323 0.02214 0.069943 0.01739 0.085019-0.0042 0.077273-0.05989 0.15863-0.04618 0.23413 0.01018 0.12766 0.07198 0.14613 0.03422 0.24256a11.408 11.408 0 0 1-0.34496 0.58804c-0.07972 0.13363-0.22273 0.15577-0.34319 0.089905-0.1426-0.059892-0.33409-0.50847-0.34672-0.62946-0.06885-0.31141-0.05813-0.64086 0.17071-1.045 0.04305-0.07483 0.08977-0.13771 0.13948-0.18266a0.2852 0.2852 0 0 1 0.17478-0.074285zm0.88032 0.84747a0.13581 0.13581 0 0 1 0.13527 0.13581 0.13581 0.13581 0 0 1-0.13581 0.13608 0.13581 0.13581 0 0 1-0.13622-0.13581 0.13581 0.13581 0 0 1 0.13594-0.13594zm0.74614 0.28439h6.67e-4c0.11367 0 0.22748 0.00298 0.34006 0.00665 0.15577 0.00231 0.24609 0.11544 0.24921 0.2526 0.01969 0.15278-0.27434 0.54272-0.3732 0.61386-0.2359 0.21512-0.52696 0.37076-0.99222 0.37497a0.73336 0.73336 0 0 1-0.22816-0.029877 0.27162 0.27162 0 0 1-0.16528-0.13785c-0.02404-0.058671-0.04074-0.12386-0.01209-0.18375 0.08814-0.18633 0.23957-0.42046 0.35337-0.60791 0.01915-0.031779 0.05025-0.053917 0.06587-0.057582 0.06831-0.034633 0.16772-0.026892 0.22639-0.076595 0.10539-0.07252 0.08977-0.13594 0.19285-0.15156a13.038 13.038 0 0 1 0.34251-0.00298z" fill="#999999" stroke-width=".13581"/>
</svg>
