<svg version="1.1" viewBox="0 0 64 64" xmlns="http://www.w3.org/2000/svg" xmlns:xlink="http://www.w3.org/1999/xlink">
 <defs>
  <filter id="a-1" x="-.038932" y="-.033367" width="1.0779" height="1.0667" color-interpolation-filters="sRGB">
   <feGaussianBlur stdDeviation=".206"/>
  </filter>
 </defs>
 <path transform="scale(3.7796)" d="m3.44 1.354a1.32 1.32 0 0 0-1.323 1.323v12.171c0 0.733 0.59 1.323 1.323 1.323h10.053a1.32 1.32 0 0 0 1.323-1.323v-10.318l-3.175-3.175z" filter="url(#a-1)" opacity=".15" style="paint-order:stroke fill markers"/>
 <g transform="scale(3.7796)" fill-rule="evenodd">
  <path transform="scale(.26458)" d="m13 4c-2.77 0-5 2.23-5 5v46c0 2.77 2.23 5 5 5h38c2.77 0 5-2.23 5-5v-39l-12-12z" fill="#f8a63f" style="paint-order:stroke fill markers"/>
  <path d="m14.816 4.233-3.175-3.175v1.852c0 0.733 0.59 1.323 1.323 1.323z" fill="#ffffff" opacity=".35" style="paint-order:stroke fill markers"/>
 </g>
 <path d="m43.998 10.999v0.58584c0 3.001 2.23 5.4162 5.0004 5.4162h6.9998v-1.0016h-6.9998a4.9891 4.9891 0 0 1-5.0042-5.0004z" opacity=".1" stroke-width="3.7796" style="paint-order:stroke fill markers"/>
 <path d="m31.999 25.47c-3.1504 0-5.7296 1.9439-5.9766 4.4133-2.292-1.0329-4.2841-1.5145-5.7117-1.6148l0.0071-0.0024c-1.866-0.132-3.0822 0.31814-3.6258 1.2422-0.5484 0.9276-0.36551 2.1652 0.67969 3.6844 1.0416 1.5144 3.1734 3.5107 6.375 5.3203 0.04783 0.02681 0.09167 0.04576 0.13828 0.07031-1.4224 0.6521-2.6053 1.3277-3.45 1.9711-1.6596 1.2612-2.2991 2.4987-1.7039 3.4875s2.2948 1.5326 4.7836 1.6406c1.0066 0.04434 2.2274-0.03544 3.5227-0.17344a6 9 0 0 0 4.9617 3.9609 6 9 0 0 0 4.9617-3.9586c1.2961 0.13815 2.5178 0.2178 3.525 0.17344 2.4888-0.108 4.1884-0.65182 4.7836-1.6406 0.5952-0.98882-0.04427-2.2263-1.7039-3.4875-0.84466-0.64337-2.0276-1.319-3.45-1.9711 0.04661-0.02455 0.09046-0.0435 0.13828-0.07031 3.2016-1.8096 5.3334-3.8059 6.375-5.3203 1.0452-1.5192 1.2281-2.7568 0.67969-3.6844-0.5436-0.924-1.7598-1.3765-3.6258-1.2445l0.0071 0.0024c-1.4278 0.10028-3.4197 0.58192-5.7117 1.6148-0.24699-2.4694-2.8286-4.4133-5.9789-4.4133zm-3.6 2.4c0.66274 0 1.2 0.80589 1.2 1.8 0 0.99412-0.53727 1.8-1.2 1.8s-1.2-0.80589-1.2-1.8c0-0.99412 0.53727-1.8 1.2-1.8zm7.2 0c0.66274 0 1.2 0.80589 1.2 1.8 0 0.99412-0.53727 1.8-1.2 1.8s-1.2-0.80589-1.2-1.8c0-0.99412 0.53727-1.8 1.2-1.8zm-13.966 2.2828c0.1869 7.23e-4 0.38031 0.0077 0.57891 0.02344 1.1694 0.09362 2.5252 0.4686 3.9188 1.0852 0.25951 0.978 0.89657 1.8743 1.8375 2.557a6 9 0 0 0-1.6336 3.7641c-0.48407 0.1734-0.95044 0.35032-1.3945 0.53203-0.21822-0.12767-0.44189-0.2579-0.6-0.34688-3.8016-2.1564-6.5154-4.7177-5.475-6.4805 0.4557-0.7749 1.4597-1.1394 2.768-1.1344zm20.735 0c1.3083-5e-3 2.3123 0.35948 2.768 1.1344 1.0404 1.7628-1.6734 4.3264-5.475 6.4828-0.15811 0.08899-0.38178 0.21922-0.6 0.34688-0.44425-0.18175-0.91033-0.36092-1.3945-0.53438a6 9 0 0 0-1.6359-3.7664c0.94036-0.6824 1.5801-1.5773 1.8398-2.5547 1.3936-0.61657 2.7493-0.99154 3.9188-1.0852 0.1986-0.01576 0.392-0.02272 0.57891-0.02344zm-10.235 3.7172a4.9347 7.2 0 0 1 4.4672 4.1531c-1.2707-0.95609-2.9605-1.7531-4.6008-1.7531-1.4818 0-3.0547 0.7611-4.268 1.5656a4.9347 7.2 0 0 1 4.4016-3.9656zm-5.932 4.3594a6 9 0 0 0-0.20156 2.2406 6 9 0 0 0 0.7875 4.4086c-2.9038 0.11173-5.1607-0.37136-5.8336-1.4836-0.8983-1.4944 1.3939-3.5985 5.2477-5.1656zm11.599 0c3.8538 1.5671 6.146 3.6735 5.2477 5.168-0.67298 1.1122-2.9299 1.5953-5.8336 1.4836a6 9 0 0 0 0.78516-4.4109 6 9 0 0 0-0.19922-2.2406zm-5.8008 0.44063c2 0 3.7752 0.72103 5.0344 1.6031a4.9347 7.2 0 0 1 0.03516 0.79688 4.9347 7.2 0 0 1-0.04219 0.86953c-1.3704-1.1807-3.1994-2.0695-5.0274-2.0695-1.6282 0-3.4371 0.85875-4.7719 1.9008a4.9347 7.2 0 0 1-0.02813-0.70078 4.9347 7.2 0 0 1 0.0539-0.99141c1.229-0.79027 2.8767-1.4086 4.7461-1.4086zm0 3.6c1.7395 0 3.952 0.86297 4.5984 1.8539a4.9347 7.2 0 0 1-0.375 0.97735c-0.8839-0.82688-2.874-1.6232-4.2234-1.6289-1.2013-5e-3 -3.0757 0.62044-4.0453 1.4156a4.9347 7.2 0 0 1-0.35859-1.0125c0.82367-0.88176 2.8116-1.6031 4.4039-1.6031zm0 3.6c1.3225 0 2.1242 0.42205 3.1055 0.93985a4.9347 7.2 0 0 1-2.9719 1.4602 4.9347 7.2 0 0 1-3.0539-1.5563c0.90059-0.47291 1.6798-0.84375 2.9203-0.84375z" fill="#ffffff" stroke-width="1.2"/>
</svg>
