<svg version="1.1" viewBox="0 0 64 64" xmlns="http://www.w3.org/2000/svg">
 <defs>
  <filter id="a-9" x="-.038932" y="-.033367" width="1.0779" height="1.0667" color-interpolation-filters="sRGB">
   <feGaussianBlur stdDeviation=".206"/>
  </filter>
 </defs>
 <path transform="scale(3.7796)" d="m3.44 1.354a1.32 1.32 0 0 0-1.323 1.323v12.171c0 0.733 0.59 1.323 1.323 1.323h10.053a1.32 1.32 0 0 0 1.323-1.323v-10.318l-3.175-3.175z" filter="url(#a-9)" opacity=".15" style="paint-order:stroke fill markers"/>
 <g transform="scale(3.7796)" fill-rule="evenodd">
  <path transform="scale(.26458)" d="m13 4c-2.77 0-5 2.23-5 5v46c0 2.77 2.23 5 5 5h38c2.77 0 5-2.23 5-5v-39l-12-12z" fill="#6467c6" style="paint-order:stroke fill markers"/>
  <path d="m14.816 4.233-3.175-3.175v1.852c0 0.733 0.59 1.323 1.323 1.323z" fill="#ffffff" opacity=".35" style="paint-order:stroke fill markers"/>
 </g>
 <path d="m43.998 10.999v0.58584c0 3.001 2.23 5.4162 5.0004 5.4162h6.9998v-1.0016h-6.9998a4.9891 4.9891 0 0 1-5.0042-5.0004z" opacity=".1" stroke-width="3.7796" style="paint-order:stroke fill markers"/>
 <path d="m30.5 21c-1.927 0-3.5 1.573-3.5 3.5 0 0.09 0.021 0.175 0.027 0.264-2.595 1.267-4.864 3.146-6.479 5.416-0.334-0.106-0.681-0.18-1.049-0.18-1.927 0-3.5 1.573-3.5 3.5 0 1.415 0.851 2.633 2.064 3.184-0.271 3.223 0.878 6.072 3.01 8.107-0.048 0.229-0.074 0.466-0.074 0.709 0 1.927 1.573 3.5 3.5 3.5 1.062 0 2.01-0.487 2.648-1.238 0.735 0.132 1.491 0.226 2.287 0.236 2.473 0.033 4.923-0.547 7.156-1.572 0.55 0.36 1.204 0.574 1.908 0.574 1.927 0 3.5-1.573 3.5-3.5 0-0.28-0.043-0.548-0.105-0.809 1.924-1.98 3.326-4.381 3.865-7.01 0.069-0.334 0.113-0.662 0.148-0.988 1.228-0.545 2.092-1.772 2.092-3.197 0-1.927-1.573-3.5-3.5-3.5-0.023 0-0.044 7e-3 -0.066 8e-3 -1.921-2.993-5.473-4.946-9.867-5.01-0.299-4e-3 -0.596 0.025-0.895 0.041-0.556-1.201-1.766-2.043-3.172-2.043zm0 0.992c1.391 0 2.508 1.116 2.508 2.508 0 1.391-1.116 2.508-2.508 2.508-1.391 0-2.508-1.116-2.508-2.508 0-1.391 1.116-2.508 2.508-2.508zm3.523 3.654c3.449 0.047 6.189 1.487 7.76 3.678-0.482 0.6-0.783 1.35-0.783 2.176 0 1.462 0.908 2.716 2.188 3.238-0.027 0.301-0.064 0.604-0.127 0.912-0.374 1.821-1.287 3.524-2.564 4.982-0.567-0.396-1.254-0.633-1.996-0.633-1.927 0-3.5 1.573-3.5 3.5 0 0.3 0.052 0.585 0.123 0.863-1.616 0.641-3.358 1.014-5.145 0.99-0.709-0.01-1.374-0.1-2.02-0.225-0.189-1.751-1.661-3.129-3.461-3.129-0.607 0-1.171 0.169-1.67 0.443-1.398-1.51-2.134-3.501-2.033-5.699 1.287-0.518 2.203-1.776 2.203-3.244 0-0.656-0.193-1.265-0.51-1.791 1.308-1.99 3.262-3.649 5.549-4.727 0.633 0.628 1.503 1.018 2.461 1.018 1.521 0 2.809-0.987 3.289-2.348 0.078-1e-3 0.156-7e-3 0.234-6e-3zm10.477 3.346c1.391 0 2.508 1.116 2.508 2.508 0 1.391-1.116 2.508-2.508 2.508-1.391 0-2.508-1.116-2.508-2.508 0-1.391 1.116-2.508 2.508-2.508zm-25 2c1.391 0 2.508 1.116 2.508 2.508 0 1.391-1.116 2.508-2.508 2.508-1.391 0-2.508-1.116-2.508-2.508 0-1.391 1.116-2.508 2.508-2.508zm19 10c1.391 0 2.508 1.116 2.508 2.508 0 1.391-1.116 2.508-2.508 2.508-1.391 0-2.508-1.116-2.508-2.508 0-1.391 1.116-2.508 2.508-2.508zm-14 2c1.391 0 2.508 1.116 2.508 2.508 0 1.391-1.116 2.508-2.508 2.508-1.391 0-2.508-1.116-2.508-2.508 0-1.391 1.116-2.508 2.508-2.508z" color-rendering="auto" fill="#fff" image-rendering="auto" shape-rendering="auto" solid-color="#000000" isolation="auto" mix-blend-mode="normal" white-space="normal"/>
</svg>
