<svg version="1.1" viewBox="0 0 64 64" xmlns="http://www.w3.org/2000/svg" xmlns:xlink="http://www.w3.org/1999/xlink">
 <defs>
  <filter id="a-5" x="-.038932" y="-.033367" width="1.0779" height="1.0667" color-interpolation-filters="sRGB">
   <feGaussianBlur stdDeviation=".206"/>
  </filter>
 </defs>
 <path transform="scale(3.7796)" d="m3.44 1.354a1.32 1.32 0 0 0-1.323 1.323v12.171c0 0.733 0.59 1.323 1.323 1.323h10.053a1.32 1.32 0 0 0 1.323-1.323v-10.318l-3.175-3.175z" filter="url(#a-5)" opacity=".15" style="paint-order:stroke fill markers"/>
 <g transform="scale(3.7796)" fill-rule="evenodd">
  <path transform="scale(.26458)" d="m13 4c-2.77 0-5 2.23-5 5v46c0 2.77 2.23 5 5 5h38c2.77 0 5-2.23 5-5v-39l-12-12z" fill="#f8d267" style="paint-order:stroke fill markers"/>
  <path d="m14.816 4.233-3.175-3.175v1.852c0 0.733 0.59 1.323 1.323 1.323z" fill="#ffffff" opacity=".35" style="paint-order:stroke fill markers"/>
 </g>
 <path d="m43.998 10.999v0.58584c0 3.001 2.23 5.4162 5.0004 5.4162h6.9998v-1.0016h-6.9998a4.9891 4.9891 0 0 1-5.0042-5.0004z" opacity=".1" stroke-width="3.7796" style="paint-order:stroke fill markers"/>
 <path d="m32 21.601-13.363 10.025c-0.029 0.019-0.055 0.042-0.082 0.063l-0.016 0.011v2e-3c-0.326 0.256-0.539 0.65-0.539 1.098v12.199c0 2 1.577 2 2 2h24s2 0 2-2v-12.199c0-0.458-0.222-0.86-0.56-1.115l6e-3 -8e-3zm0 6.399a5 5 0 0 1 5 5v1.5c0 0.831-0.669 1.5-1.5 1.5a1.496 1.496 0 0 1-1.37-0.89 3 3 0 0 1-2.13 0.89 3 3 0 0 1-3-3 3 3 0 0 1 3-3 3 3 0 0 1 3 3v1.5a0.5 0.5 0 1 0 1 0v-1.5a4 4 0 0 0-4-4 4 4 0 0 0-4 4 4 4 0 0 0 4 4h3.5a0.5 0.5 0 1 1 0 1h-3.5a5 5 0 0 1-5-5 5 5 0 0 1 5-5zm0 3a2 2 0 0 0-2 2 2 2 0 0 0 2 2 2 2 0 0 0 2-2 2 2 0 0 0-2-2z" fill="#ffffff" opacity=".75"/>
 <path d="m22.5 25c-0.831 0-1.5 0.669-1.5 1.5v15c0 0.83 0.669 1.498 1.5 1.498h19c0.831 0 1.5-0.668 1.5-1.498v-15c0-0.83-0.669-1.5-1.5-1.5zm9.5 3a5 5 0 0 1 5 5v1.5c0 0.83-0.669 1.5-1.5 1.5a1.496 1.496 0 0 1-1.37-0.892 3 3 0 0 1-2.13 0.892 3 3 0 0 1-3-3 3 3 0 0 1 3-3 3 3 0 0 1 3 3v1.5a0.5 0.5 0 1 0 1 0v-1.5a4 4 0 0 0-4-4 4 4 0 0 0-4 4 4 4 0 0 0 4 4h3.5a0.5 0.5 0 1 1 0 1h-3.5a5 5 0 0 1-5-5 5 5 0 0 1 5-5zm0 3a2 2 0 0 0-2 2 2 2 0 0 0 2 2 2 2 0 0 0 2-2 2 2 0 0 0-2-2z" fill="#ffffff"/>
 <path d="m18 32.8 26.6 18.2h-24.6c-1 0-2-0.5-2-2z" fill="#f6ebcf"/>
 <path d="m44 51c2 0 2-2 2-2v-16.2l-26.6 18.2z" fill="#fffcf0"/>
</svg>
