<svg xmlns="http://www.w3.org/2000/svg" viewBox="0 0 64 64"><defs><filter id="a" width="1.078" height="1.067" x="-.039" y="-.033" color-interpolation-filters="sRGB"><feGaussianBlur stdDeviation=".206"/></filter></defs><path d="M3.44 1.354a1.32 1.32 0 0 0-1.323 1.323v12.171c0 .733.59 1.323 1.323 1.323h10.053a1.32 1.32 0 0 0 1.323-1.323V4.53l-3.175-3.175z" filter="url(#a)" opacity=".15" style="paint-order:stroke fill markers" transform="scale(3.7796)"/><g fill-rule="evenodd"><path fill="#f4f4f4" d="M13 4c-2.77 0-5 2.23-5 5v46c0 2.77 2.23 5 5 5h38c2.77 0 5-2.23 5-5V16L44 4z" style="paint-order:stroke fill markers"/><path fill="#bbb" d="m14.816 4.233-3.175-3.175V2.91c0 .733.59 1.323 1.323 1.323z" style="paint-order:stroke fill markers" transform="scale(3.7796)"/></g><path d="M43.998 10.999v.586c0 3 2.23 5.416 5 5.416h7v-1.002h-7a4.99 4.99 0 0 1-5.004-5z" opacity=".1" style="paint-order:stroke fill markers"/><path fill="#555" d="M23.906 43.02c0 1.02.277 1.754.82 2.215.566.461 1.387.707 2.465.727v2.098c-1.809-.02-3.211-.461-4.195-1.305-.996-.852-1.488-2.047-1.488-3.586V38.63c0-1.039-.297-1.777-.902-2.219-.594-.449-1.469-.676-2.605-.676v-2.117c1.23-.02 2.125-.254 2.676-.715.555-.461.832-1.168.832-2.129v-4.586q0-2.324 1.539-3.617c1.023-.855 2.41-1.285 4.145-1.285v2.086c-2.195.063-3.285 1.051-3.285 2.98v4.422c0 2.148-1.066 3.414-3.188 3.805v.188c2.121.383 3.188 1.656 3.188 3.805v4.449M43.25 34.574c-2.121-.391-3.188-1.656-3.188-3.805v-4.422c0-1.93-1.078-2.918-3.242-2.98v-2.086c1.754 0 3.129.43 4.133 1.305 1 .871 1.508 2.066 1.508 3.598v4.586c0 .973.277 1.688.84 2.137.566.453 1.469.688 2.699.707v2.117c-1.16 0-2.043.227-2.637.676-.605.441-.902 1.18-.902 2.219v4.539c0 1.527-.492 2.715-1.465 3.566-.977.863-2.359 1.305-4.176 1.324v-2.098c1.055-.02 1.867-.266 2.422-.727.543-.461.82-1.195.82-2.215v-4.449c0-1.137.266-2.01.789-2.609.523-.598 1.324-1 2.398-1.195z"/></svg>