<svg xmlns="http://www.w3.org/2000/svg" width="64" height="64"><defs><filter id="a" width="1.078" height="1.067" x="-.039" y="-.033" color-interpolation-filters="sRGB"><feGaussianBlur stdDeviation=".206"/></filter></defs><g fill-rule="evenodd"><path d="M3.44 1.354a1.32 1.32 0 0 0-1.323 1.323v12.171c0 .733.59 1.323 1.323 1.323h10.053a1.32 1.32 0 0 0 1.323-1.323V4.53l-3.175-3.175z" filter="url(#a)" opacity=".15" style="paint-order:stroke fill markers" transform="scale(3.7796)"/><path fill="#fad65c" d="M3.44 1.059a1.32 1.32 0 0 0-1.323 1.323v12.17c0 .734.59 1.324 1.323 1.324h10.053a1.32 1.32 0 0 0 1.323-1.323V4.233L11.641 1.06z" style="paint-order:stroke fill markers" transform="scale(3.7796)"/><path fill="#fff" d="m14.816 4.233-3.175-3.175V2.91c0 .733.59 1.323 1.323 1.323z" opacity=".35" style="paint-order:stroke fill markers" transform="scale(3.7796)"/><path d="M43.998 11v.584c0 3 2.23 5.416 5 5.416h7v-1h-7c-2.77 0-5-2.23-5-5" opacity=".1" style="paint-order:stroke fill markers"/><path fill="#fff" d="M32 21c-1.876 7-7 11.134-7 15a7 7 0 1 0 14 0c0-3.866-5.124-8-7-15m4.813 11.428A6 6 0 0 1 38 36a6 6 0 0 1-6 6 6 6 0 0 1-3.566-1.183A7 7 0 0 0 30 41a7 7 0 0 0 7-7 7 7 0 0 0-.188-1.572" color="#4d4d4d" opacity=".9" style="isolation:auto;mix-blend-mode:normal"/></g></svg>