<svg xmlns="http://www.w3.org/2000/svg" width="64" height="64" viewBox="0 0 16.933 16.933"><defs><filter id="a" width="1.078" height="1.067" x="-.039" y="-.033" color-interpolation-filters="sRGB"><feGaussianBlur stdDeviation=".206"/></filter></defs><path fill-rule="evenodd" d="M3.44 1.354a1.32 1.32 0 0 0-1.323 1.323v12.171c0 .733.59 1.323 1.323 1.323h10.053a1.32 1.32 0 0 0 1.323-1.323V4.53l-3.175-3.175z" filter="url(#a)" opacity=".15" style="paint-order:stroke fill markers"/><path fill="#90d344" fill-rule="evenodd" d="M3.44 1.059a1.32 1.32 0 0 0-1.323 1.323v12.17c0 .734.59 1.324 1.323 1.324h10.054a1.32 1.32 0 0 0 1.322-1.323V4.233L11.642 1.06z" style="paint-order:stroke fill markers"/><path fill="#fff" fill-rule="evenodd" d="m14.816 4.233-3.175-3.175V2.91c0 .733.59 1.323 1.323 1.323z" opacity=".35" style="paint-order:stroke fill markers"/><path fill-rule="evenodd" d="M11.641 2.91v.155c0 .794.59 1.433 1.323 1.433h1.852v-.265h-1.852A1.32 1.32 0 0 1 11.64 2.91" opacity=".1" style="paint-order:stroke fill markers"/><path fill="#2f72ba" d="M8.438 7.098a.82.82 0 0 0-.82.82v.056q.002.156.056.293l-1.1.917a1.3 1.3 0 0 0-.51-.108 1.27 1.27 0 0 0-1.272 1.272 1.27 1.27 0 0 0 1.272 1.272 1.3 1.3 0 0 0 .539-.121l1.12.933a.95.95 0 0 0-.105.428v.065a.955.955 0 0 0 .957.956h2.326a.955.955 0 0 0 .957-.956v-.065a.955.955 0 0 0-.957-.957H8.575a.95.95 0 0 0-.56.183l-.88-1.055a1.3 1.3 0 0 0 .158-.36l.654-.06a.68.68 0 0 0 .638.444h2.873a.68.68 0 0 0 .683-.684v-.046a.68.68 0 0 0-.683-.684H8.584a.68.68 0 0 0-.638.444l-.653-.06a1.3 1.3 0 0 0-.17-.382l.837-1.006a.8.8 0 0 0 .478.156h2.6a.82.82 0 0 0 .82-.82v-.056a.82.82 0 0 0-.82-.82z"/><rect width="3.675" height="1.131" x="7.901" y="7.38" fill="#d0f9e7" rx=".547"/><rect width="3.675" height=".848" x="8.184" y="9.924" fill="#d0f9e7" rx=".41"/><rect width="3.675" height="1.413" x="7.901" y="12.185" fill="#d0f9e7" rx=".683"/><circle cx="6.064" cy="10.348" r=".989" fill="#87c5e0"/></svg>