<svg xmlns="http://www.w3.org/2000/svg" viewBox="0 0 64 64"><defs><filter id="a" width="1.078" height="1.067" x="-.039" y="-.033" color-interpolation-filters="sRGB"><feGaussianBlur stdDeviation=".206"/></filter></defs><path d="M3.44 1.354a1.32 1.32 0 0 0-1.323 1.323v12.171c0 .733.59 1.323 1.323 1.323h10.053a1.32 1.32 0 0 0 1.323-1.323V4.53l-3.175-3.175z" filter="url(#a)" opacity=".15" style="paint-order:stroke fill markers" transform="scale(3.7796)"/><g fill-rule="evenodd"><path fill="#f8a63f" d="M13 4c-2.77 0-5 2.23-5 5v46c0 2.77 2.23 5 5 5h38c2.77 0 5-2.23 5-5V16L44 4z" style="paint-order:stroke fill markers"/><path fill="#fff" d="m14.816 4.233-3.175-3.175V2.91c0 .733.59 1.323 1.323 1.323z" opacity=".35" style="paint-order:stroke fill markers" transform="scale(3.7796)"/></g><path d="M43.998 10.999v.586c0 3 2.23 5.416 5 5.416h7v-1.002h-7a4.99 4.99 0 0 1-5.004-5z" opacity=".1" style="paint-order:stroke fill markers"/><path fill="#fff" d="M31.999 25.47c-3.15 0-5.73 1.944-5.977 4.413-2.292-1.033-4.284-1.514-5.711-1.615l.007-.002c-1.866-.132-3.082.318-3.626 1.242-.548.928-.366 2.165.68 3.685 1.041 1.514 3.173 3.51 6.375 5.32.048.027.091.046.138.07-1.422.652-2.605 1.328-3.45 1.971-1.66 1.262-2.3 2.5-1.704 3.488s2.295 1.533 4.784 1.64c1.006.045 2.227-.035 3.522-.173A6 9 0 0 0 32 49.47a6 9 0 0 0 4.962-3.959c1.296.139 2.518.218 3.525.174 2.489-.108 4.188-.652 4.783-1.64.596-.99-.044-2.227-1.704-3.488-.844-.644-2.027-1.32-3.45-1.971.047-.025.09-.044.139-.07 3.201-1.81 5.333-3.807 6.375-5.321 1.045-1.52 1.228-2.757.68-3.684-.544-.924-1.76-1.377-3.626-1.245l.007.003c-1.428.1-3.42.581-5.712 1.614-.247-2.47-2.829-4.413-5.979-4.413zm-3.6 2.4c.663 0 1.2.806 1.2 1.8s-.537 1.8-1.2 1.8-1.2-.806-1.2-1.8.537-1.8 1.2-1.8m7.2 0c.663 0 1.2.806 1.2 1.8s-.537 1.8-1.2 1.8-1.2-.806-1.2-1.8.537-1.8 1.2-1.8m-13.966 2.283q.28 0 .579.023c1.17.094 2.525.469 3.919 1.085.26.978.896 1.875 1.837 2.557a6 9 0 0 0-1.633 3.765q-.727.26-1.395.532a47 47 0 0 0-.6-.347c-3.801-2.157-6.515-4.718-5.475-6.48.456-.776 1.46-1.14 2.768-1.135zm20.735 0c1.308-.005 2.312.36 2.768 1.134 1.04 1.763-1.673 4.327-5.475 6.483-.158.089-.382.22-.6.347q-.667-.273-1.395-.535a6 9 0 0 0-1.635-3.766c.94-.682 1.58-1.577 1.84-2.555 1.393-.616 2.749-.991 3.918-1.085q.298-.023.58-.023zM32.133 33.87a4.935 7.2 0 0 1 4.467 4.153c-1.27-.956-2.96-1.753-4.6-1.753-1.482 0-3.055.761-4.269 1.566a4.935 7.2 0 0 1 4.402-3.966m-5.932 4.36a6 9 0 0 0-.202 2.24 6 9 0 0 0 .788 4.409c-2.904.111-5.16-.372-5.834-1.484-.898-1.494 1.394-3.599 5.248-5.166m11.599 0c3.854 1.567 6.146 3.673 5.248 5.167-.673 1.113-2.93 1.596-5.834 1.484a6 9 0 0 0 .785-4.41 6 9 0 0 0-.199-2.241zm-5.8.44c2 0 3.774.721 5.034 1.603a4.935 7.2 0 0 1 .035.797 4.935 7.2 0 0 1-.042.87c-1.37-1.181-3.2-2.07-5.028-2.07-1.628 0-3.437.859-4.772 1.9a4.935 7.2 0 0 1-.028-.7 4.935 7.2 0 0 1 .054-.991 8.84 8.84 0 0 1 4.746-1.409m0 3.6c1.739 0 3.951.863 4.598 1.854a4.935 7.2 0 0 1-.375.977c-.884-.827-2.874-1.623-4.224-1.629-1.201-.005-3.075.62-4.045 1.416a4.935 7.2 0 0 1-.359-1.013c.824-.881 2.812-1.603 4.404-1.603zm0 3.6c1.322 0 2.123.422 3.105.94a4.935 7.2 0 0 1-2.972 1.46 4.935 7.2 0 0 1-3.054-1.556c.9-.473 1.68-.844 2.92-.844"/></svg>