<svg xmlns="http://www.w3.org/2000/svg" width="64" height="64" viewBox="0 0 16.933 16.933"><defs><filter id="a" width="1.078" height="1.067" x="-.039" y="-.033" color-interpolation-filters="sRGB"><feGaussianBlur stdDeviation=".206"/></filter></defs><g fill-rule="evenodd"><path d="M3.44 1.354a1.32 1.32 0 0 0-1.323 1.323v12.171c0 .733.59 1.323 1.323 1.323h10.053a1.32 1.32 0 0 0 1.323-1.323V4.53l-3.175-3.175z" filter="url(#a)" opacity=".15" style="paint-order:stroke fill markers"/><path fill="#84c835" d="M3.44 1.058a1.32 1.32 0 0 0-1.323 1.323v12.171c0 .733.59 1.323 1.323 1.323h10.053a1.32 1.32 0 0 0 1.323-1.323V4.233l-3.175-3.175z" style="paint-order:stroke fill markers"/><path fill="#fff" d="m14.816 4.233-3.175-3.175V2.91c0 .733.59 1.323 1.323 1.323z" opacity=".35" style="paint-order:stroke fill markers"/></g><path d="M7.938 6.68V8.4c0 .074.059.133.132.133h.794a.13.13 0 0 0 .132-.133V6.68zm.265 1.059h.529v.53h-.53zm.264-6.615h-.53v.53h.53zm0 .53v.529h.53v-.53zm0 .529h-.53v.529h.53zm0 .529v.53h.53v-.53zm0 .53h-.53v.528h.53zm0 .528v.53h.53v-.53zm0 .53h-.53v.529h.53zm0 .529v.529h.53v-.53zm0 .529h-.53v.529h.53zm0 .529v.53h.53v-.53z" color="#000" opacity=".2"/><path fill="#fff" d="M7.938 6.615v1.72c0 .073.059.132.132.132h.794a.13.13 0 0 0 .132-.133v-1.72zm.265 1.058h.529v.529h-.53zm.264-6.615h-.53v.53h.53zm0 .53v.529h.53v-.53zm0 .529h-.53v.529h.53zm0 .529v.529h.53v-.53zm0 .529h-.53v.53h.53zm0 .53v.528h.53v-.529zm0 .528h-.53v.53h.53zm0 .53v.529h.53v-.53zm0 .529h-.53v.529h.53zm0 .529v.529h.53v-.53z" color="#000"/><path fill="#0c2809" d="m10.646 10.77.803-.803c.123-.123.123-.315 0-.438s-.315-.124-.439 0l-.913.914a3.6 3.6 0 0 0-1.63-.39c-.593 0-1.149.143-1.642.39l-.92-.914c-.124-.124-.315-.124-.439 0s-.123.315 0 .438l.81.809a3.7 3.7 0 0 0-1.513 2.982h7.408a3.68 3.68 0 0 0-1.525-2.988m-3.502 1.665h-.53v-.53h.53zm3.175 0h-.53v-.53h.53z" enable-background="new" opacity=".5"/><path fill-rule="evenodd" d="M43.998 11v.584c0 3 2.23 5.416 5 5.416h7v-1h-7c-2.77 0-5-2.23-5-5" opacity=".1" style="paint-order:stroke fill markers" transform="scale(.26458)"/></svg>