<svg xmlns="http://www.w3.org/2000/svg" viewBox="0 0 64 64"><defs><filter id="a" width="1.104" height="1.089" x="-.052" y="-.045" color-interpolation-filters="sRGB"><feGaussianBlur stdDeviation="1.04"/></filter></defs><rect width="48" height="56" x="8" y="5" filter="url(#a)" opacity=".15" rx="5" ry="5"/><rect width="48" height="56" x="8" y="4" fill="#0bae5c" rx="5" ry="5"/><path fill="#fff" stroke-width=".088" d="M33.132 13.997c-4.876.87-9.755 2.022-14.63 2.873v22.262c4.848.85 9.701 1.98 14.543 2.865H34.5v-28zm-3.254 8.731c-.85 1.739-1.701 3.477-2.57 5.212.876 1.78 1.772 3.55 2.645 5.33a185 185 0 0 1-2.294-.148c-.54-1.323-1.198-2.608-1.587-3.995-.431 1.293-1.047 2.51-1.546 3.78a78 78 0 0 1-2.09-.068c.82-1.603 1.606-3.213 2.449-4.804-.714-1.64-1.5-3.243-2.238-4.876l2.098-.117c.476 1.243.994 2.472 1.383 3.746.424-1.354 1.047-2.624 1.588-3.931q1.075-.078 2.162-.133zM35.498 18v2h3.001v1.999h-3.001v.998h3.001V25h-3.001v.998h3.001V28h-3.001v.998h3.001v1.999h-3.001V32h3.001v1.999h-3.001v.998h3.001V37h-3.001v2h10V18zm3.999 2h4.002v1.999h-4.002zm0 2.997h4.002V25h-4.002zm0 3h4.002v2.004h-4.002zm0 3.002h4.002v1.999h-4.002zm0 3h4.002v2h-4.002zm0 2.998h4.002V37h-4.002z"/><path fill-rule="evenodd" d="M8 48v7c0 2.77 2.23 5 5 5h38c2.77 0 5-2.23 5-5v-7z" opacity=".15" style="paint-order:stroke fill markers"/><g fill="#fff" stroke-width=".206" aria-label="XLTX"><path d="M27.605 57h-.84l-1.555-2.551L23.63 57h-.782l1.95-3.062-1.827-2.815h.823l1.44 2.305 1.45-2.304h.781l-1.819 2.798zM28.436 57v-5.876h.74v5.218h2.569V57zM34.444 57h-.74v-5.226h-1.836v-.65h4.403v.65h-1.827zM41.152 57h-.84l-1.555-2.551L37.177 57h-.782l1.95-3.062-1.827-2.815h.823l1.44 2.305 1.45-2.304h.781l-1.819 2.798z"/></g></svg>