<svg xmlns="http://www.w3.org/2000/svg" viewBox="0 0 64 64"><defs><filter id="a" width="1.104" height="1.089" x="-.052" y="-.045" color-interpolation-filters="sRGB"><feGaussianBlur stdDeviation="1.04"/></filter></defs><rect width="48" height="56" x="8" y="5" filter="url(#a)" opacity=".15" rx="5" ry="5"/><rect width="48" height="56" x="8" y="4" fill="#28ac89" rx="5" ry="5"/><g fill="#fff" color="#000"><path d="M27.391 12.269a3.36 3.36 0 0 1-.503 1.712l4.948 2.86a3.35 3.35 0 0 1 .931-1.466zm-6.721.052-5.405 3.122a3.35 3.35 0 0 1 .864 1.425l5.028-2.906a3.36 3.36 0 0 1-.487-1.64m-6.774 8.72a3.4 3.4 0 0 1-.972.146 3.4 3.4 0 0 1-.592-.053v6.058a3.4 3.4 0 0 1 .592-.055 3.4 3.4 0 0 1 .972.145zm20.22.016v6.21a3.4 3.4 0 0 1 .92-.13 3.4 3.4 0 0 1 .783.098v-6.144a3.4 3.4 0 0 1-.784.096 3.4 3.4 0 0 1-.92-.13m-17.91 10.108a3.35 3.35 0 0 1-.65 1.391l5.133 2.965a3.35 3.35 0 0 1 .515-1.469zm15.557.028-4.923 2.844a3.35 3.35 0 0 1 .524 1.542l5.102-2.946a3.35 3.35 0 0 1-.703-1.44M23.958 9.688a2.37 2.37 0 0 0-2.369 2.368 2.37 2.37 0 0 0 2.369 2.37 2.37 2.37 0 0 0 2.369-2.37 2.37 2.37 0 0 0-2.369-2.368m-.056 1.579h.056a.79.79 0 0 1 .79.79.79.79 0 0 1-.79.79.79.79 0 0 1-.79-.79.79.79 0 0 1 .734-.79M35.055 28.044a2.37 2.37 0 0 0-2.369 2.369 2.37 2.37 0 0 0 2.369 2.369 2.37 2.37 0 0 0 2.369-2.369 2.37 2.37 0 0 0-2.369-2.369m-.056 1.58h.056a.79.79 0 0 1 .79.789.79.79 0 0 1-.79.79.79.79 0 0 1-.79-.79.79.79 0 0 1 .734-.79" opacity=".5" style="isolation:auto;mix-blend-mode:normal" transform="translate(8 8)"/><path d="M35.055 15.393a2.37 2.37 0 0 0-2.369 2.369 2.37 2.37 0 0 0 2.369 2.369 2.37 2.37 0 0 0 2.369-2.369 2.37 2.37 0 0 0-2.369-2.369m-.056 1.58h.056a.79.79 0 0 1 .79.789.79.79 0 0 1-.79.79.79.79 0 0 1-.79-.79.79.79 0 0 1 .734-.79" style="isolation:auto;mix-blend-mode:normal" transform="translate(8 8)"/><path d="M12.945 28.044a2.37 2.37 0 0 0-2.369 2.369 2.37 2.37 0 0 0 2.369 2.369 2.37 2.37 0 0 0 2.369-2.369 2.37 2.37 0 0 0-2.369-2.369m-.056 1.58h.056a.79.79 0 0 1 .79.789.79.79 0 0 1-.79.79.79.79 0 0 1-.79-.79.79.79 0 0 1 .734-.79" opacity=".5" style="isolation:auto;mix-blend-mode:normal" transform="translate(8 8)"/><path d="M12.945 15.393a2.37 2.37 0 0 0-2.369 2.369 2.37 2.37 0 0 0 2.369 2.369 2.37 2.37 0 0 0 2.369-2.369 2.37 2.37 0 0 0-2.369-2.369m-.056 1.58h.056a.79.79 0 0 1 .79.789.79.79 0 0 1-.79.79.79.79 0 0 1-.79-.79.79.79 0 0 1 .734-.79M23.958 33.575a2.37 2.37 0 0 0-2.369 2.369 2.37 2.37 0 0 0 2.369 2.369 2.37 2.37 0 0 0 2.369-2.369 2.37 2.37 0 0 0-2.369-2.369m-.056 1.58h.056a.79.79 0 0 1 .79.789.79.79 0 0 1-.79.79.79.79 0 0 1-.79-.79.79.79 0 0 1 .734-.79M15.49 19.993a3.35 3.35 0 0 1-1.283.935l7.326 12.69a3.35 3.35 0 0 1 1.305-.895zM32.523 20.052l-7.317 12.675a3.35 3.35 0 0 1 1.308.895l7.31-12.665a3.35 3.35 0 0 1-1.301-.904z" style="isolation:auto;mix-blend-mode:normal" transform="translate(8 8)"/></g></svg>