<svg xmlns="http://www.w3.org/2000/svg" viewBox="0 0 64 64"><defs><filter id="a" width="1.078" height="1.067" x="-.039" y="-.033" color-interpolation-filters="sRGB"><feGaussianBlur stdDeviation=".206"/></filter></defs><path fill-rule="evenodd" d="M3.44 1.354a1.32 1.32 0 0 0-1.323 1.323v12.171c0 .733.59 1.323 1.323 1.323h10.053a1.32 1.32 0 0 0 1.323-1.323V4.53l-3.175-3.175z" filter="url(#a)" opacity=".15" style="paint-order:stroke fill markers" transform="scale(3.7796)"/><g fill-rule="evenodd"><path fill="#d253c8" d="M13 4c-2.77 0-5 2.23-5 5v46c0 2.77 2.23 5 5 5h38c2.77 0 5-2.23 5-5V16L44 4z" style="paint-order:stroke fill markers"/><path fill="#fff" d="m14.816 4.233-3.175-3.175V2.91c0 .733.59 1.323 1.323 1.323z" opacity=".35" style="paint-order:stroke fill markers" transform="scale(3.7796)"/></g><path fill-rule="evenodd" d="M43.998 10.999v.586c0 3 2.23 5.416 5 5.416h7v-1.002h-7a4.99 4.99 0 0 1-5.004-5z" opacity=".1" style="paint-order:stroke fill markers"/><path fill="#fff" d="M46.456 23.994c-.355-.004-.827.051-1.456.146l-10.455 1.598c-2.524.538-2.515.705-2.524 2.838v17.303q-.156-.111-.318-.221c-.802-.537-1.656-.92-2.804-.92-1.438 0-2.296.551-2.815 1.277s-.691 1.639-.691 2.346c0 .852.29 1.761.922 2.454.63.693 1.601 1.179 2.996 1.179 1.576 0 2.684-.44 3.31-1.3.494-.676.767-1.58.864-2.694v-.004q.02-.203.032-.417c.013-.22.01-.632.01-.632v-13.25c0-1.892 0-2.005 2.525-2.437l7.435-1.166c2.53-.33 2.53-.1 2.53 1.32v12.16a15 15 0 0 0-.31-.215c-.801-.537-1.656-.92-2.804-.92-1.438 0-2.296.551-2.815 1.276-.519.726-.691 1.64-.691 2.347 0 .852.291 1.761.922 2.454.632.693 1.602 1.179 2.997 1.179 1.576 0 2.684-.44 3.31-1.3.494-.676.766-1.58.863-2.694v-.004q.02-.202.032-.417c.014-.22.011-.633.011-.633V26.215c0-1.66-.01-2.21-1.076-2.221"/><path fill="#fff" fill-rule="evenodd" d="M16 28h14v1H16zM16 32h14v1H16zM16 36h12v1H16zM16 40h14v1H16zM16 44h9v1h-9z" style="paint-order:stroke fill markers"/></svg>