<svg width="64" height="64" version="1.1" viewBox="0 0 16.933 16.933" xmlns="http://www.w3.org/2000/svg">
 <defs>
  <filter id="a-5" x="-.038932" y="-.033367" width="1.0779" height="1.0667" color-interpolation-filters="sRGB">
   <feGaussianBlur stdDeviation=".206"/>
  </filter>
 </defs>
 <path d="m3.44 1.354a1.32 1.32 0 0 0-1.323 1.323v12.171c0 0.733 0.59 1.323 1.323 1.323h10.053a1.32 1.32 0 0 0 1.323-1.323v-10.318l-3.175-3.175z" fill-rule="evenodd" filter="url(#a-5)" opacity=".15" style="paint-order:stroke fill markers"/>
 <path d="m3.4395 1.0588c-0.73288 0-1.3229 0.59001-1.3229 1.3229v12.171c0 0.73288 0.59001 1.3229 1.3229 1.3229h10.054c0.73288 0 1.3229-0.59001 1.3229-1.3229v-10.319l-3.1749-3.1749z" fill="#90d344" fill-rule="evenodd" stroke-width=".26458" style="paint-order:stroke fill markers"/>
 <path d="m14.816 4.2332-3.1749-3.1749v1.852c0 0.73288 0.59001 1.3229 1.3229 1.3229z" fill="#ffffff" fill-rule="evenodd" opacity=".35" stroke-width=".26458" style="paint-order:stroke fill markers"/>
 <path d="m11.641 2.9104v0.15451c0 0.79373 0.59001 1.433 1.3229 1.433h1.852v-0.26458h-1.852c-0.73288 0-1.3229-0.59001-1.3229-1.3229z" fill-rule="evenodd" opacity=".1" stroke-width=".26458" style="paint-order:stroke fill markers"/>
 <path d="m8.4383 7.0978a0.81762 0.81762 0 0 0-0.81968 0.81968v0.056269c0 0.10404 0.02067 0.20233 0.05558 0.29375l-1.0996 0.9164a1.2719 1.2719 0 0 0-0.51078-0.10794 1.2719 1.2719 0 0 0-1.2719 1.2724 1.2719 1.2719 0 0 0 1.2719 1.2719 1.2719 1.2719 0 0 0 0.5388-0.12173l1.12 0.93359a0.95147 0.95147 0 0 0-0.10427 0.42741v0.065a0.95477 0.95477 0 0 0 0.95676 0.95676h2.3259a0.95477 0.95477 0 0 0 0.95659-0.95676v-0.065a0.95477 0.95477 0 0 0-0.95659-0.95676h-2.3259c-0.21061 0-0.40352 0.0689-0.56085 0.18327l-0.87873-1.0549a1.2719 1.2719 0 0 0 0.15733-0.36058l0.65386-0.05949a0.68005 0.68005 0 0 0 0.63824 0.44371h2.8729a0.68211 0.68211 0 0 0 0.68326-0.68372v-0.04616a0.68211 0.68211 0 0 0-0.68348-0.68349h-2.8732a0.68027 0.68027 0 0 0-0.63802 0.44326l-0.65317-0.059254a1.2719 1.2719 0 0 0-0.1711-0.38217l0.83828-1.006c0.13458 0.097152 0.29857 0.15571 0.47771 0.15571h2.6005a0.81762 0.81762 0 0 0 0.81991-0.81968v-0.056039a0.81762 0.81762 0 0 0-0.81991-0.81991h-2.5998z" fill="#2f72ba" stroke-width=".22967"/>
 <rect x="7.9014" y="7.3805" width="3.6745" height="1.1307" rx=".54661" fill="#d0f9e7" stroke-width=".22967"/>
 <rect x="8.1839" y="9.9243" width="3.6745" height=".84794" rx=".40973" fill="#d0f9e7" stroke-width=".22967"/>
 <rect x="7.9014" y="12.185" width="3.6745" height="1.4132" rx=".68303" fill="#d0f9e7" stroke-width=".22967"/>
 <circle cx="6.064" cy="10.348" r=".98914" fill="#87c5e0" stroke-width=".22967"/>
</svg>
