<svg xmlns="http://www.w3.org/2000/svg" viewBox="0 0 64 64"><defs><filter id="a" width="1.104" height="1.089" x="-.052" y="-.045" color-interpolation-filters="sRGB"><feGaussianBlur stdDeviation="1.04"/></filter></defs><rect width="48" height="56" x="8" y="5" filter="url(#a)" opacity=".15" rx="5" ry="5"/><rect width="48" height="56" x="8" y="4" fill="#f4f4f4" rx="5" ry="5"/><g fill-rule="evenodd"><path d="M20 20v10h12V20zm1 1h10v8H21zM34 20h10v1H34zM34 23h10v1H34zM34 26h10v1H34zM20 32h24v1H20zM20 35h24v1H20zM20 38h24v1H20zM20 44h24v1H20zM34 29h10v1H34zM20 41h24v1H20z" opacity=".25"/><path d="M30.136 29.093h8v6h-8z" opacity=".25" style="paint-order:stroke fill markers" transform="translate(-8.136 -7.093)"/></g></svg>