<svg version="1.1" viewBox="0 0 64 64" xmlns="http://www.w3.org/2000/svg">
 <defs>
  <filter id="filter6421" x="-.052" y="-.044571" width="1.104" height="1.0891" color-interpolation-filters="sRGB">
   <feGaussianBlur stdDeviation="1.04"/>
  </filter>
 </defs>
 <rect x="8" y="5" width="48" height="56" rx="5" ry="5" fill="#000000" filter="url(#filter6421)" opacity=".15" stroke-width=".98687"/>
 <rect x="8" y="4" width="48" height="56" rx="5" ry="5" fill="#2b99f1" stroke-width=".98687"/>
 <g fill="#ffffff" fill-rule="evenodd">
  <path d="m20 20v10h12v-10zm1 1h10v8h-10z"/>
  <path d="m34 20h10v1h-10z"/>
  <path d="m34 23h10v1h-10z"/>
  <path d="m34 26h10v1h-10z"/>
  <path d="m20 32h24v1h-24z"/>
  <path d="m20 35h24v1h-24z"/>
  <path d="m20 38h24v1h-24z"/>
  <path d="m20 44h24v1h-24z"/>
  <path d="m34 29h10v1h-10z"/>
  <path d="m20 41h24v1h-24z"/>
  <rect x="22" y="22" width="8" height="6" stop-color="#000000" stroke-linecap="round" stroke-linejoin="round" stroke-width="2" style="paint-order:stroke fill markers"/>
 </g>
</svg>
