<svg xmlns="http://www.w3.org/2000/svg" viewBox="0 0 64 64"><defs><filter id="a" width="1.078" height="1.067" x="-.039" y="-.033" color-interpolation-filters="sRGB"><feGaussianBlur stdDeviation=".206"/></filter></defs><path d="M3.44 1.354a1.32 1.32 0 0 0-1.323 1.323v12.171c0 .733.59 1.323 1.323 1.323h10.053a1.32 1.32 0 0 0 1.323-1.323V4.53l-3.175-3.175z" filter="url(#a)" opacity=".15" style="paint-order:stroke fill markers" transform="scale(3.7796)"/><g fill-rule="evenodd"><path fill="#6467c6" d="M13 4c-2.77 0-5 2.23-5 5v46c0 2.77 2.23 5 5 5h38c2.77 0 5-2.23 5-5V16L44 4z" style="paint-order:stroke fill markers"/><path fill="#fff" d="m14.816 4.233-3.175-3.175V2.91c0 .733.59 1.323 1.323 1.323z" opacity=".35" style="paint-order:stroke fill markers" transform="scale(3.7796)"/></g><path d="M43.998 10.999v.586c0 3 2.23 5.416 5 5.416h7v-1.002h-7a4.99 4.99 0 0 1-5.004-5z" opacity=".1" style="paint-order:stroke fill markers"/><path fill="#fff" d="M30.5 21a3.51 3.51 0 0 0-3.5 3.5c0 .09.021.175.027.264-2.595 1.267-4.864 3.146-6.479 5.416a3.5 3.5 0 0 0-1.049-.18 3.51 3.51 0 0 0-3.5 3.5c0 1.415.851 2.633 2.064 3.184-.271 3.223.878 6.072 3.01 8.107a3.5 3.5 0 0 0-.074.709c0 1.927 1.573 3.5 3.5 3.5 1.062 0 2.01-.487 2.648-1.238.735.132 1.491.226 2.287.236 2.473.033 4.923-.547 7.156-1.572.55.36 1.204.574 1.908.574 1.927 0 3.5-1.573 3.5-3.5 0-.28-.043-.548-.105-.809 1.924-1.98 3.326-4.381 3.865-7.01.069-.334.113-.662.148-.988a3.51 3.51 0 0 0 2.092-3.197c0-1.927-1.573-3.5-3.5-3.5-.023 0-.044.007-.066.008-1.921-2.993-5.473-4.946-9.867-5.01-.299-.004-.596.025-.895.041a3.5 3.5 0 0 0-3.172-2.043zm0 .992a2.5 2.5 0 0 1 2.508 2.508 2.5 2.5 0 0 1-2.508 2.508 2.5 2.5 0 0 1-2.508-2.508 2.5 2.5 0 0 1 2.508-2.508m3.523 3.654c3.449.047 6.189 1.487 7.76 3.678-.482.6-.783 1.35-.783 2.176 0 1.462.908 2.716 2.188 3.238a8 8 0 0 1-.127.912c-.374 1.821-1.287 3.524-2.564 4.982a3.48 3.48 0 0 0-1.996-.633 3.51 3.51 0 0 0-3.5 3.5c0 .3.052.585.123.863-1.616.641-3.358 1.014-5.145.99-.709-.01-1.374-.1-2.02-.225-.189-1.751-1.661-3.129-3.461-3.129-.607 0-1.171.169-1.67.443-1.398-1.51-2.134-3.501-2.033-5.699a3.51 3.51 0 0 0 2.203-3.244c0-.656-.193-1.265-.51-1.791 1.308-1.99 3.262-3.649 5.549-4.727a3.49 3.49 0 0 0 2.461 1.018c1.521 0 2.809-.987 3.289-2.348.078-.001.156-.007.234-.006zM44.5 28.992a2.5 2.5 0 0 1 2.508 2.508 2.5 2.5 0 0 1-2.508 2.508 2.5 2.5 0 0 1-2.508-2.508 2.5 2.5 0 0 1 2.508-2.508m-25 2a2.5 2.5 0 0 1 2.508 2.508 2.5 2.5 0 0 1-2.508 2.508 2.5 2.5 0 0 1-2.508-2.508 2.5 2.5 0 0 1 2.508-2.508m19 10a2.5 2.5 0 0 1 2.508 2.508 2.5 2.5 0 0 1-2.508 2.508 2.5 2.5 0 0 1-2.508-2.508 2.5 2.5 0 0 1 2.508-2.508m-14 2a2.5 2.5 0 0 1 2.508 2.508 2.5 2.5 0 0 1-2.508 2.508 2.5 2.5 0 0 1-2.508-2.508 2.5 2.5 0 0 1 2.508-2.508"/></svg>