<svg version="1.1" viewBox="0 0 64 64" xmlns="http://www.w3.org/2000/svg">
 <defs>
  <filter id="a-3" x="-.038932" y="-.033367" width="1.0779" height="1.0667" color-interpolation-filters="sRGB">
   <feGaussianBlur stdDeviation=".206"/>
  </filter>
 </defs>
 <path transform="scale(3.7796)" d="m3.44 1.354a1.32 1.32 0 0 0-1.323 1.323v12.171c0 0.733 0.59 1.323 1.323 1.323h10.053a1.32 1.32 0 0 0 1.323-1.323v-10.318l-3.175-3.175z" fill-rule="evenodd" filter="url(#a-3)" opacity=".15" style="paint-order:stroke fill markers"/>
 <g transform="scale(3.7796)" fill-rule="evenodd">
  <path transform="scale(.26458)" d="m13 4c-2.77 0-5 2.23-5 5v46c0 2.77 2.23 5 5 5h38c2.77 0 5-2.23 5-5v-39l-12-12z" fill="#f1bd60" style="paint-order:stroke fill markers"/>
  <path d="m14.816 4.233-3.175-3.175v1.852c0 0.733 0.59 1.323 1.323 1.323z" fill="#ffffff" opacity=".35" style="paint-order:stroke fill markers"/>
 </g>
 <g transform="scale(3.7796)" color="#000000" fill="#ffffff" opacity=".9">
  <path d="m7.937 8.202v1.72c0 0.073 0.059 0.132 0.132 0.132h0.794a0.132 0.132 0 0 0 0.132-0.132v-1.72zm0.265 1.058h0.529v0.53h-0.531zm0.264-8.202v0.53h0.53v-0.53zm0 0.53h-0.53v0.529h0.53zm0 0.529v0.529h0.53v-0.53zm0 0.529h-0.53v0.529h0.53zm0 0.529v0.53h0.53v-0.53zm0 0.53h-0.53v0.528h0.53zm0 0.528v0.53h0.53v-0.53zm0 0.53h-0.53v0.529h0.53zm0 0.529v0.529h0.53v-0.53zm0 0.529h-0.53v0.529h0.53zm0 0.529v0.53h0.53v-0.53zm0 0.53h-0.53v0.528h0.53zm0 0.528v0.53h0.53v-0.53z"/>
 </g>
 <path d="m43.998 10.999v0.58584c0 3.001 2.23 5.4162 5.0004 5.4162h6.9998v-1.0016h-6.9998a4.9891 4.9891 0 0 1-5.0042-5.0004z" fill-rule="evenodd" opacity=".1" stroke-width="3.7796" style="paint-order:stroke fill markers"/>
 <path d="m8 48v7c0 2.77 2.23 5 5 5h38c2.77 0 5-2.23 5-5v-7z" fill="#000000" fill-rule="evenodd" opacity=".15" stop-color="#000000" style="paint-order:stroke fill markers"/>
 <g fill="#fff" stroke-width=".20576" aria-label="ZSTD">
  <path d="m26.576 57h-4.0741v-0.55967l3.0947-4.6584h-2.9959v-0.65844h3.893v0.55967l-3.0947 4.6584h3.177z"/>
  <path d="m31.029 55.428q0 0.52675-0.25514 0.89712-0.25514 0.36214-0.73251 0.55967-0.46914 0.19753-1.1111 0.19753-0.32922 0-0.63374-0.03292-0.2963-0.032924-0.54321-0.090537-0.24691-0.065844-0.43621-0.15638v-0.70782q0.2963 0.13169 0.73251 0.23868 0.44444 0.107 0.91358 0.107 0.43621 0 0.73251-0.11523t0.44444-0.32922 0.14815-0.50206-0.12346-0.4856-0.42798-0.36214q-0.2963-0.17284-0.83128-0.36214-0.3786-0.13992-0.66667-0.2963-0.27984-0.16461-0.46914-0.37037t-0.28807-0.46914q-0.09053-0.26338-0.09053-0.60905 0-0.46914 0.23868-0.79836 0.23868-0.33745 0.65844-0.51852 0.42798-0.18107 0.97942-0.18107 0.4856 0 0.88889 0.09053 0.40329 0.09054 0.73251 0.23868l-0.23045 0.63374q-0.30453-0.13169-0.66667-0.22222-0.35391-0.09054-0.74074-0.09054-0.37037 0-0.61728 0.107t-0.37037 0.30453q-0.12346 0.1893-0.12346 0.44444 0 0.2963 0.12346 0.49383t0.40329 0.35391q0.27984 0.15638 0.7572 0.33745 0.51852 0.1893 0.87243 0.41152 0.36214 0.21399 0.54321 0.51852 0.1893 0.30453 0.1893 0.76543z"/>
  <path d="m34.074 57h-0.74074v-5.2263h-1.8354v-0.65021h4.4033v0.65021h-1.8272z"/>
  <path d="m41.498 54.004q0 0.98766-0.37037 1.6543-0.36214 0.66667-1.0453 1.0041-0.68313 0.33745-1.6543 0.33745h-1.6379v-5.8765h1.8107q0.88889 0 1.5391 0.32922t1.0041 0.9712q0.35391 0.63374 0.35391 1.5802zm-0.78189 0.02469q0-0.78189-0.26338-1.284-0.25514-0.50206-0.7572-0.74074-0.49383-0.24691-1.2016-0.24691h-0.96296v4.6091h0.79835q1.1934 0 1.786-0.58436 0.60082-0.59259 0.60082-1.7531z"/>
 </g>
</svg>
