<svg version="1.1" viewBox="0 0 64 64" xmlns="http://www.w3.org/2000/svg">
 <defs>
  <filter id="filter6421" x="-.052" y="-.044571" width="1.104" height="1.0891" color-interpolation-filters="sRGB">
   <feGaussianBlur stdDeviation="1.04"/>
  </filter>
 </defs>
 <rect x="8" y="5" width="48" height="56" rx="5" ry="5" fill="#000000" filter="url(#filter6421)" opacity=".15" stroke-width=".98687"/>
 <rect x="8" y="4" width="48" height="56" rx="5" ry="5" fill="#0cb25d" stroke-width=".98687"/>
 <g transform="matrix(3.7796,0,0,3.7796,-3.33e-7,-4.9985)" fill="#ffffff" stroke-width=".088">
  <path d="m8.766 6.085c-1.29 0.23-2.581 0.535-3.871 0.76v5.89c1.283 0.225 2.567 0.524 3.848 0.758h0.385v-7.408zm-0.861 2.31c-0.225 0.46-0.45 0.92-0.68 1.379 0.232 0.471 0.469 0.939 0.7 1.41a48.933 48.933 0 0 1-0.607-0.039c-0.143-0.35-0.317-0.69-0.42-1.057-0.114 0.342-0.277 0.664-0.409 1-0.184-3e-3 -0.368-0.01-0.553-0.018 0.217-0.424 0.425-0.85 0.648-1.271-0.189-0.434-0.397-0.858-0.592-1.29l0.555-0.031c0.126 0.329 0.263 0.654 0.366 0.991 0.112-0.358 0.277-0.694 0.42-1.04 0.19-0.014 0.38-0.025 0.572-0.035zm1.487-1.251v0.529h0.794v0.529h-0.794v0.264h0.794v0.53h-0.794v0.264h0.794v0.53h-0.794v0.264h0.794v0.529h-0.794v0.265h0.794v0.529h-0.794v0.264h0.794v0.53h-0.794v0.529h2.646v-5.556zm1.058 0.529h1.059v0.529h-1.059zm0 0.793h1.059v0.53h-1.059zm0 0.794h1.059v0.53h-1.059zm0 0.794h1.059v0.529h-1.059zm0 0.794h1.059v0.529h-1.059zm0 0.793h1.059v0.53h-1.059z"/>
 </g>
</svg>
