<svg version="1.1" viewBox="0 0 64 64" xmlns="http://www.w3.org/2000/svg">
 <defs>
  <filter id="a" x="-.038932" y="-.033367" width="1.0779" height="1.0667" color-interpolation-filters="sRGB">
   <feGaussianBlur stdDeviation=".206"/>
  </filter>
 </defs>
 <path transform="scale(3.7796)" d="m3.44 1.354a1.32 1.32 0 0 0-1.323 1.323v12.171c0 0.733 0.59 1.323 1.323 1.323h10.053a1.32 1.32 0 0 0 1.323-1.323v-10.318l-3.175-3.175z" filter="url(#a)" opacity=".15" style="paint-order:stroke fill markers"/>
 <g transform="scale(3.7796)" fill-rule="evenodd">
  <path transform="scale(.26458)" d="m13 4c-2.77 0-5 2.23-5 5v46c0 2.77 2.23 5 5 5h38c2.77 0 5-2.23 5-5v-39l-12-12z" fill="#f4f4f4" style="paint-order:stroke fill markers"/>
  <path d="m14.816 4.233-3.175-3.175v1.852c0 0.733 0.59 1.323 1.323 1.323z" fill="#bbbbbb" style="paint-order:stroke fill markers"/>
 </g>
 <path d="m43.998 10.999v0.58584c0 3.001 2.23 5.4162 5.0004 5.4162h6.9998v-1.0016h-6.9998a4.9891 4.9891 0 0 1-5.0042-5.0004z" opacity=".1" stroke-width="3.7796" style="paint-order:stroke fill markers"/>
 <path d="m23.906 43.02c0 1.02 0.277 1.754 0.82 2.215 0.566 0.461 1.387 0.707 2.465 0.727v2.098c-1.809-0.02-3.211-0.461-4.195-1.305-0.996-0.852-1.488-2.047-1.488-3.586v-4.539c0-1.039-0.297-1.777-0.902-2.219-0.594-0.449-1.469-0.676-2.605-0.676v-2.117c1.23-0.02 2.125-0.254 2.676-0.715 0.555-0.461 0.832-1.168 0.832-2.129v-4.586c0-1.551 0.512-2.754 1.539-3.617 1.023-0.855 2.41-1.285 4.145-1.285v2.086c-2.195 0.063-3.285 1.051-3.285 2.98v4.422c0 2.148-1.066 3.414-3.188 3.805v0.188c2.121 0.383 3.188 1.656 3.188 3.805v4.449" fill="#555"/>
 <path d="m43.25 34.574c-2.121-0.391-3.188-1.656-3.188-3.805v-4.422c0-1.93-1.078-2.918-3.242-2.98v-2.086c1.754 0 3.129 0.43 4.133 1.305 1 0.871 1.508 2.066 1.508 3.598v4.586c0 0.973 0.277 1.688 0.84 2.137 0.566 0.453 1.469 0.688 2.699 0.707v2.117c-1.16 0-2.043 0.227-2.637 0.676-0.605 0.441-0.902 1.18-0.902 2.219v4.539c0 1.527-0.492 2.715-1.465 3.566-0.977 0.863-2.359 1.305-4.176 1.324v-2.098c1.055-0.02 1.867-0.266 2.422-0.727 0.543-0.461 0.82-1.195 0.82-2.215v-4.449c0-1.137 0.266-2.01 0.789-2.609 0.523-0.598 1.324-1 2.398-1.195v-0.188" fill="#555"/>
</svg>
