<svg xmlns="http://www.w3.org/2000/svg" width="64" height="64"><defs><filter id="a" width="1.078" height="1.067" x="-.039" y="-.033" color-interpolation-filters="sRGB"><feGaussianBlur stdDeviation=".206"/></filter></defs><path d="M3.44 1.354a1.32 1.32 0 0 0-1.323 1.323v12.171c0 .733.59 1.323 1.323 1.323h10.053a1.32 1.32 0 0 0 1.323-1.323V4.53l-3.175-3.175z" filter="url(#a)" opacity=".15" style="paint-order:stroke fill markers" transform="scale(3.7796)"/><g fill-rule="evenodd"><path fill="#afdde9" d="M13 4c-2.77 0-5 2.23-5 5v46c0 2.77 2.23 5 5 5h38c2.77 0 5-2.23 5-5V16L44 4z" style="paint-order:stroke fill markers"/><path d="m14.816 4.233-3.175-3.175V2.91c0 .733.59 1.323 1.323 1.323z" opacity=".35" style="paint-order:stroke fill markers" transform="scale(3.7796)"/></g><path d="M43.998 11v.584c0 3 2.23 5.416 5 5.416h7v-1h-7c-2.77 0-5-2.23-5-5" opacity=".1" style="paint-order:stroke fill markers"/><path fill-rule="evenodd" d="M31 42.2V21.8h3v3.886h4c1 0 1 .972 1 .972v14.57c0 .972-1 .972-1 .972zm-5 0V27.63h-1v-1.944h1v-2.914c0-.97 1-.97 1-.97h3v1.942h-1v1.942h1v1.943h-1V42.2z"/><path fill="#afdde9" d="M34.002 27.63h2v12.628h-2z" opacity=".99"/><rect width="1" height="56" x="15" y="4" opacity=".15" ry="0" style="paint-order:normal"/><rect width="1" height="56" x="15.983" y="4" fill="#fff" opacity=".15" ry="0" style="paint-order:normal"/></svg>