<svg xmlns="http://www.w3.org/2000/svg" width="64" height="64" viewBox="0 0 16.933 16.933"><defs><filter id="a" width="1.078" height="1.067" x="-.039" y="-.033" color-interpolation-filters="sRGB"><feGaussianBlur stdDeviation=".206"/></filter></defs><path fill-rule="evenodd" d="M3.44 1.354a1.32 1.32 0 0 0-1.323 1.323v12.171c0 .733.59 1.323 1.323 1.323h10.053a1.32 1.32 0 0 0 1.323-1.323V4.53l-3.175-3.175z" filter="url(#a)" opacity=".15" style="paint-order:stroke fill markers"/><g fill-rule="evenodd"><path fill="#fd736f" d="M13 4c-2.77 0-5 2.23-5 5v46c0 2.77 2.23 5 5 5h38c2.77 0 5-2.23 5-5V16L44 4z" style="paint-order:stroke fill markers" transform="scale(.26458)"/><path fill="#fff" d="m14.816 4.233-3.175-3.175V2.91c0 .733.59 1.323 1.323 1.323z" opacity=".35" style="paint-order:stroke fill markers"/></g><path fill="#fff" d="M5.028 8.202v1.72c0 .073.059.132.132.132h.794a.13.13 0 0 0 .132-.132v-1.72zm.265 1.058h.529v.53h-.53zm.264-8.202v.53h.53v-.53zm0 .53h-.53v.529h.53zm0 .529v.529h.53v-.53zm0 .529h-.53v.529h.53zm0 .529v.53h.53v-.53zm0 .53h-.53v.528h.53zm0 .528v.53h.53v-.53zm0 .53h-.53v.529h.53zm0 .529v.529h.53v-.53zm0 .529h-.53v.529h.53zm0 .529v.53h.53v-.53zm0 .53h-.53v.528h.53zm0 .528v.53h.53v-.53z" color="#000" opacity=".75"/><path fill-rule="evenodd" d="M11.641 2.91v.155c0 .794.59 1.433 1.323 1.433h1.852v-.265h-1.852A1.32 1.32 0 0 1 11.64 2.91z" opacity=".1" style="paint-order:stroke fill markers"/><g fill="#fff" stroke-width="1.143" opacity=".75"><path d="M10.583 8.996a2.646 2.646 0 0 0-2.646 2.645 2.646 2.646 0 0 0 2.646 2.646 2.646 2.646 0 0 0 2.646-2.646 2.646 2.646 0 0 0-2.646-2.645m0 .33a2.315 2.315 0 0 1 2.315 2.315 2.315 2.315 0 0 1-2.315 2.315 2.315 2.315 0 0 1-2.315-2.315 2.315 2.315 0 0 1 2.315-2.315"/><path d="M10.517 9.988a1.65 1.65 0 0 0-1.097.42l.234.234a1.32 1.32 0 0 1 .863-.323 1.323 1.323 0 0 1 1.323 1.322h.33a1.654 1.654 0 0 0-1.653-1.653m-1.497.955a1.65 1.65 0 0 0-.157.698h.331a1.3 1.3 0 0 1 .079-.445z"/><path d="m10.961 10.704-.71 1.646a.4.4 0 0 0-.091.194l-.003.004h.002c-.03.186.074.36.238.401.165.042.338-.063.4-.24h.002v-.01l.008-.024a.4.4 0 0 0 .002-.182z"/></g></svg>