<svg xmlns="http://www.w3.org/2000/svg" width="64" height="64"><defs><filter id="a" width="1.078" height="1.067" x="-.039" y="-.033" color-interpolation-filters="sRGB"><feGaussianBlur stdDeviation=".206"/></filter></defs><g fill-rule="evenodd"><path d="M3.44 1.354a1.32 1.32 0 0 0-1.323 1.323v12.171c0 .733.59 1.323 1.323 1.323h10.053a1.32 1.32 0 0 0 1.323-1.323V4.53l-3.175-3.175z" filter="url(#a)" opacity=".15" style="paint-order:stroke fill markers" transform="scale(3.7796)"/><path fill="#14148c" d="M3.44 1.058a1.32 1.32 0 0 0-1.323 1.323v12.171c0 .733.59 1.323 1.323 1.323h10.053a1.32 1.32 0 0 0 1.323-1.323V4.233l-3.175-3.175z" style="paint-order:stroke fill markers" transform="scale(3.7796)"/><path fill="#fff" d="m14.816 4.233-3.175-3.175V2.91c0 .733.59 1.323 1.323 1.323z" opacity=".35" style="paint-order:stroke fill markers" transform="scale(3.7796)"/></g><path d="M13 4.002a4.96 4.96 0 0 0-3.076 1.08h.119v2.19H8.324a5 5 0 0 0-.28 1.093h1.999v2.188H8v1.096h2.043v2.187H8v1.094h2.043v2.19H8v1.093h2.043v2.188H8v1.095h2.043v2.188H8v1.094h2.043v2.19H8v1.093h2.043v2.188H8v1.095h2.043v2.188H8v1.094h2.043v2.189H8v1.094h2.043v2.19H8v1.093h2.043v2.188H8v1.093h2.043v2.19H8v1.094h2.043v2.19H8v1.093h2.043v2.188H8v1.093h2.043v2.19H8.256c.122.387.28.754.488 1.094h1.299v1.418c.337.248.7.459 1.096.617v-2.035h2.187v2.19h1.094v-2.19h2.19v2.19h1.093v-2.19h2.188v2.19h1.095v-2.19h2.188v2.19h1.094v-2.19h2.19v2.19h1.093v-2.19h2.19v2.19h1.093v-2.19h2.188v2.19h1.094v-2.19h2.189v2.19h1.094v-2.19h2.19v2.19h1.093v-2.19h2.188v2.19h1.095v-2.19h2.188v2.19h1.094v-2.19h2.19v2.19h1.093v-2.19h2.187v2.08c.389-.142.76-.315 1.096-.543v-1.537h1.444a5 5 0 0 0 .488-1.094h-1.932v-2.19h2.188v-1.093h-2.188V51.04h2.188v-1.094h-2.188v-2.19h2.188v-1.093h-2.188v-2.19h2.188V43.38h-2.188v-2.188h2.188v-1.094h-2.188v-2.19h2.188v-1.093h-2.188v-2.19h2.188v-1.093h-2.188v-2.188h2.188V30.25h-2.188v-2.19h2.188v-1.094h-2.188v-2.19h2.188v-1.093h-2.188v-2.188h2.188V20.4h-2.188v-2.188h2.188V17.12h-2.188V16h-1.095v1.12H50.53V16h-1.094v1.12h-2.19v-1.452a5 5 0 0 1-1.093-.558v2.01h-2.188v-2.19h1.97a5 5 0 0 1-1.053-1.094h-.917V11.65h.08A5 5 0 0 1 44 11v-.447h-.034V8.365H44V7.272h-.034v-2.19H44v-1.08zm-1.861 1.08h2.187v2.19H11.14zm3.28 0h2.19v2.19h-2.19zm3.284 0h2.188v2.19h-2.188zm3.283 0h2.188v2.19h-2.188zm3.281 0h2.19v2.19h-2.19zm3.284 0h2.19v2.19h-2.19zm3.283 0h2.187v2.19h-2.187zm3.281 0h2.19v2.19h-2.19zm3.283 0h2.19v2.19h-2.19zm3.283 0h2.188v2.19h-2.188zM11.14 8.365h2.187v2.188h-2.188zm3.28 0h2.19v2.188h-2.19zm3.284 0h2.187v2.188h-2.187zm3.283 0h2.188v2.188h-2.188zm3.281 0h2.19v2.188h-2.19zm3.283 0h2.19v2.188h-2.19zm3.284 0h2.187v2.188h-2.187zm3.28 0h2.19v2.188h-2.19zm3.284 0h2.19v2.188h-2.19zm3.283 0h2.188v2.188h-2.19zm-29.543 3.283h2.188v2.188h-2.188zm3.282 0h2.189v2.188h-2.19zm3.283 0h2.187v2.188h-2.187zm3.283 0h2.187v2.188h-2.187zm3.281 0h2.19v2.188h-2.19zm3.283 0h2.19v2.188h-2.19zm3.283 0h2.188v2.188h-2.188zm3.282 0h2.19v2.188h-2.19zm3.283 0h2.19v2.188h-2.19zm3.283 0h2.188v2.188h-2.19zM11.138 14.93h2.188v2.19h-2.188zm3.281 0h2.19v2.19h-2.19zm3.284 0h2.187v2.19h-2.188zm3.283 0h2.187v2.19h-2.187zm3.28 0h2.19v2.19h-2.19zm3.284 0h2.19v2.19h-2.19zm3.283 0h2.188v2.19h-2.188zm3.282 0h2.189v2.19h-2.19zm3.283 0h2.19v2.19h-2.19zm3.283 0h2.187v2.19h-2.187zm-29.543 3.283h2.187V20.4h-2.187zm3.281 0h2.19V20.4h-2.19zm3.283 0h2.188V20.4h-2.188zm3.283 0h2.188V20.4h-2.187zm3.282 0h2.19V20.4h-2.19zm3.283 0h2.19V20.4h-2.19zm3.283 0h2.188V20.4h-2.188zm3.281 0h2.19V20.4h-2.19zm3.284 0h2.189V20.4h-2.19zm3.283 0h2.187V20.4h-2.187zm3.283 0h2.187V20.4h-2.187zm3.281 0h2.19V20.4h-2.19zm3.283 0h2.188V20.4h-2.188zm-39.39 3.283h2.187v2.188h-2.188zm3.28 0h2.19v2.188h-2.19zm3.284 0h2.187v2.188h-2.187zm3.283 0h2.187v2.188h-2.187zm3.281 0h2.19v2.188h-2.19zm3.283 0h2.19v2.188h-2.19zm3.284 0h2.187v2.188h-2.188zm3.28 0h2.19v2.188h-2.19zm3.284 0h2.19v2.188h-2.19zm3.283 0h2.188v2.188H40.68zm3.283 0h2.188v2.188h-2.188zm3.282 0h2.189v2.188h-2.19zm3.283 0h2.187v2.188h-2.187zm-39.391 3.281h2.187v2.19h-2.187zm3.28 0h2.19v2.19h-2.19zm3.284 0h2.188v2.19H17.7zm3.283 0h2.188v2.19h-2.188zm3.282 0h2.189v2.19h-2.19zm3.283 0h2.19v2.19h-2.19zm3.283 0h2.187v2.19h-2.187zm3.281 0h2.19v2.19h-2.19zm3.283 0h2.19v2.19h-2.19zm3.284 0h2.187v2.19H40.68zm3.283 0h2.187v2.19h-2.187zm3.28 0h2.19v2.19h-2.19zm3.284 0h2.188v2.19h-2.188zm-39.39 3.283h2.187v2.188h-2.188zm3.28 0h2.19v2.188h-2.19zm3.284 0h2.187v2.188h-2.187zm3.283 0h2.187v2.188h-2.187zm3.28 0h2.19v2.188h-2.19zm3.284 0h2.19v2.188h-2.19zm3.283 0h2.188v2.188H30.83zm3.282 0h2.189v2.188h-2.19zm3.283 0h2.19v2.188h-2.19zm3.283 0h2.187v2.188H40.68zm3.283 0h2.188v2.188h-2.188zm3.281 0h2.19v2.188h-2.19zm3.284 0h2.187v2.188h-2.187zm-39.391 3.284h2.187v2.187h-2.187zm3.28 0h2.19v2.187h-2.19zm3.284 0h2.187v2.187H17.7zm3.283 0h2.188v2.187h-2.188zm3.281 0h2.19v2.187h-2.19zm3.284 0h2.189v2.187h-2.19zm3.283 0h2.187v2.187h-2.187zm3.28 0h2.19v2.187h-2.19zm3.284 0h2.19v2.187h-2.19zm3.283 0h2.188v2.187h-2.188zm3.284 0h2.187v2.187h-2.187zm3.28 0h2.19v2.187h-2.19zm3.284 0h2.187v2.187h-2.187zm-39.391 3.28h2.187v2.19h-2.187zm3.281 0h2.19v2.19h-2.19zm3.283 0h2.188v2.19h-2.188v-1.093zm3.284 0h2.187v2.19h-2.187v-1.093zm3.28 0h2.19v2.19h-2.19v-1.093zm3.284 0h2.19v2.19h-2.19v-1.093zm3.283 0h2.188v2.19H30.83v-1.093zm3.281 0h2.19v2.19h-2.19v-1.093zm3.284 0h2.189v2.19h-2.19v-1.093zm3.283 0h2.187v2.19h-2.187v-1.093zm3.283 0h2.187v2.19h-2.187v-1.093zm3.281 0h2.19v2.19h-2.19v-1.093zm3.283 0h2.188v2.19h-2.188zm-39.39 3.284h2.187v2.19h-2.188zm3.28 0h2.19v2.19h-2.19zm3.284 0h2.187v2.19H17.7zm3.283 0h2.187v2.19h-2.187v-1.096zm3.281 0h2.19v2.19h-2.19v-1.096zm3.283 0h2.19v2.19h-2.19v-1.096zm3.284 0h2.187v2.19H30.83v-1.096zm3.28 0h2.19v2.19h-2.19v-1.096zm3.284 0h2.19v2.19h-2.19v-1.096zm3.283 0h2.188v2.19h-2.188v-1.096zm3.283 0h2.188v2.19H43.96v-1.096zm3.282 0h2.189v2.19h-2.19v-1.096zm3.283 0h2.187v2.19h-2.187v-1.096zm-39.391 3.283h2.187v2.188h-2.187zm3.28 0h2.19v2.188h-2.19zm3.284 0h2.188v2.188h-2.188zm3.283 0h2.188v2.188H20.98zm3.282 0h2.189v2.188h-2.19zm3.283 0h2.19v2.188h-2.19zm3.283 0h2.187v2.188H30.83zm3.281 0h2.19v2.188h-2.19zm3.283 0h2.19v2.188h-2.19zm3.284 0h2.187v2.188h-2.187zm3.283 0h2.187v2.188H43.96zm3.28 0h2.19v2.188h-2.19zm3.284 0h2.188v2.188h-2.188zm-39.39 3.281h2.187v2.19h-2.188zm3.28 0h2.19v2.19h-2.19zm3.284 0h2.187v2.19h-2.187zm3.283 0h2.187v2.19h-2.187zm3.28 0h2.19v2.19h-2.19zm3.284 0h2.19v2.19h-2.19zm3.283 0h2.188v2.19h-2.188zm3.282 0h2.189v2.19h-2.19zm3.283 0h2.19v2.19h-2.19zm3.283 0h2.187v2.19h-2.187zm3.283 0h2.188v2.19h-2.188zm3.281 0h2.19v2.19h-2.19zm3.284 0h2.187v2.19h-2.187zm-39.391 3.284h2.187v2.19h-2.187zm3.28 0h2.19v2.19h-2.19zm3.284 0h2.187v2.19h-2.187zm3.283 0h2.188v2.19H20.98zm3.281 0h2.19v2.19h-2.19zm3.284 0h2.189v2.19h-2.19zm3.283 0h2.187v2.19h-2.187zm3.28 0h2.19v2.19h-2.19zm3.284 0h2.19v2.19h-2.19zm3.283 0h2.188v2.19h-2.188zm3.284 0h2.187v2.19h-2.187V48.85zm3.28 0h2.19v2.19h-2.19V48.85zm3.284 0h2.187v2.19h-2.187V48.85zm-39.391 3.283h2.187v2.187h-2.187zm3.281 0h2.19v2.187h-2.19zm3.283 0h2.188v2.187h-2.188zm3.284 0h2.187v2.187H20.98zm3.28 0h2.19v2.187h-2.19zm3.284 0h2.19v2.187h-2.19zm3.283 0h2.188v2.187h-2.188zm3.281 0h2.19v2.187h-2.19zm3.284 0h2.189v2.187h-2.19zm3.283 0h2.187v2.187h-2.187zm3.283 0h2.187v2.187h-2.187zm3.281 0h2.19v2.187h-2.19zm3.283 0h2.188v2.187h-2.188zm-39.39 3.281h2.187v2.19H11.13zm3.28 0h2.19v2.19h-2.19zm3.284 0h2.187v2.19h-2.187zm3.283 0h2.187v2.19H20.98zm3.281 0h2.19v2.19h-2.19zm3.283 0h2.19v2.19h-2.19zm3.284 0h2.187v2.19h-2.187zm3.28 0h2.19v2.19h-2.19zm3.284 0h2.19v2.19h-2.19zm3.283 0h2.188v2.19h-2.188zm3.283 0h2.188v2.19h-2.188zm3.282 0h2.189v2.19h-2.19zm3.283 0h2.187v2.19h-2.187z" color="#000" opacity=".1"/><path fill="#fff" stroke-width=".088" d="M33.132 18c-4.877.868-9.756 2.02-14.632 2.873 0 7.418-.004 14.84 0 22.26 4.85.85 9.704 1.983 14.546 2.867h1.453V18zm-1.887 9.07L29 36.5l-1.844-.145c-.423-2.106-.916-4.2-1.295-6.315-.372 2.055-.856 4.091-1.282 6.133q-.916-.049-1.838-.111c-.528-2.8-1.149-5.58-1.642-8.385q.818-.039 1.635-.067c.328 2.026.7 4.043.986 6.072.449-2.08.907-4.16 1.352-6.24.605-.036 1.21-.06 1.813-.093.424 2.147.856 4.29 1.314 6.429.36-2.208.757-4.409 1.142-6.613a76 76 0 0 0 1.905-.096zM35.501 22h10v20h-10v-2h8v-1h-8v-2h8v-1h-8v-2h8v-1h-8v-2h8v-1h-8v-1.997h8V27h-8v-2h8v-1h-8z" enable-background="new"/><path fill-rule="evenodd" d="M43.998 11v.584c0 3 2.23 5.416 5 5.416h7v-1h-7c-2.77 0-5-2.23-5-5" opacity=".1" style="paint-order:stroke fill markers"/></svg>