<svg xmlns="http://www.w3.org/2000/svg" width="64" height="64" viewBox="0 0 16.933 16.933"><defs><filter id="a" width="1.078" height="1.067" x="-.039" y="-.033" color-interpolation-filters="sRGB"><feGaussianBlur stdDeviation=".206"/></filter></defs><path fill-rule="evenodd" d="M3.44 1.354a1.32 1.32 0 0 0-1.323 1.323v12.171c0 .733.59 1.323 1.323 1.323h10.053a1.32 1.32 0 0 0 1.323-1.323V4.53l-3.175-3.175z" filter="url(#a)" opacity=".15" style="paint-order:stroke fill markers"/><g fill-rule="evenodd"><path fill="#f4f4f4" d="M13 4c-2.77 0-5 2.23-5 5v46c0 2.77 2.23 5 5 5h38c2.77 0 5-2.23 5-5V16L44 4z" style="paint-order:stroke fill markers" transform="scale(.26458)"/><path fill="#bbb" d="m14.816 4.233-3.175-3.175V2.91c0 .733.59 1.323 1.323 1.323z" style="paint-order:stroke fill markers"/></g><path fill="#f09020" d="m11.12 13.759-.525.002v-1.4c-.247.237-.802.708-.802.708l-.789-.707v1.397l-.53-.003v-2.114l.507.005c.017 0 .036.018.05.032.21.21.764.676.764.676s.59-.497.76-.669a.12.12 0 0 1 .099-.041c.108.002.354-.003.467-.003zm-4.29-1.515.571-.564c.017-.017.043-.036.064-.036.163-.002.48-.002.48-.002v2.117h-.529v-1.376L6.09 13.71a.15.15 0 0 1-.117.049c-.2-.003-.658 0-.658 0zm-1.76.498-1.101-1.1.574.001a.13.13 0 0 1 .104.042q.343.346.687.688.024.024.053.05.365-.363.724-.723a.17.17 0 0 1 .135-.057h.556L5.654 12.79q-.463.46-.924.92a.15.15 0 0 1-.123.049h-.546zm6.58-1.1h.529v1.72h1.01a.13.13 0 0 1 .105.042q.15.156.303.31l.04.045H11.65z" class="cls-1"/><g fill="none" stroke="#999" stroke-width="8" transform="translate(-1.587 -1.851)scale(.06614)"><ellipse cx="152" cy="115.98" stroke-dashoffset="1" stroke-linejoin="round" rx="52" ry="20"/><path d="M99.999 115.99v48"/><g stroke-dashoffset="1" stroke-linejoin="round"><path d="M204 131.98a52 20 0 0 1-26 17.32 52 20 0 0 1-52 0 52 20 0 0 1-26-17.32"/><path d="M204 147.98a52 20 0 0 1-26 17.321 52 20 0 0 1-52 0 52 20 0 0 1-26-17.321"/><path d="M204 163.98a52 20 0 0 1-26 17.321 52 20 0 0 1-52 0 52 20 0 0 1-26-17.321"/></g><path d="M204 115.99v48"/></g><path fill-rule="evenodd" d="M11.641 2.91v.155c0 .794.59 1.433 1.323 1.433h1.852v-.265h-1.852A1.32 1.32 0 0 1 11.64 2.91z" opacity=".1" style="paint-order:stroke fill markers"/></svg>