<svg version="1.1" viewBox="0 0 64 64" xmlns="http://www.w3.org/2000/svg">
 <defs>
  <filter id="filter1663" x="-.05625" y="-.1125" width="1.1125" height="1.225" color-interpolation-filters="sRGB">
   <feGaussianBlur stdDeviation="0.28134433"/>
  </filter>
  <filter id="a-3" x="-.038932" y="-.033367" width="1.0779" height="1.0667" color-interpolation-filters="sRGB">
   <feGaussianBlur stdDeviation=".206"/>
  </filter>
 </defs>
 <path transform="scale(3.7796)" d="m3.44 1.354a1.32 1.32 0 0 0-1.323 1.323v12.171c0 0.733 0.59 1.323 1.323 1.323h10.053a1.32 1.32 0 0 0 1.323-1.323v-10.318l-3.175-3.175z" filter="url(#a-3)" opacity=".15" style="paint-order:stroke fill markers"/>
 <g transform="scale(3.7796)" fill-rule="evenodd">
  <path transform="scale(.26458)" d="m13 4c-2.77 0-5 2.23-5 5v46c0 2.77 2.23 5 5 5h38c2.77 0 5-2.23 5-5v-39l-12-12z" fill="#f4f4f4" style="paint-order:stroke fill markers"/>
  <path d="m14.816 4.233-3.175-3.175v1.852c0 0.733 0.59 1.323 1.323 1.323z" fill="#bbbbbb" style="paint-order:stroke fill markers"/>
 </g>
 <path d="m43.998 10.999v0.58584c0 3.001 2.23 5.4162 5.0004 5.4162h6.9998v-1.0016h-6.9998a4.9891 4.9891 0 0 1-5.0042-5.0004z" filter="url(#filter1663)" opacity=".1" stroke-width="3.7796" style="paint-order:stroke fill markers"/>
 <g fill="#000000">
  <path d="m17.998 20.999v1.0016h18.002v-1.0016zm0 3.001v0.99782h28.003v-0.99782zm0 3.001v0.99782h14.003v-0.99782z" opacity=".2" stroke-width="3.7796"/>
  <path d="m29.384 39.417c-0.90627 0-1.3121 0.35162-2.5305 2.3044l-1.7186 2.7841-0.8126-2.8484c-0.50044-1.7919-1.1878-2.2402-1.9994-2.2402-0.90604 0-2.0001 0.79988-3.4066 2.4318-0.1562 0.12855 0.12528 0.41661 0.25057 0.25663 0.84351-0.8963 1.5617-1.312 2.0929-1.312 0.43768 0 1.0632 0.22306 1.5624 1.9192l1.0622 3.649-2.1872 3.3281c-0.49927 0.73561-0.96856 0.95986-1.3744 0.95986-0.62479 0-0.68755-0.63991-1.4065-0.63991-0.49951 0-0.84375 0.31995-0.90627 0.76822-0.12435 0.86392 0.75007 1.5995 1.5627 1.5995 0.93788 0 1.3437-0.38423 2.5312-2.3361l1.9369-3.1357 1.0004 3.4557c0.46859 1.6645 1.0622 2.0161 1.8741 2.0161 0.90604 0 2.0001-0.83155 3.4057-2.4318 0.15713-0.15998-0.09344-0.41565-0.24964-0.28829-0.84351 0.89654-1.5308 1.3122-2.0619 1.3122-0.46859 0-1.0316-0.12855-1.469-1.6321l-1.2496-4.3203 1.9687-2.9441c0.5002-0.70418 0.96856-0.95986 1.3744-0.95986 0.62479 0 0.68732 0.63991 1.4065 0.63991 0.49951 0 0.84351-0.31995 0.90627-0.76822 0.12435-0.83226-0.75007-1.5679-1.5627-1.5679z" opacity=".65" stroke-width=".43202"/>
  <g stroke-width="3.7796">
   <path d="m32 48.001v0.99782h14.002v-0.99782z" opacity=".2"/>
   <path d="m27.999 29.999v1.0016h16.502v-1.0016zm0 3.001v1.0016h18.002v-1.0054zm0 3.001v0.99782h14v-0.99782z" opacity=".2"/>
   <path d="m17.998 29.999v1.0016h8.0052v-1.0016zm0 3.001v1.0016h8.0052v-1.0054zm0 3.001v0.99782h8.0052v-0.99782z" opacity=".2"/>
   <path d="m31.986 39.002v0.99782h14.015v-0.99782zm0 2.9972v1.0016h10.012v-1.0016z" opacity=".2"/>
   <path d="m31.986 45v1.0016h14.015v-1.0016z" opacity=".2"/>
   <path d="m32 51v0.99782h14.002v-0.99782z" opacity=".2"/>
  </g>
 </g>
</svg>
