<svg version="1.1" viewBox="0 0 64 64" xmlns="http://www.w3.org/2000/svg">
 <defs>
  <filter id="filter6421" x="-.052" y="-.044571" width="1.104" height="1.0891" color-interpolation-filters="sRGB">
   <feGaussianBlur stdDeviation="1.04"/>
  </filter>
 </defs>
 <rect x="8" y="5" width="48" height="56" rx="5" ry="5" fill="#000000" filter="url(#filter6421)" opacity=".15" stroke-width=".98687"/>
 <rect x="8" y="4" width="48" height="56" rx="5" ry="5" fill="#2b9ef1" stroke-width=".98687"/>
 <path d="m8 48v7c0 2.77 2.23 5 5 5h38c2.77 0 5-2.23 5-5v-7z" fill="#000000" fill-rule="evenodd" opacity=".15" stop-color="#000000" style="paint-order:stroke fill markers"/>
 <g fill="#ffffff" fill-rule="evenodd">
  <path d="m20 17v10h12v-10zm1 1h10v8h-10z"/>
  <path d="m34 17h10v1h-10z"/>
  <path d="m34 20h10v1h-10z"/>
  <path d="m34 23h10v1h-10z"/>
  <path d="m20 29h24v1h-24z"/>
  <path d="m20 32h24v1h-24z"/>
  <path d="m20 35h24v1h-24z"/>
  <path d="m20 41h24v1h-24z"/>
  <path d="m34 26h10v1h-10z"/>
  <path d="m20 38h24v1h-24z"/>
  <rect x="22" y="19" width="8" height="6" stop-color="#000000" stroke-linecap="round" stroke-linejoin="round" stroke-width="2" style="paint-order:stroke fill markers"/>
 </g>
 <g fill="#ffffff" stroke-width=".20576" aria-label="DOTX">
  <path d="m26.329 54.004q0 1.4897-0.81482 2.2469-0.80659 0.74898-2.2552 0.74898h-1.6379v-5.8766h1.8107q0.88889 0 1.5391 0.32922t1.0041 0.9712q0.35391 0.63375 0.35391 1.5803zm-0.7819 0.02469q0-1.177-0.58436-1.7202-0.57614-0.55144-1.6379-0.55144h-0.96297v4.6091h0.79836q2.3868 0 2.3868-2.3375z"/>
  <path d="m32.757 54.053q0 0.91359-0.31276 1.5967-0.30453 0.6749-0.90536 1.0535t-1.4897 0.3786q-0.91359 0-1.5226-0.3786-0.60083-0.3786-0.89712-1.0617-0.2963-0.68313-0.2963-1.5967 0-0.90536 0.2963-1.5803t0.89712-1.0535q0.60906-0.3786 1.5309-0.3786 0.88066 0 1.4815 0.3786 0.60083 0.37037 0.90536 1.0535 0.31276 0.6749 0.31276 1.5885zm-4.642 0q0 1.1111 0.46914 1.7531 0.46914 0.63375 1.465 0.63375 1.0041 0 1.465-0.63375 0.46091-0.64198 0.46091-1.7531 0-1.1111-0.46091-1.7366-0.46091-0.63375-1.4568-0.63375t-1.4733 0.63375q-0.46914 0.62552-0.46914 1.7366z"/>
  <path d="m35.671 57h-0.74074v-5.2264h-1.8354v-0.65021h4.4033v0.65021h-1.8272z"/>
  <path d="m42.379 57h-0.83951l-1.5556-2.5515-1.5803 2.5515h-0.7819l1.9506-3.0617-1.8272-2.8148h0.82305l1.4403 2.3045 1.4486-2.3045h0.7819l-1.8189 2.7984z"/>
 </g>
</svg>
