<svg xmlns="http://www.w3.org/2000/svg" width="64" height="64" viewBox="0 0 16.933 16.933"><defs><filter id="a" width="1.078" height="1.067" x="-.039" y="-.033" color-interpolation-filters="sRGB"><feGaussianBlur stdDeviation=".206"/></filter></defs><g fill-rule="evenodd"><path d="M3.44 1.354a1.32 1.32 0 0 0-1.323 1.323v12.171c0 .733.59 1.323 1.323 1.323h10.053a1.32 1.32 0 0 0 1.323-1.323V4.53l-3.175-3.175z" filter="url(#a)" opacity=".15" style="paint-order:stroke fill markers"/><path fill="#008a50" d="M3.44 1.059a1.32 1.32 0 0 0-1.323 1.323v12.17c0 .734.59 1.324 1.323 1.324h10.053a1.32 1.32 0 0 0 1.323-1.323V4.233L11.641 1.06z" style="paint-order:stroke fill markers"/><path fill="#fff" d="m14.816 4.233-3.175-3.175V2.91c0 .733.59 1.323 1.323 1.323z" opacity=".35" style="paint-order:stroke fill markers"/></g><path fill="#fff" stroke-width=".088" d="M8.766 4.762c-1.29.23-2.581.535-3.871.76v5.89c1.283.225 2.567.525 3.848.759h.385V4.762zm-.861 2.31q-.336.69-.68 1.379c.232.471.469.939.7 1.41l-.607-.038c-.143-.351-.317-.69-.42-1.057-.114.341-.277.664-.409.999q-.276-.005-.553-.018c.217-.423.425-.85.648-1.27-.189-.434-.397-.86-.592-1.29l.555-.032c.126.329.263.654.366.991.112-.357.277-.694.42-1.04q.284-.02.572-.034M9.392 5.82v.53h.794v.53h-.794v.264h.794v.53h-.794v.263h.794v.53h-.794v.264h.794v.53h-.794v.264h.794v.529h-.794v.265h.794v.529h-.794v.529h2.646V5.82zm1.058.53h1.059v.53H10.45zm0 .794h1.059v.53H10.45zm0 .793h1.059v.53H10.45zm0 .794h1.059v.53H10.45zm0 .794h1.059v.529H10.45zm0 .794h1.059v.529H10.45z" enable-background="new"/><path fill-rule="evenodd" d="M11.641 2.91v.155c0 .794.59 1.433 1.323 1.433h1.852v-.265h-1.852A1.32 1.32 0 0 1 11.64 2.91z" opacity=".1" style="paint-order:stroke fill markers"/></svg>