<svg xmlns="http://www.w3.org/2000/svg" width="64" height="64" viewBox="0 0 16.933 16.933"><defs><filter id="a" width="1.078" height="1.067" x="-.039" y="-.033" color-interpolation-filters="sRGB"><feGaussianBlur stdDeviation=".206"/></filter></defs><g fill-rule="evenodd"><path d="M3.44 1.354a1.32 1.32 0 0 0-1.323 1.323v12.171c0 .733.59 1.323 1.323 1.323h10.053a1.32 1.32 0 0 0 1.323-1.323V4.53l-3.175-3.175z" filter="url(#a)" opacity=".15" style="paint-order:stroke fill markers"/><path fill="#eca973" d="M3.44 1.059a1.32 1.32 0 0 0-1.323 1.323v12.17c0 .734.59 1.324 1.323 1.324h10.053a1.32 1.32 0 0 0 1.323-1.323V4.233L11.641 1.06z" style="paint-order:stroke fill markers"/><path fill="#fff" d="m14.816 4.233-3.175-3.175V2.91c0 .733.59 1.323 1.323 1.323z" opacity=".35" style="paint-order:stroke fill markers"/></g><path fill="#fff" d="M7.937 8.202v1.72c0 .073.059.132.132.132h.794a.13.13 0 0 0 .132-.132v-1.72zm.265 1.058h.529v.53H8.2zm.264-8.202v.53h.53v-.53zm0 .53h-.53v.529h.53zm0 .529v.529h.53v-.53zm0 .529h-.53v.529h.53zm0 .529v.53h.53v-.53zm0 .53h-.53v.528h.53zm0 .528v.53h.53v-.53zm0 .53h-.53v.529h.53zm0 .529v.529h.53v-.53zm0 .529h-.53v.529h.53zm0 .529v.53h.53v-.53zm0 .53h-.53v.528h.53zm0 .528v.53h.53v-.53z" color="#000" opacity=".75"/><path fill="#d78a4d" d="M3.704 12.171v.265H6.88v-.265zm0 .53v.264H6.35V12.7zm0 .528v.265H6.88v-.265zm0 .53v.264h2.117v-.265z" color="#000"/><path fill="#d78a4d" stroke-width=".035" d="M4.732 10.44v.182q-.087-.08-.186-.121-.098-.04-.21-.04-.218 0-.334.134-.116.133-.116.386 0 .252.116.386.116.133.335.133.111 0 .21-.04t.185-.121v.18q-.09.062-.192.092-.1.031-.213.031-.29 0-.456-.177t-.167-.484.167-.484q.166-.178.456-.178.114 0 .215.03.102.03.19.091m.693.072-.234.634h.469zm-.097-.17h.195l.486 1.275h-.18l-.115-.327h-.575l-.116.327H4.84zm1.04.666v.467h.277q.139 0 .205-.057.068-.058.068-.177 0-.12-.068-.176-.066-.057-.205-.057zm0-.524v.384h.255q.127 0 .188-.047.062-.048.062-.145t-.062-.145q-.061-.047-.188-.047zm-.173-.142h.441q.197 0 .304.082t.107.233q0 .117-.055.186t-.16.086q.127.028.197.115.07.086.07.216 0 .17-.115.264-.117.093-.33.093h-.459z" aria-label="CAB"/><path fill-rule="evenodd" d="M11.641 2.91v.155c0 .794.59 1.433 1.323 1.433h1.852v-.265h-1.852A1.32 1.32 0 0 1 11.64 2.91z" opacity=".1" style="paint-order:stroke fill markers"/></svg>