<svg xmlns="http://www.w3.org/2000/svg" width="64" height="64" viewBox="0 0 16.933 16.933"><defs><filter id="a" width="1.078" height="1.067" x="-.039" y="-.033" color-interpolation-filters="sRGB"><feGaussianBlur stdDeviation=".206"/></filter></defs><g fill-rule="evenodd"><path d="M3.44 1.354a1.32 1.32 0 0 0-1.323 1.323v12.171c0 .733.59 1.323 1.323 1.323h10.053a1.32 1.32 0 0 0 1.323-1.323V4.53l-3.175-3.175z" filter="url(#a)" opacity=".15" style="paint-order:stroke fill markers"/><path fill="#e84f43" d="M3.44 1.058a1.32 1.32 0 0 0-1.323 1.323v12.171c0 .733.59 1.323 1.323 1.323h10.053a1.32 1.32 0 0 0 1.323-1.323V4.233l-3.174-3.175z" style="paint-order:stroke fill markers"/><path fill="#fff" d="m14.816 4.233-3.175-3.175V2.91c0 .733.59 1.323 1.323 1.323z" opacity=".35" style="paint-order:stroke fill markers"/></g><path fill="#fff" d="M6.942 9.175c.264-.517.563-1.1.803-1.684l.095-.23c-.313-1.193-.501-2.15-.333-2.769.045-.16.232-.259.431-.259l.122.002h.022c.274-.004.403.344.417.479.024.225-.08.606-.08.606 0-.154.006-.402-.09-.617-.114-.248-.222-.397-.319-.42-.049.032-.096.1-.113.23a3.3 3.3 0 0 0-.043.532c0 .419.082.973.244 1.543q.047-.133.08-.253c.033-.125.244-.956.244-.956S8.37 6.485 8.294 6.82q-.023.104-.051.212c.267.748.698 1.415 1.213 1.896.203.19.459.342.701.481a9.6 9.6 0 0 1 1.424-.107c.54.007.935.087 1.096.245.078.077.11.17.12.274a1 1 0 0 1-.023.159c.006-.029.006-.17-.428-.31-.34-.108-.98-.105-1.745-.023.886.433 1.75.649 2.023.52a.6.6 0 0 0 .148-.144s-.049.219-.083.274a.43.43 0 0 1-.213.145c-.432.116-1.557-.151-2.537-.711a21 21 0 0 0-3.263.775c-.947 1.66-1.66 2.423-2.24 2.133l-.212-.107c-.087-.05-.1-.17-.08-.268.068-.33.482-.829 1.315-1.326.09-.054.489-.265.489-.265s-.296.286-.365.342c-.665.545-1.155 1.23-1.143 1.496l.002.023c.565-.08 1.412-1.23 2.5-3.36m.345.177c-.182.343-.36.66-.524.952.908-.38 1.884-.624 2.814-.797a5 5 0 0 1-.36-.274 4.8 4.8 0 0 1-1.185-1.543c-.18.483-.393.997-.745 1.662" enable-background="new"/><path fill-rule="evenodd" d="M11.641 2.91v.155c0 .794.59 1.433 1.323 1.433h1.852v-.265h-1.852A1.32 1.32 0 0 1 11.64 2.91z" opacity=".1" style="paint-order:stroke fill markers"/></svg>