<svg xmlns="http://www.w3.org/2000/svg" viewBox="0 0 64 64"><defs><filter id="a" width="1.078" height="1.067" x="-.039" y="-.033" color-interpolation-filters="sRGB"><feGaussianBlur stdDeviation=".206"/></filter></defs><path d="M3.44 1.354a1.32 1.32 0 0 0-1.323 1.323v12.171c0 .733.59 1.323 1.323 1.323h10.053a1.32 1.32 0 0 0 1.323-1.323V4.53l-3.175-3.175z" filter="url(#a)" opacity=".15" style="paint-order:stroke fill markers" transform="scale(3.7796)"/><g fill-rule="evenodd"><path fill="#1f96d6" d="M13 4c-2.77 0-5 2.23-5 5v46c0 2.77 2.23 5 5 5h38c2.77 0 5-2.23 5-5V16L44 4z" style="paint-order:stroke fill markers"/><path fill="#fff" d="m14.816 4.233-3.175-3.175V2.91c0 .733.59 1.323 1.323 1.323z" opacity=".35" style="paint-order:stroke fill markers" transform="scale(3.7796)"/></g><path d="M43.998 10.999v.586c0 3 2.23 5.416 5 5.416h7v-1.002h-7a4.99 4.99 0 0 1-5.004-5z" opacity=".1" style="paint-order:stroke fill markers"/><path fill="#fff" d="M22 24v6h-2v15c0 .762.261 1 1 1h23V31c0-.762-.261-1-1-1h-6v-6zm1 1h13v5h-4c-.627-.863-1.454-1.497-2.5-1.5-1.048 0-1.871.635-2.5 1.5h-4zm-2 6h22v4h-9.666c-1.477 0-2.834 1.477-2.834 3s1.36 3.11 2.834 3H43v4H21zm14 5.5c.736 0 1.5.74 1.5 1.5s-.764 1.5-1.5 1.5-1.5-.74-1.5-1.5.764-1.5 1.5-1.5"/></svg>