<svg xmlns="http://www.w3.org/2000/svg" width="64" height="64"><defs><filter id="a" width="1.078" height="1.067" x="-.039" y="-.033" color-interpolation-filters="sRGB"><feGaussianBlur stdDeviation=".206"/></filter></defs><g fill-rule="evenodd"><path d="M3.44 1.354a1.32 1.32 0 0 0-1.323 1.323v12.171c0 .733.59 1.323 1.323 1.323h10.053a1.32 1.32 0 0 0 1.323-1.323V4.53l-3.175-3.175z" filter="url(#a)" opacity=".15" style="paint-order:stroke fill markers" transform="scale(3.7796)"/><path fill="#fa4b2d" d="M13 4c-2.77 0-5 2.23-5 5v46c0 2.77 2.23 5 5 5h38c2.77 0 5-2.23 5-5V16L44 4z" style="paint-order:stroke fill markers"/><path fill="#fff" d="m14.816 4.233-3.175-3.175V2.91c0 .733.59 1.323 1.323 1.323z" opacity=".35" style="paint-order:stroke fill markers" transform="scale(3.7796)"/><path d="M43.998 11v.584c0 3 2.23 5.416 5 5.416h7v-1h-7c-2.77 0-5-2.23-5-5" opacity=".1" style="paint-order:stroke fill markers"/></g><path fill="#fff" d="m41.25 26-6.454 1.118c.093 4.223-4.186 7.158-8.201-.798l-7.593 1.119c1.182 4.302 5.425 4.832 8.255 7.095-1.415 2.122-7.843.844-7.671 7.467l6.454-1.119c-.093-4.223 7.355-7.78 11.369.177l7.593-1.119c-1.184-4.313-5.693-4.723-8.523-7 1.402-3.083 6.04-.31 4.77-6.94" color="#000" opacity=".75" style="isolation:auto;mix-blend-mode:normal"/></svg>