<svg xmlns="http://www.w3.org/2000/svg" width="64" height="64" viewBox="0 0 16.933 16.933"><defs><filter id="a" width="1.078" height="1.067" x="-.039" y="-.033" color-interpolation-filters="sRGB"><feGaussianBlur stdDeviation=".206"/></filter></defs><path fill-rule="evenodd" d="M3.44 1.354a1.32 1.32 0 0 0-1.323 1.323v12.171c0 .733.59 1.323 1.323 1.323h10.053a1.32 1.32 0 0 0 1.323-1.323V4.53l-3.175-3.175z" filter="url(#a)" opacity=".15" style="paint-order:stroke fill markers"/><g fill-rule="evenodd"><path fill="#f4f4f4" d="M13 4c-2.77 0-5 2.23-5 5v46c0 2.77 2.23 5 5 5h38c2.77 0 5-2.23 5-5V16L44 4z" style="paint-order:stroke fill markers" transform="scale(.26458)"/><path fill="#bbb" d="m14.816 4.233-3.175-3.175V2.91c0 .733.59 1.323 1.323 1.323z" style="paint-order:stroke fill markers"/></g><path fill="#eb577a" d="M10.848 5.292a3 3 0 0 0-.385.038l-2.766.423c-.668.142-.666.187-.668.75v4.579q-.041-.03-.084-.059a1.27 1.27 0 0 0-.742-.243c-.38 0-.608.146-.745.338s-.183.434-.183.62c0 .226.077.467.244.65s.424.312.793.312q.626-.002.876-.344c.13-.179.203-.418.228-.713l.009-.111c.003-.059.002-.168.002-.168V7.86c0-.5 0-.53.668-.645l1.968-.308c.669-.088.669-.027.669.349v3.217q-.04-.03-.082-.057a1.27 1.27 0 0 0-.742-.243c-.38 0-.607.146-.745.337a1.1 1.1 0 0 0-.183.621.97.97 0 0 0 .244.65c.167.183.424.311.793.311q.626-.001.876-.343c.13-.18.203-.418.228-.713v-.001l.009-.11c.003-.059.003-.168.003-.168V5.879c0-.439-.003-.584-.285-.587" enable-background="new"/><path fill-rule="evenodd" d="M11.641 2.91v.155c0 .794.59 1.433 1.323 1.433h1.852v-.265h-1.852A1.32 1.32 0 0 1 11.64 2.91z" opacity=".1" style="paint-order:stroke fill markers"/></svg>