<svg version="1.1" viewBox="0 0 64 64" xmlns="http://www.w3.org/2000/svg">
 <defs>
  <filter id="a-2" x="-.038932" y="-.033367" width="1.0779" height="1.0667" color-interpolation-filters="sRGB">
   <feGaussianBlur stdDeviation=".206"/>
  </filter>
 </defs>
 <path transform="scale(3.7796)" d="m3.44 1.354a1.32 1.32 0 0 0-1.323 1.323v12.171c0 0.733 0.59 1.323 1.323 1.323h10.053a1.32 1.32 0 0 0 1.323-1.323v-10.318l-3.175-3.175z" filter="url(#a-2)" opacity=".15" style="paint-order:stroke fill markers"/>
 <g transform="scale(3.7796)" fill-rule="evenodd">
  <path transform="scale(.26458)" d="m13 4c-2.77 0-5 2.23-5 5v46c0 2.77 2.23 5 5 5h38c2.77 0 5-2.23 5-5v-39l-12-12z" fill="#1ab3f5" style="paint-order:stroke fill markers"/>
  <path d="m14.816 4.233-3.175-3.175v1.852c0 0.733 0.59 1.323 1.323 1.323z" fill="#ffffff" opacity=".35" style="paint-order:stroke fill markers"/>
 </g>
 <path d="m43.998 10.999v0.58584c0 3.001 2.23 5.4162 5.0004 5.4162h6.9998v-1.0016h-6.9998a4.9891 4.9891 0 0 1-5.0042-5.0004z" opacity=".1" stroke-width="3.7796" style="paint-order:stroke fill markers"/>
 <path d="m20 22h12v10h-12z" fill="#ffffff" fill-rule="evenodd"/>
 <path d="m34 22h10v2h-10z" fill="#ffffff" fill-rule="evenodd"/>
 <path d="m34 26h10v2h-10z" fill="#ffffff" fill-rule="evenodd"/>
 <path d="m34 30h10v2h-10z" fill="#ffffff" fill-rule="evenodd"/>
 <path d="m20 34h24v2h-24z" fill="#ffffff" fill-rule="evenodd"/>
 <path d="m20 38h24v2h-24z" fill="#ffffff" fill-rule="evenodd"/>
 <path d="m20 42h24v2h-24z" fill="#ffffff" fill-rule="evenodd"/>
 <path d="m20 46h24v2h-24z" fill="#ffffff" fill-rule="evenodd"/>
</svg>
