<svg xmlns="http://www.w3.org/2000/svg" viewBox="0 0 64 64"><defs><filter id="a" width="1.078" height="1.067" x="-.039" y="-.033" color-interpolation-filters="sRGB"><feGaussianBlur stdDeviation=".206"/></filter></defs><path d="M3.44 1.354a1.32 1.32 0 0 0-1.323 1.323v12.171c0 .733.59 1.323 1.323 1.323h10.053a1.32 1.32 0 0 0 1.323-1.323V4.53l-3.175-3.175z" filter="url(#a)" opacity=".15" style="paint-order:stroke fill markers" transform="scale(3.7796)"/><g fill-rule="evenodd"><path fill="#ffaf33" d="M13 4c-2.77 0-5 2.23-5 5v46c0 2.77 2.23 5 5 5h38c2.77 0 5-2.23 5-5V16L44 4z" style="paint-order:stroke fill markers"/><path fill="#fff" d="m14.816 4.233-3.175-3.175V2.91c0 .733.59 1.323 1.323 1.323z" opacity=".35" style="paint-order:stroke fill markers" transform="scale(3.7796)"/></g><path d="M43.998 10.999v.586c0 3 2.23 5.416 5 5.416h7v-1.002h-7a4.99 4.99 0 0 1-5.004-5z" opacity=".1" style="paint-order:stroke fill markers"/><path fill="#fff" d="M32.018 21.001c-3.541.005-7.007 1.621-9.14 4.613-3.318 4.672-2.115 11 2.62 14.3v9.836h1.623V51h9.776v-1.25h1.605v-9.837c1.017-.712 1.914-1.572 2.621-2.573 3.385-4.784 2.067-11.298-2.97-14.539a11.35 11.35 0 0 0-6.146-1.8m-.015 1.902a9.3 9.3 0 0 1 5.036 1.475c4.13 2.656 5.213 7.958 2.425 11.888a8.9 8.9 0 0 1-2.416 2.31l-.163 2.426h-9.776l-.143-2.426c-4.139-2.656-5.218-7.957-2.42-11.888 1.743-2.456 4.573-3.787 7.457-3.775m-4.888 19.344h9.776v2.494h-9.776m0 1.25h9.776v2.143h-9.776"/></svg>