<svg version="1.1" viewBox="0 0 64 64" xmlns="http://www.w3.org/2000/svg">
 <defs>
  <filter id="a-9" x="-.038932" y="-.033367" width="1.0779" height="1.0667" color-interpolation-filters="sRGB">
   <feGaussianBlur stdDeviation=".206"/>
  </filter>
 </defs>
 <path transform="scale(3.7796)" d="m3.44 1.354a1.32 1.32 0 0 0-1.323 1.323v12.171c0 0.733 0.59 1.323 1.323 1.323h10.053a1.32 1.32 0 0 0 1.323-1.323v-10.318l-3.175-3.175z" filter="url(#a-9)" opacity=".15" style="paint-order:stroke fill markers"/>
 <g transform="scale(3.7796)" fill-rule="evenodd">
  <path transform="scale(.26458)" d="m13 4c-2.77 0-5 2.23-5 5v46c0 2.77 2.23 5 5 5h38c2.77 0 5-2.23 5-5v-39l-12-12z" fill="#ffaf33" style="paint-order:stroke fill markers"/>
  <path d="m14.816 4.233-3.175-3.175v1.852c0 0.733 0.59 1.323 1.323 1.323z" fill="#ffffff" opacity=".35" style="paint-order:stroke fill markers"/>
 </g>
 <path d="m43.998 10.999v0.58584c0 3.001 2.23 5.4162 5.0004 5.4162h6.9998v-1.0016h-6.9998a4.9891 4.9891 0 0 1-5.0042-5.0004z" opacity=".1" stroke-width="3.7796" style="paint-order:stroke fill markers"/>
 <g transform="matrix(1.222 0 0 1.2498 2.6778 6.0037)" fill="#ffffff">
  <path d="m24.01 12c-2.898 4e-3 -5.734 1.297-7.48 3.691-2.715 3.738-1.73 8.801 2.145 11.441v7.871h1.328v1h8v-1h1.313v-7.871c0.832-0.57 1.566-1.258 2.145-2.059 2.77-3.828 1.691-9.04-2.43-11.633-1.543-0.969-3.289-1.441-5.03-1.441m-0.012 1.523c1.418 0 2.852 0.383 4.121 1.18 3.379 2.125 4.266 6.367 1.984 9.512-0.527 0.723-1.195 1.355-1.977 1.848l-0.133 1.941h-8l-0.117-1.941c-3.387-2.125-4.27-6.367-1.98-9.512 1.426-1.965 3.742-3.03 6.102-3.02m-4 15.477h8v1.996h-8m0 1h8v1.715h-8" fill="#ffffff"/>
 </g>
</svg>
