<svg xmlns="http://www.w3.org/2000/svg" width="64" height="64"><defs><filter id="a" width="1.067" height="1.078" x="-.033" y="-.039" color-interpolation-filters="sRGB"><feGaussianBlur stdDeviation=".206"/></filter></defs><g fill-rule="evenodd"><path d="M15.875 3.798a1.32 1.32 0 0 0-1.323-1.323H2.382a1.32 1.32 0 0 0-1.324 1.323v10.054c0 .733.59 1.323 1.323 1.323h10.32L15.874 12z" filter="url(#a)" opacity=".15" style="paint-order:stroke fill markers" transform="scale(3.7796)"/><path fill="#f4f4f4" d="M60.001 13c0-2.77-2.23-5-5-5H8.999c-2.77 0-5 2.23-5 5v38c0 2.77 2.23 5 5 5h39.002l12-12z" style="paint-order:stroke fill markers"/><path fill="#bbb" d="m48.001 55.999 12-12h-7c-2.77 0-5 2.23-5 5z" style="paint-order:stroke fill markers"/></g><path fill="#67614f" d="M44.209 19.426a.19.19 0 0 0-.148.01c-.12.059-.227.25-.33.562-.246.735-1.817 5.307-9.838 6.54a3.99 3.99 0 0 1 2.17 3.548 3.99 3.99 0 0 1-3.989 3.988 3.99 3.99 0 0 1-3.629-2.344 3.17 3.17 0 0 1-2.66 1.457 3.165 3.165 0 0 1-3.142-2.806 3.2 3.2 0 0 1-.395.621c-.061-.096-.099-.204-.166-.297a5.9 5.9 0 0 0-1.39-1.389c-.583-.405-1.19-.672-1.788-.76-.69-.1-1.357.049-1.886.43-.53.382-.84.967-.961 1.653-.105.594-.069 1.238.132 1.918.175.591.456 1.187.862 1.75a6 6 0 0 0 1.521 1.488c.63.414 1.299.656 1.953.693.203.012.41-.038.596-.066 4.241 3.356 12.66 6.489 18.24 2.908.121.041.242.091.364.133.003.057-.015.115 0 .166l.265-.1c.047.015.083.053.131.067.01.003.023-.003.033 0l.1.097 2.516.893c-.104.872.329 1.863 1.423 2.281A40 40 0 0 1 48 44.584c-.94-3.186-1.283-5.743-3.74-5.518-.457.042-.802.23-1.059.496l-2.219-1.421h-.1l-.032-.034c2.986-2.934 4.732-8.448 3.673-18.043-.046-.36-.17-.588-.314-.638m-21.266 2.918-.132 5.949s.051.183.093.43a3.17 3.17 0 0 1 2.881-1.866 3.17 3.17 0 0 1 2.695 1.512 4 4 0 0 1 1.315-1.549c-4.792-.253-6.852-4.476-6.852-4.476m3.332 5.906a2.216 2.174 0 0 0-.66.1 1.097 1.076 0 0 1 .639.976 1.097 1.076 0 0 1-1.098 1.076 1.097 1.076 0 0 1-.996-.625 2.216 2.174 0 0 0-.101.647 2.216 2.174 0 0 0 2.216 2.174 2.216 2.174 0 0 0 2.215-2.174 2.216 2.174 0 0 0-2.215-2.174m6.668.422a2.216 2.174 0 0 0-.66.1 1.097 1.076 0 0 1 .639.976 1.097 1.076 0 0 1-1.098 1.076 1.097 1.076 0 0 1-.994-.625 2.216 2.174 0 0 0-.101.647 2.216 2.174 0 0 0 2.214 2.174 2.216 2.174 0 0 0 2.217-2.174 2.216 2.174 0 0 0-2.217-2.174M18.518 29.98a1.152 1.287 0 0 1 1.152 1.288 1.152 1.287 0 0 1-1.152 1.287 1.152 1.287 0 0 1-1.153-1.287 1.152 1.287 0 0 1 1.153-1.288" color="#000" overflow="visible" style="isolation:auto;mix-blend-mode:normal"/></svg>