<svg xmlns="http://www.w3.org/2000/svg" width="64" height="64"><defs><filter id="a" width="1.067" height="1.078" x="-.033" y="-.039" color-interpolation-filters="sRGB"><feGaussianBlur stdDeviation=".206"/></filter></defs><g fill-rule="evenodd"><path d="M15.875 3.798a1.32 1.32 0 0 0-1.323-1.323H2.382a1.32 1.32 0 0 0-1.324 1.323v10.054c0 .733.59 1.323 1.323 1.323h10.32L15.874 12z" filter="url(#a)" opacity=".15" style="paint-order:stroke fill markers" transform="scale(3.7796)"/><path fill="#3097f4" d="M60.001 13c0-2.77-2.23-5-5-5H8.999c-2.77 0-5 2.23-5 5v38c0 2.77 2.23 5 5 5h39.002l12-12z" style="paint-order:stroke fill markers"/><path fill="#fff" d="m48.001 55.999 12-12h-7c-2.77 0-5 2.23-5 5z" opacity=".35" style="paint-order:stroke fill markers"/></g><path fill="#fff" d="M21 21v22h22V21h-1v1h-2v-1h-2v1h-2v-1h-2v1h-3v-1h-2v1h-3v-1h-2v1h-2v-1zm1 3h20v18H22zm3 4v1h14v-1zm0 4v1h8v-1zm0 4v1h11v-1zm11 3v1h3v-1z" color="#000" opacity=".8" style="isolation:auto;mix-blend-mode:normal"/></svg>