<svg xmlns="http://www.w3.org/2000/svg" width="64" height="64" viewBox="0 0 16.933 16.933"><defs><filter id="a" width="1.078" height="1.067" x="-.039" y="-.033" color-interpolation-filters="sRGB"><feGaussianBlur stdDeviation=".206"/></filter></defs><path fill-rule="evenodd" d="M3.44 1.354a1.32 1.32 0 0 0-1.323 1.323v12.171c0 .733.59 1.323 1.323 1.323h10.053a1.32 1.32 0 0 0 1.323-1.323V4.53l-3.175-3.175z" filter="url(#a)" opacity=".15" style="paint-order:stroke fill markers"/><g fill-rule="evenodd"><path fill="#f4f4f4" d="M13 4c-2.77 0-5 2.23-5 5v46c0 2.77 2.23 5 5 5h38c2.77 0 5-2.23 5-5V16L44 4z" style="paint-order:stroke fill markers" transform="scale(.26458)"/><path fill="#bbb" d="m14.816 4.233-3.175-3.175V2.91c0 .733.59 1.323 1.323 1.323z" style="paint-order:stroke fill markers"/></g><g stroke-width="4"><path fill="none" stroke="#f34f17" stroke-width=".265" d="m5.923 7.054 5.084 2.805"/><path fill="#8f76e4" fill-opacity=".251" fill-rule="evenodd" stroke="#8c59d9" stroke-width=".265" d="M6.35 12.17c3.44 1.588 5.027-2.116 2.117-3.703s-1.323-5.292 2.116-3.705"/><g stroke-dashoffset="1" transform="translate(-1.587 -1.852)scale(.06614)"><circle cx="108" cy="132" r="6" fill="none" stroke="#f34f17" stroke-linejoin="round"/><circle cx="196" cy="180" r="6" fill="none" stroke="#f34f17" stroke-linejoin="round"/><path fill="#fff" stroke="#8f76e4" d="M178 94h12v12h-12zm-32 56h12v12h-12zm-32 56h12v12h-12z"/></g></g><path fill-rule="evenodd" d="M11.641 2.91v.155c0 .794.59 1.433 1.323 1.433h1.852v-.265h-1.852A1.32 1.32 0 0 1 11.64 2.91z" opacity=".1" style="paint-order:stroke fill markers"/></svg>