<svg xmlns="http://www.w3.org/2000/svg" width="64" height="64"><defs><filter id="a" width="1.067" height="1.078" x="-.033" y="-.039" color-interpolation-filters="sRGB"><feGaussianBlur stdDeviation=".206"/></filter></defs><g fill-rule="evenodd"><path d="M15.875 3.798a1.32 1.32 0 0 0-1.323-1.323H2.382a1.32 1.32 0 0 0-1.324 1.323v10.054c0 .733.59 1.323 1.323 1.323h10.32L15.874 12z" filter="url(#a)" opacity=".15" style="paint-order:stroke fill markers" transform="scale(3.7796)"/><path fill="#3097f4" d="M60.001 13c0-2.77-2.23-5-5-5H8.999c-2.77 0-5 2.23-5 5v38c0 2.77 2.23 5 5 5h39.002l12-12z" style="paint-order:stroke fill markers"/><path fill="#fff" d="m48.001 55.999 12-12h-7c-2.77 0-5 2.23-5 5z" opacity=".35" style="paint-order:stroke fill markers"/></g><path fill="#fff" d="M30 21v4h4v-4zm1 1h2v2h-2zm-1.664 1.258-1.932.518.26.967 1.932-.518zm-3 1-1.932.518.26.967 1.932-.518zm8.664.275v1.035l6.143 1.645L35 28.967v14.03h.029L43 40.72V26.66zM23 25a1 1 0 0 0-1 1 1 1 0 0 0 1 1 1 1 0 0 0 1-1 1 1 0 0 0-1-1m-2 2v14l12 2V29zm21 1.01v11.303l-6-1.61v-7.978zm-6 10.729 5.322 1.426L36 41.685z" color="#000" opacity=".75" style="isolation:auto;mix-blend-mode:normal"/></svg>