<svg xmlns="http://www.w3.org/2000/svg" width="64" height="64" viewBox="0 0 16.933 16.933"><defs><filter id="a" width="1.078" height="1.067" x="-.039" y="-.033" color-interpolation-filters="sRGB"><feGaussianBlur stdDeviation=".206"/></filter></defs><path d="M3.44 1.35a1.32 1.32 0 0 0-1.323 1.323v12.17c0 .734.59 1.324 1.323 1.324h10.053a1.32 1.32 0 0 0 1.323-1.323V4.524L11.642 1.35zm0 .53h7.982l2.865 2.864v10.1a.78.78 0 0 1-.794.793H3.44a.78.78 0 0 1-.793-.794V2.673a.78.78 0 0 1 .793-.795z" color="#000" filter="url(#a)" opacity=".15" style="font-feature-settings:normal;font-variant-alternates:normal;font-variant-caps:normal;font-variant-ligatures:normal;font-variant-numeric:normal;font-variant-position:normal;isolation:auto;mix-blend-mode:normal;paint-order:fill markers stroke;shape-padding:0;text-decoration-color:#000;text-decoration-line:none;text-decoration-style:solid;text-indent:0;text-orientation:mixed;text-transform:none;white-space:normal"/><path fill="#f9f9f9" fill-rule="evenodd" d="M3.44 1.058a1.32 1.32 0 0 0-1.323 1.323v12.171c0 .733.59 1.323 1.323 1.323h10.053a1.32 1.32 0 0 0 1.323-1.323V4.233l-3.175-3.175z" style="paint-order:stroke fill markers"/><path fill="#5b5b5b" d="M3.44 1.058a1.32 1.32 0 0 0-1.323 1.323v12.171c0 .733.59 1.323 1.323 1.323h10.053a1.32 1.32 0 0 0 1.323-1.323V4.233l-3.174-3.175zm0 .53h7.982l2.865 2.864v10.1a.78.78 0 0 1-.794.793H3.44a.78.78 0 0 1-.793-.794V2.381a.78.78 0 0 1 .793-.794z" color="#000" style="font-feature-settings:normal;font-variant-alternates:normal;font-variant-caps:normal;font-variant-ligatures:normal;font-variant-numeric:normal;font-variant-position:normal;isolation:auto;mix-blend-mode:normal;paint-order:fill markers stroke;shape-padding:0;text-decoration-color:#000;text-decoration-line:none;text-decoration-style:solid;text-indent:0;text-orientation:mixed;text-transform:none;white-space:normal"/><path fill="#5b5b5b" fill-rule="evenodd" d="m12.171 1.058 2.646 2.646V2.381a1.32 1.32 0 0 0-1.323-1.323z" style="paint-order:stroke fill markers"/><path fill="#e6e6e6" d="M4.238 4.766v7.276h8.466V4.766z"/><path fill="#fff" d="M4.436 10.388h8.07v1.455h-8.07z"/><g fill="#666"><path d="M6.663 10.844v.102a.4.4 0 0 0-.09-.039.3.3 0 0 0-.093-.013.2.2 0 0 0-.105.023q-.035.024-.035.07 0 .043.026.064.025.02.13.04l.042.008q.077.015.117.06a.16.16 0 0 1 .04.114.18.18 0 0 1-.067.147.3.3 0 0 1-.186.053.5.5 0 0 1-.098-.01 1 1 0 0 1-.112-.03v-.107a.6.6 0 0 0 .112.045.4.4 0 0 0 .1.015q.07 0 .108-.028a.1.1 0 0 0 .038-.079q0-.072-.139-.1l-.005-.001-.039-.008a.25.25 0 0 1-.131-.06.16.16 0 0 1-.041-.113q0-.09.061-.14.062-.05.177-.05a.5.5 0 0 1 .19.037m.331.305q0 .12.037.183.039.06.114.061c.075.001.088-.02.114-.061a.35.35 0 0 0 .04-.183.34.34 0 0 0-.04-.183q-.039-.062-.114-.062c-.075 0-.088.02-.114.062a.35.35 0 0 0-.037.183m.304.235a.18.18 0 0 1-.17.098.21.21 0 0 1-.18-.088.4.4 0 0 1-.065-.243q0-.157.066-.246c.066-.089.104-.09.18-.09q.056.001.1.026.043.024.07.071v-.08h.104v.874h-.105zm.847-.407a.2.2 0 0 0-.068-.038.2.2 0 0 0-.076-.012q-.098 0-.15.061-.05.06-.05.177v.315h-.105v-.634H7.8v.124a.21.21 0 0 1 .209-.14.23.23 0 0 1 .136.04zm.449-.317v.18h.237v.08h-.237v.345q0 .07.027.098t.093.027h.117v.083h-.127q-.117 0-.166-.047-.048-.046-.048-.161v-.345h-.17v-.08h.17v-.18zm.966.872v.082h-.036q-.141 0-.189-.042t-.048-.167v-.135q0-.086-.03-.119t-.11-.032h-.035v-.081h.036q.08 0 .11-.033.03-.032.03-.117v-.136q0-.125.047-.166.048-.042.19-.042h.035v.08h-.04q-.079.001-.103.026c-.024.025-.024.05-.024.104v.14q0 .09-.026.13t-.088.054q.063.015.089.056c.026.041.025.07.025.128v.14q0 .082.024.106c.024.024.05.024.104.024h.04m.701-.701-.228.304.25.33h-.121l-.186-.254-.185.254h-.12l.249-.33-.227-.304h.115l.168.23.167-.23zm.185.701h.038q.08 0 .105-.025.024-.024.024-.104v-.14q0-.089.025-.13.026-.039.089-.055-.062-.014-.089-.054a.25.25 0 0 1-.025-.13v-.14q0-.08-.024-.104-.025-.025-.105-.025h-.038v-.081h.035q.141 0 .188.042.048.041.048.166v.136q0 .085.03.117.03.033.11.033h.037v.08h-.037q-.08 0-.11.033t-.03.119v.135q0 .125-.048.167-.047.042-.188.042h-.035z" opacity=".9"/><path d="M7.942 5.361h3.97v.794h-.397V5.89H8.273L6.655 9.727H6.42l-.99-2.115-.386.203-.143-.496.8-.305.834 1.626L7.94 5.361" opacity=".8"/><path d="M11.672 6.684h-.656l-.806 1.058h-.02l-.78-1.058H8.7l1.116 1.484v.019l-1.157 1.54h.656l.86-1.146h.021l.861 1.146h.71l-1.184-1.565v-.02z" opacity=".8"/></g></svg>