<svg xmlns="http://www.w3.org/2000/svg" width="64" height="64" viewBox="0 0 16.933 16.933"><defs><filter id="a" width="1.078" height="1.067" x="-.039" y="-.033" color-interpolation-filters="sRGB"><feGaussianBlur stdDeviation=".206"/></filter></defs><path d="M3.44 1.35a1.32 1.32 0 0 0-1.323 1.323v12.17c0 .734.59 1.324 1.323 1.324h10.053a1.32 1.32 0 0 0 1.323-1.323V4.524L11.642 1.35zm0 .53h7.982l2.865 2.864v10.1a.78.78 0 0 1-.794.793H3.44a.78.78 0 0 1-.793-.794V2.673a.78.78 0 0 1 .793-.795z" color="#000" filter="url(#a)" opacity=".15" style="font-feature-settings:normal;font-variant-alternates:normal;font-variant-caps:normal;font-variant-ligatures:normal;font-variant-numeric:normal;font-variant-position:normal;isolation:auto;mix-blend-mode:normal;paint-order:fill markers stroke;shape-padding:0;text-decoration-color:#000;text-decoration-line:none;text-decoration-style:solid;text-indent:0;text-orientation:mixed;text-transform:none;white-space:normal"/><path fill="#f9f9f9" fill-rule="evenodd" d="M3.44 1.058a1.32 1.32 0 0 0-1.323 1.323v12.171c0 .733.59 1.323 1.323 1.323h10.053a1.32 1.32 0 0 0 1.323-1.323V4.233l-3.175-3.175z" style="paint-order:stroke fill markers"/><path fill="#5b5b5b" d="M3.44 1.058a1.32 1.32 0 0 0-1.323 1.323v12.171c0 .733.59 1.323 1.323 1.323h10.053a1.32 1.32 0 0 0 1.323-1.323V4.233l-3.174-3.175zm0 .53h7.982l2.865 2.864v10.1a.78.78 0 0 1-.794.793H3.44a.78.78 0 0 1-.793-.794V2.381a.78.78 0 0 1 .793-.794z" color="#000" style="font-feature-settings:normal;font-variant-alternates:normal;font-variant-caps:normal;font-variant-ligatures:normal;font-variant-numeric:normal;font-variant-position:normal;isolation:auto;mix-blend-mode:normal;paint-order:fill markers stroke;shape-padding:0;text-decoration-color:#000;text-decoration-line:none;text-decoration-style:solid;text-indent:0;text-orientation:mixed;text-transform:none;white-space:normal"/><path fill="#5b5b5b" fill-rule="evenodd" d="m12.171 1.058 2.646 2.646V2.381a1.32 1.32 0 0 0-1.323-1.323z" style="paint-order:stroke fill markers"/><path fill="#fff" d="M4.502 11.112h6.35v.529h-6.35zm3.704-5.557h4.233v2.91H8.206zm-3.704.265h3.175v.53H4.502zm0 1.058h3.175v.53H4.502zm0 1.059h3.175v.529H4.502zm0 1.058h7.937v.53H4.502zm0 1.058h7.937v.53H4.502z" opacity=".6"/><path fill="#1c99e0" d="M8.206 5.29h4.233v2.911H8.206z"/><path fill="#c5ebff" d="M8.47 5.555h3.705v2.382H8.47z"/><path fill="#dcdb46" d="M12.166 6.629a1.082 1.102 90 0 1-1.103-1.082h1.103z"/><path fill="#37b324" d="M10.64 7.355 9.56 6.072 8.48 7.64v.285h3.704V7.64l-.772-.854z"/><path fill="#1c99e0" stroke-width=".265" d="M4.498 5.556h3.175v.529H4.498zm0 1.058h3.175v.529H4.498zm0 1.059h3.175v.529H4.498zm0 1.058h7.937v.529H4.498zm0 1.058h7.937v.529H4.498zm0 1.059h6.35v.529h-6.35z"/></svg>