<svg xmlns="http://www.w3.org/2000/svg" width="64" height="64" viewBox="0 0 16.933 16.933"><defs><filter id="a" width="1.078" height="1.067" x="-.039" y="-.033" color-interpolation-filters="sRGB"><feGaussianBlur stdDeviation=".206"/></filter></defs><path d="M3.44 1.354a1.32 1.32 0 0 0-1.323 1.323v12.171c0 .733.59 1.323 1.323 1.323h10.053a1.32 1.32 0 0 0 1.323-1.323V4.53l-3.175-3.175z" filter="url(#a)" opacity=".15" style="paint-order:stroke fill markers"/><g fill-rule="evenodd"><path fill="#f4f4f4" d="M13 4c-2.77 0-5 2.23-5 5v46c0 2.77 2.23 5 5 5h38c2.77 0 5-2.23 5-5V16L44 4z" style="paint-order:stroke fill markers" transform="scale(.26458)"/><path fill="#bbb" d="m14.816 4.233-3.175-3.175V2.91c0 .733.59 1.323 1.323 1.323z" style="paint-order:stroke fill markers"/></g><path d="M11.641 2.91v.155c0 .794.59 1.433 1.323 1.433h1.852v-.265h-1.852A1.32 1.32 0 0 1 11.64 2.91z" opacity=".1" style="paint-order:stroke fill markers"/><path fill="#e97cc8" d="M11.524 8.942a1.75 1.75 0 0 0-.767.178c-.079-.156-.158-.296-.172-.398-.015-.119-.034-.191-.015-.334s.102-.345.1-.36-.018-.088-.188-.09c-.17-.001-.317.033-.334.078s-.05.146-.071.252c-.03.154-.34.706-.519.996a1 1 0 0 1-.117-.291c-.016-.12-.034-.192-.016-.334s.103-.345.101-.36-.019-.089-.189-.09-.317.032-.334.077-.035.15-.07.252-.45 1.024-.558 1.262c-.055.122-.103.22-.137.286l-.006.013-.047.088v.001c-.023.042-.048.08-.06.08-.01 0-.026-.11.003-.262.062-.32.209-.818.207-.835 0-.01.028-.096-.096-.141-.12-.045-.164.03-.174.03s-.019.026-.019.026.135-.56-.257-.56c-.244 0-.581.267-.748.509l-.57.31c-.09.051-.185.102-.273.15l-.019-.02c-.473-.505-1.348-.863-1.31-1.542.013-.247.098-.896 1.68-1.685 1.302-.642 2.338-.464 2.518-.07.256.563-.556 1.609-1.9 1.76-.514.057-.783-.14-.851-.215-.072-.077-.082-.082-.109-.066-.043.023-.015.092 0 .133.04.105.206.29.486.382.247.08.849.125 1.577-.157.815-.315 1.452-1.192 1.265-1.926-.187-.746-1.424-.992-2.595-.576-.696.248-1.45.637-1.993 1.145-.645.603-.747 1.127-.705 1.347.15.779 1.225 1.286 1.654 1.662l-.058.032c-.215.107-1.035.535-1.239.989-.232.513.037.881.215.93.552.154 1.12-.122 1.424-.576.305-.455.268-1.046.127-1.316l-.006-.01.168-.099a8 8 0 0 1 .311-.174 2 2 0 0 0-.11.563c-.023.29.096.668.253.816.07.065.151.067.204.067.182 0 .264-.152.355-.331.112-.22.212-.475.212-.475s-.125.69.215.69c.124 0 .25-.161.305-.243v.001l.01-.015.02-.033v-.003c.049-.086.16-.283.326-.609.213-.42.419-.946.419-.946s.018.128.082.341c.037.126.114.263.176.396-.05.07-.08.108-.08.108l.001.002q-.06.08-.131.166c-.169.2-.37.431-.398.497-.032.08-.025.137.037.183.045.034.126.039.208.034a1 1 0 0 0 .31-.071c.082-.03.178-.074.268-.14a.6.6 0 0 0 .257-.528 1.1 1.1 0 0 0-.098-.373l.045-.065c.261-.382.464-.8.464-.8s.019.127.082.34c.03.11.094.227.15.341-.246.2-.398.432-.452.583-.097.282-.021.408.123.438.064.014.157-.017.225-.047a1 1 0 0 0 .286-.147c.166-.122.325-.292.316-.522a1 1 0 0 0-.071-.31 1.6 1.6 0 0 1 .82-.094c.737.087.882.546.855.74s-.183.298-.234.33-.068.044-.063.067c.006.034.03.032.074.026.06-.01.386-.156.4-.512.024-.454-.41-.95-1.175-.946m-5.678 1.914c-.245.266-.585.367-.732.282-.158-.091-.096-.484.204-.766.183-.171.418-.33.574-.428l.151-.091.017-.01.038-.023c.11.402.004.756-.253 1.036zm1.778-1.209c-.085.207-.263.738-.371.708-.093-.024-.15-.426-.019-.824.067-.2.207-.438.29-.53.132-.149.28-.198.315-.138.045.079-.163.654-.215.784m1.467.702c-.035.019-.07.031-.085.022-.01-.006.016-.031.016-.031s.184-.198.257-.288q.063-.079.143-.184v.02c0 .237-.228.396-.33.461zm1.133-.258c-.027-.019-.022-.08.066-.274a1 1 0 0 1 .252-.325q.025.075.025.143c-.002.298-.215.41-.344.456z" enable-background="new"/></svg>