<svg width="64" height="64" version="1.1" viewBox="0 0 16.933 16.933" xmlns="http://www.w3.org/2000/svg">
 <defs>
  <filter id="a" x="-.038932" y="-.033367" width="1.0779" height="1.0667" color-interpolation-filters="sRGB">
   <feGaussianBlur stdDeviation=".206"/>
  </filter>
 </defs>
 <path d="M3.44 1.354a1.32 1.32 0 0 0-1.323 1.323v12.171c0 .733.59 1.323 1.323 1.323h10.053a1.32 1.32 0 0 0 1.323-1.323V4.53l-3.175-3.175z" filter="url(#a)" opacity=".15" style="paint-order:stroke fill markers"/>
 <g fill-rule="evenodd">
  <path transform="scale(.26458)" d="M13 4c-2.77 0-5 2.23-5 5v46c0 2.77 2.23 5 5 5h38c2.77 0 5-2.23 5-5V16L44 4z" fill="#f4f4f4" style="paint-order:stroke fill markers"/>
  <path d="m14.816 4.233-3.175-3.175V2.91c0 .733.59 1.323 1.323 1.323z" fill="#bbb" style="paint-order:stroke fill markers"/>
 </g>
 <path d="M11.641 2.91v.155c0 .794.59 1.433 1.323 1.433h1.852v-.265h-1.852A1.32 1.32 0 0 1 11.64 2.91z" opacity=".1" style="paint-order:stroke fill markers"/>
 <path d="m4.762 5.0269v0.265h4.763v-0.265zm0 0.794v0.264h7.409v-0.264zm0 0.794v0.264h3.705v-0.264z" fill="#000000" opacity=".25"/>
 <path d="m4.762 12.171v0.264h7.409v-0.264zm0 0.793v0.265h3.705v-0.265z" fill="#000000" opacity=".15"/>
 <path d="m7.408 7.4079v0.265h4.366v-0.265zm0 0.794v0.265h4.763v-0.266zm0 0.794v0.264h3.704v-0.264z" fill="#000000" opacity=".1"/>
 <path d="m4.762 7.4079v0.265h2.118v-0.265zm0 0.794v0.265h2.118v-0.266zm0 0.794v0.264h2.118v-0.264z" fill="#000000" opacity=".2"/>
 <path d="m7.408 9.7899v0.264h4.763v-0.264zm0 0.793v0.265h3.704v-0.265z" fill="#000000" opacity=".2"/>
 <path d="m4.762 9.7899v0.264h2.118v-0.264zm0 0.793v0.265h2.118v-0.265zm0 0.794v0.265h2.118v-0.265z" fill="#000000" opacity=".1"/>
 <path d="m7.408 11.377v0.265h4.763v-0.265z" fill="#000000" opacity=".2"/>
</svg>
