<svg xmlns="http://www.w3.org/2000/svg" width="64" height="64" viewBox="0 0 16.933 16.933"><defs><filter id="a" width="1.078" height="1.067" x="-.039" y="-.033" color-interpolation-filters="sRGB"><feGaussianBlur stdDeviation=".206"/></filter></defs><path d="M3.44 1.354a1.32 1.32 0 0 0-1.323 1.323v12.171c0 .733.59 1.323 1.323 1.323h10.053a1.32 1.32 0 0 0 1.323-1.323V4.53l-3.175-3.175z" filter="url(#a)" opacity=".15" style="paint-order:stroke fill markers"/><g fill-rule="evenodd"><path fill="#f4f4f4" d="M13 4c-2.77 0-5 2.23-5 5v46c0 2.77 2.23 5 5 5h38c2.77 0 5-2.23 5-5V16L44 4z" style="paint-order:stroke fill markers" transform="scale(.26458)"/><path fill="#bbb" d="m14.816 4.233-3.175-3.175V2.91c0 .733.59 1.323 1.323 1.323z" style="paint-order:stroke fill markers"/></g><path d="M11.641 2.91v.155c0 .794.59 1.433 1.323 1.433h1.852v-.265h-1.852A1.32 1.32 0 0 1 11.64 2.91z" opacity=".1" style="paint-order:stroke fill markers"/><path d="M4.762 5.027v.265h4.763v-.265zm0 .794v.264h7.409V5.82zm0 .794v.264h3.705v-.264z" opacity=".25"/><path d="M4.762 12.171v.264h7.409v-.264zm0 .793v.265h3.705v-.265z" opacity=".15"/><path d="M7.408 7.408v.265h4.366v-.265zm0 .794v.265h4.763V8.2zm0 .794v.264h3.704v-.264z" opacity=".1"/><path d="M4.762 7.408v.265H6.88v-.265zm0 .794v.265H6.88V8.2zm0 .794v.264H6.88v-.264zM7.408 9.79v.264h4.763V9.79zm0 .793v.265h3.704v-.265z" opacity=".2"/><path d="M4.762 9.79v.264H6.88V9.79zm0 .793v.265H6.88v-.265zm0 .794v.265H6.88v-.265z" opacity=".1"/><path d="M7.408 11.377v.265h4.763v-.265z" opacity=".2"/></svg>