<svg xmlns="http://www.w3.org/2000/svg" width="64" height="64"><defs><filter id="a" width="1.078" height="1.067" x="-.039" y="-.033" color-interpolation-filters="sRGB"><feGaussianBlur stdDeviation=".206"/></filter></defs><g fill-rule="evenodd"><path d="M3.44 1.354a1.32 1.32 0 0 0-1.323 1.323v12.171c0 .733.59 1.323 1.323 1.323h10.053a1.32 1.32 0 0 0 1.323-1.323V4.53l-3.175-3.175z" filter="url(#a)" opacity=".15" style="paint-order:stroke fill markers" transform="scale(3.7796)"/><path fill="#f4f4f4" d="M13 4c-2.77 0-5 2.23-5 5v46c0 2.77 2.23 5 5 5h38c2.77 0 5-2.23 5-5V16L44 4z" style="paint-order:stroke fill markers"/><path fill="#bbb" d="m14.816 4.233-3.175-3.175V2.91c0 .733.59 1.323 1.323 1.323z" style="paint-order:stroke fill markers" transform="scale(3.7796)"/><path d="M43.998 11v.584c0 3 2.23 5.416 5 5.416h7v-1h-7c-2.77 0-5-2.23-5-5" opacity=".1" style="paint-order:stroke fill markers"/></g><g stroke-width=".963" opacity=".75"><path fill="#46a926" d="M13.323 3.603c-.048.049 2.02 4.86 2.02 4.86l-2.02 4.858s-4.86-2.568-4.86-4.859 4.86-4.859 4.86-4.859" style="isolation:isolate" transform="matrix(2.0346 0 0 2.035 14.777 14.777)"/><path fill="#f22c42" d="M3.604 13.321c.049-.049-2.02-4.859-2.02-4.859l2.02-4.859s4.86 2.569 4.86 4.86c0 2.29-4.86 4.858-4.86 4.858" style="isolation:isolate" transform="matrix(2.0346 0 0 2.035 14.777 14.777)"/><path fill="#ffda64" d="M13.323 3.603c-.048.049-4.86-2.019-4.86-2.019l-4.86 2.019 4.86 4.86z" style="isolation:isolate" transform="matrix(2.0346 0 0 2.035 14.777 14.777)"/><path fill="#2f5fdd" d="m3.604 13.321 4.86 2.013s4.81-2.062 4.86-2.013l-4.86-4.859z" style="isolation:isolate" transform="matrix(2.0346 0 0 2.035 14.777 14.777)"/><path fill="#a6d74f" d="M8.464 1.587a6.85 6.85 0 0 0 2.019 4.862l2.845-2.844a6.88 6.88 0 0 0-4.861-2.018z" style="isolation:isolate" transform="matrix(2.0346 0 0 2.035 14.777 14.777)"/><path fill="#76c22b" d="m13.328 3.605-2.845 2.844a6.84 6.84 0 0 0 4.863 2.012 6.88 6.88 0 0 0-2.018-4.856" style="isolation:isolate" transform="matrix(2.0346 0 0 2.035 14.777 14.777)"/><path fill="#1463a5" d="M10.476 10.481a6.85 6.85 0 0 0-2.019 4.862h.069a6.88 6.88 0 0 0 4.8-2.013z" style="isolation:isolate" transform="matrix(2.0346 0 0 2.035 14.777 14.777)"/><path fill="#2b898f" d="M15.346 8.469a6.84 6.84 0 0 0-4.87 2.012l2.85 2.85a6.88 6.88 0 0 0 2.02-4.862" style="isolation:isolate" transform="matrix(2.0346 0 0 2.035 14.777 14.777)"/><path fill="#9b33ae" d="M1.587 8.463v.003a6.88 6.88 0 0 0 2.014 4.857l2.85-2.848a6.84 6.84 0 0 0-4.864-2.011z" style="isolation:isolate" transform="matrix(2.0346 0 0 2.035 14.777 14.777)"/><path fill="#7839b7" d="M6.45 10.475 3.6 13.323a6.88 6.88 0 0 0 4.826 2.02h.043a6.85 6.85 0 0 0-2.019-4.868" style="isolation:isolate" transform="matrix(2.0346 0 0 2.035 14.777 14.777)"/><path fill="#fdc92b" d="M8.467 1.587a6.88 6.88 0 0 0-4.858 2.015l2.848 2.847a6.85 6.85 0 0 0 2.019-4.861h-.01z" style="isolation:isolate" transform="matrix(2.0346 0 0 2.035 14.777 14.777)"/><path fill="#f34f17" d="M3.609 3.602a6.88 6.88 0 0 0-2.021 4.859 6.84 6.84 0 0 0 4.869-2.012z" style="isolation:isolate" transform="matrix(2.0346 0 0 2.035 14.777 14.777)"/></g><circle cx="32" cy="32" r="10" fill="#fff" opacity=".35" style="paint-order:fill markers stroke"/></svg>