<svg xmlns="http://www.w3.org/2000/svg" width="64" height="64" viewBox="0 0 16.933 16.933"><defs><filter id="a" width="1.078" height="1.067" x="-.039" y="-.033" color-interpolation-filters="sRGB"><feGaussianBlur stdDeviation=".206"/></filter></defs><path d="M3.44 1.354a1.32 1.32 0 0 0-1.323 1.323v12.171c0 .733.59 1.323 1.323 1.323h10.053a1.32 1.32 0 0 0 1.323-1.323V4.53l-3.175-3.175z" filter="url(#a)" opacity=".15" style="paint-order:stroke fill markers"/><g fill-rule="evenodd"><path fill="#f4f4f4" d="M13 4c-2.77 0-5 2.23-5 5v46c0 2.77 2.23 5 5 5h38c2.77 0 5-2.23 5-5V16L44 4z" style="paint-order:stroke fill markers" transform="scale(.26458)"/><path fill="#bbb" d="m14.816 4.233-3.175-3.175V2.91c0 .733.59 1.323 1.323 1.323z" style="paint-order:stroke fill markers"/></g><path d="M11.641 2.91v.155c0 .794.59 1.433 1.323 1.433h1.852v-.265h-1.852A1.32 1.32 0 0 1 11.64 2.91z" opacity=".1" style="paint-order:stroke fill markers"/><path fill="#76c22b" d="M6.35 3.572v.264h3.175v-.264zm0 .794v.264h5.82v-.264zm0 .793v.265h2.117v-.265zM4.762 11.51v.264h7.408v-.265z" enable-background="new"/><path fill="#8f76e4" d="M5.82 6.747v.264h4.365v-.264zm0 .794v.264h1.587v-.264zm0 .793V8.6h3.704v-.265z" enable-background="new"/><path fill="#46a926" d="M4.762 5.953v.265h2.117v-.265z" enable-background="new"/><path fill="#76c22b" d="M7.408 9.128v.265h1.587v-.265zm-1.588.794v.264h3.175v-.264z" enable-background="new"/><path fill="#46a926" d="M4.762 9.128v.265h2.117v-.265zm0 1.587v.265h2.117v-.265zm0-7.143v.264H5.82v-.264zm0 .794v.264H5.82v-.264zm0 .793v.265H5.82v-.265z" enable-background="new"/><path fill="#f22c42" d="M9.525 9.922v.264h1.588v-.264zM7.937 7.54v.265h1.587V7.54z" enable-background="new"/><path fill="#76c22b" d="M4.762 12.303v.265h7.408v-.265zm0 .794v.265h3.704v-.265z" enable-background="new"/></svg>