<svg xmlns="http://www.w3.org/2000/svg" width="64" height="64" viewBox="0 0 16.933 16.933"><defs><filter id="a" width="1.078" height="1.067" x="-.039" y="-.033" color-interpolation-filters="sRGB"><feGaussianBlur stdDeviation=".206"/></filter></defs><path d="M3.44 1.354a1.32 1.32 0 0 0-1.323 1.323v12.171c0 .733.59 1.323 1.323 1.323h10.053a1.32 1.32 0 0 0 1.323-1.323V4.53l-3.175-3.175z" filter="url(#a)" opacity=".15" style="paint-order:stroke fill markers"/><g fill-rule="evenodd"><path fill="#f4f4f4" d="M13 4c-2.77 0-5 2.23-5 5v46c0 2.77 2.23 5 5 5h38c2.77 0 5-2.23 5-5V16L44 4z" style="paint-order:stroke fill markers" transform="scale(.26458)"/><path fill="#bbb" d="m14.816 4.233-3.175-3.175V2.91c0 .733.59 1.323 1.323 1.323z" style="paint-order:stroke fill markers"/></g><path fill="#999" d="M9.717 5.422q-.341 0-.637.127a1.5 1.5 0 0 0-.51.35l-.001.001-.001.002q-.21.232-.326.55a2 2 0 0 0-.116.693 2 2 0 0 0 .116.698q.116.313.325.544l.002.002q.217.23.51.357l.001.001q.296.12.637.12c.341 0 .44-.039.636-.12h.002q.294-.128.505-.36.216-.23.332-.544.116-.316.115-.698.001-.375-.115-.692v-.001a1.6 1.6 0 0 0-.331-.55 1.4 1.4 0 0 0-.507-.353 1.6 1.6 0 0 0-.636-.127zm0 .27q.29 0 .53.105h.001l.002.001q.241.1.41.286h.001l.002.002q.176.187.275.46l.001.002v.002q.098.264.098.595 0 .34-.099.604a1.3 1.3 0 0 1-.275.454l-.002.002a1.2 1.2 0 0 1-.411.292h-.001a1.4 1.4 0 0 1-.532.1 1.246 1.246 0 0 1-.95-.392 1.4 1.4 0 0 1-.271-.456 1.7 1.7 0 0 1-.1-.604q0-.333.099-.596v-.003h.001a1.4 1.4 0 0 1 .27-.46v-.001q.177-.187.418-.287h.002a1.3 1.3 0 0 1 .53-.106zm-3.285.524a1.2 1.2 0 0 0-.874.365l-.001.001a1.3 1.3 0 0 0-.248.42 1.5 1.5 0 0 0-.088.523q0 .287.088.528.087.238.247.414l.002.002q.165.174.389.272h.002v.001q.226.092.483.092.259 0 .483-.092h.002l.001-.001q.223-.098.385-.274.165-.176.253-.414a1.5 1.5 0 0 0 .087-.528q0-.282-.087-.523a1.2 1.2 0 0 0-.253-.42 1.1 1.1 0 0 0-.386-.269 1.2 1.2 0 0 0-.485-.097m-.008.27h.008a.95.95 0 0 1 .379.075l.002.001q.171.07.29.202l.001.001.002.001a.9.9 0 0 1 .196.328v.002q.07.188.071.429 0 .245-.07.434a.9.9 0 0 1-.197.324l-.001.001v.001a.84.84 0 0 1-.293.207H6.81a1 1 0 0 1-.379.071 1 1 0 0 1-.379-.07v-.001a.9.9 0 0 1-.297-.207v-.001a1 1 0 0 1-.193-.324 1.3 1.3 0 0 1-.071-.435q0-.24.07-.43v-.001a1 1 0 0 1 .194-.328.8.8 0 0 1 .296-.204h.002a.9.9 0 0 1 .368-.075zm3.33 2.965c-1.191 0-1.918.109-2.372.445a1.3 1.3 0 0 0-.46.668c-.083.262-.11.59-.113.947h.27c.004-.341.031-.645.1-.866a1 1 0 0 1 .364-.531c.362-.269 1.038-.393 2.212-.393s1.85.125 2.21.393c.18.133.292.3.364.53.069.221.096.525.098.867h.27c-.001-.357-.028-.685-.11-.947a1.3 1.3 0 0 0-.46-.668c-.454-.336-1.18-.445-2.372-.445zm-3.402-.056c-.845.002-1.344.084-1.683.337a1 1 0 0 0-.349.511c-.064.208-.084.448-.085.732v.404h.27v-.404c.001-.27.022-.486.073-.652a.7.7 0 0 1 .253-.374c.247-.185.695-.28 1.52-.284z" color="#000" style="font-feature-settings:normal;font-variant-alternates:normal;font-variant-caps:normal;font-variant-ligatures:normal;font-variant-numeric:normal;font-variant-position:normal;isolation:auto;mix-blend-mode:normal;shape-padding:0;text-decoration-color:#000;text-decoration-line:none;text-decoration-style:solid;text-indent:0;text-orientation:mixed;text-transform:none;white-space:normal"/><path d="M11.641 2.91v.155c0 .794.59 1.433 1.323 1.433h1.852v-.265h-1.852A1.32 1.32 0 0 1 11.64 2.91z" opacity=".1" style="paint-order:stroke fill markers"/></svg>