<svg xmlns="http://www.w3.org/2000/svg" width="64" height="64" viewBox="0 0 16.933 16.933"><defs><filter id="a" width="1.078" height="1.067" x="-.039" y="-.033" color-interpolation-filters="sRGB"><feGaussianBlur stdDeviation=".206"/></filter></defs><path d="M3.44 1.354a1.32 1.32 0 0 0-1.323 1.323v12.171c0 .733.59 1.323 1.323 1.323h10.053a1.32 1.32 0 0 0 1.323-1.323V4.53l-3.175-3.175z" filter="url(#a)" opacity=".15" style="paint-order:stroke fill markers"/><g fill-rule="evenodd"><path fill="#f4f4f4" d="M13 4c-2.77 0-5 2.23-5 5v46c0 2.77 2.23 5 5 5h38c2.77 0 5-2.23 5-5V16L44 4z" style="paint-order:stroke fill markers" transform="scale(.26458)"/><path fill="#bbb" d="m14.816 4.233-3.175-3.175V2.91c0 .733.59 1.323 1.323 1.323z" style="paint-order:stroke fill markers"/></g><path d="M11.641 2.91v.155c0 .794.59 1.433 1.323 1.433h1.852v-.265h-1.852A1.32 1.32 0 0 1 11.64 2.91z" opacity=".1" style="paint-order:stroke fill markers"/><g fill="none" stroke="#999" stroke-width=".529" transform="translate(-19.843 2.315)"><ellipse cx="28.31" cy="3.77" stroke-dashoffset="1" stroke-linejoin="round" enable-background="new" rx="3.439" ry="1.323"/><path d="M24.87 3.704v4.829" enable-background="new"/><path stroke-dashoffset="1" stroke-linejoin="round" d="M31.749 5.357a3.44 1.323 0 0 1-1.72 1.146 3.44 1.323 0 0 1-3.44 0 3.44 1.323 0 0 1-1.72-1.146m6.88 1.588a3.44 1.323 0 0 1-1.72 1.145 3.44 1.323 0 0 1-3.44 0 3.44 1.323 0 0 1-1.72-1.145m6.88 1.587a3.44 1.323 0 0 1-1.72 1.146 3.44 1.323 0 0 1-3.44 0 3.44 1.323 0 0 1-1.72-1.146" enable-background="new"/><path d="M31.749 3.704v4.829" enable-background="new"/></g></svg>