<svg xmlns="http://www.w3.org/2000/svg" width="64" height="64" viewBox="0 0 16.933 16.933"><defs><filter id="a" width="1.078" height="1.067" x="-.039" y="-.033" color-interpolation-filters="sRGB"><feGaussianBlur stdDeviation=".206"/></filter></defs><path d="M3.44 1.354a1.32 1.32 0 0 0-1.323 1.323v12.171c0 .733.59 1.323 1.323 1.323h10.053a1.32 1.32 0 0 0 1.323-1.323V4.53l-3.175-3.175z" filter="url(#a)" opacity=".15" style="paint-order:stroke fill markers"/><g fill-rule="evenodd"><path fill="#f4f4f4" d="M13 4c-2.77 0-5 2.23-5 5v46c0 2.77 2.23 5 5 5h38c2.77 0 5-2.23 5-5V16L44 4z" style="paint-order:stroke fill markers" transform="scale(.26458)"/><path fill="#bbb" d="m14.816 4.233-3.175-3.175V2.91c0 .733.59 1.323 1.323 1.323z" style="paint-order:stroke fill markers"/></g><path fill="#007acc" d="M6.385 6.614v5.557H5.267V6.614H3.44V5.556H8.2v1.058zm2.082 4.335.9-.395q.13.44.47.672.343.228.874.228.502 0 .797-.264.3-.264.3-.707-.001-.579-1.016-1.03a5 5 0 0 0-.22-.099c-.764-.352-1.222-.67-1.48-.954a1.53 1.53 0 0 1-.378-1.048q0-.801.574-1.299.579-.496 1.514-.497.768 0 1.286.282.516.278.716.802l-.882.43a1.4 1.4 0 0 0-.46-.452 1.1 1.1 0 0 0-.57-.144q-.456 0-.726.224a.75.75 0 0 0-.266.6q0 .591 1.177 1.102l.142.063c.687.298 1.105.59 1.36.878q.386.425.386 1.065 0 .932-.622 1.483-.621.546-1.68.546-.886 0-1.456-.385-.564-.385-.74-1.102z" font-size="35" font-weight="700" letter-spacing="0" word-spacing="0"/><path d="M11.641 2.91v.155c0 .794.59 1.433 1.323 1.433h1.852v-.265h-1.852A1.32 1.32 0 0 1 11.64 2.91z" opacity=".1" style="paint-order:stroke fill markers"/></svg>