<svg xmlns="http://www.w3.org/2000/svg" width="64" height="64" viewBox="0 0 16.933 16.933"><defs><filter id="a" width="1.078" height="1.067" x="-.039" y="-.033" color-interpolation-filters="sRGB"><feGaussianBlur stdDeviation=".206"/></filter></defs><path d="M3.44 1.354a1.32 1.32 0 0 0-1.323 1.323v12.171c0 .733.59 1.323 1.323 1.323h10.053a1.32 1.32 0 0 0 1.323-1.323V4.53l-3.175-3.175z" filter="url(#a)" opacity=".15" style="paint-order:stroke fill markers"/><g fill-rule="evenodd"><path fill="#f4f4f4" d="M13 4c-2.77 0-5 2.23-5 5v46c0 2.77 2.23 5 5 5h38c2.77 0 5-2.23 5-5V16L44 4z" style="paint-order:stroke fill markers" transform="scale(.26458)"/><path fill="#bbb" d="m14.816 4.233-3.175-3.175V2.91c0 .733.59 1.323 1.323 1.323z" style="paint-order:stroke fill markers"/></g><path d="M11.641 2.91v.155c0 .794.59 1.433 1.323 1.433h1.852v-.265h-1.852A1.32 1.32 0 0 1 11.64 2.91z" opacity=".1" style="paint-order:stroke fill markers"/><path fill="#999" d="M8.228 3.704q-.635 0-1.164.146a3.7 3.7 0 0 0-.793.304l.25.714a3.3 3.3 0 0 1 1.615-.397q.317 0 .608.053.291.054.503.199.225.145.357.397.132.237.132.608 0 .41-.158.74a3.3 3.3 0 0 1-.397.61q-.238.278-.516.555-.277.264-.516.569c-.239.305-.291.423-.397.661q-.159.345-.159.794 0 .159.014.318.013.146.04.277h.687a.7.7 0 0 1-.013-.132v-.225q0-.435.172-.794c.172-.359.26-.458.436-.661a9 9 0 0 1 .556-.609q.305-.29.569-.608t.437-.688c.173-.37.171-.53.171-.847q0-.344-.119-.7a1.6 1.6 0 0 0-.397-.636 1.9 1.9 0 0 0-.754-.463q-.462-.185-1.164-.185m-.172 8.07q-.344 0-.542.211a.76.76 0 0 0-.185.516q0 .304.185.516.198.212.542.212c.344 0 .406-.07.53-.212a.73.73 0 0 0 .198-.516.73.73 0 0 0-.198-.516q-.186-.21-.53-.211" enable-background="new"/></svg>