<svg xmlns="http://www.w3.org/2000/svg" width="64" height="64" viewBox="0 0 16.933 16.933"><defs><filter id="b" width="1.25" height="1.231" x="-.125" y="-.115" color-interpolation-filters="sRGB"><feGaussianBlur stdDeviation=".276"/></filter><filter id="a" width="1.067" height="1.078" x="-.033" y="-.039" color-interpolation-filters="sRGB"><feGaussianBlur stdDeviation=".206"/></filter></defs><g fill-rule="evenodd"><path d="M15.875 3.693a1.32 1.32 0 0 0-1.323-1.323H2.382a1.32 1.32 0 0 0-1.324 1.323v10.054c0 .733.59 1.323 1.323 1.323h10.32l3.174-3.175z" filter="url(#a)" opacity=".15" style="paint-order:stroke fill markers"/><path fill="#5e35b1" d="M15.875 3.44a1.32 1.32 0 0 0-1.323-1.323H2.382A1.32 1.32 0 0 0 1.057 3.44v10.053c0 .733.59 1.323 1.323 1.323H12.7l3.174-3.175z" style="paint-order:stroke fill markers"/><path fill="#fff" d="m12.7 14.816 3.175-3.175h-1.852a1.32 1.32 0 0 0-1.323 1.323z" opacity=".35" style="paint-order:stroke fill markers"/></g><path fill="#fff" d="M1.593 2.381a1.32 1.32 0 0 0-.535 1.059h1.059V2.38zm13.223 0V3.44h1.058v-.01a1.32 1.32 0 0 0-.534-1.049zM1.058 3.97v1.058h1.059V3.969zm13.758 0v1.058h1.058V3.969zM1.058 5.556v1.059h1.059V5.556zm13.758 0v1.059h1.058V5.556zM1.058 7.144v1.058h1.059V7.144zm13.758 0v1.058h1.058V7.144zM1.058 8.73v1.06h1.059V8.73zm13.758 0v1.06h1.058V8.73zM1.058 10.32v1.058h1.059V10.32zm13.758 0v1.058h1.058V10.32zM1.058 11.906v1.059h1.059v-1.059zm0 1.588c0 .435.212.817.535 1.058h.524v-1.058z" opacity=".2" style="paint-order:fill markers stroke"/><path d="M6.075 5.867a.255.255 0 0 0-.254.255v5.227c0 .194.207.317.377.224l4.782-2.614a.255.255 0 0 0 0-.447L6.676 6.159l-.478-.26a.25.25 0 0 0-.123-.032" color="#000" filter="url(#b)" opacity=".15" style="isolation:auto;mix-blend-mode:normal;text-decoration-color:#000;text-decoration-line:none;text-decoration-style:solid;text-indent:0;text-transform:none;white-space:normal"/><path fill="#f3e5f5" d="M6.075 5.598a.255.255 0 0 0-.254.255v5.227c0 .194.207.317.377.224L10.98 8.69a.255.255 0 0 0 0-.447L6.676 5.89l-.478-.26a.25.25 0 0 0-.123-.032" color="#000" style="isolation:auto;mix-blend-mode:normal;text-decoration-color:#000;text-decoration-line:none;text-decoration-style:solid;text-indent:0;text-transform:none;white-space:normal"/></svg>