<svg xmlns="http://www.w3.org/2000/svg" width="64" height="64" viewBox="0 0 16.933 16.933"><defs><filter id="a" width="1.078" height="1.067" x="-.039" y="-.033" color-interpolation-filters="sRGB"><feGaussianBlur stdDeviation=".206"/></filter></defs><path d="M3.44 1.354a1.32 1.32 0 0 0-1.323 1.323v12.171c0 .733.59 1.323 1.323 1.323h10.053a1.32 1.32 0 0 0 1.323-1.323V4.53l-3.175-3.175z" filter="url(#a)" opacity=".15" style="paint-order:stroke fill markers"/><path fill="#3c56a1" fill-rule="evenodd" d="M3.44 1.059a1.32 1.32 0 0 0-1.323 1.323v12.17c0 .733.59 1.323 1.323 1.323h10.053a1.32 1.32 0 0 0 1.323-1.322V4.233L11.642 1.06z" style="paint-order:stroke fill markers"/><g fill="#fff"><path fill-rule="evenodd" d="m14.816 4.233-3.175-3.175V2.91c0 .733.59 1.323 1.323 1.323z" opacity=".35" style="paint-order:stroke fill markers"/><path d="M7.945 1.058h1.058v14.816H7.945z" color="#000" opacity=".25"/><path d="M8.466 1.058h.537v14.816h-.537z" color="#000" opacity=".25"/><path d="M10.319 10.583a.53.53 0 0 0-.53.53v3.174c0 .293.237.53.53.53h3.175a.53.53 0 0 0 .53-.53v-3.175a.53.53 0 0 0-.53-.529zm0 .53h3.175v.528h-3.175zm0 1.057H12.7v.794h-2.38zm2.646 0h.529v.794h-.53zm-2.646 1.323H12.7v.794h-2.38zm2.646 0h.529v.794h-.53z" opacity=".5" style="paint-order:fill markers stroke"/></g><path d="M11.641 2.91v.155c0 .794.59 1.433 1.323 1.433h1.852v-.265h-1.852A1.32 1.32 0 0 1 11.64 2.91z" opacity=".1" style="paint-order:stroke fill markers"/></svg>