<svg xmlns="http://www.w3.org/2000/svg" width="64" height="64" viewBox="0 0 16.933 16.933"><defs><filter id="a" width="1.072" height="1.072" x="-.036" y="-.036" color-interpolation-filters="sRGB"><feGaussianBlur stdDeviation=".84"/></filter><filter id="b" width="1.037" height="3.052" x="-.018" y="-1.026" color-interpolation-filters="sRGB"><feGaussianBlur stdDeviation=".113"/></filter></defs><path d="M8 4C5.784 4 4 5.784 4 8v48c0 2.216 1.784 4 4 4h48c2.216 0 4-1.784 4-4V8c0-2.216-1.784-4-4-4z" enable-background="new" filter="url(#a)" opacity=".15" transform="translate(0 .266)scale(.26458)"/><path fill="#f9f9f9" d="M1.058 4.498v10.054c0 .586.472 1.058 1.059 1.058h12.7c.586 0 1.058-.472 1.058-1.058V4.498z" enable-background="new"/><rect width="14.816" height=".265" x="1.058" y="4.762" filter="url(#b)" opacity=".15" ry="0" style="paint-order:normal"/><path fill="#3f51b5" d="M2.117 1.058c-.587 0-1.059.472-1.059 1.059v2.645h14.816V2.117c0-.587-.472-1.059-1.058-1.059z" enable-background="new"/><circle cx="3.175" cy="3.333" r=".529" enable-background="new" opacity=".15"/><circle cx="3.175" cy="3.175" r=".529" fill="#fff" enable-background="new"/><circle cx="13.758" cy="3.333" r=".529" enable-background="new" opacity=".15"/><circle cx="13.758" cy="3.175" r=".529" fill="#fff" enable-background="new"/><path fill="#fff" d="M2.117 1.058c-.587 0-1.059.472-1.059 1.059v.189c0-.545.472-.983 1.059-.983h12.7c.586 0 1.058.438 1.058.983v-.19c0-.586-.472-1.058-1.059-1.058z" enable-background="new" opacity=".15"/></svg>