<svg width="16" height="16" version="1.1" xmlns="http://www.w3.org/2000/svg">
 <defs>
  <style id="current-color-scheme" type="text/css">.ColorScheme-Text { color:#363636; }</style>
  <linearGradient id="linearGradient1648" x1="17.273" x2="28.696" y1="96.614" y2="99.996" gradientTransform="translate(-14.809 -90.107)" gradientUnits="userSpaceOnUse">
   <stop stop-color="#3daee9" stop-opacity="0" offset="0"/>
   <stop stop-color="#47b2eb" stop-opacity=".5" offset="1"/>
  </linearGradient>
 </defs>
 <path d="m5.7812 1.002c-0.86683-0.021144-1.7885 0.2709-2.7812 1.1113v0.88672h-0.083984c1.9257 2.8668-4.3598 5.7985-0.80273 10h0.88672v0.083984c2.8663-1.9254 5.7996 4.3577 10 0.80469v-0.88867h0.083984c-1.9257-2.8668 4.3598-5.7985 0.80274-10h-0.88672v-0.083984c-2.1895 1.4707-4.4168-1.8457-7.2188-1.9141z" fill="url(#linearGradient1648)"/>
 <path d="m5.5781 0.50195c-0.82468 0.025478-1.6947 0.31936-2.5781 0.97461v1.5234h-0.7168c0.57424 0.62353 0.6092 1.1205 0.43164 1.7715-0.18799 0.68929-0.7008 1.5032-1.1992 2.4004s-0.9859 1.8966-1.0137 3.0352c-0.021654 0.88773 0.26226 1.8326 0.97461 2.793h1.5234v0.7168c0.62353-0.57405 1.1205-0.60724 1.7715-0.42969 0.68929 0.18799 1.5032 0.69884 2.4004 1.1973s1.8966 0.9859 3.0352 1.0137c0.88773 0.021653 1.8326-0.26226 2.793-0.97461v-1.5234h0.7168c-0.57405-0.62353-0.60724-1.1205-0.42969-1.7715 0.18799-0.68929 0.69884-1.5032 1.1973-2.4004s0.98785-1.8966 1.0156-3.0352c0.021654-0.88773-0.26369-1.8326-0.97656-2.793h-1.5234v-0.7168c-0.62353 0.57405-1.1205 0.60724-1.7715 0.42969-0.68929-0.18799-1.5032-0.69884-2.4004-1.1973s-1.8966-0.9859-3.0352-1.0137c-0.071158-0.0017357-0.14298-0.0022202-0.21484 0zm0.19141 0.99805c0.86116 0.021006 1.7156 0.41163 2.5742 0.88867s1.7029 1.0381 2.623 1.2891c0.75842 0.20684 1.5854 0.027192 2.3535-0.49805 0.86571 0.9667 1.1987 1.8101 1.1797 2.5898-0.02101 0.86116-0.41163 1.7136-0.88867 2.5723-0.47704 0.85866-1.0381 1.7029-1.2891 2.623-0.20689 0.7586-0.02558 1.5872 0.5 2.3555-0.96727 0.86668-1.8097 1.1968-2.5898 1.1777-0.86116-0.021006-1.7156-0.40968-2.5742-0.88672-0.85866-0.47704-1.7029-1.0381-2.623-1.2891-0.75842-0.20684-1.5874-0.027193-2.3555 0.49805-0.86571-0.9667-1.1968-1.8101-1.1777-2.5898 0.021006-0.86116 0.41163-1.7136 0.88867-2.5723 0.47704-0.85866 1.0381-1.7029 1.2891-2.623 0.20684-0.75842 0.025239-1.5874-0.5-2.3555 0.9667-0.86571 1.8101-1.1987 2.5898-1.1797z" color="#000000" fill="#363636" fill-opacity=".97174" style="-inkscape-stroke:none"/>
 <path d="m1 0c-0.554 0-1 0.446-1 1v2c0 0.554 0.446 1 1 1h2c0.554 0 1-0.446 1-1v-2c0-0.554-0.446-1-1-1h-2zm0 1h2v2h-2v-2z" fill="#3daee9" stop-color="#000000" style="paint-order:stroke fill markers"/>
 <path d="m13 0c-0.554 0-1 0.446-1 1v2c0 0.554 0.446 1 1 1h2c0.554 0 1-0.446 1-1v-2c0-0.554-0.446-1-1-1zm0 1h2v2h-2z" fill="#3daee9" stop-color="#000000" style="paint-order:stroke fill markers"/>
 <path d="m1 12c-0.554 0-1 0.446-1 1v2c0 0.554 0.446 1 1 1h2c0.554 0 1-0.446 1-1v-2c0-0.554-0.446-1-1-1zm0 1h2v2h-2z" fill="#3daee9" stop-color="#000000" style="paint-order:stroke fill markers"/>
 <path d="m13 12c-0.554 0-1 0.446-1 1v2c0 0.554 0.446 1 1 1h2c0.554 0 1-0.446 1-1v-2c0-0.554-0.446-1-1-1zm0 1h2v2h-2z" fill="#3daee9" stop-color="#000000" style="paint-order:stroke fill markers"/>
</svg>
