<?xml version="1.0" encoding="UTF-8" standalone="no"?><!DOCTYPE svg PUBLIC "-//W3C//DTD SVG 1.1//EN" "http://www.w3.org/Graphics/SVG/1.1/DTD/svg11.dtd"><svg width="100%" height="100%" viewBox="0 0 16 16" version="1.1" xmlns="http://www.w3.org/2000/svg" xmlns:xlink="http://www.w3.org/1999/xlink" xml:space="preserve" xmlns:serif="http://www.serif.com/" style="fill-rule:evenodd;clip-rule:evenodd;stroke-linejoin:round;stroke-miterlimit:2;"><g id="photo_icon_marketing"><g><path d="M14.989,10.21l0,4.139c0,0.348 -0.279,0.632 -0.626,0.639l-4.227,-0l-2.759,-4.778l7.612,0Zm-5.482,4.778l-7.477,-0l3.741,-6.469l3.736,6.469Zm-8.077,-0.042c-0.226,-0.087 -0.391,-0.298 -0.409,-0.55l-0.002,-2.853l3.04,-5.263l2.376,0l-5.005,8.666Zm7.178,-8.675c0.207,0 0.405,0.122 0.512,0.302c0.001,0.002 0.003,0.006 0.003,0.006l0.628,1.088c-0,-0 0.004,0.006 0.005,0.009c0.103,0.179 0.107,0.405 0.004,0.588c-0.21,0.369 -0.424,0.735 -0.636,1.103c-0.104,0.178 -0.302,0.295 -0.511,0.297c-0.401,0.002 -1.203,0.001 -1.204,0.001c-0.207,-0.001 -0.408,-0.111 -0.515,-0.291c-0.003,-0.004 -0.007,-0.012 -0.007,-0.012c-0,-0 -0.629,-1.088 -0.63,-1.091c-0.103,-0.179 -0.103,-0.411 0,-0.594c0.001,-0.003 0.005,-0.008 0.005,-0.008c-0,0 0.42,-0.73 0.631,-1.094c0.104,-0.179 0.302,-0.302 0.511,-0.305c0.004,0 0.011,0 0.011,0l1.185,0.001l0.008,-0Zm5.948,-5.22l-4.975,8.614l5.408,0l0,-8.008c0,-0.281 -0.181,-0.52 -0.433,-0.606Zm-7.458,-0.033l6.849,-0l-3.704,6.412l-3.424,-5.929l0.279,-0.483Zm1.538,4.718l-4.263,0l2.131,-3.69l2.132,3.69Z" style="fill:#363636;"/></g></g></svg>