<?xml version="1.0" encoding="UTF-8" standalone="no"?><!DOCTYPE svg PUBLIC "-//W3C//DTD SVG 1.1//EN" "http://www.w3.org/Graphics/SVG/1.1/DTD/svg11.dtd"><svg width="100%" height="100%" viewBox="0 0 16 16" version="1.1" xmlns="http://www.w3.org/2000/svg" xmlns:xlink="http://www.w3.org/1999/xlink" xml:space="preserve" xmlns:serif="http://www.serif.com/" style="fill-rule:evenodd;clip-rule:evenodd;stroke-linejoin:round;stroke-miterlimit:2;"><g><g><g id="designer_icon_marketing"><g><path d="M14.999,14.363c-0.003,0.351 -0.289,0.636 -0.641,0.636l-6.465,-0l-2.764,-4.787l9.87,0l-0,4.151Zm-13.998,-0.005l0,-2.81l6.089,-10.547l2.38,0l-5.144,8.91l2.937,5.088l-5.621,-0c-0.354,-0 -0.641,-0.287 -0.641,-0.641Zm7.803,-4.692l-2.406,0c-0.269,0 -0.517,-0.141 -0.651,-0.373c-0.135,-0.233 -0.135,-0.519 -0,-0.752c0.534,-0.926 1.203,-2.085 1.203,-2.085l1.854,3.21Zm5.554,-8.665c0.352,0 0.638,0.285 0.641,0.636l-0,8.029l-5.565,0l-2.169,-3.755l2.835,-4.91l4.258,0Z" style="fill:#363636;"/></g></g></g></g></svg>