<?xml version="1.0" encoding="UTF-8" standalone="no"?><!DOCTYPE svg PUBLIC "-//W3C//DTD SVG 1.1//EN" "http://www.w3.org/Graphics/SVG/1.1/DTD/svg11.dtd"><svg width="100%" height="100%" viewBox="0 0 16 16" version="1.1" xmlns="http://www.w3.org/2000/svg" xmlns:xlink="http://www.w3.org/1999/xlink" xml:space="preserve" xmlns:serif="http://www.serif.com/" style="fill-rule:evenodd;clip-rule:evenodd;stroke-linejoin:round;stroke-miterlimit:2;"><g><path d="M7.265,15l-4.129,-7.15l-2.136,3.698l0,2.811c0,0.354 0.287,0.641 0.641,0.641l5.624,0Zm3.012,0l-2.381,0c-0,0 -3.085,-5.342 -4.118,-7.129c-0.203,-0.35 -0.203,-0.782 -0,-1.133c0.374,-0.647 0.864,-1.495 0.864,-1.495l5.635,9.757Zm3.011,0l-2.381,0l-5.915,-10.363l1.155,-2l7.141,12.363Zm1.712,-2.249l0,1.608c0,0.354 -0.287,0.641 -0.641,0.641l-0.441,0l-7.456,-12.909l0.631,-1.091l1.12,0l6.787,11.751Zm-0.641,-11.751l-5.516,0l6.157,10.659l0,-10.018c0,-0.354 -0.287,-0.641 -0.641,-0.641Z" style="fill:#363636;"/></g></svg>