<?xml version="1.0" encoding="UTF-8" standalone="no"?>
<svg
   width="64"
   height="64"
   viewBox="0 0 16.933 16.933"
   version="1.1"
   id="svg10"
   xml:space="preserve"
   xmlns="http://www.w3.org/2000/svg"
   xmlns:svg="http://www.w3.org/2000/svg"><defs
     id="defs14" /><path
     id="path4"
     style="fill:#363636;fill-opacity:1;stroke-width:0.017859"
     d="m 8.4665,1.3228906 c -4.023634,0 -7.1436094,2.9483841 -7.1436094,6.9291564 0,2.08236 0.8537991,3.882697 2.2432298,5.125685 0.1160834,0.103578 0.1876272,0.250042 0.191199,0.407202 l 0.039274,1.271215 a 0.57148874,0.57148874 0 0 0 0.8014857,0.505386 l 1.4179733,-0.624756 c 0.1196555,-0.05357 0.2555992,-0.06287 0.3823981,-0.02893 0.6518537,0.17859 1.3447605,0.27543 2.0680502,0.27543 4.0236333,0 7.1436093,-2.948901 7.1436093,-6.9296734 0,-3.980771 -3.119976,-6.9307066 -7.1436093,-6.9307066 z m 3.972806,4.8099476 c 0.252482,-0.024175 0.481355,0.2627016 0.318838,0.5224386 l -2.10009,3.3273799 A 1.0715414,1.0715414 0 0 1 9.1077919,10.268422 L 7.4376425,9.0163264 a 0.42861655,0.42861655 0 0 0 -0.5157206,0.00207 L 4.6678402,10.72885 C 4.367809,10.957445 3.9751171,10.598433 4.1769238,10.278757 L 6.2749456,6.9498266 A 1.0715414,1.0715414 0 0 1 7.8252081,6.6645783 l 1.6701494,1.2515785 a 0.42861655,0.42861655 0 0 0 0.5157205,-0.00155 L 12.26516,6.2036335 c 0.05626,-0.042861 0.115881,-0.065216 0.174146,-0.070795 z" /></svg>
