<?xml version="1.0" encoding="UTF-8" standalone="no"?>
<svg
   width="64"
   height="64"
   version="1.1"
   id="svg3"
   xmlns="http://www.w3.org/2000/svg"
   xmlns:svg="http://www.w3.org/2000/svg">
  <defs
     id="defs3" />
  <path
     fill="#fff"
     d="M 51.437994,13.955932 A 45.611231,45.611231 0 0 0 39.884131,10.324718 c -0.496639,0.898961 -1.078753,2.110348 -1.479601,3.072679 -4.307646,-0.648431 -8.576975,-0.648431 -12.803567,0 a 32.826823,32.826823 0 0 0 -1.49876,-3.072679 45.453545,45.453545 0 0 0 -11.561231,3.640056 C 5.2284379,25.013156 3.2463019,35.790375 4.2381069,46.409907 c 4.848496,3.620898 9.5496211,5.821143 14.1696921,7.260955 a 35.251071,35.251071 0 0 0 3.035837,-4.997341 29.839619,29.839619 0 0 1 -4.780706,-2.326983 c 0.400849,-0.296215 0.792855,-0.607167 1.171597,-0.925488 9.21509,4.309119 19.225982,4.309119 28.330544,0 0.383163,0.31832 0.775169,0.629272 1.171597,0.925488 a 29.774776,29.774776 0 0 1 -4.786601,2.331404 35.088963,35.088963 0 0 0 3.034363,4.997341 C 50.208922,52.235471 54.912995,50.035226 59.761491,46.409907 60.92572,34.097084 57.776408,23.421552 51.437994,13.955932 Z M 22.697761,39.878438 c -2.766148,0 -5.034184,-2.581935 -5.034184,-5.726825 0,-3.144891 2.219403,-5.732721 5.034184,-5.732721 2.81478,0 5.084289,2.583409 5.034183,5.732721 0.0044,3.14489 -2.219403,5.726825 -5.034183,5.726825 z m 18.60555,0 c -2.766148,0 -5.034183,-2.581935 -5.034183,-5.726825 0,-3.144891 2.219403,-5.732721 5.034183,-5.732721 2.814781,0 5.084289,2.583409 5.034183,5.732721 0,3.14489 -2.219402,5.726825 -5.034183,5.726825 z"
     id="path1"
     style="fill:#363636;fill-opacity:1;stroke-width:1.47371" />
</svg>
