<?xml version="1.0" encoding="UTF-8" standalone="no"?>
<svg
   width="64"
   height="64"
   viewBox="0 0 16.933 16.933"
   version="1.1"
   id="svg2"
   xml:space="preserve"
   xmlns="http://www.w3.org/2000/svg"
   xmlns:svg="http://www.w3.org/2000/svg"><defs
     id="defs2" /><style
     type="text/css"
     id="style1">
  .st0{fill:#FFFFFF;}
 </style><g
     id="g4"
     transform="matrix(0.28603041,0,0,0.28603041,1.3228905,1.3228905)">
  <path
   class="st0"
   d="m 41.3,44 c 0.5,-0.4 0.9,-0.8 1.3,-1.3 9.8,-9.8 9.8,-25.6 0,-35.4 C 32.8,-2.5 17,-2.5 7.2,7.3 6.8,7.8 6.4,8.2 6,8.7 Z"
   id="path1-3"
   style="fill:#363636;fill-opacity:1">
  </path>
  <path
   class="st0"
   d="M 38.3,46.2 3.8,11.7 C 3.1,12.8 2.5,13.9 2,15.1 L 34.9,48 c 1.2,-0.5 2.3,-1.1 3.4,-1.8 z"
   id="path2-6"
   style="fill:#363636;fill-opacity:1">
  </path>
  <path
   class="st0"
   d="M 31.1,49.3 0.7,18.9 C 0.3,20.4 0.1,21.9 0,23.4 L 26.6,50 c 1.5,-0.1 3,-0.3 4.5,-0.7 z"
   id="path3"
   style="fill:#363636;fill-opacity:1">
  </path>
  <path
   class="st0"
   d="M 21.1,49.8 0.2,28.9 c 0.8,5.1 3.1,9.9 7,13.9 4,3.8 8.9,6.2 13.9,7 z"
   id="path4"
   style="fill:#363636;fill-opacity:1">
  </path>
 </g></svg>
