<svg width="16" height="16" version="1.1" xmlns="http://www.w3.org/2000/svg">
 <g transform="translate(0,-112)">
  <path transform="translate(0,112)" d="m9.7988 0.27734a1.0001 1.0001 0 0 0-0.72266 1.5254c0.60346 0.95744 0.9235 2.0655 0.92383 3.1973 0 3.3249-2.6734 5.9989-5.998 6-0.55669-8.5e-4 -1.1114-0.078902-1.6465-0.23242a1.0001 1.0001 0 0 0-1.1211 1.4941c1.4628 2.3243 4.0193 3.7365 6.7656 3.7383 4.4064 0 8-3.5936 8-8-2.72e-4 -3.5676-2.3722-6.7119-5.8027-7.6914a1.0001 1.0001 0 0 0-0.39844-0.03125zm0.12305 0.99219a7 7 0 0 1 5.0781 6.7305 7 7 0 0 1-7 7 7 7 0 0 1-5.9199-3.2715 7 7 0 0 0 1.9199 0.27148 7 7 0 0 0 7-7 7 7 0 0 0-1.0781-3.7305z" fill="#363636"/>
 </g>
</svg>
