<svg width="16" height="16" version="1.1" xmlns="http://www.w3.org/2000/svg">
 <g transform="translate(-393 -77)">
  <path d="m401 77c-2.7614 0-5 2.2386-5 5 0 0.345 0.02775 0.675 0.09375 1 0.375 2.84 3.9325 4.9258 4.9375 8.9688 0.985-3.986 4.9658-6.9178 4.9688-9.9688 0-2.7614-2.2386-5-5-5zm0 1a4 4 0 0 1 4 4 4 4 0 0 1-4 4 4 4 0 0 1-4-4 4 4 0 0 1 4-4z" fill="#363636"/>
 </g>
 <circle cx="8" cy="5" r="2" fill="#363636" stop-color="#000000" stroke-linecap="round" stroke-linejoin="round" stroke-width="6" style="paint-order:fill markers stroke"/>
</svg>
