<svg xmlns="http://www.w3.org/2000/svg" width="16" height="16"><path fill="#363636" d="M5.5.416a44 44 0 0 1 1.334 2.26Q7.478 3.858 8 4.998H6V13H5V5H3a43 43 0 0 1 1.18-2.324A50 50 0 0 1 5.5.416M14 2v3h-3V2Zm-1 1h-1v1h1zm1 3v3h-3V6Zm-1 1h-1v1h1zm1 3v3h-3v-3zm-1 1h-1v1h1z" color="#000" font-family="sans-serif" font-weight="400" overflow="visible" style="line-height:normal;font-variant-ligatures:none;font-variant-position:normal;font-variant-caps:normal;font-variant-numeric:normal;font-variant-alternates:normal;font-feature-settings:normal;text-indent:0;text-align:start;text-decoration-line:none;text-decoration-style:solid;text-decoration-color:#000;text-transform:none;shape-padding:0;isolation:auto;mix-blend-mode:normal;marker:none"/></svg>