<svg version="1.1" viewBox="0 0 22 22" xmlns="http://www.w3.org/2000/svg">
 <defs>
  <style id="current-color-scheme" type="text/css">.ColorScheme-Text {
                color:#363636;
            }</style>
 </defs>
 <path class="ColorScheme-Text" d="m2 3v1h2v14h-2v1h5v-1h-2v-14h2v-1zm11 3-4 10h1l4-10zm3 0-4 10h1l4-10zm-9 9v1h1v-1z" fill="currentColor"/>
 <path class="ColorScheme-Text" d="m8 4v1h10c0.554 0 1 0.446 1 1v10c0 0.554-0.446 1-1 1h-10v1h10c1.108 0 2-0.892 2-2v-10c0-1.108-0.892-2-2-2h-10z" fill="currentColor"/>
</svg>
