<svg width="22" height="22" version="1.1" xmlns="http://www.w3.org/2000/svg">
 <defs>
  <style id="current-color-scheme" type="text/css">.ColorScheme-Text { color:#363636; } .ColorScheme-Highlight { color:#4285f4; }</style>
 </defs>
 <g transform="translate(3,3)" fill="#f55f55">
  <path class="error" d="m5.5254 4.8184 2.4746 2.4746 2.4746-2.4746 0.70703 0.70703-2.4746 2.4746 2.4746 2.4746-0.70703 0.70703-2.4746-2.4746-2.4746 2.4746-0.70703-0.70703 2.4746-2.4746-2.4746-2.4746z"/>
  <path d="m8 0a8 8 0 0 0-8 8 8 8 0 0 0 8 8 8 8 0 0 0 8-8 8 8 0 0 0-8-8zm-0.09375 1a7 7 0 0 1 0.09375 0 7 7 0 0 1 7 7 7 7 0 0 1-7 7 7 7 0 0 1-7-7 7 7 0 0 1 6.9062-7z"/>
 </g>
</svg>
