<svg width="22" height="22" version="1.1" xmlns="http://www.w3.org/2000/svg">
 <defs>
  <style id="current-color-scheme" type="text/css">.ColorScheme-Text { color:#363636; } .ColorScheme-Highlight { color:#4285f4; }</style>
 </defs>
 <g id="22-22-start-here-kde" class="ColorScheme-Text" transform="translate(-45,35)" fill="currentColor">
  <path d="m56-35a11 11 0 0 0-11 11 11 11 0 0 0 11 11 11 11 0 0 0 11-11 11 11 0 0 0-11-11zm0 2a9 9 0 0 1 9 9 9 9 0 0 1-9 9 9 9 0 0 1-9-9 9 9 0 0 1 9-9z" opacity=".5"/>
  <circle cx="56" cy="-24" r="2" opacity=".5"/>
  <path d="m56-31a7 7 0 0 0-7 7 7 7 0 0 0 7 7 7 7 0 0 0 6.9297-6h-3.0723a4 4 0 0 1-3.8574 3 4 4 0 0 1-4-4 4 4 0 0 1 4-4 4 4 0 0 1 3.8711 3h3.0566a7 7 0 0 0-6.9277-6z"/>
 </g>
</svg>
