<svg width="32" height="32" version="1.1" viewBox="0 0 32 32" xmlns="http://www.w3.org/2000/svg" xmlns:xlink="http://www.w3.org/1999/xlink">
 <linearGradient id="a" x1="9" x2="9" y1="37" y2="40" gradientTransform="matrix(.88842 0 0 1 -3.9958 -1)" gradientUnits="userSpaceOnUse">
  <stop stop-color="#fcfcfc" stop-opacity=".8" offset="0"/>
  <stop stop-color="#fcfcfc" stop-opacity=".45" offset="1"/>
 </linearGradient>
 <linearGradient id="g" x1="20" x2="20" y1="26" y2="30" gradientTransform="matrix(.6875 0 0 .75 -.75 12.5)" gradientUnits="userSpaceOnUse">
  <stop stop-color="#194d6f" offset="0"/>
  <stop stop-color="#0c3d61" offset="1"/>
 </linearGradient>
 <g stroke-linejoin="round">
  <path d="m10 2h20v28h-20z" fill="#f2f2f2"/>
  <g stroke-width="1.4286">
   <path d="m10 29h20v1h-20z" fill="#000000" opacity=".15"/>
   <path d="m12 6v1h10v-1zm0 2v1h9v-1zm0 2v1h10v-1z" fill="#4d4d4d"/>
   <path d="m24 6v1h4v-1zm0 4v1h4v-1z" fill="#da4453"/>
   <path d="m24 8h4v1h-4z" fill="#27ae60"/>
  </g>
 </g>
 <g transform="translate(0 -15)">
  <path d="m3 31c-.554 0-1 .446-1 1v8a1 1.5 0 0 1 1 1.5 1 1.5 0 0 1 -1 1.5v1c0 .554.446 1 1 1h20c.554 0 1-.446 1-1v-12c0-.554-.446-1-1-1z" fill="#3cabe6" stroke-linejoin="round"/>
  <path d="m2 32h22v3h-22z" fill="url(#g)" stroke-width="1.4286"/>
  <g stroke-linejoin="round">
   <path d="m2 43v1c0 .554.446 1 1 1h20c.554 0 1-.446 1-1v-1c0 .554-.446 1-1 1h-20c-.554 0-1-.446-1-1z" fill="#000000" opacity=".15"/>
   <rect x="4" y="36" width="4" height="3" rx=".5" fill="url(#a)"/>
   <path d="m6 41v1h3v-1zm4 0v1h3v-1zm4 0v1h3v-1zm4 0v1h3v-1z" fill="#1f5b83"/>
  </g>
 </g>
</svg>
