<svg version="1.1" viewBox="0 0 32 32" xmlns="http://www.w3.org/2000/svg">
 <g transform="matrix(1 0 0 .97754 0 .35179)" stroke-linejoin="round">
  <path d="m16 2c-7.732 0-14 6.268-14 14 4.675e-4 5.0013 2.6688 9.6224 7 12.123l7.0002-11.123 7-12.123-2.5e-4 -0.99955c-2.1281-1.2292-4.5424-1.8766-7-1.877z" fill="#60d98f"/>
  <path d="m3.877 9c-1.2292 2.1281-1.8766 4.5424-1.877 7 0 7.732 6.268 14 14 14 4.7275-4.42e-4 9.1154-2.3847 11.694-6.3038 0.0184-0.03629-0.02708-0.95998-0.02708-0.95998z" fill="#fa5953"/>
  <path d="m12.377 2.4785a14 14 0 0 0-10.377 13.521 14 14 0 0 0 14 14 14 14 0 0 0 3.623-0.47852z" fill="#ffc57b"/>
  <path d="m24.66 5-5.9297 10.27v1l10.268 5.9277c0.66141-1.653 1.0015-3.4169 1.002-5.1973v-1c-2.4e-5 -4.2913-1.9681-8.3455-5.3398-11z" fill="#52b1d7"/>
 </g>
</svg>
