<svg version="1.1" viewBox="0 0 32 32" xmlns="http://www.w3.org/2000/svg">
 <defs>
  <style id="current-color-scheme" type="text/css">.ColorScheme-Text {
        color:#363636;
      }</style>
 </defs>
 <path d="m16 1c-8.2759 0-15 6.7241-15 15s6.7241 15 15 15 15-6.7241 15-15-6.7241-15-15-15z" fill="#77cb75" overflow="visible" stroke-width="1.0345"/>
 <path class="ColorScheme-Text" d="m15.961 6c-2.216 0-4 1.784-4 4v4h-2.0938c-1.0341 0-1.8672 0.892-1.8672 2v6c0 1.108 0.83305 2 1.8672 2h12.266c1.0341 0 1.8672-0.892 1.8672-2v-6c0-1.108-0.83305-2-1.8672-2h-2.1716v-4c0-2.216-1.784-4-4-4zm0 1c1.662 0 3 1.561 3 3.5v3.5h-6v-3.5c0-1.939 1.338-3.5 3-3.5zm-5.9609 8h12c0.554 0 1 0.446 1 1v6c0 0.554-0.446 1-1 1h-12c-0.554 0-1-0.446-1-1v-6c0-0.554 0.446-1 1-1z" fill="#ffffff"/>
</svg>
