<svg version="1.1" viewBox="0 0 32 32" xmlns="http://www.w3.org/2000/svg">
 <style id="current-color-scheme" type="text/css">.ColorScheme-Text {
            color:#363636;
        }</style>
 <path d="m16 1c-8.2759 0-15 6.7241-15 15s6.7241 15 15 15 15-6.7241 15-15-6.7241-15-15-15z" color="#000000" fill="#64728a" overflow="visible" stroke-width="1.0345"/>
 <path d="m16 6a10 10 0 0 0-10 10 10 10 0 0 0 10 10 10 10 0 0 0 10-10 10 10 0 0 0-10-10zm0 1a9 9 0 0 1 9 9 9 9 0 0 1-9 9 9 9 0 0 1-9-9 9 9 0 0 1 9-9z" fill="#ffffff" fill-rule="evenodd" stroke-linecap="round" stroke-linejoin="round"/>
 <rect x="6" y="15.5" width="20" height="1" rx=".5" ry=".5" fill="#ffffff" fill-rule="evenodd" stroke-linecap="round" stroke-linejoin="round"/>
</svg>
