<svg version="1.1" viewBox="0 0 32 32" xmlns="http://www.w3.org/2000/svg">
 <defs>
  <style id="current-color-scheme" type="text/css">.ColorScheme-Text {
        color:#363636;
      }</style>
 </defs>
 <circle cx="16" cy="16" r="15" fill="#f35e5e" fill-rule="evenodd" stroke-linecap="round" stroke-linejoin="round" stroke-width="1.0714"/>
 <path class="ColorScheme-Text" d="m16 6c-0.554 0-1 0.446-1 1v7c0 0.554 0.446 1 1 1s1-0.446 1-1v-7c0-0.554-0.446-1-1-1z" fill="#ffffff"/>
 <path d="m22.332 8.2598-0.63281 0.77539a9 9 0 0 1 3.3008 6.9648 9 9 0 0 1-9 9 9 9 0 0 1-9-9 9 9 0 0 1 3.3164-6.9453l-0.63867-0.78125a10 10 0 0 0-3.6777 7.7266 10 10 0 0 0 10 10 10 10 0 0 0 10-10 10 10 0 0 0-3.668-7.7402z" fill="#ffffff" fill-rule="evenodd" stroke-linecap="round" stroke-linejoin="round" stroke-width=".95238"/>
</svg>
