<svg version="1.1" viewBox="0 0 32 32" xmlns="http://www.w3.org/2000/svg">
 <defs>
  <style id="current-color-scheme" type="text/css">.ColorScheme-Text {
                color:#363636;
            }</style>
 </defs>
 <path d="m16 1c-8.2768 0-15 6.7232-15 15s6.7232 15 15 15c8.2758 0 15-6.7232 15-15 0-8.2758-6.7232-15-15-15z" color="#000000" fill="#4da2f3" fill-opacity=".992" opacity=".99" overflow="visible" stroke-width="1.0343"/>
 <path d="m8.9304 8.9324a10 10 0 0 0-1.7871 11.687l0.74854-0.74854a9 9 0 0 1 1.7457-10.231 9 9 0 0 1 9.22-2.1489l-3.5632 3.5632 0.70711 0.70711 4.6224-4.6224a10 10 0 0 0-11.694 1.794zm2.4555 15.929a10 10 0 0 0 11.687-1.7871 10 10 0 0 0 1.7871-11.687l-0.74854 0.74854a9 9 0 0 1-1.7457 10.231 9 9 0 0 1-9.2117 2.1407l3.5549-3.5549-0.70711-0.70711-3.867 3.867z" fill="#ffffff" fill-rule="evenodd" stroke-linecap="round" stroke-linejoin="round" stroke-width="1.1111"/>
</svg>
