<svg width="24" height="24" version="1.1" viewBox="0 0 24 24" xmlns="http://www.w3.org/2000/svg">
  <path
     d="m 1.9983,1.996128 c -1.1079972,0 -1.9999908,0.8920138 -1.9999908,2.0000298 v 8.0001192 c 0,1.108028 0.8919936,2.00003 1.9999908,2.00003 H 3.9982908 V 12.996292 H 1.9983 c -0.5539882,0 -0.99998496,-0.51994 -0.99998496,-1.166047 V 4.1621653 c 0,-0.6461194 0.44599676,-1.1660468 0.99998496,-1.1660468 h 12.999888 c 0.553988,0 0.999985,0.5199274 0.999985,1.1660468 v 0.8339952 h 0.999985 V 3.9961456 c 0,-1.1080282 -0.891994,-2.0000298 -1.999991,-2.0000298 H 1.9982791 Z"
     stroke-width="2.00001"
     style="fill:#363636;stroke-linecap:round;stroke-linejoin:round" />
  <path
     d="m 9.998472,5.0036 c -1.1079972,0 -1.9999908,1.0398669 -1.9999908,2.3320693 v 1.6679902 h 0.999985 V 7.1695886 c 0,-0.6461072 0.4459968,-1.1660346 0.9999849,-1.1660346 H 21.998187 c 0.553988,0 0.999985,0.5199274 0.999985,1.1660346 V 14.83779 c 0,0.646107 -0.445997,1.166035 -0.999985,1.166035 h -1.999991 v 1.000027 h 1.999991 c 1.107997,0 1.999991,-1.039867 1.999991,-2.33207 V 7.3357423 c 0,-1.2922388 -0.891994,-2.3320692 -1.999991,-2.3320692 H 9.9984511 Z"
     stroke-width="1.84205"
     style="fill:#363636;stroke-linecap:round;stroke-linejoin:round" />
  <path
     d="m 5.998908,8.997328 c -1.1079972,0 -1.9999908,0.8920259 -1.9999908,2.00003 v 8.000119 c 0,1.108016 0.8919936,2.00003 1.9999908,2.00003 h 11.999736 c 1.107997,0 1.999991,-0.892026 1.999991,-2.00003 v -8.000119 c 0,-1.1080284 -0.891994,-2.00003 -1.999991,-2.00003 z m 0,1.0000271 h 11.999736 c 0.553999,0 0.999985,0.5199269 0.999985,1.1660349 v 7.668201 c 0,0.646107 -0.445986,1.166035 -0.999985,1.166035 H 5.998908 c -0.5539986,0 -0.999985,-0.519928 -0.999985,-1.166035 V 11.16339 c 0,-0.646108 0.4459968,-1.1660349 0.999985,-1.1660349 z"
     stroke-width="2.00001"
     style="fill:#363636;stroke-linecap:round;stroke-linejoin:round" />
</svg>
