<svg width="24" height="24" version="1.1" viewBox="0 0 24 24" xmlns="http://www.w3.org/2000/svg">
  <path
     d="M 4,0 C 1.784,0 0,1.784 0,4 V 8 H 1 V 4 C 1,2.338 2.338,1 4,1 H 8 V 0 Z m 12,0 v 1 h 4 c 1.662,0 3,1.338 3,3 v 4 h 1 V 4 C 24,1.784 22.216,0 20,0 Z M 0,16 v 4 c 0,2.216 1.784,4 4,4 H 8 V 23 H 4 C 2.338,23 1,21.662 1,20 v -4 z m 23,0 v 4 c 0,1.662 -1.338,3 -3,3 h -4 v 1 h 4 c 2.216,0 4,-1.784 4,-4 v -4 z"
     stroke-width="2"
     style="fill:#363636;stroke-linecap:round;stroke-linejoin:round" />
  <path
     d="m 8,8 v 8 h 8 V 8 Z m 1,1 h 6 v 6 H 9 Z"
     stroke-width="1.7778"
     style="fill:#363636;stroke-linecap:round;stroke-linejoin:round" />
</svg>
