<svg width="24" height="24" version="1.1" viewBox="0 0 24 24" xmlns="http://www.w3.org/2000/svg">
  <path
     d="M 4,0 C 1.784,0 0,1.784 0,4 v 14 c 0,2.216 1.784,4 4,4 h 7 V 21 H 4 C 2.338,21 1,19.662 1,18 V 7 h 20 v 4 h 1 V 4 C 22,1.784 20.216,0 18,0 Z m 0,1 h 14 c 1.662,0 3,1.338 3,3 V 6 H 1 V 4 C 1,2.338 2.338,1 4,1 Z m 11,12 c -1.108,0 -2,0.89201 -2,2 v 7 c 0,1.108 0.89201,2 2,2 h 7 c 1.108,0 2,-0.89201 2,-2 v -7 c 0,-1.108 -0.89201,-2 -2,-2 z m 0,1 h 7 c 0.554,0 1,0.446 1,1 v 1 h -9 v -1 c 0,-0.554 0.446,-1 1,-1 z m -1,3 h 9 v 5 c 0,0.554 -0.446,1 -1,1 h -7 c -0.554,0 -1,-0.446 -1,-1 z"
     fill="#363636"
     stroke-linecap="round"
     stroke-linejoin="round"
     stroke-width="2" />
</svg>
