<svg width="24" height="24" version="1.1" viewBox="0 0 24 24" xmlns="http://www.w3.org/2000/svg">
  <path
     d="M 4.00004,0 C 1.78404,0 3.9999999e-5,1.784 3.9999999e-5,4 V 8 H 1.00004 V 4 c 0,-1.662 1.338,-3 3,-3 h 4 V 0 Z m 12,0 v 1 h 4 c 1.662,0 3,1.338 3,3 v 4 h 1 V 4 c 0,-2.216 -1.784,-4 -4,-4 z m -4,1 -3.9961,8.9922 h 0.99609 v 0.008 h 6 v -0.008 h 0.99609 L 12.00002,1 Z m 0,2.4629 L 14.46094,9 h -4.9219 l 2.4609,-5.5371 z m -3,10.537 v 0.008 H 8.00395 l 3.9961,8.9922 3.9961,-8.9922 h -0.99609 v -0.008 h -6 z m 0.53906,1 H 14.461 L 12.0001,20.537 9.5392,14.9999 Z m -9.5391,1 v 4 c 0,2.216 1.784,4 4,4 h 4 v -1 H 4 c -1.662,0 -3,-1.338 -3,-3 v -4 z m 23,0 v 4 c 0,1.662 -1.338,3 -3,3 h -4 v 1 h 4 c 2.216,0 4,-1.784 4,-4 v -4 z"
     fill="#363636"
     stroke-linecap="round"
     stroke-linejoin="round"
     stroke-width="2" />
</svg>
