<svg width="24" height="24" version="1.1" viewBox="0 0 24 24" xmlns="http://www.w3.org/2000/svg">
  <path
     d="M 4,0 C 1.784,0 0,1.784 0,4 V 8 H 1 V 4 C 1,2.338 2.338,1 4,1 H 8 V 0 Z m 19,16 v 4 c 0,1.662 -1.338,3 -3,3 h -4 v 1 h 4 c 2.216,0 4,-1.784 4,-4 v -4 z"
     stroke-width="2"
     style="fill:#363636" />
  <path
     d="M 0,12 V 24 H 12 V 12 Z m 1,1 H 11 V 23 H 1 Z"
     style="fill:#363636" />
  <path
     d="m 16,0 v 1 h 6.293 l -7.4238,7.4238 0.70703,0.70703 7.4238,-7.4238 v 6.293 h 1 v -8 h -8 z"
     style="fill:#363636" />
</svg>
