<svg width="22" height="22" version="1.1" viewBox="0 0 5.821 5.821" xmlns="http://www.w3.org/2000/svg">
 <defs>
  <filter id="filter976" x="-.147" y="-.147" width="1.294" height="1.294" color-interpolation-filters="sRGB">
   <feGaussianBlur stdDeviation="0.2592991"/>
  </filter>
 </defs>
 <rect transform="matrix(0 -.99999 -.99999 0 0 0)" x="-5.2918" y="-5.0272" width="4.2335" height="4.2335" rx="2.1172" ry="2.1172" fill="#000000" filter="url(#filter976)" opacity=".25" stroke-width="1.0001"/>
 <rect transform="matrix(0,-1,-1,0,0,0)" x="-5.026" y="-5.027" width="4.233" height="4.233" rx="2.117" ry="2.117" fill="#62a0ea"/>
 <path d="m2.9105 0.79377c-1.1727 0-2.1167 0.94406-2.1167 2.1167 0 0.044499 0.001455 0.088495 0.004134 0.1323 0.067936-1.1105 0.98444-1.9844 2.1126-1.9844s2.0447 0.87394 2.1126 1.9844c0.00268-0.0438 0.00414-0.087797 0.00414-0.1323 0-1.1727-0.94406-2.1167-2.1167-2.1167z" fill="#ffffff" opacity=".1" stroke-width="1.0001"/>
 <path transform="scale(.26459)" d="m10.938 6.0039a5 5 0 0 0-3.4727 1.4629 5 5 0 0 0-1.457 3.5332h-1.0078l2 3 2-3h-0.99023a3 3 0 0 1 0.86914-2.1191 3 3 0 0 1 2.2871-0.87305l1.6582-1.6602a5 5 0 0 0-1.8867-0.34375zm4.0625 1.9961-2 3h1a3 3 0 0 1-0.87891 2.123 3 3 0 0 1-2.2812 0.86719l-1.6602 1.6621a5 5 0 0 0 5.3555-1.1152 5 5 0 0 0 1.4609-3.5371h1.0039l-2-3z" fill="#ffffff" stroke-width="3.7794"/>
</svg>
