<svg version="1.1" viewBox="0 0 22 22" xmlns="http://www.w3.org/2000/svg">
 <defs>
  <filter id="filter976" x="-.147" y="-.147" width="1.294" height="1.294" color-interpolation-filters="sRGB">
   <feGaussianBlur stdDeviation="0.2592991"/>
  </filter>
 </defs>
 <style id="current-color-scheme" type="text/css">.ColorScheme-Text {
            color:#232629;
        }</style>
 <rect transform="matrix(0,-3.7794,-3.7794,0,0,0)" x="-5.2918" y="-5.0272" width="4.2335" height="4.2335" rx="2.1172" ry="2.1172" fill="#000000" filter="url(#filter976)" opacity=".25" stroke-width="1.0001"/>
 <circle transform="scale(1,-1)" cx="11" cy="-11" r="8" fill="#3daee9"/>
 <path d="m11 3c-4.432 0-8 3.568-8 8 0 0.16818 0.0055 0.33446 0.015625 0.5 0.25676-4.197 3.7206-7.5 7.9844-7.5s7.7276 3.303 7.9844 7.5c0.01013-0.16554 0.01563-0.33182 0.01563-0.5 0-4.432-3.568-8-8-8z" fill="#ffffff" opacity=".1" stroke-width="3.7798"/>
 <g transform="matrix(-1,0,0,1,22,0)" fill="#ffffff">
  <path class="ColorScheme-Highlight" d="m11 5.556 1.7 3.444 3.8 0.552-2.75 2.6805 0.649 3.785-3.399-1.787-3.399 1.787 0.649-3.785-2.75-2.6805 3.8-0.552z" color="#3daee9" opacity=".5"/>
  <path d="m11 5.5566v8.6738l3.3984 1.7871-0.64844-3.7852 2.75-2.6797-3.8008-0.55273z"/>
 </g>
</svg>
