<?xml version="1.0" encoding="UTF-8"?>
<svg width="16px" height="16px" version="1.1" viewBox="0 0 16 16" xmlns="http://www.w3.org/2000/svg">
 <path d="m4 1c-1.6445 0-3 1.3555-3 3v1h1v-1c0-1.1094 0.89062-2 2-2h1v-1zm2 0v1h4v-1zm5 0v1h1c1.1094 0 2 0.89062 2 2v1h1v-1c0-1.6445-1.3555-3-3-3zm-5 4c-0.55078 0-1 0.44922-1 1s0.44922 1 1 1 1-0.44922 1-1-0.44922-1-1-1zm-5 1v4h1v-4zm13 0v4h1v-4zm-4.5 2-2 2-1.5-1-2 2v0.5c0 0.5 0.5 0.5 0.5 0.5h7s0.47266-0.035156 0.5-0.5v-1zm-8.5 3v1c0 1.6445 1.3555 3 3 3h1v-1h-1c-1.1094 0-2-0.89062-2-2v-1zm13 0v1c0 1.1094-0.89062 2-2 2h-1v1h1c1.6445 0 3-1.3555 3-3v-1zm-8 3v1h4v-1z" fill="#363636"/>
</svg>
