<svg width="22" height="22" viewBox="0 0 22 22" fill="none" xmlns="http://www.w3.org/2000/svg">
<style type="text/css" id="current-color-scheme">
.ColorScheme-Text {
  color:#363636;
}
</style>
<path fill="currentColor" fill-rule="evenodd" clip-rule="evenodd" d="M3 7C3 6.93096 3.0035 6.86275 3.01033 6.79551C3.11275 5.787 3.96447 5 5 5H17C18.1046 5 19 5.89543 19 7V15C19 16.1046 18.1046 17 17 17H5C3.89543 17 3 16.1046 3 15V7ZM4.00516 6.89776C4.05637 6.3935 4.48223 6 5 6H17C17.5523 6 18 6.44772 18 7V13C18 13.5523 17.5523 14 17 14H5C4.44772 14 4 13.5523 4 13V7C4 6.96548 4.00175 6.93137 4.00516 6.89776ZM18 14.7324V15C18 15.5523 17.5523 16 17 16H5C4.44772 16 4 15.5523 4 15V14.7324C4.29417 14.9026 4.63571 15 5 15H17C17.3643 15 17.7058 14.9026 18 14.7324Z" class="ColorScheme-Text"/>
<path fill="currentColor" fill-rule="evenodd" clip-rule="evenodd" d="M8 8C6.89543 8 6 8.89543 6 10C6 11.1046 6.89543 12 8 12H14C15.1046 12 16 11.1046 16 10C16 8.89543 15.1046 8 14 8H8ZM7 10C7 9.44771 7.44772 9 8 9C8.55229 9 9 9.44771 9 10C9 10.5523 8.55229 11 8 11C7.44772 11 7 10.5523 7 10ZM13 10C13 9.44771 13.4477 9 14 9C14.5523 9 15 9.44771 15 10C15 10.5523 14.5523 11 14 11C13.4477 11 13 10.5523 13 10Z" class="ColorScheme-Text"/>
</svg>
