<svg width="22" height="22" version="1.1" xmlns="http://www.w3.org/2000/svg">
 <style id="current-color-scheme" type="text/css">.ColorScheme-Text {
        color:#363636;
      }</style>
 <g id="kruler" transform="translate(-326 -534.36)">
  <rect x="326" y="534.36" width="22" height="22" fill="none"/>
  <path class="ColorScheme-Text" d="m328 538.36v2 12h1 17v-1h-17v-11h17v-2h-18zm2 3v3h1v-3h-1zm2 0v3h1v-3h-1zm2 0v6h1v-6h-1zm2 0v3h1v-3h-1zm2 0v3h1v-3h-1zm2 0v6h1v-6h-1zm2 0v3h1v-3h-1zm2 0v3h1v-3h-1z" fill="currentColor"/>
 </g>
</svg>
