<svg width="22" height="22" version="1.1" xmlns="http://www.w3.org/2000/svg">
 <style id="current-color-scheme" type="text/css">.ColorScheme-Text {
        color:#363636;
      }</style>
 <g id="kup" transform="translate(0 -1030.4)">
  <g id="vlc">
   <path class="ColorScheme-Text" d="m0 1030.4h22v22h-22z" fill="none"/>
  </g>
  <path id="innershape" class="ColorScheme-Text" d="m6 1032.4c-1.108 0-2 0.892-2 2v4.0566 1.0293 2.8282 1.0293 5.0566c0 1.108 0.892 2 2 2h10c1.108 0 2-0.892 2-2v-5.0566-1.0293-2.8282-1.0293-4.0566c0-1.108-0.892-2-2-2h-10zm0 1h10c0.554 0 1 0.446 1 1v4.0566a2.5 2.5 0 0 0-2 2.4434 2.5 2.5 0 0 0 2 2.4434v3.0566h-12v-3.0566a2.5 2.5 0 0 0 2-2.4434 2.5 2.5 0 0 0-2-2.4492v-4.0508c0-0.554 0.446-1 1-1zm5 3a4 4 0 0 0-4 4 4 4 0 0 0 4 4 4 4 0 0 0 4-4 4 4 0 0 0-4-4zm0 1a3 3 0 0 1 3 3 3 3 0 0 1-3 3 3 3 0 0 1-3-3 3 3 0 0 1 3-3zm0 0.9961-1 0.0039v3h3v-1l-1.9922-0.0098-0.007812-1.9941zm-6 1.0898a1.5 1.5 0 0 1 1 1.4141 1.5 1.5 0 0 1-1 1.4141v-2.8282zm12 0v2.8282a1.5 1.5 0 0 1-1-1.4141 1.5 1.5 0 0 1 1-1.4141zm-12 7.9141h6v2h-5c-0.554 0-1-0.446-1-1v-1zm7 0h1v2h-1v-2zm2 0h1v2h-1v-2zm2 0h1v1c0 0.554-0.446 1-1 1v-2z" fill="currentColor"/>
 </g>
</svg>
