<svg width="22" height="22" version="1.1" viewBox="0 0 22 22" xmlns="http://www.w3.org/2000/svg" xmlns:xlink="http://www.w3.org/1999/xlink">
 <defs>
  <linearGradient id="c-3" x1="406.5" x2="419.97" y1="527.01" y2="539.83" gradientTransform="matrix(.45 0 0 .45 -172.86 805.65)" gradientUnits="userSpaceOnUse">
   <stop stop-color="#292c2f" offset="0"/>
   <stop stop-opacity="0" offset="1"/>
  </linearGradient>
 </defs>
 <g transform="translate(0 -1030.4)">
  <path d="m9.3905 1045.9 4.3137 4.3137h6.3v-2.7l-6.1137-6.1137z" fill="url(#c-3)" fill-rule="evenodd" opacity=".4"/>
  <rect x="4" y="1032.4" width="14" height="18" rx="1" ry="1" fill="#c5c5c5" fill-rule="evenodd" stroke-width=".99494"/>
  <path d="m5 1033.4v16h12v-16z" fill="#f9f9f9" fill-rule="evenodd"/>
  <rect x="7" y="1037.6" width="4.5714" height=".57143" fill="#bcbcbc" fill-rule="evenodd"/>
  <rect x="6" y="1033.4" width="1" height="15.5" color="#000000" color-rendering="auto" fill="#eaeaea" image-rendering="auto" shape-rendering="auto" solid-color="#000000" style="isolation:auto;mix-blend-mode:normal"/>
  <rect x="5" y="1033.4" width="1" height="15.563" color="#000000" color-rendering="auto" fill="#ffffff" image-rendering="auto" opacity=".373" shape-rendering="auto" solid-color="#000000" style="isolation:auto;mix-blend-mode:normal"/>
  <rect x="12.143" y="1037.6" width="2.8571" height=".57144" fill="#bcbcbc" fill-rule="evenodd"/>
  <rect x="7" y="1038.8" width="3.4286" height=".57144" fill="#bcbcbc" fill-rule="evenodd"/>
  <rect x="11" y="1038.8" width="4" height=".57144" fill="#bcbcbc" fill-rule="evenodd"/>
  <rect x="7" y="1039.9" width="2.3029" height=".57143" fill="#bcbcbc" fill-rule="evenodd"/>
  <rect x="9.8571" y="1039.9" width="2.2857" height=".57144" fill="#bcbcbc" fill-rule="evenodd"/>
  <rect x="7" y="1035.4" width="2.8571" height=".57144" fill="#bcbcbc" fill-rule="evenodd"/>
  <rect x="7" y="1036.5" width="4" height=".57143" fill="#bcbcbc" fill-rule="evenodd"/>
  <rect x="11.571" y="1036.5" width="1.7143" height=".57144" fill="#bcbcbc" fill-rule="evenodd"/>
  <rect x="10.429" y="1035.4" width="2.2857" height=".57144" fill="#bcbcbc" fill-rule="evenodd"/>
  <path d="m17 1037.4-4-4v4z" fill="#eeeeee" fill-rule="evenodd"/>
  <path d="m13 1033.4 4 4v-4z" fill="#ffffff" fill-rule="evenodd"/>
  <rect x="7" y="1041.8" width="3.4286" height=".57144" fill="#bcbcbc" fill-rule="evenodd"/>
  <rect x="11" y="1041.8" width="4" height=".57144" fill="#bcbcbc" fill-rule="evenodd"/>
  <rect x="7" y="1042.9" width="2.3029" height=".57143" fill="#bcbcbc" fill-rule="evenodd"/>
  <rect x="9.8571" y="1042.9" width="2.2857" height=".57144" fill="#bcbcbc" fill-rule="evenodd"/>
  <rect x="7" y="1044.8" width="3.4286" height=".57144" fill="#bcbcbc" fill-rule="evenodd"/>
  <rect x="11" y="1044.8" width="4" height=".57144" fill="#bcbcbc" fill-rule="evenodd"/>
  <rect x="7" y="1045.9" width="2.3029" height=".57143" fill="#bcbcbc" fill-rule="evenodd"/>
  <rect x="9.8571" y="1045.9" width="2.2857" height=".57144" fill="#bcbcbc" fill-rule="evenodd"/>
 </g>
</svg>
