<svg
   clip-rule="evenodd"
   fill-rule="evenodd"
   stroke-linejoin="round"
   stroke-miterlimit="2"
   viewBox="0 0 64 64"
   version="1.1"
   id="svg13"
   width="64"
   height="64"
   xmlns="http://www.w3.org/2000/svg"
   xmlns:svg="http://www.w3.org/2000/svg">
  <defs
     id="defs13" />
  <linearGradient
     id="a"
     x2="1"
     gradientTransform="matrix(0,-43.533103,43.533103,0,1197.1066,51.999154)"
     gradientUnits="userSpaceOnUse">
    <stop
       stop-color="#181818"
       offset="0"
       id="stop1" />
    <stop
       stop-color="#383838"
       offset="1"
       id="stop2" />
  </linearGradient>
  <linearGradient
     id="b"
     x2="1"
     gradientTransform="matrix(-10.505738,10.989591,-10.989591,-10.505738,38.252927,15.479306)"
     gradientUnits="userSpaceOnUse">
    <stop
       stop-color="#f45946"
       offset="0"
       id="stop3" />
    <stop
       stop-color="#4091fa"
       stop-opacity="0"
       offset="1"
       id="stop4" />
  </linearGradient>
  <linearGradient
     id="c"
     x2="1"
     gradientTransform="matrix(6.6005624,5.421543,-5.421543,6.6005624,24.698004,17.759137)"
     gradientUnits="userSpaceOnUse">
    <stop
       stop-color="#f6d43f"
       offset="0"
       id="stop5" />
    <stop
       stop-color="#00ff07"
       stop-opacity="0"
       offset="1"
       id="stop6" />
  </linearGradient>
  <radialGradient
     id="d"
     cx="0"
     cy="0"
     r="1"
     gradientTransform="matrix(0,13.68428,-13.68428,0,31.999999,12.111793)"
     gradientUnits="userSpaceOnUse">
    <stop
       stop-color="#f6ab3f"
       offset="0"
       id="stop7" />
    <stop
       stop-color="#fd9010"
       stop-opacity=".25"
       offset=".5"
       id="stop8" />
    <stop
       stop-color="#ff8700"
       stop-opacity="0"
       offset="1"
       id="stop9" />
  </radialGradient>
  <rect
     width="56.001999"
     height="56.001999"
     x="4.0000153"
     y="3.9835"
     fill="#626262"
     rx="13.002"
     ry="13.002"
     id="rect2"
     style="fill:#1c1c1c;fill-opacity:1" />
  <path
     d="m 3.998014,46.0125 v 1 c 0,7.203 5.8,13.004 13.004,13.004 h 29.996 c 7.203,0 13.004,-5.8 13.004,-13.004 v -1 c 0,7.203 -5.8,13.002 -13.004,13.002 h -29.996 a 12.975,12.975 0 0 1 -13.004,-13.002"
     opacity="0.15"
     id="path3" />
  <path
     fill="#ffffff"
     d="m 3.998014,18.0185 v -1 c 0,-7.203 5.8,-13.004 13.004,-13.004 h 29.996 c 7.203,0 13.004,5.8 13.004,13.004 v 1 c 0,-7.203 -5.8,-13.002 -13.004,-13.002 h -29.996 a 12.975,12.975 0 0 0 -13.004,13.002"
     opacity="0.15"
     id="path4" />
  <path
     d="m 32,12.111898 c 4.438962,0.06591 6.138303,2.541904 7.69937,5.757082 1.727771,3.556339 3.106628,7.223814 4.228322,11.837233 1.036404,4.260629 3.195794,10.879658 4.816306,13.838966 1.567529,2.864972 3.104043,4.291643 4.201184,5.388784 1.097141,1.097141 0.811548,3.291422 -0.953698,2.910201 -1.765247,-0.38122 -4.246414,-1.765246 -6.01166,-3.913006 C 44.214577,45.78469 40.778419,40.965799 39.58565,38.34119 38.392881,35.717873 35.277208,33.409871 32,33.306489 c -3.277208,0.103382 -6.392881,2.411384 -7.58565,5.034701 -1.192769,2.624609 -4.628927,7.4435 -6.394174,9.589968 -1.765246,2.14776 -4.246413,3.531786 -6.01166,3.913006 -1.765247,0.381221 -2.0508391,-1.81306 -0.953698,-2.910201 1.097141,-1.097141 2.633655,-2.523812 4.201184,-5.388784 1.620512,-2.959308 3.592522,-9.627444 4.816306,-13.838966 1.341381,-4.613419 2.640116,-8.456643 4.366595,-12.012982 C 25.99997,14.478052 27.561038,12.177804 32,12.111898 Z"
     fill="#4091fa"
     id="path10"
     style="stroke-width:1.29227" />
  <path
     d="m 32,12.111898 c 4.438962,0.06591 6.138303,2.541904 7.69937,5.757082 1.727771,3.556339 3.106628,7.223814 4.228322,11.837233 1.036404,4.260629 3.195794,10.879658 4.816306,13.838966 1.567529,2.864972 3.104043,4.291643 4.201184,5.388784 1.097141,1.097141 0.811548,3.291422 -0.953698,2.910201 -1.765247,-0.38122 -4.246414,-1.765246 -6.01166,-3.913006 C 44.214577,45.78469 40.778419,40.965799 39.58565,38.34119 38.392881,35.717873 35.277208,33.409871 32,33.306489 c -3.277208,0.103382 -6.392881,2.411384 -7.58565,5.034701 -1.192769,2.624609 -4.628927,7.4435 -6.394174,9.589968 -1.765246,2.14776 -4.246413,3.531786 -6.01166,3.913006 -1.765247,0.381221 -2.0508391,-1.81306 -0.953698,-2.910201 1.097141,-1.097141 2.633655,-2.523812 4.201184,-5.388784 1.620512,-2.959308 3.592522,-9.627444 4.816306,-13.838966 1.341381,-4.613419 2.640116,-8.456643 4.366595,-12.012982 C 25.99997,14.478052 27.561038,12.177804 32,12.111898 Z"
     fill="url(#b)"
     id="path11"
     style="fill:url(#b);stroke-width:1.29227" />
  <path
     d="m 32,12.111898 c 4.438962,0.06591 6.138303,2.541904 7.69937,5.757082 1.727771,3.556339 3.106628,7.223814 4.228322,11.837233 1.036404,4.260629 3.195794,10.879658 4.816306,13.838966 1.567529,2.864972 3.104043,4.291643 4.201184,5.388784 1.097141,1.097141 0.811548,3.291422 -0.953698,2.910201 -1.765247,-0.38122 -4.246414,-1.765246 -6.01166,-3.913006 C 44.214577,45.78469 40.778419,40.965799 39.58565,38.34119 38.392881,35.717873 35.277208,33.409871 32,33.306489 c -3.277208,0.103382 -6.392881,2.411384 -7.58565,5.034701 -1.192769,2.624609 -4.628927,7.4435 -6.394174,9.589968 -1.765246,2.14776 -4.246413,3.531786 -6.01166,3.913006 -1.765247,0.381221 -2.0508391,-1.81306 -0.953698,-2.910201 1.097141,-1.097141 2.633655,-2.523812 4.201184,-5.388784 1.620512,-2.959308 3.592522,-9.627444 4.816306,-13.838966 1.341381,-4.613419 2.640116,-8.456643 4.366595,-12.012982 C 25.99997,14.478052 27.561038,12.177804 32,12.111898 Z"
     fill="url(#c)"
     id="path12"
     style="fill:url(#c);stroke-width:1.29227" />
  <path
     d="m 32,12.111896 c 4.438962,0.06591 6.138303,2.541904 7.69937,5.757082 1.727771,3.556339 3.106628,7.223814 4.228322,11.837233 1.036404,4.260629 3.195794,10.879658 4.816306,13.838966 1.567529,2.864972 3.104043,4.291643 4.201184,5.388784 1.097141,1.097141 0.811548,3.291422 -0.953698,2.910201 -1.765247,-0.38122 -4.246414,-1.765246 -6.01166,-3.913006 C 44.214577,45.784688 40.778419,40.965797 39.58565,38.341188 38.392881,35.717871 35.277208,33.409869 32,33.306487 c -3.277208,0.103382 -6.392881,2.411384 -7.58565,5.034701 -1.192769,2.624609 -4.628927,7.4435 -6.394174,9.589968 -1.765246,2.14776 -4.246413,3.531786 -6.01166,3.913006 -1.765247,0.381221 -2.0508389,-1.81306 -0.953698,-2.910201 1.097141,-1.097141 2.633655,-2.523812 4.201184,-5.388784 1.620512,-2.959308 3.592522,-9.627444 4.816306,-13.838966 1.341381,-4.613419 2.640116,-8.456643 4.366595,-12.012982 C 25.99997,14.47805 27.561038,12.177802 32,12.111896 Z"
     fill="url(#d)"
     id="path13"
     style="fill:url(#d);stroke-width:1.29227" />
</svg>
