<svg xmlns="http://www.w3.org/2000/svg" width="64" height="64"><defs><filter id="c" width="1.216" height="1.216" x="-.108" y="-.108" style="color-interpolation-filters:sRGB"><feGaussianBlur stdDeviation="1.51"/></filter><filter id="b" width="1.096" height="1.096" x="-.048" y="-.048" style="color-interpolation-filters:sRGB"><feGaussianBlur stdDeviation="1.12"/></filter><linearGradient id="a" x1="7.937" x2="7.937" y1="15.081" y2="1.852" gradientTransform="scale(3.7796)" gradientUnits="userSpaceOnUse"><stop offset=".01" stop-color="#f54800" style="stop-color:#ec2f16;stop-opacity:1"/><stop offset="1" stop-color="#ffb200" style="stop-color:#e88732;stop-opacity:1"/></linearGradient></defs><rect width="64" height="64" fill="none" rx="0" ry="0" style="paint-order:stroke fill markers"/><rect width="56.002" height="56.002" x="3.999" y="3.999" fill="url(#a)" rx="13.002" ry="13.002" style="fill:#000;fill-opacity:1;filter:url(#b);opacity:.3"/><rect width="56.002" height="56.002" x="4" y="3.969" fill="url(#a)" rx="13.002" ry="13.002" style="fill:#ea6226;fill-opacity:1"/><ellipse cx="32" cy="32" rx="22.5" ry="23.116" style="opacity:1;fill:#333;fill-opacity:1;stroke-width:.61175;stroke-linecap:round;stroke-linejoin:round"/><path fill="#fff" fill-opacity=".9" d="M31.981 15.192a16.8 16.8 0 0 0-10.333 3.602h20.72a16.8 16.8 0 0 0-10.387-3.602m-11.703 4.802a16.8 16.8 0 0 0-2.81 3.602h9.912a9.6 9.6 0 0 1 4.601-1.2 9.6 9.6 0 0 1 4.643 1.2h9.907a16.8 16.8 0 0 0-2.79-3.602Zm-3.726 5.403A16.8 16.8 0 0 0 15.26 30.8h7.203a9.6 9.6 0 0 1 2.572-5.403zm22.4 0a9.6 9.6 0 0 1 2.556 5.403h7.232a16.8 16.8 0 0 0-1.306-5.403zM15.26 33.2a16.8 16.8 0 0 0 1.066 4.803h8.182a9.6 9.6 0 0 1-2.045-4.803zm26.239 0a9.6 9.6 0 0 1-2.044 4.803h8.181a16.8 16.8 0 0 0 1.066-4.803zm-23.27 8.404a16.82 16.82 0 0 0 13.752 7.204 16.82 16.82 0 0 0 13.752-7.204z" style="fill:#000;fill-opacity:1;stroke-width:1.10815;filter:url(#c);opacity:.7"/><path fill="#fff" fill-opacity=".9" d="M31.981 15.192a16.8 16.8 0 0 0-10.333 3.602h20.72a16.8 16.8 0 0 0-10.387-3.602m-11.703 4.802a16.8 16.8 0 0 0-2.81 3.602h9.912a9.6 9.6 0 0 1 4.601-1.2 9.6 9.6 0 0 1 4.643 1.2h9.907a16.8 16.8 0 0 0-2.79-3.602Zm-3.726 5.403A16.8 16.8 0 0 0 15.26 30.8h7.203a9.6 9.6 0 0 1 2.572-5.403zm22.4 0a9.6 9.6 0 0 1 2.556 5.403h7.232a16.8 16.8 0 0 0-1.306-5.403zM15.26 33.2a16.8 16.8 0 0 0 1.066 4.803h8.182a9.6 9.6 0 0 1-2.045-4.803zm26.239 0a9.6 9.6 0 0 1-2.044 4.803h8.181a16.8 16.8 0 0 0 1.066-4.803zm-23.27 8.404a16.82 16.82 0 0 0 13.752 7.204 16.82 16.82 0 0 0 13.752-7.204z" style="stroke-width:1.10815;fill:#fff;fill-opacity:1"/><circle cx="32.02" cy="32.044" r="30.001" fill="none"/><path d="M3.998 45.998v1c0 7.203 5.8 13.004 13.004 13.004h29.996c7.203 0 13.004-5.8 13.004-13.004v-1c0 7.203-5.8 13.002-13.004 13.002H17.002A12.975 12.975 0 0 1 3.998 45.998" opacity=".15"/><path fill="#fff" d="M3.998 18.004v-1C3.998 9.801 9.798 4 17.002 4h29.996c7.203 0 13.004 5.8 13.004 13.004v1c0-7.203-5.8-13.002-13.004-13.002H17.002A12.975 12.975 0 0 0 3.998 18.004" opacity=".15"/></svg>