<svg xmlns="http://www.w3.org/2000/svg" xmlns:xlink="http://www.w3.org/1999/xlink" width="64" height="64" class="icon" viewBox="0 0 1024 1024"><defs><linearGradient xlink:href="#a" id="c" x1="8.364" x2="8.364" y1="2.37" y2="14.902" gradientTransform="translate(2405.619 418.405)scale(60.47363)" gradientUnits="userSpaceOnUse"/><linearGradient id="a" x1="8.364" x2="8.364" y1="2.37" y2="14.902" gradientTransform="translate(2405.619 418.405)scale(60.47363)" gradientUnits="userSpaceOnUse"><stop offset="0" stop-color="#20ef85"/><stop offset="1" stop-color="#12a97e"/></linearGradient><clipPath id="d" clipPathUnits="userSpaceOnUse"><rect width="896.038" height="896.038" x="443.31" y="481.902" fill="url(#a)" rx="208.029" ry="208.029" style="fill:url(#c);stroke-width:60.4736"/></clipPath></defs><path d="M331.586 400.069h1119.485v1059.704H331.586z" clip-path="url(#d)" style="fill:#fff;fill-opacity:1;stroke:none;stroke-width:60.4725" transform="translate(-379.329 -417.921)"/><path d="M415.585 241.36c10.23-1.827 17.797 6.607 24.242 13.18 20.876 23.377 35.723 51.243 51.307 78.243 50.921-12.09 104.697-10.486 155.779 0 13.885-27.546 26.936-55.86 45.63-80.52 4.779-5.098 9.941-12.666 17.67-12.153 8.305 10.614 8.497 24.98 12.024 37.518 5.42 20.555 7.664 41.687 12.314 62.402 22.094 131.152 43.258 262.624 56.116 395.06.962 11.607 2.149 23.376.545 34.984-3.142 4.553-8.85 4.65-13.724 5.643-14.783 2.95-29.918 2.213-44.861 3.335-35.145 4.233-70.675.93-105.852 4.458-42.744.577-85.49.448-128.234.16-53.294-4.457-107.84 1.25-160.14-11.704-28.475-1.283-59.515-6.221-80.551-27.257-22.607-20.17-30.239-53.551-23.473-82.41 5.836-26.969 27.962-48.582 53.648-57.304 8.786-3.206 20.939-3.335 26.326 5.644 2.47 8.722-6.381 13.692-12.185 18.085-12.698 8.562-26.583 17.765-32.067 32.837-5.13 17.668-1.122 38.768 13.276 51.114 15.969 14.27 38.576 15.937 58.97 17.155 8.273-94.853 20.459-189.353 33.317-283.66 8.434-58.233 16.547-116.594 29.149-174.09 2.854-10.389 4.265-21.805 10.774-30.72m54.706 186.147c-11.063 1.764-20.074 10.806-22.447 21.645-3.207 14.141 7.15 29.597 21.58 31.65 17.766 4.104 35.498-13.95 31.65-31.554-2.18-14.077-16.867-24.402-30.783-21.741m189.449.77c-19.625 6.766-22.832 37.036-5.484 48.131 16.13 12.346 42.905.225 42.937-20.458 2.598-19.913-19.24-35.273-37.453-27.673m-95.206 72.534c-4.329 3.784-9.043 7.055-13.853 10.23-4.329-1.412-8.658-2.95-12.89-4.65l-.385 9.78c10.421 5.868 21.74 2.982 31.617-2.34 9.877 5.322 21.228 8.112 31.65 2.34-.096-2.437-.256-7.343-.353-9.78a187 187 0 0 1-12.89 4.617c-4.81-3.11-9.524-6.413-13.853-10.197a425 425 0 0 0-9.043 0" style="stroke-width:.801663"/></svg>