<?xml version="1.0" encoding="UTF-8" standalone="no"?>
<svg
   t="1715685513984"
   class="icon"
   viewBox="0 0 1024 1024"
   version="1.1"
   p-id="1462"
   width="64"
   height="64"
   id="svg1"
   sodipodi:docname="clash.svg"
   inkscape:version="1.3.2 (091e20e, 2023-11-25)"
   xmlns:inkscape="http://www.inkscape.org/namespaces/inkscape"
   xmlns:sodipodi="http://sodipodi.sourceforge.net/DTD/sodipodi-0.dtd"
   xmlns:xlink="http://www.w3.org/1999/xlink"
   xmlns="http://www.w3.org/2000/svg"
   xmlns:svg="http://www.w3.org/2000/svg">
  <defs
     id="defs1">
    <clipPath
       clipPathUnits="userSpaceOnUse"
       id="clipPath6">
      <rect
         width="896.03784"
         height="896.03784"
         x="443.30988"
         y="481.9024"
         fill="url(#b)"
         rx="208.0293"
         ry="208.0293"
         id="rect6"
         style="fill:url(#linearGradient6);stroke-width:60.4736" />
    </clipPath>
    <linearGradient
       inkscape:collect="always"
       xlink:href="#b"
       id="linearGradient6"
       gradientUnits="userSpaceOnUse"
       gradientTransform="matrix(60.473632,0,0,60.473632,2405.6187,418.4051)"
       x1="8.3640003"
       y1="2.3699999"
       x2="8.3640003"
       y2="14.902" />
    <linearGradient
       id="b"
       x1="8.3640003"
       x2="8.3640003"
       y1="2.3699999"
       y2="14.902"
       gradientTransform="matrix(60.473632,0,0,60.473632,2405.6188,418.4051)"
       gradientUnits="userSpaceOnUse">
      <stop
         offset="0"
         stop-color="#20ef85"
         id="stop7" />
      <stop
         offset="1"
         stop-color="#12a97e"
         id="stop8" />
    </linearGradient>
  </defs>
  <sodipodi:namedview
     id="namedview1"
     pagecolor="#ffffff"
     bordercolor="#666666"
     borderopacity="1.0"
     inkscape:showpageshadow="2"
     inkscape:pageopacity="0.0"
     inkscape:pagecheckerboard="0"
     inkscape:deskcolor="#d1d1d1"
     inkscape:zoom="7.828647"
     inkscape:cx="4.9178357"
     inkscape:cy="47.006845"
     inkscape:window-width="1920"
     inkscape:window-height="1120"
     inkscape:window-x="0"
     inkscape:window-y="0"
     inkscape:window-maximized="1"
     inkscape:current-layer="layer2" />
  <g
     inkscape:groupmode="layer"
     id="layer2"
     inkscape:label="Layer 0">
    <rect
       style="fill:#ffffff;fill-opacity:1;stroke:none;stroke-width:60.4725"
       id="rect1"
       width="1119.4849"
       height="1059.7039"
       x="331.58636"
       y="400.0694"
       clip-path="url(#clipPath6)"
       transform="translate(-379.32879,-417.92133)" />
    <path
       d="m 415.58515,241.36089 c 10.22922,-1.82779 17.79692,6.60571 24.24229,13.17934 20.8753,23.37649 35.7221,51.2423 51.30643,78.24231 50.92163,-12.08908 104.69718,-10.48575 155.77914,0 13.88481,-27.54514 26.93588,-55.85988 45.63066,-80.51903 4.77791,-5.09858 9.94062,-12.66628 17.66865,-12.15321 8.30523,10.61402 8.49763,24.97982 12.02495,37.51783 5.41924,20.55463 7.66389,41.68647 12.31354,62.40144 22.09383,131.15206 43.25773,262.62479 56.11641,395.05951 0.96199,11.60808 2.14845,23.37649 0.54513,34.98457 -3.14252,4.55345 -8.85036,4.64965 -13.72447,5.64371 -14.78267,2.95012 -29.91806,2.21259 -44.86106,3.33492 -35.14491,4.23278 -70.67461,0.92993 -105.85158,4.45724 -42.74467,0.5772 -85.48934,0.44894 -128.23401,0.16034 -53.29455,-4.45725 -107.8397,1.25059 -160.14019,-11.70428 -28.47507,-1.28266 -59.51546,-6.22091 -80.5511,-27.25654 -22.60689,-20.16984 -30.23872,-53.55109 -23.47269,-82.41096 5.83611,-26.96794 27.96201,-48.58077 53.64729,-57.30286 8.78622,-3.20666 20.93943,-3.33492 26.32661,5.6437 2.46912,8.7221 -6.38124,13.69241 -12.18528,18.08552 -12.69834,8.56176 -26.58314,17.76485 -32.06652,32.83611 -5.13064,17.66866 -1.12233,38.76843 13.27554,51.11403 15.96913,14.26961 38.57602,15.93706 58.97033,17.15559 8.27316,-94.85276 20.45844,-189.35279 33.31711,-283.66042 8.4335,-58.2328 16.54633,-116.59386 29.14847,-174.08913 2.85392,-10.38955 4.26484,-21.80523 10.77435,-30.71973 m 54.70548,186.14614 c -11.06295,1.76366 -20.07364,10.80642 -22.44656,21.6449 -3.20666,14.14134 7.15083,29.5974 21.58076,31.64966 17.76485,4.10451 35.49764,-13.94894 31.64966,-31.55346 -2.18053,-14.0772 -16.86699,-24.40262 -30.78386,-21.7411 m 189.44899,0.7696 c -19.62471,6.76604 -22.83136,37.03683 -5.48337,48.13185 16.12946,12.3456 42.905,0.22446 42.93706,-20.45844 2.59739,-19.91331 -19.23991,-35.27317 -37.45369,-27.67341 m -95.20549,72.53447 c -4.32898,3.78385 -9.04276,7.05463 -13.85274,10.22922 -4.32898,-1.41093 -8.65796,-2.95012 -12.89074,-4.64965 l -0.3848,9.78029 c 10.42162,5.86817 21.7411,2.98218 31.61759,-2.34086 9.87649,5.32304 21.22803,8.11283 31.64965,2.34086 -0.0962,-2.43706 -0.25653,-7.34323 -0.35273,-9.78029 -4.23278,1.69953 -8.56176,3.23872 -12.89074,4.61758 -4.80998,-3.11045 -9.52375,-6.4133 -13.85273,-10.19715 -3.01426,-0.0321 -6.02851,-0.0321 -9.04276,0 z"
       fill="#000000"
       p-id="1463"
       id="path1"
       style="stroke-width:0.801663" />
  </g>
  <g
     inkscape:groupmode="layer"
     id="layer1"
     inkscape:label="Layer 1" />
</svg>
