<svg xmlns="http://www.w3.org/2000/svg" xmlns:xlink="http://www.w3.org/1999/xlink" width="60.882" height="62.001"><defs><clipPath id="F"><path d="M92 94h12v1H92Zm0 0"/></clipPath><clipPath id="G"><path d="M88 86h16l-4.29 16H88Zm0 0"/></clipPath><clipPath id="D"><path d="M89 98h15v1H89Zm0 0"/></clipPath><clipPath id="E"><path d="M88 86h16l-4.29 16H88Zm0 0"/></clipPath><clipPath id="B"><path d="M92 92h12v2H92Zm0 0"/></clipPath><clipPath id="C"><path d="M88 86h16l-4.29 16H88Zm0 0"/></clipPath><clipPath id="z"><path d="M90 88h14v2H90Zm0 0"/></clipPath><clipPath id="A"><path d="M88 86h16l-4.29 16H88Zm0 0"/></clipPath><clipPath id="v"><path d="M86 62h12v1H86Zm0 0"/></clipPath><clipPath id="w"><path d="M82 54h16l-4.29 16H82Zm0 0"/></clipPath><clipPath id="t"><path d="M83 66h15v1H83Zm0 0"/></clipPath><clipPath id="u"><path d="M82 54h16l-4.29 16H82Zm0 0"/></clipPath><clipPath id="r"><path d="M86 60h12v2H86Zm0 0"/></clipPath><clipPath id="s"><path d="M82 54h16l-4.29 16H82Zm0 0"/></clipPath><clipPath id="p"><path d="M84 56h14v2H84Zm0 0"/></clipPath><clipPath id="q"><path d="M82 54h16l-4.29 16H82Zm0 0"/></clipPath><clipPath id="l"><path d="M80 30h12v1H80Zm0 0"/></clipPath><clipPath id="m"><path d="M76 22h16l-4.29 16H76Zm0 0"/></clipPath><clipPath id="j"><path d="M77 34h15v1H77Zm0 0"/></clipPath><clipPath id="k"><path d="M76 22h16l-4.29 16H76Zm0 0"/></clipPath><clipPath id="h"><path d="M80 28h12v2H80Zm0 0"/></clipPath><clipPath id="i"><path d="M76 22h16l-4.29 16H76Zm0 0"/></clipPath><clipPath id="f"><path d="M78 24h14v2H78Zm0 0"/></clipPath><clipPath id="g"><path d="M76 22h16l-4.29 16H76Zm0 0"/></clipPath><linearGradient xlink:href="#a" id="y" x1="84" x2="84" y1="104" y2="86" gradientTransform="translate(70 -22)"/><linearGradient id="a" gradientUnits="userSpaceOnUse"><stop offset="0" stop-color="#c0bfbc"/><stop offset=".111" stop-color="#b1b0ab"/><stop offset=".75" stop-color="#dddbd9"/><stop offset="1" stop-color="#c0bfbc"/></linearGradient><linearGradient id="x" x1="16" x2="88" y1="96" y2="96" gradientTransform="translate(70 -22)" gradientUnits="userSpaceOnUse"><stop offset="0" stop-color="#1856a3"/><stop offset=".111" stop-color="#1a5fb4"/><stop offset=".611" stop-color="#1a5fb4"/><stop offset=".681" stop-color="#287ce0"/><stop offset=".75" stop-color="#1a5fb4"/><stop offset=".819" stop-color="#287ce0"/><stop offset=".889" stop-color="#1a5fb4"/><stop offset="1" stop-color="#1a5fb4"/></linearGradient><linearGradient xlink:href="#a" id="o" x1="78" x2="78" y1="72" y2="54" gradientTransform="translate(70 -22)"/><linearGradient id="n" x1="10" x2="82" y1="64" y2="64" gradientTransform="translate(70 -22)" gradientUnits="userSpaceOnUse"><stop offset="0" stop-color="#22925d"/><stop offset=".111" stop-color="#26a269"/><stop offset=".611" stop-color="#26a269"/><stop offset=".681" stop-color="#2cbc7c"/><stop offset=".75" stop-color="#26a269"/><stop offset=".819" stop-color="#2cbc7c"/><stop offset=".889" stop-color="#26a269"/><stop offset="1" stop-color="#26a269"/></linearGradient><linearGradient xlink:href="#a" id="e" x1="72" x2="72" y1="40" y2="22" gradientTransform="translate(70 -22)"/><linearGradient id="c" x1="4" x2="76" y1="32" y2="32" gradientTransform="translate(70 -22)" gradientUnits="userSpaceOnUse"><stop offset="0" stop-color="#ac1925"/><stop offset=".111" stop-color="#c01c28"/><stop offset=".611" stop-color="#c01c28"/><stop offset=".681" stop-color="#e43842"/><stop offset=".75" stop-color="#c01c28"/><stop offset=".819" stop-color="#e43842"/><stop offset=".889" stop-color="#c01c28"/><stop offset="1" stop-color="#c01c28"/></linearGradient><linearGradient id="b" x1="20" x2="108" y1="68" y2="68" gradientTransform="translate(70 -22)" gradientUnits="userSpaceOnUse"><stop offset="0" stop-color="#77767b"/><stop offset=".036" stop-color="#c0bfbc"/><stop offset=".071" stop-color="#9a9996"/><stop offset=".929" stop-color="#9a9996"/><stop offset=".964" stop-color="#c0bfbc"/><stop offset="1" stop-color="#77767b"/></linearGradient></defs><image width="60.882" height="62.001" preserveAspectRatio="none"/><rect width="56.002" height="56.002" x="2.441" y="1.969" fill="#f2f2f2" rx="13.002" ry="13.002" style="fill:#dbcdc2;fill-opacity:1"/><path d="M2.439 43.998v1c0 7.203 5.8 13.004 13.004 13.004h29.996c7.203 0 13.004-5.8 13.004-13.004v-1c0 7.203-5.8 13.002-13.004 13.002H15.443A12.975 12.975 0 0 1 2.439 43.998" opacity=".1"/><path fill="#fff" d="M2.439 16.004v-1C2.439 7.801 8.239 2 15.443 2h29.996c7.203 0 13.004 5.8 13.004 13.004v1c0-7.203-5.8-13.002-13.004-13.002H15.443A12.975 12.975 0 0 0 2.439 16.004" opacity=".5"/><path fill="url(#b)" d="M98-6h72a8 8 0 0 1 8 8v88a8 8 0 0 1-8 8H98a8 8 0 0 1-8-8V2a8 8 0 0 1 8-8m0 0" style="fill:url(#b)" transform="matrix(.37558 0 0 .37558 -19.887 14.225)"/><path fill="#deddda" d="M16.92 8.967h27.043a3.005 3.005 0 0 1 3.004 3.006v34.553a3.005 3.005 0 0 1-3.004 3.004H16.92a3.005 3.005 0 0 1-3.004-3.004V11.973a3.005 3.005 0 0 1 3.004-3.006m0 0"/><path fill="url(#c)" d="M74 9.996v.008A7.994 7.994 0 0 0 81.996 18h35.762c2.715 0 5.32-1.078 7.242-3a4.244 4.244 0 0 1 6 0c1.922 1.922 4.527 3 7.242 3H146V2h-7.758c-2.715 0-5.32 1.078-7.242 3a4.244 4.244 0 0 1-6 0 10.24 10.24 0 0 0-7.242-3H81.996A7.994 7.994 0 0 0 74 9.996m0 0" style="fill:url(#c)" transform="matrix(.37558 0 0 .37558 -19.887 14.225)"/><path fill="#b5835a" d="m34.948 14.977 6.009-.752v.752l-1.61 6.008h-4.399zm0 0"/><path fill="#ed333b" d="M7.906 17.229v.003a3 3 0 0 0 3.003 3.003h13.432c1.02 0 1.999-.405 2.719-1.127a1.594 1.594 0 0 1 2.254 0 3.85 3.85 0 0 0 2.72 1.127h2.914v-6.008h-2.914c-1.02 0-1.999.404-2.72 1.125a1.594 1.594 0 0 1-2.253 0 3.85 3.85 0 0 0-2.72-1.127H10.909a3 3 0 0 0-3.003 3.004m0 0"/><path fill="#fff" fill-opacity=".133" d="M7.93 17.043a4 4 0 0 0-.024.185v.005a3 3 0 0 0 3.003 3.002h13.432c1.02 0 1.999-.405 2.719-1.127a1.594 1.594 0 0 1 2.254 0 3.85 3.85 0 0 0 2.72 1.127h2.914v-.376h-2.914c-1.02 0-1.999-.404-2.72-1.127a1.594 1.594 0 0 0-2.253 0 3.85 3.85 0 0 1-2.72 1.127H10.909a3.004 3.004 0 0 1-2.98-2.816m0 0"/><path fill="#cdab8f" d="M34.948 14.225h6.009l-1.61 6.009h-4.399zm0 0"/><path fill="url(#e)" d="M138 0h8v18h-8zm0 0" style="fill:url(#e)" transform="matrix(.37558 0 0 .37558 -19.887 14.225)"/><path fill="#a51d2d" d="m40.957 14.225-1.61 6.009H37.2l-.054.752h2.2l1.61-6.01zm0 0"/><path fill="#ed333b" d="M37.952 14.225a.751.751 0 1 0 0 1.503.751.751 0 1 1 0 1.503h-.76a.74.74 0 0 0-.742.74v.011c0 .415.336.75.752.75a.746.746 0 0 1 .75.744.756.756 0 0 1-.75.759h2.146l1.609-6.008zm0 0"/><g clip-path="url(#f)" transform="matrix(.37558 0 0 .37558 6.403 5.963)"><g clip-path="url(#g)"><path fill-opacity=".224" d="m92 24-14 2h14zm0 0"/></g></g><g clip-path="url(#h)" transform="matrix(.37558 0 0 .37558 6.403 5.963)"><g clip-path="url(#i)"><path fill-opacity=".224" d="m92 28-12 1 12 1zm0 0"/></g></g><g clip-path="url(#j)" transform="matrix(.37558 0 0 .37558 6.403 5.963)"><g clip-path="url(#k)"><path fill-opacity=".224" d="M92 34H77l15 1zm0 0"/></g></g><g clip-path="url(#l)" transform="matrix(.37558 0 0 .37558 6.403 5.963)"><g clip-path="url(#m)"><path fill-opacity=".224" d="m92 30-12 1h12zm0 0"/></g></g><path fill="#878787" fill-opacity=".333" d="M31.943 14.225h.376v6.761h-.376zm0 0"/><path fill="#fff" fill-opacity=".333" d="M34.572 14.225h.376v6.761h-.376zm0 0"/><path fill-opacity=".188" d="M31.943 20.235h3.005v.751h-3.005zm0 0"/><path fill-opacity=".224" d="M12.413 17.23a1.502 1.502 0 1 1-3.003.002 1.502 1.502 0 0 1 3.003-.001m0 0"/><path fill="url(#n)" d="M80 41.996v.008A7.994 7.994 0 0 0 87.996 50h35.762c2.715 0 5.32-1.078 7.242-3a4.244 4.244 0 0 1 6 0c1.922 1.922 4.527 3 7.242 3H152V34h-7.758c-2.715 0-5.32 1.078-7.242 3a4.244 4.244 0 0 1-6 0 10.24 10.24 0 0 0-7.242-3H87.996A7.994 7.994 0 0 0 80 41.996m0 0" style="fill:url(#n)" transform="matrix(.37558 0 0 .37558 -19.887 14.225)"/><path fill="#b5835a" d="m37.202 26.996 6.009-.753v.753l-1.612 6.008h-4.397Zm0 0"/><path fill="#2ec27e" d="M10.159 29.248v.003a3 3 0 0 0 3.004 3.003h13.43a3.84 3.84 0 0 0 2.72-1.128 1.594 1.594 0 0 1 2.254 0 3.85 3.85 0 0 0 2.72 1.128H37.2v-6.01h-2.913c-1.021 0-2 .405-2.72 1.127a1.594 1.594 0 0 1-2.254 0 3.85 3.85 0 0 0-2.72-1.127h-13.43a3 3 0 0 0-3.004 3.004m0 0"/><path fill="#fff" fill-opacity=".133" d="M10.185 29.06q-.016.094-.025.185v.006a3 3 0 0 0 3.003 3.003h13.43a3.84 3.84 0 0 0 2.72-1.128 1.594 1.594 0 0 1 2.254 0 3.85 3.85 0 0 0 2.72 1.128H37.2v-.376h-2.913c-1.021 0-2-.406-2.72-1.127a1.594 1.594 0 0 0-2.254 0 3.85 3.85 0 0 1-2.72 1.127h-13.43a3 3 0 0 1-2.978-2.816m0 0"/><path fill="#cdab8f" d="M37.202 26.244h6.009l-1.612 6.009h-4.397Zm0 0"/><path fill="url(#o)" d="M144 32h8v18h-8zm0 0" style="fill:url(#o)" transform="matrix(.37558 0 0 .37558 -19.887 14.225)"/><path fill="#26a269" d="m43.21 26.244-1.61 6.009h-2.145l-.054.752h2.2l1.61-6.01zm0 0"/><path fill="#2ec27e" d="M40.206 26.244a.75.75 0 1 0 0 1.502.751.751 0 1 1 0 1.503h-.762a.74.74 0 0 0-.741.741V30c0 .415.337.751.752.751a.746.746 0 0 1 .751.742.757.757 0 0 1-.752.76H41.6l1.61-6.009zm0 0"/><g clip-path="url(#p)" transform="matrix(.37558 0 0 .37558 6.403 5.963)"><g clip-path="url(#q)"><path fill-opacity=".224" d="m98 56-14 2h14zm0 0"/></g></g><g clip-path="url(#r)" transform="matrix(.37558 0 0 .37558 6.403 5.963)"><g clip-path="url(#s)"><path fill-opacity=".224" d="m98 60-12 1 12 1zm0 0"/></g></g><g clip-path="url(#t)" transform="matrix(.37558 0 0 .37558 6.403 5.963)"><g clip-path="url(#u)"><path fill-opacity=".224" d="M98 66H83l15 1zm0 0"/></g></g><g clip-path="url(#v)" transform="matrix(.37558 0 0 .37558 6.403 5.963)"><g clip-path="url(#w)"><path fill-opacity=".224" d="m98 62-12 1h12zm0 0"/></g></g><path fill="#878787" fill-opacity=".333" d="M34.197 26.244h.376v6.761h-.376zm0 0"/><path fill="#fff" fill-opacity=".333" d="M36.826 26.244h.376v6.761h-.376zm0 0"/><path fill-opacity=".188" d="M34.197 32.254H37.2v.75h-3.004zm0 0"/><path fill-opacity=".224" d="M14.667 29.249a1.502 1.502 0 1 1-3.003.002 1.502 1.502 0 0 1 3.003-.002m0 0"/><path fill="url(#x)" d="M86 73.996v.008A7.994 7.994 0 0 0 93.996 82h35.762c2.715 0 5.32-1.078 7.242-3a4.244 4.244 0 0 1 6 0c1.922 1.922 4.527 3 7.242 3H158V66h-7.758c-2.715 0-5.32 1.078-7.242 3a4.244 4.244 0 0 1-6 0 10.24 10.24 0 0 0-7.242-3H93.996A7.994 7.994 0 0 0 86 73.996m0 0" style="fill:url(#x)" transform="matrix(.37558 0 0 .37558 -19.887 14.225)"/><path fill="#b5835a" d="m39.455 39.014 6.008-.752v.753l-1.61 6.008h-4.398zm0 0"/><path fill="#3584e4" d="M12.413 41.265v.004a3 3 0 0 0 3.003 3.003h13.431c1.02 0 2-.405 2.72-1.127a1.594 1.594 0 0 1 2.254 0 3.85 3.85 0 0 0 2.72 1.127h2.913v-6.009H36.54c-1.02 0-1.998.405-2.72 1.127a1.594 1.594 0 0 1-2.253 0 3.85 3.85 0 0 0-2.72-1.128H15.415a3 3 0 0 0-3.003 3.003m0 0"/><path fill="#fff" fill-opacity=".133" d="M12.438 41.08q-.015.092-.025.185v.006a3.003 3.003 0 0 0 3.003 3h13.431c1.021 0 2-.404 2.72-1.126a1.594 1.594 0 0 1 2.254 0 3.85 3.85 0 0 0 2.72 1.127h2.913v-.376H36.54a3.84 3.84 0 0 1-2.72-1.127 1.594 1.594 0 0 0-2.253 0 3.84 3.84 0 0 1-2.72 1.128H15.415a3 3 0 0 1-2.977-2.816m0 0"/><path fill="#cdab8f" d="M39.455 38.262h6.008l-1.61 6.01h-4.398zm0 0"/><path fill="url(#y)" d="M150 64h8v18h-8zm0 0" style="fill:url(#y)" transform="matrix(.37558 0 0 .37558 -19.887 14.225)"/><path fill="#1a5fb4" d="m45.464 38.262-1.612 6.01h-2.144l-.054.751h2.2l1.61-6.008zm0 0"/><path fill="#3584e4" d="M42.46 38.262a.751.751 0 1 0 0 1.503.751.751 0 1 1 0 1.503h-.762a.74.74 0 0 0-.741.741v.01c0 .415.336.75.752.75a.746.746 0 0 1 .75.745.756.756 0 0 1-.751.758h2.146l1.61-6.009zm0 0"/><g clip-path="url(#z)" transform="matrix(.37558 0 0 .37558 6.403 5.963)"><g clip-path="url(#A)"><path fill-opacity=".224" d="m104 88-14 2h14zm0 0"/></g></g><g clip-path="url(#B)" transform="matrix(.37558 0 0 .37558 6.403 5.963)"><g clip-path="url(#C)"><path fill-opacity=".224" d="m104 92-12 1 12 1zm0 0"/></g></g><g clip-path="url(#D)" transform="matrix(.37558 0 0 .37558 6.403 5.963)"><g clip-path="url(#E)"><path fill-opacity=".224" d="M104 98H89l15 1zm0 0"/></g></g><g clip-path="url(#F)" transform="matrix(.37558 0 0 .37558 6.403 5.963)"><g clip-path="url(#G)"><path fill-opacity=".224" d="m104 94-12 1h12zm0 0"/></g></g><path fill="#878787" fill-opacity=".333" d="M36.45 38.262h.376v6.761h-.376zm0 0"/><path fill="#fff" fill-opacity=".333" d="M39.079 38.262h.376v6.761h-.376zm0 0"/><path fill-opacity=".188" d="M36.45 44.272h3.005v.751H36.45Zm0 0"/><path fill-opacity=".224" d="M16.92 41.268a1.502 1.502 0 1 1-3.003 0 1.502 1.502 0 0 1 3.003 0m0 0"/><path fill="#ed333b" d="M43.21 21.361a1.128 1.128 0 1 1-2.253 0 1.128 1.128 0 0 1 2.254 0m-1.503-4.506a1.128 1.128 0 1 0 2.254 0 1.128 1.128 0 0 0-2.254 0m-1.127-5.259a.75.75 0 1 1-1.501 0 .75.75 0 0 1 1.501 0m0 0"/><path fill="#2ec27e" d="M44.713 34.132a1.128 1.128 0 1 1-2.254 0 1.128 1.128 0 0 1 2.254 0m0 0"/><path fill="#2ec27e" d="M43.962 35.258a1.502 1.502 0 1 1-3.003.002 1.502 1.502 0 0 1 3.003-.002m0 0"/><path fill="#ed333b" d="M42.834 15.728a1.128 1.128 0 1 0 2.255 0 1.128 1.128 0 0 0-2.254 0m0 0"/><g fill="#3584e4"><path d="M39.455 47.277a1.502 1.502 0 1 0 3.003.001 1.502 1.502 0 0 0-3.003-.001m0 0"/><path d="M40.957 46.9a1.128 1.128 0 1 0 2.255 0 1.128 1.128 0 0 0-2.255 0m-3.755-11.267a1.128 1.128 0 1 0 2.253 0 1.128 1.128 0 0 0-2.254 0m-10.516 0a1.128 1.128 0 1 0 2.254 0 1.128 1.128 0 0 0-2.254 0m0 0"/><path d="M28.187 35.258a1.502 1.502 0 1 0 3.004.002 1.502 1.502 0 0 0-3.004-.002m0 0"/></g><path fill="#ed333b" d="M29.689 11.596a1.128 1.128 0 1 1-2.253 0 1.128 1.128 0 0 1 2.254 0m0 0"/><path fill="#ed333b" d="M30.441 12.536a.94.94 0 1 1-1.88-.002.94.94 0 0 1 1.88.002m0 0"/><path fill="#3584e4" d="M28.187 46.9a1.128 1.128 0 1 0 2.254 0 1.128 1.128 0 0 0-2.254 0m0 0"/><path fill="#2ec27e" d="M32.694 24.367a1.128 1.128 0 1 1-2.254 0 1.128 1.128 0 0 1 2.254 0m0 0"/></svg>