<svg xmlns="http://www.w3.org/2000/svg" width="64" height="64" image-rendering="optimizeSpeed"><g transform="translate(-7.612 27.617)"><rect width="56.002" height="56.002" x="12.121" y="-23.507" fill="#5a5a5a" rx="13.002" ry="13.002"/><circle cx="40.141" cy="4.568" r="30.001" fill="none"/><path d="M12.119 18.522v1c0 7.203 5.8 13.004 13.004 13.004h29.996c7.203 0 13.004-5.8 13.004-13.004v-1c0 7.203-5.8 13.002-13.004 13.002H25.123c-7.187.016-13.018-5.814-13.004-13.002" opacity=".15"/><path fill="#fff" d="M12.119-9.472v-1c0-7.203 5.8-13.004 13.004-13.004h29.996c7.203 0 13.004 5.8 13.004 13.004v1c0-7.203-5.8-13.002-13.004-13.002H25.123c-7.187-.016-13.018 5.814-13.004 13.002" opacity=".15"/></g><path d="M95.253 1.187c-15.464 0-28 12.076-28 26.973a26.2 26.2 0 0 0 3.56 13.14l-2.151 8.227-.283 1.111c-.559 2.197 1.451 4.975 3.731 4.495l10.668-2.838a28.9 28.9 0 0 0 12.475 2.838c15.464 0 28-12.077 28-26.973 0-14.897-12.536-26.973-28-26.973" style="opacity:.2" transform="matrix(.74429 0 0 .7149 -38.485 12.42)"/><path d="M95.253.187c-15.464 0-28 12.076-28 26.973a26.2 26.2 0 0 0 3.56 13.14l-2.151 8.227-.283 1.111c-.559 2.197 1.451 4.975 3.731 4.495l10.668-2.838a28.9 28.9 0 0 0 12.475 2.838c15.464 0 28-12.077 28-26.973 0-14.897-12.536-26.973-28-26.973" style="fill:#e4e4e4" transform="matrix(.74429 0 0 .7149 -38.485 12.42)"/><path d="M95.253 5.187c-7.607.003-14.764 3.462-19.287 9.324l20.405.98-25.06 11.181q-.056.757-.058 1.515c0 12.703 10.745 23 24 23 8.636-.001 16.605-4.449 20.868-11.646l-20.365-.978 23.497-10.484c-.062-12.659-10.789-22.891-24-22.892" style="opacity:.1" transform="matrix(.74429 0 0 .7149 -38.485 12.42)"/><path d="M95.253 4.187c-7.607.003-14.764 3.462-19.287 9.324l20.405.98-25.06 11.181q-.056.757-.058 1.515c0 12.703 10.745 23 24 23 8.636-.001 16.605-4.449 20.868-11.646l-20.365-.978 23.497-10.484c-.062-12.659-10.789-22.891-24-22.892" style="fill:#2bae39" transform="matrix(.74429 0 0 .7149 -38.485 12.42)"/><path d="M95.253.187c-15.464 0-28 12.076-28 26.973 0 .147.013.293.015.44.311-14.637 12.716-26.413 27.985-26.413 15.289 0 27.708 11.808 27.986 26.473.003-.167.014-.332.014-.5 0-14.897-12.537-26.973-28-26.973M70.637 40.973l-1.974 7.554-.284 1.112a3.3 3.3 0 0 0-.054 1.295c.015-.1.03-.198.054-.295l.284-1.112 2.15-8.228c-.062-.107-.115-.218-.176-.326" style="fill:#fff;opacity:.2" transform="matrix(.74429 0 0 .7149 -38.485 12.42)"/></svg>