<svg xmlns="http://www.w3.org/2000/svg" xml:space="preserve" width="64" height="64"><defs><linearGradient id="a" x1="8.364" x2="8.364" y1="2.37" y2="14.902" gradientTransform="translate(126.643 .03)scale(3.7796)" gradientUnits="userSpaceOnUse"><stop offset="0" stop-color="#20ef85" style="stop-color:#269adc;stop-opacity:1"/><stop offset="1" stop-color="#12a97e" style="stop-color:#269adc;stop-opacity:1"/></linearGradient></defs><rect width="56.002" height="56.002" x="3.999" y="3.999" fill="url(#a)" rx="13.002" ry="13.002" style="fill:url(#a);stroke-width:3.7796"/><text xml:space="preserve" x="15.268" y="11.09" style="font-size:3.33333px;line-height:1.25;font-family:sans-serif"><tspan x="15.268" y="11.09" style="font-style:normal;font-variant:normal;font-weight:400;font-stretch:normal;font-size:3.33333px;font-family:&quot;微软雅黑&quot;;-inkscape-font-specification:&quot;微软雅黑&quot;;fill:#fff;fill-opacity:1">Dictionary - Thesaurus</tspan></text><text xml:space="preserve" x="14.062" y="41.722" style="font-size:29.3333px;line-height:1.25;font-family:sans-serif"><tspan x="14.062" y="41.722" style="font-style:normal;font-variant:normal;font-weight:400;font-stretch:normal;font-size:29.3333px;font-family:&quot;方正小标宋_GBK&quot;;-inkscape-font-specification:&quot;方正小标宋_GBK&quot;;fill:#fff;fill-opacity:1">Aa</tspan></text><path d="m16.991 12.52 30.018-.015" style="fill:#c8c8c8;fill-opacity:.5;stroke:#000;stroke-width:.05;stroke-linecap:butt;stroke-linejoin:miter;stroke-dasharray:none;stroke-opacity:1"/><g style="fill:#e7e6e7;fill-opacity:1"><path d="M969.975 905.855 842.142 796.532a39.382 39.382 0 1 0-55.686 55.686L914.29 961.54a39.382 39.382 0 1 0 55.686-55.686z" style="fill:#000;fill-opacity:1" transform="translate(12.857 15.183)scale(.03865)"/><path d="M468.41 841.112a381.135 381.135 0 1 0 0-762.27 381.135 381.135 0 0 0 0 762.27m0 78.763a459.898 459.898 0 1 1 0-919.796 459.898 459.898 0 0 1 0 919.796" style="fill:#e7e6e7;fill-opacity:1;stroke:none;stroke-width:18.1101;stroke-dasharray:none;stroke-opacity:1" transform="translate(12.857 15.183)scale(.03865)"/></g><path d="m8.631 7.035-.546.494-.463.433-.328.355-.345.394-.266.341-.426.595-.364.569-.338.58-.262.523-.194.409-.183.464-.2.483-.157.502-.176.644-.114.489-.085.506-.09.545-.049.434-.022.323-.024.535-.003 1.339v29.103l.036.981.058.574.062.4.067.365.106.526.119.476.118.393.137.439.128.345.165.432.18.4.311.63.362.676.443.62.51.665.606.75.646.663.73.604z" style="fill:#2772b6;stroke:none;stroke-width:.1;stroke-linecap:butt;stroke-linejoin:miter;stroke-dasharray:none;stroke-opacity:1;fill-opacity:1"/></svg>