<svg width="64" height="64" version="1.1" xmlns="http://www.w3.org/2000/svg">
 <rect x="4" y="3.9686" width="56.002" height="56.002" rx="13.002" ry="13.002" fill="#474747"/>
 <path d="m17.002 6c-5.0459 0-9.2642 3.3768-10.555 8h17.678v-5.625h-2.8125v-2.375h-4.3105zm12.748 0v7.2539a3.938 3.938 0 0 0 0 7.1172v8.8164l6.1875 6.1875h1.6875v1.125h9v-1.125h11.346v-3.375h-11.346v-1.125h-9v1.125h-0.5625l-3.9375-3.9375v-7.6914a3.938 3.938 0 0 0 0-7.1172v-7.2539h-3.375zm7.875 0v8h9v-1.125h10.553c-1.6176-4.0352-5.551-6.875-10.178-6.875h-9.375zm-22.5 13.625v1.125h-9.0938v3.375h9.0938v1.125h9v-5.625h-9zm22.5 0v5.625h9v-1.125h11.346v-3.375h-11.346v-1.125h-9zm-27.779 10.688a3.375 3.375 0 1 0 2.9238 5.0645h3.2637v1.123h9v-1.125h0.7793l3.9375 3.9375v18.627h3.375v-19.75l-6.1875-6.1875h-1.9043v-1.125h-9v1.125h-3.2637a3.374 3.374 0 0 0-2.9238-1.6875v-0.001953zm39.029 8.4395-1.125 1.125h-8.4375l-1.6875 1.6855v16.377h9.375c6.0777 0 10.971-4.893 10.971-10.971v-8.2168h-9.0957zm-37.688 2.248-1.125 1.125h-4.0312v4.8438c0 6.0777 4.893 10.971 10.971 10.971h8.2461v-14.127l-1.6855-1.6875h-7.875l-1.125-1.125h-3.375z" fill="#ffffff" opacity=".35" stroke-width=".92745"/>
 <path d="m3.998 45.998v1c0 7.2032 5.8006 13.004 13.004 13.004h29.996c7.2032 0 13.004-5.8006 13.004-13.004v-1c0 7.2033-5.8007 13.002-13.004 13.002h-29.996c-7.2033 0-13.004-5.7988-13.004-13.002z" fill="#000000" opacity=".12"/>
 <path d="m3.998 18.004v-1c0-7.2032 5.8006-13.004 13.004-13.004h29.996c7.2032 0 13.004 5.8006 13.004 13.004v1c0-7.2033-5.8007-13.002-13.004-13.002h-29.996c-7.2033 0-13.004 5.7988-13.004 13.002z" fill="#ffffff" opacity=".2"/>
</svg>
