<?xml version="1.0" encoding="UTF-8" standalone="no"?>
<svg
   width="64"
   height="64"
   version="1.1"
   id="svg128"
   xmlns="http://www.w3.org/2000/svg"
   xmlns:svg="http://www.w3.org/2000/svg">
  <defs
     id="defs57" />
  <image
     width="60.882"
     height="62.000999"
     x="1.559"
     y="2"
     preserveAspectRatio="none"
     id="image57" />
  <rect
     width="56.001999"
     height="56.001999"
     x="4"
     y="3.9690001"
     fill="#f2f2f2"
     rx="13.002"
     ry="13.002"
     style="fill:#4dd3f5;fill-opacity:1"
     id="rect57" />
  <path
     d="m 3.998,45.998 v 1 c 0,7.203 5.8,13.004 13.004,13.004 h 29.996 c 7.203,0 13.004,-5.8 13.004,-13.004 v -1 C 60.002,53.201 54.202,59 46.998,59 H 17.002 A 12.975,12.975 0 0 1 3.998,45.998"
     opacity="0.1"
     id="path57" />
  <path
     fill="#ffffff"
     d="m 3.998,18.004 v -1 C 3.998,9.801 9.798,4 17.002,4 h 29.996 c 7.203,0 13.004,5.8 13.004,13.004 v 1 c 0,-7.203 -5.8,-13.002 -13.004,-13.002 H 17.002 A 12.975,12.975 0 0 0 3.998,18.004"
     opacity="0.5"
     id="path58" />
  <rect
     style="display:inline;fill:#1b082e;fill-opacity:1;stroke-width:1.43333;stroke-dasharray:none;paint-order:markers fill stroke"
     id="rect2751-2-0"
     width="43"
     height="43"
     x="10.5"
     y="10.496967"
     rx="86"
     ry="86" />
  <path
     id="rect2751-3-9-0-9-9"
     style="fill:#9133ea;fill-opacity:1;stroke-width:1.43333;stroke-dasharray:none"
     d="m 52.962187,27.165533 c -11.835019,0.0027 -18.281981,0.173967 -24.772602,9.680598 -3.615998,5.295741 -7.617552,7.712784 -12.82441,8.804362 3.936764,4.799855 9.919746,7.85254 16.640101,7.85254 11.744548,0 21.231538,-9.322543 21.494411,-21.001693 v -0.996616 c -0.03354,-1.489639 -0.218311,-2.940672 -0.5375,-4.339191 z" />
  <path
     id="path20336-1-6-3"
     style="fill:#161616;fill-opacity:1;stroke-width:1.43333;stroke-dasharray:none"
     d="m 45.075428,29.815482 a 4.4080663,4.5228938 78.011505 0 0 -4.998478,3.938284 4.4080663,4.5228938 78.011505 0 0 0.637805,2.779142 4.4080663,4.5228938 78.011505 0 0 -2.311207,-0.917464 4.4080663,4.5228938 78.011505 0 0 -4.998506,3.938284 4.4080663,4.5228938 78.011505 0 0 0.543605,2.617731 4.4080663,4.5228938 78.011505 0 0 -2.180501,-0.826981 4.4080663,4.5228938 78.011505 0 0 -4.998478,3.938285 4.4080663,4.5228938 78.011505 0 0 3.979879,4.841522 4.4080663,4.5228938 78.011505 0 0 4.998507,-3.938284 4.4080663,4.5228938 78.011505 0 0 -0.540825,-2.61745 4.4080663,4.5228938 78.011505 0 0 2.177706,0.826702 4.4080663,4.5228938 78.011505 0 0 4.998492,-3.938286 4.4080663,4.5228938 78.011505 0 0 -0.637819,-2.779142 4.4080663,4.5228938 78.011505 0 0 2.311207,0.917469 4.4080663,4.5228938 78.011505 0 0 4.998507,-3.938287 4.4080663,4.5228938 78.011505 0 0 -3.979894,-4.841525 z m -0.263834,2.274135 a 2.1246032,2.179948 78.011504 0 1 0.155718,0.02123 2.1246032,2.179948 78.011504 0 1 0.151646,0.03176 2.1246032,2.179948 78.011504 0 1 0.147906,0.03976 2.1246032,2.179948 78.011504 0 1 0.146329,0.05331 2.1246032,2.179948 78.011504 0 1 0.139463,0.06381 2.1246032,2.179948 78.011504 0 1 0.135737,0.07167 2.1246032,2.179948 78.011504 0 1 0.131724,0.08236 2.1246032,2.179948 78.011504 0 1 0.122406,0.08971 2.1246032,2.179948 78.011504 0 1 0.11868,0.09757 2.1246032,2.179948 78.011504 0 1 0.108933,0.107615 2.1246032,2.179948 78.011504 0 1 0.09962,0.114981 2.1246032,2.179948 78.011504 0 1 0.09345,0.119827 2.1246032,2.179948 78.011504 0 1 0.08414,0.127179 2.1246032,2.179948 78.011504 0 1 0.0721,0.134218 2.1246032,2.179948 78.011504 0 1 0.06608,0.136367 2.1246032,2.179948 78.011504 0 1 0.05117,0.143234 2.1246032,2.179948 78.011504 0 1 0.04529,0.145424 2.1246032,2.179948 78.011504 0 1 0.03096,0.146744 2.1246032,2.179948 78.011504 0 1 0.02193,0.151339 2.1246032,2.179948 78.011504 0 1 0.01147,0.150224 2.1246032,2.179948 78.011504 0 1 -0.0029,0.151605 2.1246032,2.179948 78.011504 0 1 -0.01147,0.153461 2.1246032,2.179948 78.011504 0 1 -0.08686,0.408298 2.1246032,2.179948 78.011504 0 1 -0.171571,0.383217 2.1246032,2.179948 78.011504 0 1 -0.240656,0.345895 2.1246032,2.179948 78.011504 0 1 -0.308181,0.294896 2.1246032,2.179948 78.011504 0 1 -0.357044,0.22922 2.1246032,2.179948 78.011504 0 1 -0.396904,0.158943 2.1246032,2.179948 78.011504 0 1 -0.418748,0.07942 2.1246032,2.179948 78.011504 0 1 -0.429112,-0.0017 2.1246032,2.179948 78.011504 0 1 -0.416772,-0.08344 2.1246032,2.179948 78.011504 0 1 -0.39087,-0.160857 2.1246032,2.179948 78.011504 0 1 -0.351296,-0.234191 2.1246032,2.179948 78.011504 0 1 -0.299022,-0.295222 2.1246032,2.179948 78.011504 0 1 -0.230638,-0.349109 2.1246032,2.179948 78.011504 0 1 -0.158583,-0.386044 2.1246032,2.179948 78.011504 0 1 -0.07683,-0.408222 2.1246032,2.179948 78.011504 0 1 0.0057,-0.416447 2.1246032,2.179948 78.011504 0 1 0.08973,-0.408022 2.1246032,2.179948 78.011504 0 1 0.169034,-0.386234 2.1246032,2.179948 78.011504 0 1 0.243451,-0.345613 2.1246032,2.179948 78.011504 0 1 0.305071,-0.292452 2.1246032,2.179948 78.011504 0 1 0.360153,-0.231673 2.1246032,2.179948 78.011504 0 1 0.39656,-0.156265 2.1246032,2.179948 78.011504 0 1 0.418749,-0.07942 2.1246032,2.179948 78.011504 0 1 0.426302,0.0014 z m -6.671837,5.799935 a 2.1246032,2.179948 78.011504 0 1 0.155703,0.02121 2.1246032,2.179948 78.011504 0 1 0.151661,0.03176 2.1246032,2.179948 78.011504 0 1 0.147892,0.03976 2.1246032,2.179948 78.011504 0 1 0.146314,0.05331 2.1246032,2.179948 78.011504 0 1 0.139463,0.06381 2.1246032,2.179948 78.011504 0 1 0.135737,0.07167 2.1246032,2.179948 78.011504 0 1 0.131724,0.08236 2.1246032,2.179948 78.011504 0 1 0.122406,0.08971 2.1246032,2.179948 78.011504 0 1 0.118537,0.09757 2.1246032,2.179948 78.011504 0 1 0.108933,0.107614 2.1246032,2.179948 78.011504 0 1 0.09962,0.114982 2.1246032,2.179948 78.011504 0 1 0.09345,0.119827 2.1246032,2.179948 78.011504 0 1 0.08414,0.12718 2.1246032,2.179948 78.011504 0 1 0.07195,0.134232 2.1246032,2.179948 78.011504 0 1 0.06608,0.136366 2.1246032,2.179948 78.011504 0 1 0.05117,0.143234 2.1246032,2.179948 78.011504 0 1 0.04529,0.145423 2.1246032,2.179948 78.011504 0 1 0.03096,0.146757 2.1246032,2.179948 78.011504 0 1 0.02193,0.151329 2.1246032,2.179948 78.011504 0 1 0.01147,0.150239 2.1246032,2.179948 78.011504 0 1 -0.0029,0.151589 2.1246032,2.179948 78.011504 0 1 -0.01147,0.153456 2.1246032,2.179948 78.011504 0 1 -0.08686,0.408312 2.1246032,2.179948 78.011504 0 1 -0.171571,0.383205 2.1246032,2.179948 78.011504 0 1 -0.240656,0.345893 2.1246032,2.179948 78.011504 0 1 -0.308167,0.294892 2.1246032,2.179948 78.011504 0 1 -0.357057,0.229222 2.1246032,2.179948 78.011504 0 1 -0.396891,0.158941 2.1246032,2.179948 78.011504 0 1 -0.418748,0.07942 2.1246032,2.179948 78.011504 0 1 -0.429097,-0.0017 2.1246032,2.179948 78.011504 0 1 -0.416814,-0.08339 2.1246032,2.179948 78.011504 0 1 -0.390884,-0.160844 2.1246032,2.179948 78.011504 0 1 -0.351295,-0.234206 2.1246032,2.179948 78.011504 0 1 -0.299022,-0.29522 2.1246032,2.179948 78.011504 0 1 -0.230638,-0.349107 2.1246032,2.179948 78.011504 0 1 -0.15857,-0.386041 2.1246032,2.179948 78.011504 0 1 -0.0741,-0.407929 2.1246032,2.179948 78.011504 0 1 0.0057,-0.416462 2.1246032,2.179948 78.011504 0 1 0.08973,-0.408018 2.1246032,2.179948 78.011504 0 1 0.166309,-0.386506 2.1246032,2.179948 78.011504 0 1 0.243438,-0.345598 2.1246032,2.179948 78.011504 0 1 0.305071,-0.292451 2.1246032,2.179948 78.011504 0 1 0.360153,-0.231687 2.1246032,2.179948 78.011504 0 1 0.39656,-0.156253 2.1246032,2.179948 78.011504 0 1 0.418763,-0.07942 2.1246032,2.179948 78.011504 0 1 0.426302,0.0014 z m -6.635387,5.729033 a 2.1246032,2.179948 78.011504 0 1 0.155717,0.02123 2.1246032,2.179948 78.011504 0 1 0.151647,0.03176 2.1246032,2.179948 78.011504 0 1 0.147905,0.03976 2.1246032,2.179948 78.011504 0 1 0.146329,0.05331 2.1246032,2.179948 78.011504 0 1 0.139464,0.06381 2.1246032,2.179948 78.011504 0 1 0.135736,0.07167 2.1246032,2.179948 78.011504 0 1 0.131724,0.08236 2.1246032,2.179948 78.011504 0 1 0.122406,0.08957 2.1246032,2.179948 78.011504 0 1 0.118537,0.09757 2.1246032,2.179948 78.011504 0 1 0.108934,0.107615 2.1246032,2.179948 78.011504 0 1 0.09962,0.114982 2.1246032,2.179948 78.011504 0 1 0.09345,0.119827 2.1246032,2.179948 78.011504 0 1 0.08414,0.12718 2.1246032,2.179948 78.011504 0 1 0.07195,0.134232 2.1246032,2.179948 78.011504 0 1 0.06608,0.136367 2.1246032,2.179948 78.011504 0 1 0.05117,0.143232 2.1246032,2.179948 78.011504 0 1 0.04529,0.145426 2.1246032,2.179948 78.011504 0 1 0.03096,0.146744 2.1246032,2.179948 78.011504 0 1 0.02193,0.151341 2.1246032,2.179948 78.011504 0 1 0.01147,0.150222 2.1246032,2.179948 78.011504 0 1 -0.0029,0.151605 2.1246032,2.179948 78.011504 0 1 -0.01147,0.153466 2.1246032,2.179948 78.011504 0 1 -0.08686,0.408298 2.1246032,2.179948 78.011504 0 1 -0.171571,0.383217 2.1246032,2.179948 78.011504 0 1 -0.240656,0.345894 2.1246032,2.179948 78.011504 0 1 -0.308195,0.294895 2.1246032,2.179948 78.011504 0 1 -0.357029,0.229215 2.1246032,2.179948 78.011504 0 1 -0.396905,0.158945 2.1246032,2.179948 78.011504 0 1 -0.418748,0.07942 2.1246032,2.179948 78.011504 0 1 -0.429112,-0.0017 2.1246032,2.179948 78.011504 0 1 -0.416798,-0.08339 2.1246032,2.179948 78.011504 0 1 -0.390871,-0.160859 2.1246032,2.179948 78.011504 0 1 -0.351295,-0.23419 2.1246032,2.179948 78.011504 0 1 -0.299037,-0.295223 2.1246032,2.179948 78.011504 0 1 -0.230637,-0.34911 2.1246032,2.179948 78.011504 0 1 -0.15857,-0.386042 2.1246032,2.179948 78.011504 0 1 -0.07683,-0.408224 2.1246032,2.179948 78.011504 0 1 0.0057,-0.416449 2.1246032,2.179948 78.011504 0 1 0.08973,-0.408018 2.1246032,2.179948 78.011504 0 1 0.169033,-0.386235 2.1246032,2.179948 78.011504 0 1 0.243453,-0.345601 2.1246032,2.179948 78.011504 0 1 0.30507,-0.292452 2.1246032,2.179948 78.011504 0 1 0.360154,-0.231685 2.1246032,2.179948 78.011504 0 1 0.39656,-0.156266 2.1246032,2.179948 78.011504 0 1 0.418734,-0.07942 2.1246032,2.179948 78.011504 0 1 0.426316,0.0014 z" />
  <path
     id="path20336-1-6-4-6"
     style="fill:#e7e7e7;fill-opacity:1;stroke-width:1.43333;stroke-dasharray:none"
     d="m 33.608761,15.302982 a 4.4080663,4.5228938 78.011505 0 0 -4.998478,3.938284 4.4080663,4.5228938 78.011505 0 0 0.637805,2.779141 4.4080663,4.5228938 78.011505 0 0 -2.311207,-0.917463 4.4080663,4.5228938 78.011505 0 0 -4.998507,3.938284 4.4080663,4.5228938 78.011505 0 0 0.543607,2.617731 4.4080663,4.5228938 78.011505 0 0 -2.180502,-0.826982 4.4080663,4.5228938 78.011505 0 0 -4.998473,3.938286 4.4080663,4.5228938 78.011505 0 0 3.979875,4.841522 4.4080663,4.5228938 78.011505 0 0 4.998506,-3.938284 4.4080663,4.5228938 78.011505 0 0 -0.540826,-2.617451 4.4080663,4.5228938 78.011505 0 0 2.177707,0.826702 4.4080663,4.5228938 78.011505 0 0 4.998493,-3.938285 4.4080663,4.5228938 78.011505 0 0 -0.63782,-2.779143 4.4080663,4.5228938 78.011505 0 0 2.311208,0.91747 4.4080663,4.5228938 78.011505 0 0 4.998506,-3.938287 4.4080663,4.5228938 78.011505 0 0 -3.979894,-4.841525 z m -0.263834,2.274135 a 2.1246032,2.179948 78.011504 0 1 0.155718,0.02123 2.1246032,2.179948 78.011504 0 1 0.151647,0.03176 2.1246032,2.179948 78.011504 0 1 0.147905,0.03976 2.1246032,2.179948 78.011504 0 1 0.146329,0.05331 2.1246032,2.179948 78.011504 0 1 0.139463,0.06381 2.1246032,2.179948 78.011504 0 1 0.135737,0.07167 2.1246032,2.179948 78.011504 0 1 0.131723,0.08236 2.1246032,2.179948 78.011504 0 1 0.122407,0.08971 2.1246032,2.179948 78.011504 0 1 0.11868,0.09757 2.1246032,2.179948 78.011504 0 1 0.108934,0.107615 2.1246032,2.179948 78.011504 0 1 0.09962,0.114982 2.1246032,2.179948 78.011504 0 1 0.09345,0.119827 2.1246032,2.179948 78.011504 0 1 0.08414,0.127179 2.1246032,2.179948 78.011504 0 1 0.0721,0.134218 2.1246032,2.179948 78.011504 0 1 0.06608,0.136367 2.1246032,2.179948 78.011504 0 1 0.05117,0.143233 2.1246032,2.179948 78.011504 0 1 0.04529,0.145425 2.1246032,2.179948 78.011504 0 1 0.03096,0.146743 2.1246032,2.179948 78.011504 0 1 0.02193,0.15134 2.1246032,2.179948 78.011504 0 1 0.01147,0.150223 2.1246032,2.179948 78.011504 0 1 -0.0029,0.151605 2.1246032,2.179948 78.011504 0 1 -0.01147,0.153462 2.1246032,2.179948 78.011504 0 1 -0.08686,0.408297 2.1246032,2.179948 78.011504 0 1 -0.17157,0.383218 2.1246032,2.179948 78.011504 0 1 -0.240657,0.345895 2.1246032,2.179948 78.011504 0 1 -0.30818,0.294895 2.1246032,2.179948 78.011504 0 1 -0.357044,0.229221 2.1246032,2.179948 78.011504 0 1 -0.396904,0.158943 2.1246032,2.179948 78.011504 0 1 -0.418749,0.07942 2.1246032,2.179948 78.011504 0 1 -0.429111,-0.0017 2.1246032,2.179948 78.011504 0 1 -0.416799,-0.08341 2.1246032,2.179948 78.011504 0 1 -0.39087,-0.160857 2.1246032,2.179948 78.011504 0 1 -0.351296,-0.234191 2.1246032,2.179948 78.011504 0 1 -0.299021,-0.295222 2.1246032,2.179948 78.011504 0 1 -0.230639,-0.349109 2.1246032,2.179948 78.011504 0 1 -0.158583,-0.386044 2.1246032,2.179948 78.011504 0 1 -0.07683,-0.408222 2.1246032,2.179948 78.011504 0 1 0.0057,-0.416448 2.1246032,2.179948 78.011504 0 1 0.08973,-0.408021 2.1246032,2.179948 78.011504 0 1 0.169033,-0.386234 2.1246032,2.179948 78.011504 0 1 0.243452,-0.345613 2.1246032,2.179948 78.011504 0 1 0.305071,-0.292451 2.1246032,2.179948 78.011504 0 1 0.360153,-0.231674 2.1246032,2.179948 78.011504 0 1 0.396561,-0.156266 2.1246032,2.179948 78.011504 0 1 0.418748,-0.07942 2.1246032,2.179948 78.011504 0 1 0.426302,0.0014 z m -6.671837,5.799935 a 2.1246032,2.179948 78.011504 0 1 0.155703,0.02121 2.1246032,2.179948 78.011504 0 1 0.151661,0.03176 2.1246032,2.179948 78.011504 0 1 0.147892,0.03976 2.1246032,2.179948 78.011504 0 1 0.146314,0.05331 2.1246032,2.179948 78.011504 0 1 0.139464,0.06381 2.1246032,2.179948 78.011504 0 1 0.135736,0.07166 2.1246032,2.179948 78.011504 0 1 0.131723,0.08236 2.1246032,2.179948 78.011504 0 1 0.122407,0.08971 2.1246032,2.179948 78.011504 0 1 0.118537,0.09757 2.1246032,2.179948 78.011504 0 1 0.108933,0.107615 2.1246032,2.179948 78.011504 0 1 0.09962,0.114982 2.1246032,2.179948 78.011504 0 1 0.09345,0.119826 2.1246032,2.179948 78.011504 0 1 0.08414,0.12718 2.1246032,2.179948 78.011504 0 1 0.07195,0.134232 2.1246032,2.179948 78.011504 0 1 0.06608,0.136367 2.1246032,2.179948 78.011504 0 1 0.05117,0.143233 2.1246032,2.179948 78.011504 0 1 0.04529,0.145423 2.1246032,2.179948 78.011504 0 1 0.03096,0.146758 2.1246032,2.179948 78.011504 0 1 0.02193,0.151328 2.1246032,2.179948 78.011504 0 1 0.01147,0.150239 2.1246032,2.179948 78.011504 0 1 -0.0029,0.15159 2.1246032,2.179948 78.011504 0 1 -0.01147,0.153455 2.1246032,2.179948 78.011504 0 1 -0.08686,0.408313 2.1246032,2.179948 78.011504 0 1 -0.17157,0.383204 2.1246032,2.179948 78.011504 0 1 -0.240657,0.345894 2.1246032,2.179948 78.011504 0 1 -0.308166,0.294892 2.1246032,2.179948 78.011504 0 1 -0.357058,0.229222 2.1246032,2.179948 78.011504 0 1 -0.396889,0.15894 2.1246032,2.179948 78.011504 0 1 -0.418749,0.07942 2.1246032,2.179948 78.011504 0 1 -0.429097,-0.0017 2.1246032,2.179948 78.011504 0 1 -0.416813,-0.08339 2.1246032,2.179948 78.011504 0 1 -0.390884,-0.160845 2.1246032,2.179948 78.011504 0 1 -0.351297,-0.234205 2.1246032,2.179948 78.011504 0 1 -0.299021,-0.295221 2.1246032,2.179948 78.011504 0 1 -0.230638,-0.349106 2.1246032,2.179948 78.011504 0 1 -0.158569,-0.386042 2.1246032,2.179948 78.011504 0 1 -0.0741,-0.407928 2.1246032,2.179948 78.011504 0 1 0.0057,-0.416462 2.1246032,2.179948 78.011504 0 1 0.08973,-0.408018 2.1246032,2.179948 78.011504 0 1 0.16631,-0.386506 2.1246032,2.179948 78.011504 0 1 0.243438,-0.345598 2.1246032,2.179948 78.011504 0 1 0.30507,-0.292447 2.1246032,2.179948 78.011504 0 1 0.360154,-0.231687 2.1246032,2.179948 78.011504 0 1 0.39656,-0.156252 2.1246032,2.179948 78.011504 0 1 0.418763,-0.07942 2.1246032,2.179948 78.011504 0 1 0.426302,0.0014 z m -6.635387,5.729033 a 2.1246032,2.179948 78.011504 0 1 0.155717,0.02123 2.1246032,2.179948 78.011504 0 1 0.151646,0.03176 2.1246032,2.179948 78.011504 0 1 0.147906,0.03976 2.1246032,2.179948 78.011504 0 1 0.14633,0.05331 2.1246032,2.179948 78.011504 0 1 0.139463,0.06381 2.1246032,2.179948 78.011504 0 1 0.135736,0.07166 2.1246032,2.179948 78.011504 0 1 0.131723,0.08236 2.1246032,2.179948 78.011504 0 1 0.122407,0.08957 2.1246032,2.179948 78.011504 0 1 0.118537,0.09757 2.1246032,2.179948 78.011504 0 1 0.108933,0.107615 2.1246032,2.179948 78.011504 0 1 0.09962,0.114981 2.1246032,2.179948 78.011504 0 1 0.09345,0.119828 2.1246032,2.179948 78.011504 0 1 0.08414,0.12718 2.1246032,2.179948 78.011504 0 1 0.07195,0.134231 2.1246032,2.179948 78.011504 0 1 0.06608,0.136367 2.1246032,2.179948 78.011504 0 1 0.05117,0.143233 2.1246032,2.179948 78.011504 0 1 0.04529,0.145425 2.1246032,2.179948 78.011504 0 1 0.03096,0.146744 2.1246032,2.179948 78.011504 0 1 0.02193,0.151341 2.1246032,2.179948 78.011504 0 1 0.01147,0.150223 2.1246032,2.179948 78.011504 0 1 -0.0029,0.151605 2.1246032,2.179948 78.011504 0 1 -0.01147,0.153465 2.1246032,2.179948 78.011504 0 1 -0.08686,0.408299 2.1246032,2.179948 78.011504 0 1 -0.171569,0.383216 2.1246032,2.179948 78.011504 0 1 -0.240657,0.345894 2.1246032,2.179948 78.011504 0 1 -0.308196,0.294896 2.1246032,2.179948 78.011504 0 1 -0.357029,0.229214 2.1246032,2.179948 78.011504 0 1 -0.396904,0.158945 2.1246032,2.179948 78.011504 0 1 -0.418748,0.07942 2.1246032,2.179948 78.011504 0 1 -0.429112,-0.0017 2.1246032,2.179948 78.011504 0 1 -0.416799,-0.08339 2.1246032,2.179948 78.011504 0 1 -0.390869,-0.160858 2.1246032,2.179948 78.011504 0 1 -0.351296,-0.234191 2.1246032,2.179948 78.011504 0 1 -0.299037,-0.295222 2.1246032,2.179948 78.011504 0 1 -0.230633,-0.34911 2.1246032,2.179948 78.011504 0 1 -0.15857,-0.386043 2.1246032,2.179948 78.011504 0 1 -0.07683,-0.408223 2.1246032,2.179948 78.011504 0 1 0.0057,-0.416449 2.1246032,2.179948 78.011504 0 1 0.08973,-0.408019 2.1246032,2.179948 78.011504 0 1 0.169033,-0.386234 2.1246032,2.179948 78.011504 0 1 0.243447,-0.345602 2.1246032,2.179948 78.011504 0 1 0.305071,-0.292451 2.1246032,2.179948 78.011504 0 1 0.360153,-0.231685 2.1246032,2.179948 78.011504 0 1 0.396561,-0.156267 2.1246032,2.179948 78.011504 0 1 0.418734,-0.07942 2.1246032,2.179948 78.011504 0 1 0.426316,0.0014 z" />
</svg>
