<svg xmlns="http://www.w3.org/2000/svg" xmlns:xlink="http://www.w3.org/1999/xlink" width="64" height="64" class="icon" viewBox="0 0 1024 1024"><defs><linearGradient id="a" x1="8.364" x2="8.364" y1="2.37" y2="14.902" gradientTransform="translate(2026.29 .484)scale(60.47363)" gradientUnits="userSpaceOnUse"><stop offset="0" stop-color="#20ef85"/><stop offset="1" stop-color="#12a97e"/></linearGradient><linearGradient xlink:href="#a" id="c" x1="8.364" x2="8.364" y1="2.37" y2="14.902" gradientTransform="translate(2026.29 .484)scale(60.47363)" gradientUnits="userSpaceOnUse"/><clipPath id="d" clipPathUnits="userSpaceOnUse"><rect width="896.038" height="896.038" x="63.981" y="63.981" fill="url(#a)" rx="208.029" ry="208.029" style="fill:url(#c);stroke-width:60.4736"/></clipPath></defs><path fill="#0377fc" d="M254.4 64h515.2Q960 64 960 254.4v515.2Q960 960 769.6 960H254.4Q64 960 64 769.6V254.4Q64 64 254.4 64" clip-path="url(#d)" style="stroke-width:.88293"/><path fill="#fff" d="M809.584 529.248 736 456.616 624.28 344 511.72 455.272 399.16 344 287.44 456.56l-73.136 72.744a54.71 54.71 0 0 0 0 77.168L287.44 680l112.112-111.72L511.72 681.792 623.832 568.28 736 681.344l73.584-73.136a56.56 56.56 0 0 0 0-78.96" style="stroke-width:.88293"/><path fill="#e0ebfd" d="m404.853 325.69 118.794 118.793-237.588 237.588-118.794-118.794Z" style="stroke-width:.88293"/><path fill="#abc4fb" d="M397.518 342.395 515.622 447.9 404.126 580.62h-3.528z" style="stroke-width:.88293"/></svg>