<svg xmlns="http://www.w3.org/2000/svg" xmlns:xlink="http://www.w3.org/1999/xlink" width="64" height="64" class="icon" viewBox="0 0 1024 1024"><defs><linearGradient xlink:href="#a" id="c" x1="8.364" x2="8.364" y1="2.37" y2="14.902" gradientTransform="translate(2405.619 418.405)scale(60.47363)" gradientUnits="userSpaceOnUse"/><linearGradient id="a" x1="8.364" x2="8.364" y1="2.37" y2="14.902" gradientTransform="translate(2405.619 418.405)scale(60.47363)" gradientUnits="userSpaceOnUse"><stop offset="0" stop-color="#20ef85"/><stop offset="1" stop-color="#12a97e"/></linearGradient><clipPath id="d" clipPathUnits="userSpaceOnUse"><rect width="896.038" height="896.038" x="443.31" y="481.902" fill="url(#a)" rx="208.029" ry="208.029" style="fill:url(#c);stroke-width:60.4736"/></clipPath></defs><path d="M331.586 400.069h1119.485v1059.704H331.586z" clip-path="url(#d)" style="fill:#fff;fill-opacity:1;stroke:none;stroke-width:60.4725" transform="translate(-379.329 -417.921)"/><path fill="#e7b15b" d="M298.21 724.252c-16.592-4.194-20.512-5.562-30.176-10.211-14.951-7.203-24.615-14.223-38.746-28.171C207.68 664.445 192 629.8 192 603.18c0-6.473.091-6.655 2.28-6.655 2.278 0 2.278.091 2.278 7.567 0 13.675 2.37 23.704 9.39 39.385 12.673 28.444 36.377 53.06 64 66.552 11.032 5.38 24.616 9.938 35.374 11.852 7.476 1.368 8.843 1.823 8.843 3.282 0 2.37-3.646 2.188-15.954-.911m125.357 1.367c0-.73 1.459-2.735 3.282-4.558 3.19-3.191 3.19-3.191 1.732-6.109-.82-1.55-2.735-3.282-4.194-3.829-3.008-1.185-3.646-4.285-.911-4.285 3.647 0 6.382 1.824 8.752 5.835 2.735 4.74 2.553 6.473-1.55 11.123-2.826 3.19-7.111 4.285-7.111 1.823"/><path fill="#e7b15b" d="M308.786 709.118c-16.136-2.553-28.626-6.838-42.758-14.678-11.122-6.2-27.532-20.057-27.532-23.248 0-1.094-.638-1.733-1.641-1.733-1.641 0-2.827-1.458-8.752-10.21a1052 1052 0 0 0-5.106-7.567c-2.37-3.374-3.829-6.473-7.567-15.499-1.458-3.555-3.738-11.76-6.2-22.792-.91-3.647-1.276-11.396-1.276-23.704.092-17.504.183-18.69 3.009-29.356 1.55-6.017 3.738-13.22 4.74-15.954 3.01-7.476 9.847-19.601 15.408-27.168 5.744-7.75 19.328-21.334 23.157-23.066 1.367-.547 2.461-1.367 2.461-1.64 0-2.28 31.818-18.143 36.194-18.143.82 0 1.185.73 1.003 2.005-.182 1.55-1.915 2.553-7.567 4.832q-31.727 12.308-51.145 38.291c-21.151 28.262-28.171 59.897-21.425 96.091 1.185 6.2 6.108 21.242 8.479 25.983 8.023 15.772 20.604 30.45 36.285 42.484 2.279 1.733 4.285 3.374 4.558 3.738 1.459 1.915 20.24 10.485 28.718 13.037 15.59 4.741 18.143 5.197 33.55 5.744 13.128.547 14.313.73 14.313 2.188 0 1.641-.911 1.732-11.578 1.641-6.473-.091-15.134-.638-19.328-1.276m39.111-.456c0-1.732.639-1.824 17.322-1.824 16.684 0 17.322.092 17.322 1.824s-.638 1.823-17.322 1.823-17.322-.091-17.322-1.823m60.171 0c0-1.641.639-1.824 5.926-1.824 5.288 0 5.926.183 5.926 1.824 0 1.64-.638 1.823-5.926 1.823-5.287 0-5.926-.182-5.926-1.823m24.89-19.054c-13.858-6.93-27.26-24.89-29.995-40.023-3.009-16.41-3.282-21.698-2.826-44.764.638-35.1 4.376-55.795 16.775-92.17 18.507-54.793 39.202-90.257 68.285-117.425 9.025-8.479 26.53-20.786 35.829-25.163 5.379-2.552 6.837-2.826 14.678-2.826 7.84 0 9.208.274 14.587 2.826 9.572 4.65 17.96 11.214 35.282 27.533 29.356 27.898 45.31 45.584 66.917 74.485 3.009 4.011 6.564 8.66 7.932 10.393 5.56 7.02 26.985 38.929 34.188 50.78 2.735 4.559 3.373 6.473 3.373 10.302v4.741l-3.282-.273c-2.188-.183-3.738-.912-4.376-2.097-.547-1.003-2.188-3.647-3.738-5.926-1.459-2.28-3.464-5.38-4.285-7.02-2.37-4.285-12.034-17.778-14.222-19.692-1.824-1.641-1.824-1.641-2.37.09-.365 1.004-2.28 2.553-4.468 3.374-2.097.82-5.014 2.644-6.564 4.102-3.555 3.283-6.108 4.559-9.3 4.559-2.734 0-10.575 5.014-13.218 8.387-.821 1.094-3.009 2.462-4.924 3.009-2.552.73-4.467 2.28-7.658 6.29-2.279 3.01-4.74 5.653-5.47 5.835-.73.274-3.1 1.641-5.196 3.009-2.37 1.64-5.015 2.644-6.93 2.644-2.46 0-4.466 1.003-8.295 4.193-2.827 2.28-5.106 4.65-5.106 5.288 0 1.277-6.108 4.194-8.752 4.194-2.553 0-6.929 2.826-12.763 8.296-4.832 4.467-6.291 5.38-9.026 5.38-3.556 0-7.385 2.37-11.67 7.11-1.64 1.732-3.555 2.918-4.832 2.918-1.458 0-3.829 1.64-7.02 4.923-2.552 2.644-6.199 5.379-7.931 5.926s-4.65 2.552-6.564 4.376c-2.918 2.826-3.738 3.19-6.838 2.826-3.1-.456-3.829-.091-6.837 3.19-1.915 2.098-3.465 4.65-3.465 5.744 0 2.097-1.55 3.1-4.65 3.1-1.002 0-3.737 1.003-6.108 2.37-10.393 5.562-14.769 8.844-14.769 10.94s-4.285 4.194-8.023 3.92c-3.738-.273-6.2 1.46-9.663 6.565-.821 1.367-3.1 2.826-5.106 3.464-2.553.73-4.923 2.644-8.296 6.564-2.644 2.918-5.744 5.653-6.929 5.926-1.185.365-2.097 1.094-2.097 1.733 0 1.823-6.2 6.837-8.387 6.837-1.824 0-1.641.365 1.55 3.647 2.005 2.006 5.287 4.467 7.293 5.47 5.197 2.462 7.75 5.652 7.75 9.573 0 3.19 0 3.19-3.83 3.1-2.279-.092-5.926-1.095-8.66-2.553"/><path fill="#e7b15b" d="M192 573.095c0-4.832 3.1-19.784 5.288-25.8 4.102-10.94 5.835-14.861 10.028-22.52 5.106-9.207 9.573-15.863 11.579-17.595.729-.638 1.367-1.64 1.367-2.188 0-1.732 18.78-19.692 26.439-25.344 6.564-4.832 22.61-14.405 24.25-14.405 2.189-.091 3.191-2.006 4.103-7.385 2.097-13.493 9.117-30.814 17.23-42.757 4.56-6.656 15.773-18.143 22.793-23.34 15.772-11.578 36.102-19.054 53.333-19.6 7.476-.274 8.297-.912 12.217-9.391 5.835-12.581 15.316-25.618 26.712-36.65 7.658-7.475 17.96-15.863 19.419-15.863.456 0 1.64-.82 2.735-1.823 2.826-2.644 18.963-10.393 28.262-13.493 15.59-5.288 25.71-7.293 36.74-7.385 6.018-.09 6.565.092 6.565 1.733 0 1.64-.638 1.823-7.476 1.823-4.194 0-9.026.456-10.758.912a974 974 0 0 1-11.943 3.008c-13.675 3.556-32.73 11.943-41.39 18.234-7.567 5.561-15.863 12.58-20.969 17.96-9.481 9.937-10.849 11.396-12.307 13.949-.73 1.276-2.827 4.284-4.559 6.746-1.732 2.37-5.196 8.479-7.75 13.493l-4.558 9.117-4.102.273c-20.148 1.094-41.755 8.661-56.342 19.784-3.647 2.735-7.476 5.014-8.479 5.014-.911 0-1.732.638-1.732 1.459 0 .729-2.553 4.285-5.561 7.931-12.217 14.131-19.966 29.265-23.248 45.493-1.185 6.017-2.735 11.487-3.464 12.217-.73.638-5.015 3.19-9.664 5.56-10.12 5.289-23.43 15.135-32.547 24.07-19.419 19.053-34.37 47.407-36.923 69.652-1.185 10.393-1.185 10.484-3.465 10.484-1.458 0-1.823-.547-1.823-3.373"/><path fill="#e7b15b" d="M291.373 464.97c0-6.565 2.37-16.684 6.017-25.892 2.37-6.017 6.473-13.22 7.932-13.767.365-.182.638-.82.638-1.367 0-1.277 13.402-16.137 14.587-16.137.365 0 2.006-1.185 3.647-2.735 1.64-1.459 3.464-2.735 4.193-2.735.73 0 1.277-.365 1.277-.82 0-2.553 25.253-11.944 32.273-11.944 5.653 0 4.012 2.37-2.826 4.103-13.128 3.282-23.886 8.205-32.365 14.77-5.105 3.92-18.233 17.595-18.871 19.692-.183.638-1.459 3.008-2.918 5.287-3.282 5.197-8.57 20.695-9.39 27.35-1.094 8.206-1.55 9.938-2.917 9.938-1.003 0-1.277-1.367-1.277-5.744m92.08-72.662c-1.276-.364-5.47-.547-9.3-.273-6.746.547-7.11.456-7.11-1.368 0-1.64.73-1.914 6.655-2.461 3.738-.365 8.296-.182 10.667.365 6.564 1.55 6.655 1.458 9.025-5.106 5.288-14.678 13.493-28.718 22.701-38.655 3.738-3.92 7.385-7.202 8.205-7.202.912 0 2.006-.912 2.462-2.006.547-1.094 1.732-2.37 2.735-2.917s2.188-1.55 2.553-2.097c.364-.638 1.276-1.186 1.914-1.186.73 0 1.459-.547 1.732-1.185.183-.638 2.006-1.914 3.92-2.917 2.006-1.003 3.738-2.097 4.012-2.37 1.003-1.277 11.031-5.835 18.051-8.206 4.194-1.458 11.943-3.464 17.231-4.558 8.479-1.732 11.487-1.915 25.71-1.459 13.948.456 17.23.82 25.618 3.191 9.846 2.644 22.883 7.75 24.889 9.664.638.547 2.643 1.55 4.558 2.188 6.2 2.188 11.943-2.188 10.94-8.387-.273-1.824-.912-3.282-1.367-3.282-.456 0-2.37-1.277-4.285-2.735-4.832-3.92-19.966-10.394-32.183-13.676-15.954-4.467-16.319-4.558-22.336-4.558-5.288 0-5.743-.182-5.743-1.915 0-1.914.182-2.005 8.57-1.367 8.934.638 10.848 1.094 29.72 7.02 15.955 5.105 24.069 9.299 28.445 14.769 4.65 5.926 4.832 10.484.547 14.496-5.653 5.196-9.39 5.379-18.69.82-9.025-4.467-15.863-7.11-25.345-9.755-8.57-2.461-10.21-2.644-26.894-2.644-19.054 0-21.972.456-36.012 5.197-16.319 5.652-28.17 13.037-41.572 26.256-12.308 12.126-22.336 28.08-27.624 44.49l-1.641 4.741-4.194-.091c-2.37-.091-5.288-.456-6.564-.82"/><path fill="#99632b" d="M560.775 736.286c-22.61-1.368-41.208-3.83-59.715-7.932-20.057-4.285-49.504-15.043-57.892-21.15-1.459-1.004-4.74-3.01-7.293-4.286-5.835-2.917-20.24-16.501-25.436-23.795-5.288-7.384-9.846-16.592-12.855-26.074-2.461-7.658-2.553-8.205-2.917-36.74-.365-19.966-.183-30.177.547-33.095.547-2.188 1.823-8.843 2.826-14.769 3.008-17.14 9.39-41.481 15.134-57.162 9.846-26.712 20.24-49.504 30.085-66.188 17.687-29.903 37.106-51.51 60.536-67.373 12.308-8.297 13.857-9.938 15.316-15.955 1.915-7.567 6.747-13.584 13.22-16.775 13.31-6.29 32.729-11.852 43.487-12.49 8.022-.456 23.612-.364 31.544.091 26.347 1.733 59.077 12.126 82.598 26.166 12.034 7.202 11.396 6.746 32.638 22.974 4.468 3.373 5.926 2.826 14.131-5.105 14.405-13.767 39.567-25.436 55.34-25.527 11.122 0 15.954 1.64 22.153 7.749C825.345 369.88 832 384.286 832 397.414c0 5.561-.273 6.655-2.097 8.387-2.735 2.553-4.923 2.553-15.407-.182-15.955-4.194-26.986-3.92-36.376.82-5.926 2.918-15.955 10.485-17.322 12.946-1.277 2.28-1.003 2.827 7.658 16.958 3.373 5.379 6.108 10.028 6.108 10.21s1.185 2.37 2.553 4.741c5.652 9.664 13.675 30.177 17.504 44.581 7.202 27.624 8.296 59.26 3.1 88.798-3.647 20.422-12.308 45.584-21.698 62.906-5.38 10.029-8.296 13.402-14.86 16.593-5.744 2.826-5.835 2.826-13.129 1.823-9.025-1.276-10.12-.82-18.051 7.658-23.066 24.616-46.04 38.2-88.707 52.33-16.683 5.562-20.512 6.565-33.732 8.206-13.766 1.823-36.011 2.826-46.77 2.097m30.997-5.288c6.564-.547 18.872-2.37 27.806-4.194 5.38-1.094 37.106-11.305 38.656-12.581.547-.365 3.1-1.459 5.56-2.37 7.659-2.827 22.52-10.211 28.628-14.314 3.19-2.188 7.11-4.74 8.752-5.743 5.288-3.282 13.493-10.667 23.886-21.242l10.21-10.485 9.756.547c8.934.547 10.12.456 13.766-1.367 5.197-2.553 8.387-6.656 14.04-17.778 14.04-27.624 23.612-65.368 23.612-93.265 0-16.046-3.1-39.111-7.02-52.695-2.005-7.203-2.096-5.38-.182 3.92 2.644 12.49 4.103 45.128 2.735 60.9-1.64 18.78-7.02 42.12-12.307 53.516-1.277 2.735-2.37 5.47-2.37 6.108 0 1.732-7.385 17.596-11.397 24.342-2.006 3.373-4.65 6.929-5.926 7.84-4.65 3.283-15.772 4.832-18.051 2.553-1.276-1.276-1.459-10.393-.182-11.213 1.094-.73 1.185-16.775.09-21.88-2.46-11.397-6.29-21.79-15.68-42.303-5.38-11.76-21.242-39.202-24.524-42.302l-2.006-2.005 2.006 4.102c1.094 2.28 2.917 5.379 4.011 6.838 2.826 3.829 18.325 32.911 20.695 38.837 10.211 25.527 12.4 35.282 11.396 50.872-.547 10.12-2.37 15.408-7.293 21.972-3.647 4.832-20.969 22.153-26.348 26.347-7.476 5.653-28.17 17.504-35.555 20.33-2.644 1.004-6.2 2.553-8.023 3.465-1.824.912-6.382 2.553-10.029 3.647-3.738 1.094-9.663 2.917-13.219 4.102-9.482 3.1-35.373 7.567-50.051 8.661-47.317 3.465-88.16-2.097-129.641-17.777-10.576-4.012-11.852-3.374-2.097 1.094 14.951 6.746 23.339 9.572 46.496 15.772 9.025 2.461 35.282 6.2 50.142 7.293 23.886 1.732 24.433 1.732 39.658.456M443.168 699.91c-2.826-2.188-8.934-5.197-8.205-4.103.547.912 8.479 5.47 9.573 5.47.273 0-.365-.638-1.368-1.367m-.456-10.85c0-1.276-4.467-5.287-7.11-6.381-6.018-2.553-20.24-18.872-20.24-23.248 0-.73.638-.274 1.55.912 3.19 4.832 6.108 7.293 8.66 7.293 2.645 0 8.935-4.74 8.935-6.837 0-.639.912-1.368 2.097-1.733 1.185-.273 4.285-3.008 6.929-5.926 3.373-3.92 5.743-5.834 8.296-6.564 2.006-.638 4.285-2.097 5.014-3.19 4.65-7.112 9.482-10.12 12.034-7.568 1.277 1.277 5.744-1.185 5.744-3.19 0-2.097 4.376-5.38 14.678-10.94 3.556-1.915 6.29-2.827 10.211-3.191.365-.092.638-1.003.638-2.189 0-3.19 7.202-10.666 10.211-10.666 1.368 0 2.735.456 3.1 1.003.364.638 1.823-.274 3.92-2.28 1.823-1.732 4.74-3.737 6.473-4.284s5.379-3.282 7.931-5.926c3.191-3.282 5.562-4.923 7.02-4.923 1.277 0 3.191-1.186 4.832-2.918 4.285-4.832 9.664-8.205 12.49-7.658 2.097.365 3.465-.456 8.297-4.923 5.743-5.379 10.12-8.205 12.672-8.205 2.644 0 8.752-2.918 8.752-4.194 0-.638 2.28-3.008 5.106-5.288 3.829-3.19 5.834-4.193 8.296-4.193 1.914 0 4.558-1.003 6.929-2.644 2.097-1.368 4.467-2.735 5.196-3.009.73-.182 3.191-2.826 5.47-5.835 3.191-4.01 5.106-5.56 7.658-6.29 1.915-.547 4.103-1.915 4.924-3.009 2.643-3.373 10.484-8.387 13.219-8.387 3.282 0 5.561-1.185 10.575-5.561 2.097-1.915 4.194-3.465 4.559-3.374 1.64.456 4.467-1.367 5.379-3.464 1.55-3.282 1.367-5.288-.73-7.202-1.002-.912-1.823-2.188-1.823-2.918 0-.638-.73-2.37-1.55-3.738l-1.55-2.461 2.462 2.188c1.367 1.276 2.461 2.644 2.461 3.19 0 .548 2.644 4.195 5.926 8.024 6.564 7.84 14.223 18.324 16.684 22.883.82 1.55 2.917 4.832 4.558 7.202 1.55 2.37 2.918 4.65 2.918 5.105s.638 1.368 1.367 2.006c2.644 2.188 1.55-2.735-2.005-8.57-7.203-11.851-28.627-43.76-34.188-50.78-1.368-1.732-4.923-6.382-7.932-10.393-21.607-28.9-37.561-46.587-66.917-74.485-24.433-23.065-35.556-30.268-47.134-30.268-7.567 0-13.858 2.827-28.81 12.946-37.925 25.619-65.002 66.644-87.247 132.376-11.943 35.1-16.046 57.072-16.775 89.436-.456 20.24-.091 25.8 2.826 42.029 2.735 15.134 16.137 33.094 29.994 40.023 4.559 2.37 7.02 3.1 7.02 2.188M698.53 532.07c-.73-1.46-2.006-3.374-2.826-4.377-1.459-1.732-1.55-1.732-.274.456.73 1.276 1.824 3.19 2.462 4.376.547 1.094 1.276 2.006 1.55 2.006.182 0-.183-1.094-.912-2.462m-18.78-28.536c-1.095-1.46-2.189-2.735-2.371-2.735-.274 0 .365 1.276 1.459 2.735 1.094 1.55 2.188 2.735 2.37 2.735.273 0-.365-1.186-1.459-2.735m76.125-87.157c.729-3.191 15.59-13.949 22.792-16.502 7.02-2.461 27.441-2.188 38.017.547 4.467 1.094 8.387 1.733 8.934 1.46 1.094-.639 1.185-10.759.183-14.132-.456-1.64-.73-.365-1.094 4.558-.456 6.656-.547 6.838-3.009 7.112-1.459.182-6.746-.82-11.852-2.188-7.658-2.097-11.214-2.553-19.874-2.644-8.935 0-10.94.273-12.4 1.64-1.002.821-2.37 1.55-3.099 1.55s-5.744 3.374-11.214 7.568c-5.47 4.102-10.666 7.84-11.487 8.296-1.459.82-1.367 1.185.82 4.285 1.642 2.37 2.462 2.917 2.644 1.823.092-.82.456-2.37.639-3.373"/><path fill="#99632b" d="M302.313 724.707c-38.017-7.84-69.743-29.538-89.709-61.173-12.217-19.42-18.598-38.2-18.872-55.157 0-4.194-.273-5.38-.82-4.103-.456 1.094-.82-4.285-.82-13.948-.092-8.661.273-16.41.729-17.322.455-.82 1.276-5.197 1.732-9.755 2.461-22.154 17.504-50.507 36.923-69.653 9.299-9.117 22.61-18.963 33.094-24.342 4.832-2.461 9.117-4.923 9.572-5.47.365-.547 1.824-5.926 3.009-11.943 6.108-30.085 28.627-57.983 56.707-70.29 13.492-5.926 21.515-8.023 35.19-9.117l7.567-.638 4.559-9.117c2.553-5.014 6.017-11.123 7.75-13.584 1.731-2.462 4.375-6.108 5.834-8.205 3.738-5.288 17.322-19.146 23.795-24.16 10.94-8.479 21.515-14.496 34.552-19.692 5.562-2.188 11.305-3.83 27.442-7.84 4.832-1.277 36.376-1.277 41.026-.092 24.615 6.382 40.205 12.4 46.86 18.143 7.202 6.108 7.932 12.763 2.006 17.595-4.65 3.92-9.117 3.738-18.143-.73-17.322-8.57-30.359-12.033-48.136-12.672-10.85-.455-14.314-.182-22.519 1.46-25.618 5.287-42.758 14.586-61.265 33.367-10.758 10.849-20.057 26.62-24.798 41.663-1.823 5.926-1.55 5.744-10.757 4.012-8.297-1.641-19.237-.547-32.365 3.282-14.952 4.285-23.43 9.39-34.826 20.877-14.496 14.587-22.245 31.545-23.43 51.328l-.548 9.937-11.851 5.197c-12.855 5.561-14.131 6.29-23.704 13.31-13.675 10.12-25.254 23.43-33.459 38.656-5.561 10.12-7.476 15.134-10.94 28.535-2.644 10.302-2.917 12.217-2.917 26.621-.092 10.029.364 17.414 1.185 20.97 2.461 11.03 4.74 19.236 6.2 22.791 3.92 9.482 5.196 12.034 7.11 14.587 1.094 1.55 2.644 4.011 3.465 5.561 3.373 6.564 16.136 20.604 25.71 28.354 11.304 9.116 29.446 18.233 42.848 21.606 14.77 3.738 21.698 4.103 75.214 3.738 56.342-.364 56.068-.364 58.712 4.923 2.37 4.559 1.915 8.023-1.641 11.579l-3.1 3.1-57.344-.092c-54.975-.182-57.619-.182-66.827-2.097"/><path fill="#050506" d="M567.613 734.554c-30.36-1.915-55.34-5.106-68.377-8.57-23.977-6.382-34.917-10.12-47.133-16.228-22.519-11.214-32.73-19.693-43.305-35.738-5.562-8.57-9.482-17.596-10.758-24.889-.456-2.553-1.276-7.293-1.823-10.302-.547-3.1-1.003-15.225-.912-26.986 0-25.071 2.006-40.66 8.205-65.003 6.746-26.074 10.849-38.017 22.518-65.55 19.875-46.86 46.496-81.868 78.496-103.11 6.747-4.468 12.764-8.935 13.493-9.938.638-1.094 2.006-4.65 3.009-7.932 3.1-9.846 6.2-12.672 19.6-17.595 6.2-2.28 16.411-5.379 22.61-6.838 10.94-2.735 11.761-2.735 30.36-2.552 24.341.364 33.458 1.823 56.068 8.752 13.493 4.102 29.903 11.396 40.843 17.96 9.664 5.835 23.613 15.59 27.989 19.601 4.102 3.738 6.929 5.379 9.117 5.379.82 0 4.467-2.826 8.205-6.382 7.658-7.293 15.954-12.854 26.894-18.051 14.314-6.838 18.325-7.932 30.542-7.932 12.763 0 14.495.73 22.245 9.208 8.66 9.482 13.219 19.966 14.13 32.82.456 6.474.365 7.75-1.185 9.574l-1.732 2.096-10.666-2.644c-18.781-4.65-33.186-3.646-42.85 3.009-8.113 5.561-14.13 10.484-14.586 12.034-.638 2.006 1.55 7.476 4.467 11.305 1.185 1.55 3.92 5.926 6.2 9.664 30.723 51.692 38.108 111.316 20.695 167.75-4.924 15.771-8.753 25.617-14.405 36.74-5.652 11.122-8.843 15.225-13.949 17.687-4.558 2.279-8.57 2.643-17.413 1.64l-6.29-.729-10.12 10.485c-10.393 10.575-18.598 17.96-23.886 21.242-1.641 1.003-5.561 3.555-8.752 5.743-6.109 4.103-20.969 11.487-28.627 14.314-2.462.911-5.014 2.005-5.47 2.37-1.094.82-29.174 10.302-35.1 11.76-3.829 1.004-12.855 2.553-26.439 4.468-7.202 1.003-24.98 1.823-31.908 1.368m16.866-13.129c14.678-1.094 40.57-5.561 50.05-8.66 3.556-1.186 9.482-3.01 13.22-4.103 3.647-1.094 8.205-2.735 10.029-3.647s5.379-2.461 8.023-3.464c7.384-2.827 28.08-14.678 35.555-20.33 5.379-4.195 22.701-21.516 26.348-26.348 4.193-5.562 6.564-11.943 7.202-19.237 1.094-12.399-1.459-23.521-11.396-48.137-2.37-5.926-16.32-32.455-20.513-38.837-1.64-2.462-4.558-7.385-6.382-10.85-5.56-10.21-24.797-38.563-36.832-54.244-1.276-1.641-3.555-4.741-5.105-6.838-13.857-19.51-34.735-43.305-59.624-67.829-25.8-25.618-38.108-35.647-48.319-39.658-11.214-4.376-17.048-3.373-31.362 5.288-21.333 13.037-35.008 25.253-50.507 45.128-12.125 15.68-28.627 44.034-34.37 59.26-1.185 3.281-3.373 8.387-4.65 11.395-9.664 21.425-20.148 58.074-23.612 82.051-4.194 29.721-4.285 49.14-.092 73.117 4.194 24.251 27.169 46.678 60.263 58.986 39.567 14.587 78.951 20.057 122.074 16.957m170.757-70.837c1.642-.82 4.194-3.191 5.653-5.288 4.102-5.926 13.675-25.618 13.675-28.171 0-.547 1.094-3.282 2.37-6.017 4.741-10.21 9.755-30.633 11.852-48.32 1.55-13.492 1.003-40.295-1.094-53.788-2.826-17.87-10.12-39.932-19.054-57.892-7.75-15.408-9.025-17.413-19.966-31.909-4.558-6.017-19.51-23.248-25.983-29.903-10.849-11.214-34.735-27.898-51.145-35.647-12.034-5.652-30.632-11.852-44.216-14.769-19.146-4.011-41.117-4.376-57.892-.912-13.128 2.735-28.992 7.294-34.006 9.755-6.929 3.465-11.578 9.117-11.578 14.04 0 2.735-.182 2.644 4.194.82 10.028-4.193 27.624 2.006 42.849 15.135 2.096 1.732 6.381 5.47 9.572 8.205 28.81 24.889 56.433 54.61 82.69 88.889 15.772 20.695 21.88 29.356 33.64 47.68 3.1 4.832 6.565 10.029 7.75 11.488 4.285 5.379 19.601 32.273 24.342 42.575 9.39 20.513 13.22 30.906 15.68 42.302 1.095 5.197 1.004 26.621-.09 27.35-1.277.821-1.094 4.468.273 5.835 1.276 1.277 5.926.639 10.484-1.458m-4.831-240.137c1.094-1.732 20.057-15.407 21.333-15.407.73 0 2.097-.73 3.1-1.55 1.55-1.459 3.646-1.641 15.59-1.55 11.851.091 14.86.364 21.97 2.461 4.468 1.277 8.48 2.097 8.844 1.824 2.188-1.277-.73-16.775-4.558-24.707-2.826-6.017-9.208-13.22-12.946-14.77-4.285-1.731-18.051-.546-26.895 2.28-7.567 2.462-21.333 9.39-28.17 14.04-5.744 4.011-18.781 16.866-18.781 18.69 0 2.005 16.501 19.6 18.416 19.692.82 0 1.823-.456 2.097-1.003"/></svg>