<?xml version="1.0" encoding="UTF-8" standalone="no"?>
<svg
   t="1715685541371"
   class="icon"
   viewBox="0 0 1024 1024"
   version="1.1"
   p-id="2726"
   width="64"
   height="64"
   id="svg7"
   sodipodi:docname="坚果云.svg"
   inkscape:version="1.3.2 (091e20e, 2023-11-25)"
   xmlns:inkscape="http://www.inkscape.org/namespaces/inkscape"
   xmlns:sodipodi="http://sodipodi.sourceforge.net/DTD/sodipodi-0.dtd"
   xmlns:xlink="http://www.w3.org/1999/xlink"
   xmlns="http://www.w3.org/2000/svg"
   xmlns:svg="http://www.w3.org/2000/svg">
  <defs
     id="defs7">
    <clipPath
       clipPathUnits="userSpaceOnUse"
       id="clipPath6">
      <rect
         width="896.03784"
         height="896.03784"
         x="443.30988"
         y="481.9024"
         fill="url(#b)"
         rx="208.0293"
         ry="208.0293"
         id="rect6"
         style="fill:url(#linearGradient6);stroke-width:60.4736" />
    </clipPath>
    <linearGradient
       inkscape:collect="always"
       xlink:href="#b"
       id="linearGradient6"
       gradientUnits="userSpaceOnUse"
       gradientTransform="matrix(60.473632,0,0,60.473632,2405.6187,418.4051)"
       x1="8.3640003"
       y1="2.3699999"
       x2="8.3640003"
       y2="14.902" />
    <linearGradient
       id="b"
       x1="8.3640003"
       x2="8.3640003"
       y1="2.3699999"
       y2="14.902"
       gradientTransform="matrix(60.473632,0,0,60.473632,2405.6188,418.4051)"
       gradientUnits="userSpaceOnUse">
      <stop
         offset="0"
         stop-color="#20ef85"
         id="stop7" />
      <stop
         offset="1"
         stop-color="#12a97e"
         id="stop8" />
    </linearGradient>
  </defs>
  <sodipodi:namedview
     id="namedview7"
     pagecolor="#ffffff"
     bordercolor="#666666"
     borderopacity="1.0"
     inkscape:showpageshadow="2"
     inkscape:pageopacity="0.0"
     inkscape:pagecheckerboard="0"
     inkscape:deskcolor="#d1d1d1"
     inkscape:zoom="7.527624"
     inkscape:cx="33.144589"
     inkscape:cy="41.314497"
     inkscape:window-width="1920"
     inkscape:window-height="1120"
     inkscape:window-x="0"
     inkscape:window-y="0"
     inkscape:window-maximized="1"
     inkscape:current-layer="layer3" />
  <rect
     style="fill:#ffffff;fill-opacity:1;stroke:none;stroke-width:60.4725"
     id="rect1"
     width="1119.4849"
     height="1059.7039"
     x="331.58636"
     y="400.0694"
     clip-path="url(#clipPath6)"
     transform="translate(-379.3288,-417.92133)" />
  <g
     inkscape:groupmode="layer"
     id="layer3"
     inkscape:label="Layer 1">
    <g
       id="g7"
       transform="matrix(0.52172366,0,0,0.52172366,174.67806,244.61617)">
      <path
         d="M 236.77816,919.32833 C 204.97474,911.2901 197.46075,908.66894 178.93788,899.757 150.27986,885.95222 131.757,872.49693 104.67167,845.76109 63.257338,804.69625 33.201365,738.29352 33.201365,687.26826 c 0,-12.40683 0.174744,-12.75631 4.368601,-12.75631 4.368601,0 4.368601,0.17474 4.368601,14.50375 0,26.2116 4.543345,45.43345 17.998634,75.48942 24.28942,54.52014 69.722869,101.70102 122.670309,127.56314 21.14403,10.3099 47.18089,19.0471 67.80068,22.71672 14.32901,2.62116 16.95017,3.49488 16.95017,6.29079 0,4.54334 -6.98976,4.19386 -30.5802,-1.74744 z m 240.27303,2.62116 c 0,-1.39795 2.79591,-5.24232 6.29079,-8.7372 6.11604,-6.11604 6.11604,-6.11604 3.32014,-11.70785 -1.5727,-2.97065 -5.24232,-6.29079 -8.03823,-7.33925 -5.76655,-2.27167 -6.98976,-8.21297 -1.74744,-8.21297 6.98976,0 12.23208,3.49488 16.77543,11.18362 5.24232,9.08668 4.89283,12.40682 -2.97065,21.31877 -5.41707,6.11604 -13.63004,8.21297 -13.63004,3.49488 z"
         fill="#e7b15b"
         p-id="2727"
         id="path1" />
      <path
         d="m 257.04846,890.32082 c -30.92969,-4.89283 -54.86962,-13.1058 -81.95494,-28.13379 -21.31878,-11.88259 -52.7727,-38.44368 -52.7727,-44.55973 0,-2.09692 -1.22321,-3.32013 -3.14539,-3.32013 -3.14539,0 -5.41707,-2.79591 -16.77543,-19.57133 -2.795904,-4.19386 -7.164505,-10.65939 -9.785666,-14.50376 -4.543345,-6.46553 -7.339249,-12.40682 -14.503754,-29.70648 -2.795904,-6.81502 -7.164505,-22.54198 -11.882594,-43.68601 -1.74744,-6.98976 -2.446416,-21.843 -2.446416,-45.43345 0.174744,-33.55085 0.349488,-35.82252 5.766553,-56.26757 2.970648,-11.53311 7.164505,-25.33789 9.086689,-30.58021 5.766553,-14.32901 18.872355,-37.56996 29.531738,-52.07372 11.00888,-14.85324 37.04574,-40.8901 44.38499,-44.21024 2.62116,-1.04846 4.71809,-2.62116 4.71809,-3.14539 0,-4.3686 60.98566,-34.77406 69.37337,-34.77406 1.5727,0 2.27168,1.39795 1.92219,3.84437 -0.34949,2.97065 -3.66963,4.89283 -14.50376,9.26143 -40.54061,15.72696 -73.21774,40.19113 -98.0314,73.39249 -40.54061,54.17065 -53.9959,114.80683 -41.064842,184.18021 2.271672,11.88259 11.70785,40.71536 16.251194,49.80205 15.377478,30.23071 39.492148,58.3645 69.548128,81.43071 4.3686,3.32014 8.21296,6.46553 8.7372,7.16451 2.7959,3.66962 38.79317,20.09556 55.04437,24.98839 29.88122,9.08669 34.77406,9.96041 64.3058,11.00888 25.16314,1.04846 27.43481,1.39795 27.43481,4.19385 0,3.1454 -1.74744,3.32014 -22.19249,3.1454 -12.40683,-0.17475 -29.00751,-1.22321 -37.04574,-2.44642 z m 74.96519,-0.87372 c 0,-3.32014 1.22321,-3.49488 33.20137,-3.49488 31.97815,0 33.20136,0.17474 33.20136,3.49488 0,3.32014 -1.22321,3.49488 -33.20136,3.49488 -31.97816,0 -33.20137,-0.17474 -33.20137,-3.49488 z m 115.33106,0 c 0,-3.14539 1.22321,-3.49488 11.35836,-3.49488 10.13516,0 11.35836,0.34949 11.35836,3.49488 0,3.14539 -1.2232,3.49488 -11.35836,3.49488 -10.13515,0 -11.35836,-0.34949 -11.35836,-3.49488 z m 47.70512,-36.5215 c -26.56109,-13.28055 -52.24847,-47.70512 -57.49079,-76.71263 -5.76655,-31.45393 -6.29078,-41.58908 -5.41706,-85.79932 1.22321,-67.27645 8.38771,-106.94334 32.1529,-176.66621 35.47304,-105.02116 75.13993,-172.99659 130.88328,-225.07031 17.29966,-16.25119 50.85051,-39.84163 68.6744,-48.22935 10.3099,-4.89283 13.1058,-5.41706 28.13379,-5.41706 15.02798,0 17.64914,0.52423 27.95904,5.41706 18.34812,8.91195 34.42457,21.49352 67.62594,52.7727 56.26758,53.47167 86.84778,87.37201 128.26212,142.76587 5.76655,7.68874 12.58157,16.60068 15.20273,19.92082 10.65938,13.45529 51.72423,74.6157 65.52901,97.33242 5.24231,8.7372 6.46551,12.40683 6.46551,19.74608 v 9.08669 l -6.29077,-0.52424 c -4.19386,-0.34948 -7.1645,-1.74744 -8.38771,-4.01911 -1.04847,-1.92218 -4.19386,-6.98976 -7.16451,-11.35836 -2.7959,-4.3686 -6.64027,-10.3099 -8.21297,-13.45529 -4.54334,-8.21297 -23.06621,-34.07509 -27.26006,-37.74471 -3.49489,-3.14539 -3.49489,-3.14539 -4.54335,0.17474 -0.69898,1.92219 -4.3686,4.89284 -8.56246,6.46553 -4.01911,1.5727 -9.61092,5.06758 -12.58157,7.86348 -6.81501,6.29079 -11.70785,8.7372 -17.82389,8.7372 -5.24232,0 -20.2703,9.61093 -25.33788,16.07646 -1.5727,2.09692 -5.76655,4.71808 -9.43618,5.76655 -4.89283,1.39795 -8.56246,4.3686 -14.6785,12.05734 -4.3686,5.76655 -9.08669,10.83413 -10.48464,11.18361 -1.39795,0.52424 -5.9413,3.1454 -9.96041,5.76656 -4.54334,3.14539 -9.61092,5.06757 -13.28054,5.06757 -4.71809,0 -8.56246,1.92219 -15.90171,8.03823 -5.41707,4.3686 -9.78567,8.91194 -9.78567,10.13515 0,2.44642 -11.70785,8.03823 -16.77542,8.03823 -4.89284,0 -13.28055,5.41706 -24.46417,15.9017 -9.26143,8.56246 -12.05733,10.3099 -17.29966,10.3099 -6.81501,0 -14.15426,4.54335 -22.36723,13.63004 -3.14539,3.32013 -6.81502,5.5918 -9.26143,5.5918 -2.79591,0 -7.33925,3.1454 -13.45529,9.43618 -4.89284,5.06758 -11.8826,10.3099 -15.20274,11.35836 -3.32013,1.04847 -8.91194,4.89284 -12.58157,8.38772 -5.5918,5.41706 -7.1645,6.11604 -13.1058,5.41706 -5.94129,-0.87372 -7.33925,-0.17474 -13.1058,6.11604 -3.66962,4.01912 -6.64027,8.91195 -6.64027,11.00888 0,4.01911 -2.97065,5.94129 -8.91195,5.94129 -1.92218,0 -7.1645,1.92219 -11.70785,4.54335 -19.92082,10.65938 -28.30853,16.95017 -28.30853,20.96928 0,4.01911 -8.21297,8.03823 -15.37747,7.51399 -7.16451,-0.52423 -11.8826,2.79591 -18.52287,12.58157 -1.5727,2.62116 -5.9413,5.41707 -9.78567,6.64028 -4.89283,1.39795 -9.43617,5.06757 -15.9017,12.58157 -5.06758,5.59181 -11.00888,10.83413 -13.28055,11.35836 -2.27167,0.69898 -4.01911,2.09693 -4.01911,3.32014 0,3.49488 -11.8826,13.1058 -16.07645,13.1058 -3.49488,0 -3.14539,0.69897 2.97065,6.98976 3.84437,3.84437 10.13515,8.56246 13.97952,10.48464 9.96041,4.71809 14.85324,10.83413 14.85324,18.34812 0,6.11604 0,6.11604 -7.33925,5.9413 -4.3686,-0.17474 -11.35836,-2.09693 -16.60068,-4.89283 z"
         fill="#e7b15b"
         p-id="2728"
         id="path2" />
      <path
         d="m 33.201365,629.60273 c 0,-9.26143 5.941297,-37.91945 10.135154,-49.45256 C 51.2,559.18089 54.520137,551.66689 62.558362,536.9884 c 9.785666,-17.64915 18.348123,-30.40547 22.192491,-33.7256 1.397952,-1.22321 2.62116,-3.14539 2.621161,-4.19386 0,-3.32014 35.997266,-37.74471 50.675766,-48.57884 12.58157,-9.26143 43.33652,-27.60955 46.48191,-27.60955 4.19386,-0.17475 6.11604,-3.84437 7.86348,-14.15427 4.01912,-25.86212 17.47441,-59.06348 33.02663,-81.95495 8.7372,-12.75631 30.23071,-34.77406 43.686,-44.73447 30.23072,-22.19249 69.19864,-36.5215 102.22526,-37.56997 14.32901,-0.52423 15.9017,-1.74744 23.4157,-17.99863 11.18362,-24.11468 29.357,-49.10307 51.2,-70.2471 14.6785,-14.32901 34.42457,-30.40546 37.22048,-30.40546 0.87372,0 3.14539,-1.5727 5.24232,-3.49488 5.41706,-5.06758 36.34675,-19.92082 54.17065,-25.862117 29.88122,-10.135154 49.27781,-13.979522 70.42184,-14.154266 11.5331,-0.174744 12.58157,0.174744 12.58157,3.320136 0,3.145392 -1.22321,3.494881 -14.32901,3.494881 -8.03823,0 -17.29966,0.87372 -20.6198,1.74744 -3.32013,0.87372 -13.63003,3.494881 -22.89146,5.766553 -26.21161,6.815013 -62.73311,22.891463 -79.33379,34.948803 -14.50376,10.65939 -30.40546,24.11468 -40.19113,34.42458 -18.17338,19.04709 -20.79454,21.843 -23.59044,26.73583 -1.39796,2.44642 -5.41707,8.21297 -8.7372,12.93106 -3.32014,4.54334 -9.96041,16.25119 -14.85325,25.86212 l -8.7372,17.4744 -7.86348,0.52423 c -38.61843,2.09693 -80.03276,16.60068 -107.99181,37.91946 -6.98976,5.24232 -14.32901,9.61092 -16.25119,9.61092 -1.74744,0 -3.32014,1.2232 -3.32014,2.7959 0,1.39795 -4.89283,8.21297 -10.65939,15.20273 -23.4157,27.08533 -38.26894,56.09283 -44.55972,87.19727 -2.27167,11.53311 -5.24232,22.01775 -6.64028,23.4157 -1.39795,1.22321 -9.61092,6.11604 -18.52286,10.65939 -19.39659,10.13515 -44.90922,29.0075 -62.38362,46.13242 -37.220478,36.5215 -65.878498,90.86689 -70.771331,133.50444 -2.271672,19.92082 -2.271672,20.09556 -6.640273,20.09556 -2.795904,0 -3.494881,-1.04846 -3.494881,-6.46553 z"
         fill="#e7b15b"
         p-id="2729"
         id="path3" />
      <path
         d="m 223.67235,422.35631 c 0,-12.58157 4.54335,-31.97815 11.53311,-49.6273 4.54335,-11.53311 12.40683,-25.33788 15.20273,-26.38635 0.69898,-0.34949 1.22321,-1.57269 1.22321,-2.62116 0,-2.44641 25.68737,-30.92969 27.95904,-30.92969 0.69898,0 3.84437,-2.27167 6.98976,-5.24232 3.1454,-2.79591 6.64028,-5.24232 8.03823,-5.24232 1.39795,0 2.44642,-0.69898 2.44642,-1.5727 0,-4.89283 48.40409,-22.89147 61.85938,-22.89147 10.83413,0 7.68874,4.54335 -5.41706,7.86349 -25.16314,6.29078 -45.78294,15.72696 -62.03413,28.30853 -9.78567,7.51399 -34.94881,33.72559 -36.17202,37.74471 -0.34948,1.22321 -2.7959,5.76655 -5.59181,10.13515 -6.29078,9.96041 -16.42593,39.6669 -17.99863,52.42321 -2.09693,15.72696 -2.97065,19.0471 -5.59181,19.0471 -1.92218,0 -2.44642,-2.62116 -2.44642,-11.00888 z M 400.16382,283.08532 c -2.44641,-0.69897 -10.48464,-1.04846 -17.82389,-0.52423 -12.93106,1.04847 -13.63003,0.87372 -13.63003,-2.62116 0,-3.14539 1.39795,-3.66962 12.75631,-4.71809 7.16451,-0.69897 15.90171,-0.34948 20.44505,0.69898 12.58157,2.97065 12.75632,2.7959 17.29966,-9.78567 10.13516,-28.13378 25.86212,-55.04436 43.51126,-74.09146 7.16451,-7.514 14.15427,-13.80478 15.72697,-13.80478 1.74744,0 3.84437,-1.74744 4.71808,-3.84437 1.04847,-2.09693 3.32014,-4.54335 5.24233,-5.59181 1.92218,-1.04846 4.19385,-2.97065 4.89283,-4.01911 0.69897,-1.22321 2.44641,-2.27167 3.66962,-2.27167 1.39796,0 2.79591,-1.04847 3.32014,-2.27168 0.34949,-1.2232 3.84437,-3.66962 7.51399,-5.59181 3.84437,-1.92218 7.16451,-4.01911 7.68874,-4.54334 1.92218,-2.44642 21.14403,-11.18362 34.59932,-15.72696 8.03822,-2.79591 22.89147,-6.64028 33.02662,-8.7372 16.25119,-3.32014 22.01775,-3.66963 49.27782,-2.79591 26.73583,0.87372 33.02662,1.5727 49.10307,6.11604 18.87235,5.06758 43.86075,14.85324 47.70512,18.52287 1.2232,1.04846 5.06757,2.97065 8.7372,4.19386 11.88259,4.19385 22.89147,-4.19386 20.96928,-16.07645 -0.52423,-3.49489 -1.74744,-6.29079 -2.62116,-6.29079 -0.87372,0 -4.54335,-2.44642 -8.21297,-5.24232 -9.26143,-7.51399 -38.26894,-19.92082 -61.68464,-26.211605 -30.58021,-8.562457 -31.27918,-8.737201 -42.81229,-8.737201 -10.13515,0 -11.00887,-0.349488 -11.00887,-3.669625 0,-3.669625 0.34949,-3.844369 16.42594,-2.62116 17.12491,1.223208 20.79454,2.096928 56.96655,13.45529 30.5802,9.785671 46.13242,17.823891 54.52014,28.308531 8.91194,11.35836 9.26143,20.09556 1.04846,27.7843 -10.83413,9.96041 -17.99863,10.3099 -35.82253,1.5727 -17.29965,-8.56246 -30.40546,-13.63004 -48.57883,-18.69761 -16.42594,-4.71809 -19.57134,-5.06758 -51.54949,-5.06758 -36.5215,0 -42.11331,0.87372 -69.02389,9.96041 -31.27918,10.83413 -53.99591,24.9884 -79.68328,50.32628 -23.59044,23.24096 -42.81229,53.82116 -52.94744,85.27509 l -3.14539,9.08669 -8.03823,-0.17475 c -4.54334,-0.17474 -10.13515,-0.87372 -12.58157,-1.5727 z"
         fill="#e7b15b"
         p-id="2730"
         id="path4" />
      <path
         d="m 740.04096,942.39454 c -43.33652,-2.62116 -78.9843,-7.33925 -114.45734,-15.20273 -38.44369,-8.21297 -94.88601,-28.83277 -110.96246,-40.54061 -2.7959,-1.92219 -9.08669,-5.76656 -13.97952,-8.21298 -11.18362,-5.5918 -38.79318,-31.62866 -48.75358,-45.60819 -10.13516,-14.15426 -18.87236,-31.80341 -24.63891,-49.97679 -4.71809,-14.6785 -4.89284,-15.72696 -5.59181,-70.42184 -0.69898,-38.26894 -0.34949,-57.84027 1.04846,-63.43208 1.04847,-4.19386 3.49488,-16.95017 5.41707,-28.30854 5.76655,-32.85187 17.99863,-79.50853 29.00751,-109.5645 18.87235,-51.2 38.79317,-94.88601 57.66552,-126.86416 33.90035,-57.31605 71.12082,-98.73038 116.03004,-129.13584 23.59044,-15.90171 26.56109,-19.0471 29.357,-30.58021 3.66962,-14.50375 12.93105,-26.03686 25.33788,-32.1529 25.51263,-12.05733 62.73311,-22.71672 83.3529,-23.93993 15.37747,-0.87372 45.2587,-0.69897 60.46143,0.17475 50.50103,3.32013 113.23413,23.24095 158.31809,50.15153 23.06626,13.80478 21.84296,12.93106 62.55836,44.0355 8.5625,6.46553 11.3584,5.41706 27.0853,-9.78567 27.6096,-26.38635 75.8389,-48.75358 106.0697,-48.92833 21.3187,0 30.5802,3.1454 42.4628,14.85325 21.3187,21.14402 34.075,48.75358 34.075,73.91672 0,10.65939 -0.5242,12.75631 -4.0191,16.07645 -5.2423,4.89283 -9.4362,4.89283 -29.5317,-0.34949 -30.5802,-8.03822 -51.7242,-7.51399 -69.7229,1.5727 -11.3583,5.59181 -30.5802,20.09556 -33.2013,24.81365 -2.4465,4.3686 -1.9222,5.41706 14.6785,32.50239 6.4655,10.3099 11.7078,19.22184 11.7078,19.57133 0,0.34949 2.2717,4.54334 4.8928,9.08669 10.8342,18.52287 26.2116,57.84027 33.5509,85.44983 13.8048,52.94744 15.9017,113.58362 5.9413,170.20068 -6.9898,39.14266 -23.5905,87.37202 -41.5891,120.57338 -10.3099,19.22184 -15.9017,25.68737 -28.4833,31.80341 -11.0088,5.41707 -11.1836,5.41707 -25.1631,3.49488 -17.2997,-2.44641 -19.3966,-1.57269 -34.5993,14.6785 -44.2103,47.18089 -88.24576,73.21775 -170.02597,100.30307 -31.97815,10.65939 -39.3174,12.58157 -64.65529,15.72697 -26.38635,3.49488 -69.02389,5.41706 -89.64368,4.01911 z m 59.41297,-10.13515 c 12.58157,-1.04847 36.17201,-4.54335 53.29692,-8.03823 10.3099,-2.09693 71.12082,-21.66826 74.09147,-24.11467 1.04846,-0.69898 5.9413,-2.79591 10.65939,-4.54335 14.67849,-5.41707 43.16177,-19.57133 54.86962,-27.43481 6.11604,-4.19386 13.63007,-9.08669 16.77547,-11.00888 10.1351,-6.29078 25.8621,-20.44505 45.7829,-40.71535 l 19.5713,-20.09557 18.6976,1.04847 c 17.125,1.04846 19.3966,0.87372 26.3864,-2.62116 9.9604,-4.89284 16.0764,-12.75632 26.9106,-34.07509 26.9105,-52.94744 45.2587,-125.29147 45.2587,-178.76314 0,-30.75495 -5.9413,-74.96519 -13.4553,-101.00205 -3.8444,-13.80478 -4.0191,-10.3099 -0.3495,7.514 5.0676,23.93993 7.8635,86.49829 5.2423,116.72901 -3.1454,35.99727 -13.4553,80.73174 -23.5904,102.57474 -2.4465,5.24232 -4.5434,10.48464 -4.5434,11.70785 0,3.32014 -14.1542,33.7256 -21.843,46.65666 -3.8444,6.46552 -8.9119,13.28054 -11.3583,15.02798 -8.912,6.29079 -30.2308,9.26143 -34.5994,4.89283 -2.4464,-2.44641 -2.7959,-19.92081 -0.3494,-21.49351 2.0969,-1.39795 2.2716,-32.1529 0.1747,-41.93857 -4.7181,-21.843 -12.0573,-41.76382 -30.056,-81.08123 -10.3099,-22.54198 -40.7153,-75.13993 -47.0061,-81.08122 l -3.8444,-3.84437 3.8444,7.86348 c 2.0969,4.3686 5.5918,10.3099 7.6887,13.1058 5.4171,7.33925 35.1236,63.08259 39.6669,74.44096 19.5713,48.92832 23.7652,67.62593 21.843,97.50716 -1.0485,19.39659 -4.5433,29.53174 -13.9795,42.11331 -6.9898,9.26144 -40.1911,42.4628 -50.501,50.50103 -14.329,10.83413 -53.99594,33.55085 -68.1502,38.96792 -5.06758,1.92218 -11.8826,4.89283 -15.37748,6.64027 -3.49488,1.74744 -12.23208,4.89283 -19.22184,6.98976 -7.16451,2.09693 -18.52287,5.59181 -25.33788,7.86348 -18.17338,5.9413 -67.80069,14.50375 -95.93448,16.60068 -90.69215,6.64028 -168.97747,-4.01911 -248.486,-34.07508 -20.27031,-7.68874 -22.71673,-6.46553 -4.01912,2.09693 28.65802,12.93105 44.73448,18.34812 89.11946,30.23071 17.29966,4.71809 67.62594,11.8826 96.10921,13.97953 45.78294,3.32013 46.8314,3.32013 76.01366,0.87372 z M 514.62116,872.67167 c -5.41706,-4.19385 -17.12491,-9.96041 -15.72696,-7.86348 1.04846,1.74744 16.25119,10.48464 18.34812,10.48464 0.52423,0 -0.69897,-1.2232 -2.62116,-2.62116 z m -0.87372,-20.79454 c 0,-2.44641 -8.56246,-10.13515 -13.63003,-12.23208 -11.53311,-4.89283 -38.79318,-36.17201 -38.79318,-44.55973 0,-1.39795 1.22321,-0.52423 2.97065,1.74745 6.11604,9.26143 11.70785,13.97952 16.60068,13.97952 5.06758,0 17.12492,-9.08669 17.12492,-13.1058 0,-1.22321 1.74744,-2.62117 4.01911,-3.32014 2.27167,-0.52423 8.21297,-5.76656 13.28055,-11.35836 6.46553,-7.514 11.00887,-11.18362 15.9017,-12.58157 3.84437,-1.22321 8.21297,-4.01912 9.61092,-6.11605 8.91195,-13.63003 18.17338,-19.39658 23.06622,-14.50375 2.44641,2.44642 11.00887,-2.27167 11.00887,-6.11604 0,-4.01911 8.38771,-10.3099 28.13379,-20.96928 6.81501,-3.66963 12.05734,-5.41707 19.57133,-6.11604 0.69897,-0.17475 1.22321,-1.92219 1.22321,-4.19386 0,-6.11604 13.80477,-20.44505 19.57133,-20.44505 2.62116,0 5.24232,0.87372 5.94129,1.92218 0.69898,1.22321 3.49489,-0.52423 7.514,-4.3686 3.49488,-3.32014 9.08669,-7.1645 12.40682,-8.21297 3.32014,-1.04846 10.3099,-6.29078 15.20273,-11.35836 6.11605,-6.29078 10.65939,-9.43618 13.45529,-9.43618 2.44642,0 6.11605,-2.27167 9.26144,-5.59181 8.21297,-9.26143 18.52286,-15.72696 23.93993,-14.67849 4.01911,0.69897 6.64027,-0.87372 15.90171,-9.43618 11.00887,-10.3099 19.39658,-15.72696 24.28942,-15.72696 5.06757,0 16.77542,-5.59181 16.77542,-8.03823 0,-1.22321 4.3686,-5.76655 9.78567,-10.13515 7.33925,-6.11604 11.18362,-8.03823 15.9017,-8.03823 3.66963,0 8.73721,-1.92218 13.28055,-5.06758 4.01911,-2.62116 8.56246,-5.24232 9.96041,-5.76655 1.39795,-0.34949 6.11604,-5.41706 10.48464,-11.18362 6.11604,-7.68873 9.78567,-10.65938 14.6785,-12.05733 3.66963,-1.04847 7.86348,-3.66963 9.43618,-5.76656 5.06757,-6.46553 20.09556,-16.07645 25.33788,-16.07645 6.29079,0 10.65939,-2.27167 20.27031,-10.65938 4.01911,-3.66963 8.03822,-6.64028 8.7372,-6.46553 3.14539,0.87372 8.56246,-2.62116 10.3099,-6.64027 2.97065,-6.29079 2.62116,-10.13516 -1.39795,-13.80478 -1.92219,-1.74744 -3.49489,-4.19386 -3.49488,-5.59181 0,-1.22321 -1.39796,-4.54335 -2.97065,-7.16451 l -2.97065,-4.71809 4.71809,4.19386 c 2.62116,2.44642 4.71809,5.06758 4.71809,6.11604 0,1.04847 5.06757,8.03823 11.35836,15.37748 12.58157,15.02798 27.26007,35.12355 31.97815,43.86075 1.5727,2.97065 5.59181,9.26143 8.73721,13.80478 2.97064,4.54334 5.5918,8.91194 5.5918,9.78566 0,0.87372 1.22321,2.62116 2.62116,3.84437 5.06757,4.19386 2.97065,-5.24232 -3.84436,-16.42594 -13.80478,-22.71672 -54.86963,-83.87713 -65.52901,-97.33242 -2.62116,-3.32014 -9.43618,-12.23208 -15.20273,-19.92082 -41.41434,-55.39386 -71.99454,-89.2942 -128.26212,-142.76587 -46.8314,-44.21024 -68.15017,-58.01502 -90.34266,-58.01502 -14.50376,0 -26.56109,5.41707 -55.21912,24.81365 -72.69351,49.10307 -124.59249,127.73789 -167.23003,253.72833 -22.89147,67.27645 -30.75495,109.38976 -32.1529,171.42389 -0.87372,38.79318 -0.17474,49.45256 5.41706,80.557 5.24233,29.00751 30.9297,63.43208 57.49079,76.71263 8.7372,4.54334 13.45529,5.94129 13.45529,4.19385 z M 1004.0792,550.96792 c -1.398,-2.79591 -3.8444,-6.46553 -5.41708,-8.38771 -2.79591,-3.32014 -2.97065,-3.32014 -0.52424,0.87372 1.39796,2.44641 3.49492,6.11604 4.71812,8.38771 1.0484,2.09693 2.4464,3.84437 2.9706,3.84437 0.3495,0 -0.3495,-2.09693 -1.7474,-4.71809 z m -35.99729,-54.69488 c -2.09693,-2.79591 -4.19386,-5.24232 -4.54334,-5.24232 -0.52423,0 0.69897,2.44641 2.7959,5.24232 2.09693,2.97065 4.19386,5.24232 4.54335,5.24232 0.52423,0 -0.69898,-2.27167 -2.79591,-5.24232 z M 1113.9932,329.21775 c 1.3979,-6.11604 29.8812,-26.73584 43.686,-31.62867 13.4553,-4.71809 52.5979,-4.19386 72.8682,1.04846 8.5625,2.09693 16.0765,3.32014 17.125,2.79591 2.0969,-1.22321 2.2716,-20.6198 0.3494,-27.08533 -0.8737,-3.14539 -1.3979,-0.69897 -2.0969,8.7372 -0.8737,12.75632 -1.0484,13.10581 -5.7665,13.63004 -2.7959,0.34949 -12.9311,-1.5727 -22.7168,-4.19386 -14.6785,-4.01911 -21.4935,-4.89283 -38.0942,-5.06757 -17.1249,0 -20.9692,0.52423 -23.7651,3.14539 -1.9222,1.57269 -4.5434,2.97065 -5.9413,2.97065 -1.398,0 -11.0089,6.46553 -21.4936,14.50375 -10.4846,7.86348 -20.445,15.02799 -22.0177,15.90171 -2.7959,1.57269 -2.6212,2.27167 1.5727,8.21297 3.1454,4.54334 4.7181,5.59181 5.0676,3.49488 0.1747,-1.5727 0.8737,-4.54335 1.2232,-6.46553 z"
         fill="#99632b"
         p-id="2731"
         id="path5" />
      <path
         d="M 244.64164,920.20205 C 171.77338,905.17406 110.96246,863.58498 72.693515,802.9488 49.277815,765.72833 37.045733,729.73106 36.521502,697.22867 c 0,-8.03823 -0.524232,-10.3099 -1.572697,-7.86348 -0.87372,2.09693 -1.572696,-8.21297 -1.572696,-26.73584 -0.174744,-16.60068 0.524232,-31.45392 1.397952,-33.20136 0.87372,-1.5727 2.446416,-9.96041 3.320137,-18.69762 4.718089,-42.46279 33.550853,-96.80819 70.771332,-133.50443 17.82389,-17.4744 43.33652,-36.34676 63.43208,-46.65666 9.26143,-4.71809 17.4744,-9.43617 18.34812,-10.48464 0.69898,-1.04846 3.49488,-11.35836 5.76656,-22.89147 11.70785,-57.66553 54.86962,-111.1372 108.69078,-134.72764 25.86212,-11.35836 41.23959,-15.37748 67.4512,-17.4744 l 14.50375,-1.22321 8.7372,-17.4744 c 4.89284,-9.61093 11.53311,-21.31878 14.85324,-26.03686 3.32014,-4.71809 8.38772,-11.70785 11.18362,-15.72697 7.16451,-10.13515 33.20137,-36.69624 45.60819,-46.30716 20.96929,-16.2512 41.23959,-27.7843 66.22799,-37.74471 10.65939,-4.193861 21.66826,-7.339253 52.59795,-15.027991 9.26143,-2.446416 69.72287,-2.446416 78.63481,-0.174744 47.18089,12.232082 77.06212,23.765185 89.81843,34.774065 13.80478,11.70785 15.20273,24.46416 3.84437,33.72559 -8.91194,7.514 -17.4744,7.16451 -34.77406,-1.39795 C 690.5884,135.95085 665.6,129.31058 631.52492,128.08737 c -20.79454,-0.87372 -27.43482,-0.34949 -43.16178,2.79591 -49.10307,10.13515 -81.95495,27.95904 -117.42799,63.95631 -20.61979,20.79454 -38.44368,51.02526 -47.53037,79.85802 -3.49488,11.35836 -2.97065,11.00887 -20.6198,7.68874 -15.9017,-3.14539 -36.87099,-1.04847 -62.03413,6.29078 -28.65802,8.21297 -44.90921,17.99864 -66.75221,40.01639 -27.7843,27.95904 -42.63755,60.46143 -44.90922,98.38088 l -1.04846,19.0471 -22.71673,9.96041 c -24.63891,10.65939 -27.08532,12.05734 -45.43344,25.51263 -26.21161,19.39659 -48.4041,44.90921 -64.131063,74.09147 -10.659386,19.39658 -14.32901,29.00751 -20.969283,54.69488 -5.067577,19.74607 -5.591809,23.4157 -5.591809,51.02525 -0.174744,19.22185 0.698976,33.37611 2.271672,40.19113 4.718089,21.14403 9.086689,36.87099 11.882594,43.68601 7.513993,18.17338 9.96041,23.06621 13.630034,27.95904 2.096928,2.97065 5.067575,7.68874 6.640275,10.65939 6.46553,12.58157 30.92969,39.49215 49.27781,54.34539 21.66826,17.4744 56.44232,34.9488 82.1297,41.41433 28.30853,7.16451 41.58907,7.86348 144.16382,7.16451 107.99181,-0.69898 107.46758,-0.69898 112.53515,9.43618 4.54335,8.7372 3.66963,15.37747 -3.14539,22.19249 l -5.9413,5.94129 -109.91399,-0.17474 c -105.37065,-0.34949 -110.43823,-0.34949 -128.08737,-4.01911 z"
         fill="#99632b"
         p-id="2732"
         id="path6" />
      <path
         d="M 753.14676,939.0744 C 694.957,935.40478 647.07713,929.28874 622.08874,922.64846 576.13106,910.41638 555.16178,903.25188 531.74608,891.54403 488.5843,870.05051 469.01297,853.79932 448.74266,823.04437 c -10.65938,-16.42594 -18.17338,-33.7256 -20.61979,-47.70512 -0.87372,-4.89283 -2.44642,-13.97952 -3.49488,-19.74608 -1.04847,-5.94129 -1.92219,-29.18225 -1.74744,-51.72423 0,-48.05461 3.84436,-77.93583 15.72696,-124.59249 12.93106,-49.97679 20.79454,-72.86826 43.16177,-125.64095 38.0942,-89.81843 89.11946,-156.92014 150.45461,-197.6355 12.93106,-8.56246 24.46416,-17.12491 25.86212,-19.0471 1.2232,-2.09693 3.84437,-8.91194 5.76655,-15.20273 5.9413,-18.87235 11.88259,-24.28942 37.56997,-33.7256 11.88259,-4.3686 31.45392,-10.30989 43.33651,-13.1058 20.96929,-5.24232 22.54198,-5.24232 58.18976,-4.89283 46.65666,0.69898 64.13106,3.49488 107.46758,16.77543 25.86212,7.86348 57.31604,21.843 78.28533,34.42457 18.52289,11.18362 45.25869,29.88123 53.64639,37.56996 7.8635,7.16451 13.2806,10.3099 17.4744,10.3099 1.5727,0 8.5625,-5.41706 15.727,-12.23208 14.6785,-13.97952 30.5802,-24.63891 51.5495,-34.59932 27.4348,-13.1058 35.1235,-15.20273 58.5392,-15.20273 24.4642,0 27.7843,1.39795 42.6376,17.64915 16.6007,18.17338 25.3379,38.26894 27.0853,62.90785 0.8737,12.40683 0.699,14.85324 -2.2717,18.34812 l -3.3201,4.01911 -20.4451,-5.06757 c -35.9972,-8.91195 -63.6068,-6.98976 -82.1297,5.76655 -15.5522,10.65939 -27.0853,20.09556 -27.959,23.06621 -1.2232,3.84437 2.9706,14.32901 8.5625,21.66826 2.2716,2.97065 7.5139,11.35836 11.8825,18.52287 58.8888,99.07986 73.043,213.36246 39.6669,321.52901 -9.4361,30.23072 -16.7754,49.10307 -27.6095,70.42184 -10.8341,21.31877 -16.9502,29.18225 -26.7359,33.90034 -8.7372,4.3686 -16.4259,5.06758 -33.3761,3.1454 l -12.0573,-1.39796 -19.3966,20.09557 c -19.9208,20.2703 -35.6478,34.42457 -45.7829,40.71536 -3.1454,1.92218 -10.6594,6.81501 -16.77545,11.00887 -11.70785,7.86348 -40.19112,22.01775 -54.86962,27.43481 -4.71809,1.74744 -9.61093,3.84437 -10.48464,4.54335 -2.09693,1.57269 -55.91809,19.74607 -67.27646,22.54198 -7.33924,1.92218 -24.6389,4.89283 -50.67576,8.56245 -13.80478,1.92219 -47.87987,3.49488 -61.16041,2.62116 z m 32.32764,-25.16314 c 28.13379,-2.09693 77.76109,-10.65938 95.93447,-16.60068 6.81502,-2.27167 18.17338,-5.76655 25.33789,-7.86348 6.98976,-2.09693 15.72696,-5.24232 19.22184,-6.98976 3.49488,-1.74744 10.3099,-4.71809 15.37748,-6.64028 14.15426,-5.41706 53.82115,-28.13378 68.15012,-38.96791 10.3099,-8.03823 43.5113,-41.23959 50.5011,-50.50103 8.0382,-10.65938 12.5815,-22.89147 13.8047,-36.87099 2.097,-23.76519 -2.7959,-45.08396 -21.843,-92.26484 -4.5433,-11.35837 -31.2791,-62.20888 -39.3174,-74.44096 -3.1454,-4.71809 -8.7372,-14.15427 -12.232,-20.79454 -10.65943,-19.57133 -47.53042,-73.91672 -70.59663,-103.97269 -2.44642,-3.1454 -6.81502,-9.08669 -9.78567,-13.10581 -26.56109,-37.39522 -66.57747,-83.00341 -114.28259,-130.00955 -49.45256,-49.10308 -73.043,-68.32492 -92.61434,-76.01366 -21.49351,-8.38771 -32.67713,-6.46552 -60.11194,10.13516 -40.8901,24.98839 -67.10171,48.40409 -96.80819,86.49829 -23.24096,30.05597 -54.86963,84.40137 -65.8785,113.58362 -2.27167,6.29078 -6.46553,16.07645 -8.91194,21.843 C 462.89693,512 442.80137,582.2471 436.16109,628.20478 c -8.03822,56.96655 -8.21297,94.18703 -0.17474,140.14471 8.03822,46.48191 52.07372,89.46894 115.5058,113.05938 75.83891,27.95905 151.32833,38.44369 233.98225,32.50239 z M 1112.77,778.13515 c 3.1454,-1.57269 8.0382,-6.11604 10.8341,-10.13515 7.8635,-11.35836 26.2116,-49.10307 26.2116,-53.9959 0,-1.04847 2.0969,-6.29079 4.5433,-11.53311 9.0867,-19.57133 18.6977,-58.71399 22.7168,-92.61433 2.9706,-25.86212 1.9222,-77.23686 -2.097,-103.09898 -5.417,-34.24983 -19.3965,-76.53788 -36.5215,-110.96246 -14.8532,-29.53174 -17.2996,-33.37611 -38.2689,-61.16041 -8.7372,-11.5331 -37.3952,-44.55972 -49.8021,-57.31604 -20.7945,-21.49351 -66.57743,-53.47167 -98.03135,-68.32491 -23.06621,-10.83413 -58.71399,-22.71673 -84.75085,-28.30854 -36.69625,-7.68873 -78.80956,-8.38771 -110.96246,-1.74744 -25.16314,5.24233 -55.5686,13.97953 -65.17952,18.69762 -13.28055,6.64027 -22.1925,17.4744 -22.1925,26.91058 0,5.24232 -0.34948,5.06757 8.03823,1.57269 19.22184,-8.03822 52.94744,3.84437 82.12969,29.00751 4.01912,3.32014 12.23208,10.48464 18.34813,15.72696 55.21911,47.70512 108.16655,104.67167 158.49283,170.37543 30.23071,39.66689 41.93856,56.26758 64.4805,91.39113 5.9413,9.26143 12.5816,19.22184 14.8533,22.01774 8.213,10.3099 37.57,61.85939 46.6566,81.60546 17.9987,39.31741 25.3379,59.23823 30.056,81.08123 2.0969,9.96041 1.9222,51.02526 -0.1747,52.42321 -2.4464,1.5727 -2.097,8.56246 0.5242,11.18362 2.4464,2.44641 11.3584,1.22321 20.0956,-2.79591 z m -9.2615,-460.27576 c 2.097,-3.32014 38.4437,-29.53175 40.8901,-29.53175 1.398,0 4.0191,-1.39795 5.9413,-2.97064 2.9707,-2.79591 6.9898,-3.1454 29.8813,-2.97065 22.7167,0.17474 28.4832,0.69897 42.1133,4.71809 8.5624,2.44641 16.2512,4.01911 16.9501,3.49488 4.1939,-2.44642 -1.3979,-32.1529 -8.7372,-47.35563 -5.417,-11.53311 -17.6491,-25.33789 -24.8136,-28.30854 -8.213,-3.32013 -34.5993,-1.04846 -51.5495,4.3686 -14.5038,4.71809 -40.8901,17.99864 -53.9959,26.91058 -11.0089,7.68874 -35.9973,32.32765 -35.9973,35.82253 0,3.84437 31.6287,37.56997 35.2983,37.74471 1.5727,0 3.4949,-0.87372 4.0191,-1.92218 z"
         fill="#050506"
         p-id="2733"
         id="path7" />
    </g>
  </g>
</svg>
