<svg xmlns="http://www.w3.org/2000/svg" xmlns:xlink="http://www.w3.org/1999/xlink" width="64" height="64" class="icon" viewBox="0 0 1024 1024"><defs><linearGradient id="a" x1="8.364" x2="8.364" y1="2.37" y2="14.902" gradientTransform="translate(2405.619 418.405)scale(60.47363)" gradientUnits="userSpaceOnUse"><stop offset="0" stop-color="#20ef85"/><stop offset="1" stop-color="#12a97e"/></linearGradient><linearGradient xlink:href="#a" id="c" x1="8.364" x2="8.364" y1="2.37" y2="14.902" gradientTransform="translate(2405.619 418.405)scale(60.47363)" gradientUnits="userSpaceOnUse"/><clipPath id="d" clipPathUnits="userSpaceOnUse"><rect width="896.038" height="896.038" x="443.31" y="481.902" fill="url(#a)" rx="208.029" ry="208.029" style="fill:url(#c);stroke-width:60.4736"/></clipPath></defs><path d="M331.586 400.069h1119.485v1059.704H331.586z" clip-path="url(#d)" style="opacity:1;fill:#fff;fill-opacity:1;stroke:none;stroke-width:60.4725" transform="translate(-379.329 -417.921)"/><path fill="#47a141" d="M388.287 352.692c-88.491 53.419-147.752 147.492-151.873 255.67l-.021.58C236.493 732.145 336.388 832 459.61 832c123.283 0 223.218-99.935 223.218-223.218 0-94.633-58.9-175.522-142.03-207.993l-1.52-.52a202.6 202.6 0 0 0-77.187-15.006l-2.16.021h.1a331.7 331.7 0 0 0-111.439 127.964l-.86 1.94a146.611 146.611 0 1 1 112.34 240.805h-.521.02-.26a146.3 146.3 0 0 1-111.4-51.278l-.16-.2a175.26 175.26 0 0 1-44.995-117.581c0-10.884.98-21.547 2.881-31.891l-.16 1.08c28.63-171.26 233.782-269.874 385.675-308.188-78.487 38.034-144.83 76.867-207.873 120.162l5.362-3.48c183.605 70.884 213.115-83.65 298.965-152.795-85.41-33.451-398.88-45.776-399.34 140.91Z" style="stroke-width:.62522"/></svg>