<?xml version="1.0" encoding="UTF-8" standalone="no"?>
<svg
   width="64"
   height="64"
   viewBox="0 0 64 64"
   version="1.1"
   xml:space="preserve"
   style="clip-rule:evenodd;fill-rule:evenodd;stroke-linejoin:round;stroke-miterlimit:2"
   id="svg14"
   sodipodi:docname="synergy（复件）.svg"
   inkscape:version="1.3.2 (091e20e, 2023-11-25)"
   xmlns:inkscape="http://www.inkscape.org/namespaces/inkscape"
   xmlns:sodipodi="http://sodipodi.sourceforge.net/DTD/sodipodi-0.dtd"
   xmlns:xlink="http://www.w3.org/1999/xlink"
   xmlns="http://www.w3.org/2000/svg"
   xmlns:svg="http://www.w3.org/2000/svg"><defs
   id="defs14"><mask
     maskUnits="userSpaceOnUse"
     id="mask17"><rect
       style="fill:#ffffff;stroke:#ffffff;stroke-width:0.106198"
       id="rect17"
       width="73.9048"
       height="73.9048"
       x="8.3632507"
       y="8.3632507" /></mask><clipPath
     clipPathUnits="userSpaceOnUse"
     id="clipPath6"><rect
       width="896.03784"
       height="896.03784"
       x="443.30988"
       y="481.9024"
       fill="url(#b)"
       rx="208.0293"
       ry="208.0293"
       id="rect6"
       style="fill:url(#linearGradient6);stroke-width:60.4736" /></clipPath><linearGradient
     inkscape:collect="always"
     xlink:href="#b"
     id="linearGradient6"
     gradientUnits="userSpaceOnUse"
     gradientTransform="matrix(60.473632,0,0,60.473632,2405.6187,418.4051)"
     x1="8.3640003"
     y1="2.3699999"
     x2="8.3640003"
     y2="14.902" /><linearGradient
     id="b"
     x1="8.3640003"
     x2="8.3640003"
     y1="2.3699999"
     y2="14.902"
     gradientTransform="matrix(60.473632,0,0,60.473632,2405.6188,418.4051)"
     gradientUnits="userSpaceOnUse"><stop
       offset="0"
       stop-color="#20ef85"
       id="stop7" /><stop
       offset="1"
       stop-color="#12a97e"
       id="stop8" /></linearGradient><clipPath
     clipPathUnits="userSpaceOnUse"
     id="clipPath6-7"><rect
       width="896.03784"
       height="896.03784"
       x="443.30988"
       y="481.9024"
       fill="url(#b)"
       rx="208.0293"
       ry="208.0293"
       id="rect6-5"
       style="fill:url(#linearGradient6);stroke-width:60.4736" /></clipPath><clipPath
     clipPathUnits="userSpaceOnUse"
     id="clipPath1"><rect
       style="fill:#ffffff;stroke:#ffffff;stroke-width:0.106198"
       id="rect2"
       width="73.9048"
       height="73.9048"
       x="8.3632498"
       y="8.3632565" /></clipPath></defs><sodipodi:namedview
   id="namedview14"
   pagecolor="#ffffff"
   bordercolor="#666666"
   borderopacity="1.0"
   inkscape:showpageshadow="2"
   inkscape:pageopacity="0.0"
   inkscape:pagecheckerboard="0"
   inkscape:deskcolor="#d1d1d1"
   inkscape:zoom="7.5058326"
   inkscape:cx="48.029315"
   inkscape:cy="71.810821"
   inkscape:window-width="1920"
   inkscape:window-height="1120"
   inkscape:window-x="0"
   inkscape:window-y="0"
   inkscape:window-maximized="1"
   inkscape:current-layer="g1" />
    
<g
   inkscape:groupmode="layer"
   id="layer1"
   inkscape:label="Layer 1"><g
     id="g1"
     transform="translate(-63.029437,-29.912067)"><g
       id="g2"
       transform="translate(3.7411072,-63.960526)"><rect
         style="clip-rule:evenodd;fill:#ffffff;fill-opacity:1;fill-rule:evenodd;stroke:none;stroke-width:60.4725;stroke-linejoin:round;stroke-miterlimit:2"
         id="rect1"
         width="1119.4849"
         height="1059.7039"
         x="331.58636"
         y="400.0694"
         clip-path="url(#clipPath6-7)"
         transform="matrix(0.0625,0,0,0.0625,35.58028,67.75251)" /><g
         transform="matrix(0.54123683,0,0,0.54123683,66.761831,101.34609)"
         id="g14"
         mask="none"
         style="clip-rule:evenodd;fill-rule:evenodd;stroke-linejoin:round;stroke-miterlimit:2"
         clip-path="url(#clipPath1)">
        <g
   id="g13">
            <path
   d="m 129.87,32.133 c 0.751,-0.258 1.189,-1.097 1.002,-1.871 C 129.432,25.486 125.177,20 115.666,20 c -8.26,0 -15.08,6.325 -15.08,14.005 0,6.841 4.505,11.423 11.263,12.843 l 6.257,1.355 c 3.817,0.839 5.945,3.227 5.945,6.196 0,3.549 -2.753,6.324 -8.072,6.324 -5.694,0 -8.948,-3.485 -9.887,-7.615 -0.062,-0.387 -0.313,-0.71 -0.688,-0.904 -0.376,-0.193 -0.751,-0.258 -1.127,-0.193 -1.314,0.387 -3.066,0.903 -4.192,1.226 -0.751,0.258 -1.189,0.968 -1.064,1.678 1.189,6.26 6.445,12.778 16.958,12.778 10.137,0 15.706,-6.776 15.706,-13.875 0,-6.454 -4.192,-11.552 -12.014,-13.166 l -6.383,-1.355 c -3.441,-0.775 -5.193,-2.969 -5.193,-5.873 0,-3.485 3.128,-6.583 7.634,-6.583 5.006,0 7.446,2.969 8.322,5.615 0.25,0.774 1.126,1.162 1.877,0.903 1.189,-0.322 2.816,-0.903 3.942,-1.226 z"
   style="fill:#1f2d5d;fill-rule:nonzero"
   id="path1" />
            <path
   d="m 142.635,79.423 c 0.563,0 1.064,-0.322 1.314,-0.903 2.378,-5.292 14.643,-33.302 18.084,-41.176 0.251,-0.451 0.188,-0.968 -0.062,-1.419 -0.313,-0.388 -0.751,-0.646 -1.252,-0.646 h -4.443 c -0.625,0 -1.126,0.388 -1.376,0.904 -1.627,3.937 -7.822,18.974 -7.822,18.974 0,0 -6.695,-15.166 -8.385,-18.974 -0.25,-0.581 -0.751,-0.904 -1.314,-0.904 h -4.943 c -0.501,0 -0.939,0.258 -1.252,0.71 -0.25,0.387 -0.313,0.968 -0.063,1.42 3.004,6.454 12.015,25.557 12.015,25.557 0,0 -4.443,9.939 -6.383,14.392 -0.188,0.452 -0.188,0.968 0.125,1.42 0.251,0.387 0.689,0.645 1.189,0.645 z"
   style="fill:#1f2d5d;fill-rule:nonzero"
   id="path2" />
            <path
   d="m 172.418,48.542 c 0,-4.13 2.19,-7.422 6.32,-7.422 4.568,0 6.257,3.098 6.257,6.97 v 17.103 c 0,0.387 0.125,0.774 0.438,1.032 0.25,0.323 0.626,0.452 1.064,0.452 h 4.255 c 0.813,0 1.502,-0.645 1.502,-1.484 V 46.8 c 0,-6.906 -3.567,-12.456 -11.013,-12.456 -3.379,0 -7.009,1.484 -9.011,5.098 0,-2.323 -1.877,-4.195 -4.193,-4.195 h -1.376 c -0.438,0 -0.814,0.129 -1.064,0.452 -0.313,0.258 -0.438,0.645 -0.438,1.033 v 28.461 c 0,0.387 0.125,0.774 0.438,1.032 0.25,0.323 0.626,0.452 1.064,0.452 h 4.255 c 0.813,0 1.502,-0.645 1.502,-1.484 z"
   style="fill:#1f2d5d;fill-rule:nonzero"
   id="path3" />
            <path
   d="m 203.021,47.574 c 0.251,-3.356 2.879,-6.97 7.447,-6.97 5.006,0 7.383,3.291 7.509,6.97 z m 17.083,8.648 c -0.688,-0.258 -1.502,0.065 -1.815,0.774 -1.126,2.453 -3.316,4.26 -7.133,4.26 -4.505,0 -8.135,-3.42 -8.322,-8.196 h 20.962 c 0.813,0 1.439,-0.646 1.502,-1.42 v -0.968 c 0,-9.939 -5.507,-16.328 -14.893,-16.328 -7.697,0 -14.83,6.583 -14.83,16.521 0,10.649 7.321,16.845 15.581,16.845 6.633,0 11.201,-3.679 13.203,-8.455 0.188,-0.387 0.188,-0.774 0,-1.161 -0.188,-0.388 -0.5,-0.646 -0.876,-0.775 -1.001,-0.323 -2.378,-0.774 -3.379,-1.097 z"
   style="fill:#1f2d5d;fill-rule:nonzero"
   id="path4" />
            <path
   d="m 246.943,36.348 c 0,-0.775 -0.626,-1.42 -1.377,-1.485 h -0.563 c -4.005,0 -7.384,2.001 -8.823,5.422 0,-2.776 -2.253,-5.034 -5.006,-5.034 h -0.563 c -0.438,0 -0.814,0.129 -1.064,0.451 -0.313,0.258 -0.438,0.646 -0.438,1.033 v 28.461 c 0,0.387 0.125,0.775 0.438,1.033 0.25,0.322 0.626,0.451 1.064,0.451 h 4.255 c 0.813,0 1.502,-0.645 1.502,-1.484 V 51.708 c 0,-5.873 2.565,-9.229 8.197,-9.229 h 0.813 c 0.439,0.064 0.814,-0.129 1.127,-0.387 0.25,-0.259 0.438,-0.646 0.438,-1.098 z"
   style="fill:#1f2d5d;fill-rule:nonzero"
   id="path5" />
            <path
   d="m 248.693,68.126 c -0.751,0.258 -1.251,1.032 -1.063,1.807 1.439,5.679 6.82,10.068 14.267,10.068 11.451,0 15.643,-7.809 15.643,-16.199 V 36.825 c 0,-0.839 -0.688,-1.484 -1.502,-1.484 h -1.501 c -1.064,0 -2.065,0.451 -2.816,1.161 -0.751,0.775 -1.189,1.807 -1.189,2.84 -1.314,-2.582 -4.255,-4.582 -9.011,-4.582 -8.385,0 -14.079,6.905 -14.079,15.295 0,8.842 5.944,15.296 14.079,15.296 4.443,0 7.509,-2.13 8.823,-4.582 v 3.291 c 0,6.389 -2.878,9.422 -8.635,9.422 -3.692,0 -6.383,-2.194 -7.321,-5.356 -0.251,-0.775 -1.002,-1.226 -1.815,-1.033 -1.126,0.323 -2.753,0.775 -3.88,1.033 z m 14.017,-9.165 c -4.756,0 -7.947,-3.42 -7.947,-8.906 0,-5.356 3.317,-8.841 7.947,-8.841 4.505,0 7.822,3.485 7.822,8.841 0,5.421 -3.191,8.906 -7.822,8.906 z"
   style="fill:#1f2d5d;fill-rule:nonzero"
   id="path6" />
            <path
   d="m 291.311,79.423 c 0.563,0 1.064,-0.322 1.314,-0.903 2.378,-5.292 14.642,-33.302 18.084,-41.176 0.25,-0.451 0.188,-0.968 -0.063,-1.419 -0.312,-0.388 -0.75,-0.646 -1.251,-0.646 h -4.443 c -0.626,0 -1.126,0.388 -1.376,0.904 -1.627,3.937 -7.822,18.974 -7.822,18.974 0,0 -6.696,-15.166 -8.385,-18.974 -0.251,-0.581 -0.751,-0.904 -1.314,-0.904 h -4.944 c -0.5,0 -0.938,0.258 -1.251,0.71 -0.25,0.387 -0.313,0.968 -0.063,1.42 3.004,6.454 12.015,25.557 12.015,25.557 0,0 -4.443,9.939 -6.383,14.392 -0.188,0.452 -0.188,0.968 0.125,1.42 0.25,0.387 0.688,0.645 1.189,0.645 z"
   style="fill:#1f2d5d;fill-rule:nonzero"
   id="path7" />
            <path
   d="m 35.749,81.043 c 3.948,1.058 8.005,-1.285 9.063,-5.233 1.058,-3.947 -1.285,-8.005 -5.232,-9.063 -3.948,-1.057 -8.006,1.285 -9.064,5.233 -1.057,3.948 1.285,8.005 5.233,9.063 z"
   style="fill:#ffffff;fill-rule:nonzero"
   id="path8" />
            <path
   d="m 14.815,44.797 c 3.948,1.058 8.006,-1.285 9.063,-5.233 1.058,-3.947 -1.285,-8.005 -5.232,-9.063 -3.948,-1.058 -8.006,1.285 -9.063,5.233 -1.058,3.947 1.285,8.005 5.232,9.063 z"
   style="fill:#ffffff;fill-rule:nonzero"
   id="path9" />
            <path
   d="m 54.896,9.577 c 19.686,5.275 31.401,25.51 26.192,45.199 l -0.029,0.117 c -1.057,3.944 -5.118,6.289 -9.063,5.232 -3.947,-1.057 -6.289,-5.118 -5.233,-9.063 l 0.017,-0.07 C 69.905,39.177 62.875,27.037 51.066,23.873 l 0.044,0.012 c 3.932,1.027 7.966,-1.316 9.019,-5.245 1.053,-3.929 -1.27,-7.975 -5.188,-9.051 z"
   style="fill:#33cc99"
   id="path10" />
            <path
   d="m 81.055,54.892 c -5.275,19.685 -25.51,31.4 -45.199,26.192 l -0.117,-0.029 c -3.945,-1.057 -6.289,-5.119 -5.232,-9.063 1.057,-3.947 5.118,-6.29 9.063,-5.233 l 0.07,0.016 C 51.455,69.9 63.595,62.871 66.759,51.061 l -0.012,0.045 c -1.027,3.931 1.316,7.965 5.245,9.018 3.929,1.053 7.975,-1.27 9.051,-5.188 z"
   style="fill:#33b2cc"
   id="path11" />
            <path
   d="M 35.739,81.055 C 16.054,75.78 4.339,55.545 9.547,35.856 l 0.029,-0.117 c 1.057,-3.945 5.119,-6.289 9.063,-5.232 3.947,1.057 6.29,5.118 5.233,9.063 l -0.016,0.07 C 20.73,51.455 27.76,63.595 39.57,66.759 l -0.045,-0.012 c -3.931,-1.027 -7.965,1.316 -9.018,5.245 -1.053,3.929 1.269,7.975 5.188,9.051 z"
   style="fill:#87d639"
   id="path12" />
            <path
   d="M 9.576,35.739 C 14.851,16.054 35.086,4.339 54.775,9.547 l 0.117,0.029 c 3.945,1.057 6.289,5.119 5.232,9.063 -1.057,3.947 -5.118,6.29 -9.063,5.233 l -0.07,-0.016 C 39.176,20.73 27.036,27.76 23.872,39.57 l 0.012,-0.045 c 1.027,-3.931 -1.316,-7.965 -5.245,-9.018 -3.929,-1.053 -7.975,1.269 -9.051,5.188 z"
   style="fill:#3b67d3"
   id="path13" />
        </g>
    </g></g></g></g></svg>
