<svg xmlns="http://www.w3.org/2000/svg" xmlns:xlink="http://www.w3.org/1999/xlink" xml:space="preserve" width="64" height="64" style="clip-rule:evenodd;fill-rule:evenodd;stroke-linejoin:round;stroke-miterlimit:2"><defs><linearGradient xlink:href="#a" id="c" x1="8.364" x2="8.364" y1="2.37" y2="14.902" gradientTransform="translate(2405.619 418.405)scale(60.47363)" gradientUnits="userSpaceOnUse"/><linearGradient id="a" x1="8.364" x2="8.364" y1="2.37" y2="14.902" gradientTransform="translate(2405.619 418.405)scale(60.47363)" gradientUnits="userSpaceOnUse"><stop offset="0" stop-color="#20ef85"/><stop offset="1" stop-color="#12a97e"/></linearGradient><clipPath id="d" clipPathUnits="userSpaceOnUse"><rect width="896.038" height="896.038" x="443.31" y="481.902" fill="url(#a)" rx="208.029" ry="208.029" style="fill:url(#c);stroke-width:60.4736"/></clipPath><clipPath id="e" clipPathUnits="userSpaceOnUse"><path d="M8.363 8.363h73.905v73.905H8.363z" style="fill:#fff;stroke:#fff;stroke-width:.106198"/></clipPath></defs><path d="M331.586 400.069h1119.485v1059.704H331.586z" clip-path="url(#d)" style="clip-rule:evenodd;fill:#fff;fill-opacity:1;fill-rule:evenodd;stroke:none;stroke-width:60.4725;stroke-linejoin:round;stroke-miterlimit:2" transform="translate(-23.708 -26.12)scale(.0625)"/><g clip-path="url(#e)" style="clip-rule:evenodd;fill-rule:evenodd;stroke-linejoin:round;stroke-miterlimit:2" transform="matrix(.54124 0 0 .54124 7.474 7.473)"><path d="M129.87 32.133c.751-.258 1.189-1.097 1.002-1.871C129.432 25.486 125.177 20 115.666 20c-8.26 0-15.08 6.325-15.08 14.005 0 6.841 4.505 11.423 11.263 12.843l6.257 1.355c3.817.839 5.945 3.227 5.945 6.196 0 3.549-2.753 6.324-8.072 6.324-5.694 0-8.948-3.485-9.887-7.615-.062-.387-.313-.71-.688-.904q-.564-.29-1.127-.193c-1.314.387-3.066.903-4.192 1.226-.751.258-1.189.968-1.064 1.678 1.189 6.26 6.445 12.778 16.958 12.778 10.137 0 15.706-6.776 15.706-13.875 0-6.454-4.192-11.552-12.014-13.166l-6.383-1.355c-3.441-.775-5.193-2.969-5.193-5.873 0-3.485 3.128-6.583 7.634-6.583 5.006 0 7.446 2.969 8.322 5.615.25.774 1.126 1.162 1.877.903 1.189-.322 2.816-.903 3.942-1.226" style="fill:#1f2d5d;fill-rule:nonzero"/><path d="M142.635 79.423c.563 0 1.064-.322 1.314-.903 2.378-5.292 14.643-33.302 18.084-41.176.251-.451.188-.968-.062-1.419-.313-.388-.751-.646-1.252-.646h-4.443c-.625 0-1.126.388-1.376.904-1.627 3.937-7.822 18.974-7.822 18.974s-6.695-15.166-8.385-18.974c-.25-.581-.751-.904-1.314-.904h-4.943c-.501 0-.939.258-1.252.71-.25.387-.313.968-.063 1.42 3.004 6.454 12.015 25.557 12.015 25.557s-4.443 9.939-6.383 14.392c-.188.452-.188.968.125 1.42.251.387.689.645 1.189.645zM172.418 48.542c0-4.13 2.19-7.422 6.32-7.422 4.568 0 6.257 3.098 6.257 6.97v17.103c0 .387.125.774.438 1.032.25.323.626.452 1.064.452h4.255c.813 0 1.502-.645 1.502-1.484V46.8c0-6.906-3.567-12.456-11.013-12.456-3.379 0-7.009 1.484-9.011 5.098a4.19 4.19 0 0 0-4.193-4.195h-1.376c-.438 0-.814.129-1.064.452-.313.258-.438.645-.438 1.033v28.461c0 .387.125.774.438 1.032.25.323.626.452 1.064.452h4.255c.813 0 1.502-.645 1.502-1.484zM203.021 47.574c.251-3.356 2.879-6.97 7.447-6.97 5.006 0 7.383 3.291 7.509 6.97zm17.083 8.648a1.446 1.446 0 0 0-1.815.774c-1.126 2.453-3.316 4.26-7.133 4.26-4.505 0-8.135-3.42-8.322-8.196h20.962c.813 0 1.439-.646 1.502-1.42v-.968c0-9.939-5.507-16.328-14.893-16.328-7.697 0-14.83 6.583-14.83 16.521 0 10.649 7.321 16.845 15.581 16.845 6.633 0 11.201-3.679 13.203-8.455a1.26 1.26 0 0 0 0-1.161 1.5 1.5 0 0 0-.876-.775c-1.001-.323-2.378-.774-3.379-1.097M246.943 36.348c0-.775-.626-1.42-1.377-1.485h-.563c-4.005 0-7.384 2.001-8.823 5.422 0-2.776-2.253-5.034-5.006-5.034h-.563c-.438 0-.814.129-1.064.451-.313.258-.438.646-.438 1.033v28.461c0 .387.125.775.438 1.033.25.322.626.451 1.064.451h4.255c.813 0 1.502-.645 1.502-1.484V51.708c0-5.873 2.565-9.229 8.197-9.229h.813c.439.064.814-.129 1.127-.387.25-.259.438-.646.438-1.098zM248.693 68.126c-.751.258-1.251 1.032-1.063 1.807 1.439 5.679 6.82 10.068 14.267 10.068 11.451 0 15.643-7.809 15.643-16.199V36.825a1.49 1.49 0 0 0-1.502-1.484h-1.501c-1.064 0-2.065.451-2.816 1.161-.751.775-1.189 1.807-1.189 2.84-1.314-2.582-4.255-4.582-9.011-4.582-8.385 0-14.079 6.905-14.079 15.295 0 8.842 5.944 15.296 14.079 15.296 4.443 0 7.509-2.13 8.823-4.582v3.291c0 6.389-2.878 9.422-8.635 9.422-3.692 0-6.383-2.194-7.321-5.356-.251-.775-1.002-1.226-1.815-1.033-1.126.323-2.753.775-3.88 1.033m14.017-9.165c-4.756 0-7.947-3.42-7.947-8.906 0-5.356 3.317-8.841 7.947-8.841 4.505 0 7.822 3.485 7.822 8.841 0 5.421-3.191 8.906-7.822 8.906M291.311 79.423c.563 0 1.064-.322 1.314-.903 2.378-5.292 14.642-33.302 18.084-41.176.25-.451.188-.968-.063-1.419-.312-.388-.75-.646-1.251-.646h-4.443c-.626 0-1.126.388-1.376.904-1.627 3.937-7.822 18.974-7.822 18.974s-6.696-15.166-8.385-18.974c-.251-.581-.751-.904-1.314-.904h-4.944c-.5 0-.938.258-1.251.71-.25.387-.313.968-.063 1.42 3.004 6.454 12.015 25.557 12.015 25.557s-4.443 9.939-6.383 14.392c-.188.452-.188.968.125 1.42.25.387.688.645 1.189.645z" style="fill:#1f2d5d;fill-rule:nonzero"/><path d="M35.749 81.043a7.4 7.4 0 1 0 3.83-14.296 7.4 7.4 0 0 0-3.83 14.296M14.815 44.797a7.4 7.4 0 1 0 3.83-14.296 7.4 7.4 0 0 0-3.83 14.296" style="fill:#fff;fill-rule:nonzero"/><path d="M54.896 9.577c19.686 5.275 31.401 25.51 26.192 45.199l-.029.117a7.404 7.404 0 0 1-9.063 5.232 7.403 7.403 0 0 1-5.233-9.063l.017-.07c3.125-11.815-3.905-23.955-15.714-27.119l.044.012a7.405 7.405 0 0 0 9.019-5.245 7.404 7.404 0 0 0-5.188-9.051z" style="fill:#3c9"/><path d="M81.055 54.892c-5.275 19.685-25.51 31.4-45.199 26.192l-.117-.029a7.404 7.404 0 0 1-5.232-9.063 7.4 7.4 0 0 1 9.063-5.233l.07.016c11.815 3.125 23.955-3.904 27.119-15.714l-.012.045a7.405 7.405 0 0 0 5.245 9.018 7.404 7.404 0 0 0 9.051-5.188z" style="fill:#33b2cc"/><path d="M35.739 81.055c-19.685-5.275-31.4-25.51-26.192-45.199l.029-.117a7.404 7.404 0 0 1 9.063-5.232 7.4 7.4 0 0 1 5.233 9.063l-.016.07C20.73 51.455 27.76 63.595 39.57 66.759l-.045-.012a7.405 7.405 0 0 0-9.018 5.245 7.404 7.404 0 0 0 5.188 9.051z" style="fill:#87d639"/><path d="M9.576 35.739c5.275-19.685 25.51-31.4 45.199-26.192l.117.029a7.404 7.404 0 0 1 5.232 9.063 7.4 7.4 0 0 1-9.063 5.233l-.07-.016C39.176 20.73 27.036 27.76 23.872 39.57l.012-.045a7.405 7.405 0 0 0-5.245-9.018 7.404 7.404 0 0 0-9.051 5.188z" style="fill:#3b67d3"/></g></svg>