<svg xmlns="http://www.w3.org/2000/svg" xmlns:xlink="http://www.w3.org/1999/xlink" width="64" height="64" class="icon" viewBox="0 0 1024 1024"><defs><linearGradient id="a" x1="8.364" x2="8.364" y1="2.37" y2="14.902" gradientTransform="translate(2048.76 -2.53)scale(60.47363)" gradientUnits="userSpaceOnUse"><stop offset="0" stop-color="#20ef85"/><stop offset="1" stop-color="#12a97e"/></linearGradient><linearGradient xlink:href="#a" id="c" x1="8.364" x2="8.364" y1="2.37" y2="14.902" gradientTransform="translate(2048.76 -2.53)scale(60.47363)" gradientUnits="userSpaceOnUse"/><clipPath id="d" clipPathUnits="userSpaceOnUse"><rect width="896.038" height="896.038" x="86.451" y="60.967" fill="url(#a)" rx="208.029" ry="208.029" style="fill:url(#c);stroke-width:60.4736"/></clipPath></defs><path fill="#fff" d="M60.235 10.04h903.53q50.196 0 50.196 50.195v903.53q0 50.196-50.196 50.196H60.235q-50.196 0-50.196-50.196V60.235q0-50.196 50.196-50.196" clip-path="url(#d)" transform="translate(-22.47 3.014)"/><path fill="#00D6E1" d="M453.512 438.071 463.61 322.56a20.08 20.08 0 0 1 19.095-18.312l278.588-12.589a10.04 10.04 0 0 1 10.44 11.144l-36.723 330.27a20.08 20.08 0 0 1-21.685 17.79L593.74 640.501a20.08 20.08 0 0 1-18.11-23.17l19.958-124.326a20.08 20.08 0 0 0-17.93-23.17l-106.055-10.02a20.08 20.08 0 0 1-18.11-21.745z"/><path fill="#0175FF" fill-opacity=".8" d="m252.727 518.385 10.1-115.511a20.08 20.08 0 0 1 19.094-18.312l278.588-12.589a10.04 10.04 0 0 1 10.441 11.144l-36.723 330.27a20.08 20.08 0 0 1-21.685 17.79l-119.587-10.361a20.08 20.08 0 0 1-18.11-23.17l19.957-124.326a20.08 20.08 0 0 0-17.93-23.171l-106.054-10.02a20.08 20.08 0 0 1-18.11-21.744z"/></svg>