<?xml version="1.0" encoding="UTF-8" standalone="no"?>
<svg
   t="1715685833019"
   class="icon"
   viewBox="0 0 1024 1024"
   version="1.1"
   p-id="2453"
   width="64"
   height="64"
   id="svg3"
   sodipodi:docname="ToDesk.svg"
   inkscape:version="1.3.2 (091e20e, 2023-11-25)"
   xmlns:inkscape="http://www.inkscape.org/namespaces/inkscape"
   xmlns:sodipodi="http://sodipodi.sourceforge.net/DTD/sodipodi-0.dtd"
   xmlns:xlink="http://www.w3.org/1999/xlink"
   xmlns="http://www.w3.org/2000/svg"
   xmlns:svg="http://www.w3.org/2000/svg">
  <defs
     id="defs3">
    <linearGradient
       id="b"
       x1="8.3640003"
       x2="8.3640003"
       y1="2.3699999"
       y2="14.902"
       gradientTransform="matrix(60.473632,0,0,60.473632,2048.7599,-2.5304705)"
       gradientUnits="userSpaceOnUse">
      <stop
         offset="0"
         stop-color="#20ef85"
         id="stop7" />
      <stop
         offset="1"
         stop-color="#12a97e"
         id="stop8" />
    </linearGradient>
    <clipPath
       clipPathUnits="userSpaceOnUse"
       id="clipPath3">
      <rect
         width="896.03784"
         height="896.03784"
         x="86.451012"
         y="60.966839"
         fill="url(#b)"
         rx="208.0293"
         ry="208.0293"
         id="rect3"
         style="fill:url(#linearGradient3);stroke-width:60.4736" />
    </clipPath>
    <linearGradient
       inkscape:collect="always"
       xlink:href="#b"
       id="linearGradient3"
       gradientUnits="userSpaceOnUse"
       gradientTransform="matrix(60.473632,0,0,60.473632,2048.7598,-2.5304706)"
       x1="8.3640003"
       y1="2.3699999"
       x2="8.3640003"
       y2="14.902" />
  </defs>
  <sodipodi:namedview
     id="namedview3"
     pagecolor="#ffffff"
     bordercolor="#666666"
     borderopacity="1.0"
     inkscape:showpageshadow="2"
     inkscape:pageopacity="0.0"
     inkscape:pagecheckerboard="0"
     inkscape:deskcolor="#d1d1d1"
     inkscape:zoom="8.7584761"
     inkscape:cx="11.017898"
     inkscape:cy="33.910009"
     inkscape:window-width="1920"
     inkscape:window-height="1120"
     inkscape:window-x="0"
     inkscape:window-y="0"
     inkscape:window-maximized="1"
     inkscape:current-layer="svg3" />
  <path
     d="m 10.039216,10.039216 m 50.196078,0 H 963.76471 q 50.19609,0 50.19609,50.196078 V 963.76471 q 0,50.19609 -50.19609,50.19609 H 60.235294 q -50.196078,0 -50.196078,-50.19609 V 60.235294 q 0,-50.196078 50.196078,-50.196078 z"
     fill="#ffffff"
     p-id="2454"
     id="path1"
     clip-path="url(#clipPath3)"
     transform="translate(-22.469933,3.0142403)" />
  <path
     d="M453.511529 438.071216l10.099451-115.511216a20.078431 20.078431 0 0 1 19.094589-18.311529l278.588235-12.589177a10.039216 10.039216 0 0 1 10.440784 11.14353L735.011137 633.072941a20.078431 20.078431 0 0 1-21.684706 17.78949l-119.587137-10.36047a20.078431 20.078431 0 0 1-18.110745-23.17051l19.957961-124.325647a20.078431 20.078431 0 0 0-17.930039-23.17051l-106.054275-10.019137a20.078431 20.078431 0 0 1-18.110745-21.744941z"
     fill="#00D6E1"
     p-id="2455"
     id="path2" />
  <path
     d="M252.727216 518.384941l10.099451-115.511216a20.078431 20.078431 0 0 1 19.094588-18.311529l278.588235-12.589176a10.039216 10.039216 0 0 1 10.440785 11.143529L534.226824 713.386667a20.078431 20.078431 0 0 1-21.684706 17.78949l-119.587138-10.360471a20.078431 20.078431 0 0 1-18.110745-23.17051l19.957961-124.325647a20.078431 20.078431 0 0 0-17.930039-23.170509l-106.054275-10.019138a20.078431 20.078431 0 0 1-18.110745-21.744941z"
     fill="#0175FF"
     fill-opacity=".8"
     p-id="2456"
     id="path3" />
</svg>
