<?xml version="1.0" encoding="UTF-8" standalone="no"?>
<svg
   t="1716014475914"
   class="icon"
   viewBox="0 0 1024 1024"
   version="1.1"
   p-id="2611"
   width="64"
   height="64"
   id="svg3"
   xmlns:xlink="http://www.w3.org/1999/xlink"
   xmlns="http://www.w3.org/2000/svg"
   xmlns:svg="http://www.w3.org/2000/svg">
  <defs
     id="defs3">
    <clipPath
       clipPathUnits="userSpaceOnUse"
       id="clipPath6">
      <rect
         width="896.03784"
         height="896.03784"
         x="443.30988"
         y="481.9024"
         fill="url(#b)"
         rx="208.0293"
         ry="208.0293"
         id="rect6"
         style="fill:url(#linearGradient6);stroke-width:60.4736" />
    </clipPath>
    <linearGradient
       xlink:href="#b"
       id="linearGradient6"
       gradientUnits="userSpaceOnUse"
       gradientTransform="matrix(60.473632,0,0,60.473632,2405.6187,418.4051)"
       x1="8.3640003"
       y1="2.3699999"
       x2="8.3640003"
       y2="14.902" />
    <linearGradient
       id="b"
       x1="8.3640003"
       x2="8.3640003"
       y1="2.3699999"
       y2="14.902"
       gradientTransform="matrix(60.473632,0,0,60.473632,2405.6188,418.4051)"
       gradientUnits="userSpaceOnUse">
      <stop
         offset="0"
         stop-color="#20ef85"
         id="stop7" />
      <stop
         offset="1"
         stop-color="#12a97e"
         id="stop8" />
    </linearGradient>
  </defs>
  <path
     d="m 818.96,611.187 a 20.078,20.078 0 0 0 -20.883,19.276 19.516,19.516 0 0 0 18.473,21.444 20.078,20.078 0 0 0 22.006,-18.03 20.68,20.68 0 0 0 -19.597,-22.69 z m -108.906,0 a 20.078,20.078 0 0 0 -20.079,22.207 19.556,19.556 0 0 0 21.404,18.472 20.078,20.078 0 0 0 19.275,-20.921 20.922,20.922 0 0 0 -20.6,-19.758 z"
     fill="#4496d3"
     p-id="2614"
     id="path3" />
  <rect
     style="fill:#30acfe;fill-opacity:1;stroke:none;stroke-width:60.4725"
     id="rect1"
     width="1119.4849"
     height="1059.7039"
     x="331.58636"
     y="400.0694"
     clip-path="url(#clipPath6)"
     transform="translate(-379.32879,-417.92133)" />
  <g
     id="layer1">
    <path
       d="m 601.85756,798.704 c -42.40333,-2.4e-4 -77.04612,29.21684 -88.57319,73.32936 C 501.7573,827.92085 481.1409,798.70376 438.73758,798.704 H 68.959368 c 11.505852,49.89288 37.756012,92.81786 81.826292,123.0122 26.17129,17.93101 60.27234,33.38598 101.69018,38.0758 h 505.61132 c 41.24424,1.80363 89.0518,-16.93701 125.99358,-46.82753 36.89681,-29.85415 62.94805,-70.23543 71.01938,-114.26047 z M 831.34247,674.42147 c -39.66332,42.41391 -87.95858,52.74758 -140.17802,33.81532 -17.19271,-6.24705 -31.31745,-7.7123 -46.36951,3.08417 -3.2561,1.50174 -6.62005,2.71401 -10.0584,3.62475 13.73214,-25.79575 3.56627,-41.9127 -8.02611,-60.1901 -25.75264,-40.60202 -20.50938,-92.88776 10.13035,-130.63607 49.93667,-61.69379 148.09665,-61.69379 198.17633,0 36.38218,44.80481 35.59697,108.15685 -3.67464,150.30096 z"
       fill="#ffffff"
       p-id="2613"
       id="path2"
       style="fill:#ffffff;fill-opacity:1;stroke-width:0.923518" />
    <circle
       style="fill:#30acfe;fill-opacity:1;stroke-width:0.673217"
       id="path4"
       cx="690.97021"
       cy="569.90826"
       r="16" />
    <circle
       style="fill:#30acfe;fill-opacity:1;stroke-width:0.673217"
       id="path4-3"
       cx="785.30774"
       cy="569.90826"
       r="16" />
  </g>
</svg>
