<svg xmlns="http://www.w3.org/2000/svg" xmlns:xlink="http://www.w3.org/1999/xlink" width="64" height="64" class="icon" viewBox="0 0 1024 1024"><defs><linearGradient xlink:href="#a" id="c" x1="8.364" x2="8.364" y1="2.37" y2="14.902" gradientTransform="translate(2405.619 418.405)scale(60.47363)" gradientUnits="userSpaceOnUse"/><linearGradient id="a" x1="8.364" x2="8.364" y1="2.37" y2="14.902" gradientTransform="translate(2405.619 418.405)scale(60.47363)" gradientUnits="userSpaceOnUse"><stop offset="0" stop-color="#20ef85"/><stop offset="1" stop-color="#12a97e"/></linearGradient><clipPath id="d" clipPathUnits="userSpaceOnUse"><rect width="896.038" height="896.038" x="443.31" y="481.902" fill="url(#a)" rx="208.029" ry="208.029" style="fill:url(#c);stroke-width:60.4736"/></clipPath></defs><path fill="#4496d3" d="M818.96 611.187a20.08 20.08 0 0 0-20.883 19.276 19.516 19.516 0 0 0 18.473 21.444 20.08 20.08 0 0 0 22.006-18.03 20.68 20.68 0 0 0-19.597-22.69zm-108.906 0a20.078 20.078 0 0 0-20.079 22.207 19.556 19.556 0 0 0 21.404 18.472 20.08 20.08 0 0 0 19.275-20.921 20.92 20.92 0 0 0-20.6-19.758"/><path d="M331.586 400.069h1119.485v1059.704H331.586z" clip-path="url(#d)" style="fill:#30acfe;fill-opacity:1;stroke:none;stroke-width:60.4725" transform="translate(-379.329 -417.921)"/><path fill="#fff" d="M601.858 798.704c-42.404 0-77.047 29.217-88.574 73.33-11.527-44.113-32.143-73.33-74.546-73.33H68.959c11.506 49.893 37.756 92.818 81.827 123.012 26.17 17.931 60.272 33.386 101.69 38.076h505.611c41.244 1.804 89.052-16.937 125.994-46.828 36.897-29.854 62.948-70.235 71.02-114.26zm229.484-124.283c-39.663 42.414-87.958 52.748-140.178 33.816-17.192-6.247-31.317-7.713-46.37 3.084a62 62 0 0 1-10.057 3.625c13.732-25.796 3.566-41.913-8.027-60.19-25.752-40.602-20.509-92.888 10.13-130.636 49.937-61.694 148.097-61.694 198.177 0 36.382 44.804 35.597 108.156-3.675 150.3z" style="fill:#fff;fill-opacity:1;stroke-width:.923518"/><circle cx="690.97" cy="569.908" r="16" style="fill:#30acfe;fill-opacity:1;stroke-width:.673217"/><circle cx="785.308" cy="569.908" r="16" style="fill:#30acfe;fill-opacity:1;stroke-width:.673217"/></svg>