<svg
   width="64"
   height="64"
   version="1.1"
   id="svg17"
   xmlns="http://www.w3.org/2000/svg"
   xmlns:svg="http://www.w3.org/2000/svg">
  <defs
     id="defs17" />
  <image
     width="60.882"
     height="62.000999"
     x="1.559"
     y="2"
     preserveAspectRatio="none"
     id="image1" />
  <rect
     width="56.001999"
     height="56.001999"
     x="4"
     y="3.9690001"
     fill="#f2f2f2"
     rx="13.002"
     ry="13.002"
     style="fill:#b7e6b8;fill-opacity:1"
     id="rect1" />
  <path
     d="m 3.998,45.998 v 1 c 0,7.203 5.8,13.004 13.004,13.004 h 29.996 c 7.203,0 13.004,-5.8 13.004,-13.004 v -1 C 60.002,53.201 54.202,59 46.998,59 H 17.002 A 12.975,12.975 0 0 1 3.998,45.998"
     opacity="0.1"
     id="path1" />
  <path
     fill="#ffffff"
     d="m 3.998,18.004 v -1 C 3.998,9.801 9.798,4 17.002,4 h 29.996 c 7.203,0 13.004,5.8 13.004,13.004 v 1 c 0,-7.203 -5.8,-13.002 -13.004,-13.002 H 17.002 A 12.975,12.975 0 0 0 3.998,18.004"
     opacity="0.5"
     id="path2" />
  <g
     transform="matrix(0.68920507,0,0,0.68920507,6.4994124,18.513641)"
     id="g17">
    <path
       style="opacity:0.2"
       d="M 65.275,37 H 8.725 C 8.3245508,37 8,37.335742 8,37.749996 v 3.250062 C 8,43.20915 9.731164,45 11.866516,45 c 0,0 0,0 50.266854,0 C 64.268836,45 66,43.20915 66,41.000058 V 37.749996 C 66,37.335742 65.67545,37 65.275,37 Z"
       id="path3" />
    <path
       style="fill:#95a4b3"
       d="m 60.142712,6 c 2.130182,0 3.857062,1.705378 3.857062,3.808922 L 64,37.999888 H 10 L 10.000113,9.808922 C 10.000113,7.705266 11.726994,6 13.857175,6 Z"
       id="path4" />
    <path
       style="opacity:0.2;fill:#ffffff"
       d="M 13.855469,6 C 11.725287,6 10,7.704938 10,9.808594 v 1 C 10,8.704938 11.725287,7 13.855469,7 H 60.144531 C 62.274713,7 64,8.70505 64,10.808594 v -1 C 64,7.70505 62.274713,6 60.144531,6 Z"
       id="path5" />
    <path
       style="fill:#1e81e9"
       d="M 60,38 V 11.891688 C 60,10.84692 59.141894,10 58.083324,10 H 15.916678 C 14.858108,10 14,10.84692 14,11.891688 V 38 Z"
       id="path6" />
    <circle
       style="opacity:0.2"
       cx="37"
       cy="12"
       r="19"
       id="circle6" />
    <path
       style="fill:#adc1ce"
       d="M 65.275,36 H 8.725 C 8.3245508,36 8,36.335742 8,36.749996 v 3.250062 C 8,42.20915 9.731164,44 11.866516,44 c 0,0 0,0 50.266854,0 C 64.268836,44 66,42.20915 66,40.000058 V 36.749996 C 66,36.335742 65.67545,36 65.275,36 Z"
       id="path7" />
    <path
       style="fill:#6a91ac"
       d="M 57.475554,40 H 50.524446 C 49.132452,40 48,41.06278 48,42.369134 V 44 h 1.333334 v -1.630866 c 0,-0.492116 0.666734,-1.0358 1.191112,-1.0358 h 6.951108 c 0.524378,0 1.191112,0.543684 1.191112,1.0358 V 44 H 60 V 42.369134 C 60,41.06278 58.867548,40 57.475554,40 Z"
       id="path8" />
    <path
       style="fill:#6a91ac"
       d="m 42.255468,36 -0.571554,1.847354 c -0.12314,0.39798 -0.563984,0.819314 -1.07178,0.819314 h -7.221408 c -0.507916,0 -0.948646,-0.421234 -1.07178,-0.819314 L 31.747274,36 H 30 l 0.68558,2.205492 C 31.012638,39.262034 32.1826,40 33.530694,40 h 6.941334 c 1.348092,0 2.51817,-0.737966 2.84511,-1.794508 L 44,36 Z"
       id="path9" />
    <path
       style="fill:#35495e"
       d="M 12.699955,41 C 12.313285,41 12,41.418544 12,41.93486 V 44 h 1.4 V 41.93486 C 13.399909,41.418544 13.086624,41 12.699955,41 Z"
       id="path10" />
    <circle
       style="fill:#1cd678"
       cx="37"
       cy="11"
       r="19"
       id="circle10" />
    <path
       style="opacity:0.2"
       d="m 37,1.009194 c -5.857212,0 -11.115504,2.558359 -14.722656,6.617187 -0.394112,0.443474 -0.362495,1.117656 0.07031,1.523438 l 1.59375,1.5 c 0.45373,0.425268 1.166448,0.380116 1.578126,-0.08594 2.80636,-3.176242 6.90868,-5.179686 11.480468,-5.179688 4.571664,0 8.674112,2.003318 11.480468,5.179688 0.411808,0.466036 1.124526,0.51119 1.578126,0.08594 l 1.59375,-1.5 C 52.085174,8.744037 52.116792,8.069855 51.722662,7.626381 48.115504,3.567553 42.85721,1.009194 37,1.009194 Z m 0,8.019531 c -3.345476,0 -6.337286,1.500974 -8.34375,3.867188 -0.379114,0.447066 -0.345542,1.110808 0.08204,1.511718 l 1.597656,1.5 c 0.464884,0.435786 1.19213,0.378266 1.597656,-0.11328 1.203622,-1.4594 3.026864,-2.390624 5.066406,-2.390624 2.039416,0 3.862656,0.931224 5.066406,2.390624 0.405522,0.491552 1.132772,0.549194 1.597656,0.11328 l 1.601562,-1.5 c 0.427578,-0.40091 0.45722,-1.064524 0.07812,-1.511718 C 43.33728,10.529699 40.345478,9.028725 37,9.028725 Z m 0.03516,7.972656 a 3,3 0 0 0 -3.023438,2.75 A 3,3 0 0 0 36.75,22.989663 3,3 0 0 0 39.988282,20.251381 3,3 0 0 0 37.25,17.013099 3,3 0 0 0 37.035156,17.001381 Z"
       id="path11" />
    <circle
       style="fill:#f5f5f5"
       cx="-15.86445"
       cy="38.448284"
       r="3"
       transform="rotate(-85.241111)"
       id="circle11" />
    <path
       style="fill:#f5f5f5"
       d="m 23.942482,9.64681 c 0.45373,0.425268 1.164646,0.382574 1.576324,-0.08348 2.80636,-3.176242 6.90955,-5.17976 11.481338,-5.17976 4.571664,0 8.674982,2.00339 11.481338,5.17976 0.411808,0.466036 1.122724,0.508732 1.576324,0.08348 l 1.59607,-1.496452 C 52.086708,7.744576 52.117734,7.067382 51.723596,6.623908 48.116444,2.56508 42.8572,0.007318 36.99999,0.007318 c -5.857212,0 -11.116454,2.557762 -14.723606,6.61659 -0.394111,0.443474 -0.363087,1.120668 0.06972,1.52645 z"
       id="path12" />
    <path
       style="fill:#f5f5f5"
       d="m 30.334578,14.905972 c 0.464884,0.435786 1.195418,0.378088 1.600944,-0.11346 1.203622,-1.4594 3.02508,-2.389938 5.064622,-2.389938 2.039416,0 3.860876,0.930538 5.064626,2.389938 0.405522,0.491552 1.136058,0.549372 1.600942,0.11346 l 1.59799,-1.498114 c 0.427578,-0.40091 0.460654,-1.065288 0.08156,-1.512482 -2.00647,-2.366214 -4.999626,-3.869078 -8.345104,-3.869078 -3.345476,0 -6.338636,1.502864 -8.3451,3.869078 -0.379114,0.447066 -0.346034,1.111572 0.08154,1.512482 z"
       id="path13" />
    <path
       style="fill:#35495e"
       d="M 15.699955,41 C 15.313285,41 15,41.418544 15,41.93486 V 44 h 1.4 V 41.93486 C 16.399909,41.418544 16.086624,41 15.699955,41 Z"
       id="path14" />
    <path
       style="fill:#35495e"
       d="M 18.699955,41 C 18.313285,41 18,41.418544 18,41.93486 V 44 h 1.4 V 41.93486 C 19.399909,41.418544 19.086624,41 18.699955,41 Z"
       id="path15" />
    <path
       style="opacity:0.2;fill:#ffffff"
       d="M 37,-8 A 19,19 0 0 0 18,11 19,19 0 0 0 18.017578,11.511719 19,19 0 0 1 37,-7 19,19 0 0 1 55.976562,11.517578 19,19 0 0 0 56,11 19,19 0 0 0 37,-8 Z"
       id="path16" />
    <path
       style="opacity:0.2;fill:#ffffff"
       d="M 8.7265625,36 C 8.3261135,36 8,36.335746 8,36.75 v 1 C 8,37.335746 8.3261135,37 8.7265625,37 H 65.273438 C 65.673887,37 66,37.335746 66,37.75 v -1 C 66,36.335746 65.673887,36 65.273438,36 Z"
       id="path17" />
  </g>
</svg>
